%TF.GenerationSoftware,KiCad,Pcbnew,(5.1.9)-1*%
%TF.CreationDate,2021-03-29T17:32:38-04:00*%
%TF.ProjectId,DSKY_keyboard,44534b59-5f6b-4657-9962-6f6172642e6b,2.0*%
%TF.SameCoordinates,Original*%
%TF.FileFunction,Legend,Top*%
%TF.FilePolarity,Positive*%
%FSLAX46Y46*%
G04 Gerber Fmt 4.6, Leading zero omitted, Abs format (unit mm)*
G04 Created by KiCad (PCBNEW (5.1.9)-1) date 2021-03-29 17:32:38*
%MOMM*%
%LPD*%
G01*
G04 APERTURE LIST*
%ADD10C,0.150000*%
%ADD11C,0.406400*%
%ADD12C,0.010000*%
%ADD13C,0.100000*%
%ADD14C,0.142240*%
G04 APERTURE END LIST*
D10*
X146679285Y-106146642D02*
X146679285Y-105246642D01*
X146893571Y-105246642D01*
X147022142Y-105289500D01*
X147107857Y-105375214D01*
X147150714Y-105460928D01*
X147193571Y-105632357D01*
X147193571Y-105760928D01*
X147150714Y-105932357D01*
X147107857Y-106018071D01*
X147022142Y-106103785D01*
X146893571Y-106146642D01*
X146679285Y-106146642D01*
X147536428Y-106103785D02*
X147665000Y-106146642D01*
X147879285Y-106146642D01*
X147965000Y-106103785D01*
X148007857Y-106060928D01*
X148050714Y-105975214D01*
X148050714Y-105889500D01*
X148007857Y-105803785D01*
X147965000Y-105760928D01*
X147879285Y-105718071D01*
X147707857Y-105675214D01*
X147622142Y-105632357D01*
X147579285Y-105589500D01*
X147536428Y-105503785D01*
X147536428Y-105418071D01*
X147579285Y-105332357D01*
X147622142Y-105289500D01*
X147707857Y-105246642D01*
X147922142Y-105246642D01*
X148050714Y-105289500D01*
X148436428Y-106146642D02*
X148436428Y-105246642D01*
X148950714Y-106146642D02*
X148565000Y-105632357D01*
X148950714Y-105246642D02*
X148436428Y-105760928D01*
X149507857Y-105718071D02*
X149507857Y-106146642D01*
X149207857Y-105246642D02*
X149507857Y-105718071D01*
X149807857Y-105246642D01*
X150793571Y-106146642D02*
X150793571Y-105246642D01*
X151307857Y-106146642D02*
X150922142Y-105632357D01*
X151307857Y-105246642D02*
X150793571Y-105760928D01*
X152036428Y-106103785D02*
X151950714Y-106146642D01*
X151779285Y-106146642D01*
X151693571Y-106103785D01*
X151650714Y-106018071D01*
X151650714Y-105675214D01*
X151693571Y-105589500D01*
X151779285Y-105546642D01*
X151950714Y-105546642D01*
X152036428Y-105589500D01*
X152079285Y-105675214D01*
X152079285Y-105760928D01*
X151650714Y-105846642D01*
X152379285Y-105546642D02*
X152593571Y-106146642D01*
X152807857Y-105546642D02*
X152593571Y-106146642D01*
X152507857Y-106360928D01*
X152465000Y-106403785D01*
X152379285Y-106446642D01*
X153150714Y-106146642D02*
X153150714Y-105246642D01*
X153150714Y-105589500D02*
X153236428Y-105546642D01*
X153407857Y-105546642D01*
X153493571Y-105589500D01*
X153536428Y-105632357D01*
X153579285Y-105718071D01*
X153579285Y-105975214D01*
X153536428Y-106060928D01*
X153493571Y-106103785D01*
X153407857Y-106146642D01*
X153236428Y-106146642D01*
X153150714Y-106103785D01*
X154093571Y-106146642D02*
X154007857Y-106103785D01*
X153965000Y-106060928D01*
X153922142Y-105975214D01*
X153922142Y-105718071D01*
X153965000Y-105632357D01*
X154007857Y-105589500D01*
X154093571Y-105546642D01*
X154222142Y-105546642D01*
X154307857Y-105589500D01*
X154350714Y-105632357D01*
X154393571Y-105718071D01*
X154393571Y-105975214D01*
X154350714Y-106060928D01*
X154307857Y-106103785D01*
X154222142Y-106146642D01*
X154093571Y-106146642D01*
X155165000Y-106146642D02*
X155165000Y-105675214D01*
X155122142Y-105589500D01*
X155036428Y-105546642D01*
X154865000Y-105546642D01*
X154779285Y-105589500D01*
X155165000Y-106103785D02*
X155079285Y-106146642D01*
X154865000Y-106146642D01*
X154779285Y-106103785D01*
X154736428Y-106018071D01*
X154736428Y-105932357D01*
X154779285Y-105846642D01*
X154865000Y-105803785D01*
X155079285Y-105803785D01*
X155165000Y-105760928D01*
X155593571Y-106146642D02*
X155593571Y-105546642D01*
X155593571Y-105718071D02*
X155636428Y-105632357D01*
X155679285Y-105589500D01*
X155765000Y-105546642D01*
X155850714Y-105546642D01*
X156536428Y-106146642D02*
X156536428Y-105246642D01*
X156536428Y-106103785D02*
X156450714Y-106146642D01*
X156279285Y-106146642D01*
X156193571Y-106103785D01*
X156150714Y-106060928D01*
X156107857Y-105975214D01*
X156107857Y-105718071D01*
X156150714Y-105632357D01*
X156193571Y-105589500D01*
X156279285Y-105546642D01*
X156450714Y-105546642D01*
X156536428Y-105589500D01*
X157907857Y-106489500D02*
X157865000Y-106446642D01*
X157779285Y-106318071D01*
X157736428Y-106232357D01*
X157693571Y-106103785D01*
X157650714Y-105889500D01*
X157650714Y-105718071D01*
X157693571Y-105503785D01*
X157736428Y-105375214D01*
X157779285Y-105289500D01*
X157865000Y-105160928D01*
X157907857Y-105118071D01*
X158765000Y-106060928D02*
X158722142Y-106103785D01*
X158593571Y-106146642D01*
X158507857Y-106146642D01*
X158379285Y-106103785D01*
X158293571Y-106018071D01*
X158250714Y-105932357D01*
X158207857Y-105760928D01*
X158207857Y-105632357D01*
X158250714Y-105460928D01*
X158293571Y-105375214D01*
X158379285Y-105289500D01*
X158507857Y-105246642D01*
X158593571Y-105246642D01*
X158722142Y-105289500D01*
X158765000Y-105332357D01*
X159150714Y-106146642D02*
X159150714Y-105246642D01*
X159536428Y-106146642D02*
X159536428Y-105675214D01*
X159493571Y-105589500D01*
X159407857Y-105546642D01*
X159279285Y-105546642D01*
X159193571Y-105589500D01*
X159150714Y-105632357D01*
X160307857Y-106103785D02*
X160222142Y-106146642D01*
X160050714Y-106146642D01*
X159965000Y-106103785D01*
X159922142Y-106018071D01*
X159922142Y-105675214D01*
X159965000Y-105589500D01*
X160050714Y-105546642D01*
X160222142Y-105546642D01*
X160307857Y-105589500D01*
X160350714Y-105675214D01*
X160350714Y-105760928D01*
X159922142Y-105846642D01*
X160736428Y-106146642D02*
X160736428Y-105546642D01*
X160736428Y-105718071D02*
X160779285Y-105632357D01*
X160822142Y-105589500D01*
X160907857Y-105546642D01*
X160993571Y-105546642D01*
X161293571Y-106146642D02*
X161293571Y-105546642D01*
X161293571Y-105718071D02*
X161336428Y-105632357D01*
X161379285Y-105589500D01*
X161465000Y-105546642D01*
X161550714Y-105546642D01*
X161765000Y-105546642D02*
X161979285Y-106146642D01*
X162193571Y-105546642D02*
X161979285Y-106146642D01*
X161893571Y-106360928D01*
X161850714Y-106403785D01*
X161765000Y-106446642D01*
X163222142Y-106146642D02*
X163222142Y-105246642D01*
X163522142Y-105889500D01*
X163822142Y-105246642D01*
X163822142Y-106146642D01*
X164165000Y-105246642D02*
X164765000Y-106146642D01*
X164765000Y-105246642D02*
X164165000Y-106146642D01*
X165022142Y-106489500D02*
X165065000Y-106446642D01*
X165150714Y-106318071D01*
X165193571Y-106232357D01*
X165236428Y-106103785D01*
X165279285Y-105889500D01*
X165279285Y-105718071D01*
X165236428Y-105503785D01*
X165193571Y-105375214D01*
X165150714Y-105289500D01*
X165065000Y-105160928D01*
X165022142Y-105118071D01*
X166265000Y-105246642D02*
X166565000Y-106146642D01*
X166865000Y-105246642D01*
X167122142Y-105332357D02*
X167165000Y-105289500D01*
X167250714Y-105246642D01*
X167465000Y-105246642D01*
X167550714Y-105289500D01*
X167593571Y-105332357D01*
X167636428Y-105418071D01*
X167636428Y-105503785D01*
X167593571Y-105632357D01*
X167079285Y-106146642D01*
X167636428Y-106146642D01*
X146679285Y-107646642D02*
X146679285Y-106746642D01*
X146893571Y-106746642D01*
X147022142Y-106789500D01*
X147107857Y-106875214D01*
X147150714Y-106960928D01*
X147193571Y-107132357D01*
X147193571Y-107260928D01*
X147150714Y-107432357D01*
X147107857Y-107518071D01*
X147022142Y-107603785D01*
X146893571Y-107646642D01*
X146679285Y-107646642D01*
X147922142Y-107603785D02*
X147836428Y-107646642D01*
X147665000Y-107646642D01*
X147579285Y-107603785D01*
X147536428Y-107518071D01*
X147536428Y-107175214D01*
X147579285Y-107089500D01*
X147665000Y-107046642D01*
X147836428Y-107046642D01*
X147922142Y-107089500D01*
X147965000Y-107175214D01*
X147965000Y-107260928D01*
X147536428Y-107346642D01*
X148307857Y-107603785D02*
X148393571Y-107646642D01*
X148565000Y-107646642D01*
X148650714Y-107603785D01*
X148693571Y-107518071D01*
X148693571Y-107475214D01*
X148650714Y-107389500D01*
X148565000Y-107346642D01*
X148436428Y-107346642D01*
X148350714Y-107303785D01*
X148307857Y-107218071D01*
X148307857Y-107175214D01*
X148350714Y-107089500D01*
X148436428Y-107046642D01*
X148565000Y-107046642D01*
X148650714Y-107089500D01*
X149079285Y-107646642D02*
X149079285Y-107046642D01*
X149079285Y-106746642D02*
X149036428Y-106789500D01*
X149079285Y-106832357D01*
X149122142Y-106789500D01*
X149079285Y-106746642D01*
X149079285Y-106832357D01*
X149893571Y-107046642D02*
X149893571Y-107775214D01*
X149850714Y-107860928D01*
X149807857Y-107903785D01*
X149722142Y-107946642D01*
X149593571Y-107946642D01*
X149507857Y-107903785D01*
X149893571Y-107603785D02*
X149807857Y-107646642D01*
X149636428Y-107646642D01*
X149550714Y-107603785D01*
X149507857Y-107560928D01*
X149465000Y-107475214D01*
X149465000Y-107218071D01*
X149507857Y-107132357D01*
X149550714Y-107089500D01*
X149636428Y-107046642D01*
X149807857Y-107046642D01*
X149893571Y-107089500D01*
X150322142Y-107046642D02*
X150322142Y-107646642D01*
X150322142Y-107132357D02*
X150365000Y-107089500D01*
X150450714Y-107046642D01*
X150579285Y-107046642D01*
X150665000Y-107089500D01*
X150707857Y-107175214D01*
X150707857Y-107646642D01*
X151479285Y-107603785D02*
X151393571Y-107646642D01*
X151222142Y-107646642D01*
X151136428Y-107603785D01*
X151093571Y-107518071D01*
X151093571Y-107175214D01*
X151136428Y-107089500D01*
X151222142Y-107046642D01*
X151393571Y-107046642D01*
X151479285Y-107089500D01*
X151522142Y-107175214D01*
X151522142Y-107260928D01*
X151093571Y-107346642D01*
X152293571Y-107646642D02*
X152293571Y-106746642D01*
X152293571Y-107603785D02*
X152207857Y-107646642D01*
X152036428Y-107646642D01*
X151950714Y-107603785D01*
X151907857Y-107560928D01*
X151865000Y-107475214D01*
X151865000Y-107218071D01*
X151907857Y-107132357D01*
X151950714Y-107089500D01*
X152036428Y-107046642D01*
X152207857Y-107046642D01*
X152293571Y-107089500D01*
X153407857Y-107646642D02*
X153407857Y-106746642D01*
X153407857Y-107089500D02*
X153493571Y-107046642D01*
X153665000Y-107046642D01*
X153750714Y-107089500D01*
X153793571Y-107132357D01*
X153836428Y-107218071D01*
X153836428Y-107475214D01*
X153793571Y-107560928D01*
X153750714Y-107603785D01*
X153665000Y-107646642D01*
X153493571Y-107646642D01*
X153407857Y-107603785D01*
X154136428Y-107046642D02*
X154350714Y-107646642D01*
X154565000Y-107046642D02*
X154350714Y-107646642D01*
X154265000Y-107860928D01*
X154222142Y-107903785D01*
X154136428Y-107946642D01*
X155465000Y-106746642D02*
X155765000Y-107646642D01*
X156065000Y-106746642D01*
X156493571Y-107646642D02*
X156407857Y-107603785D01*
X156365000Y-107518071D01*
X156365000Y-106746642D01*
X157222142Y-107646642D02*
X157222142Y-107175214D01*
X157179285Y-107089500D01*
X157093571Y-107046642D01*
X156922142Y-107046642D01*
X156836428Y-107089500D01*
X157222142Y-107603785D02*
X157136428Y-107646642D01*
X156922142Y-107646642D01*
X156836428Y-107603785D01*
X156793571Y-107518071D01*
X156793571Y-107432357D01*
X156836428Y-107346642D01*
X156922142Y-107303785D01*
X157136428Y-107303785D01*
X157222142Y-107260928D01*
X158036428Y-107646642D02*
X158036428Y-106746642D01*
X158036428Y-107603785D02*
X157950714Y-107646642D01*
X157779285Y-107646642D01*
X157693571Y-107603785D01*
X157650714Y-107560928D01*
X157607857Y-107475214D01*
X157607857Y-107218071D01*
X157650714Y-107132357D01*
X157693571Y-107089500D01*
X157779285Y-107046642D01*
X157950714Y-107046642D01*
X158036428Y-107089500D01*
X159150714Y-107646642D02*
X159150714Y-106746642D01*
X159450714Y-107389500D01*
X159750714Y-106746642D01*
X159750714Y-107646642D01*
X160179285Y-107646642D02*
X160179285Y-107046642D01*
X160179285Y-106746642D02*
X160136428Y-106789500D01*
X160179285Y-106832357D01*
X160222142Y-106789500D01*
X160179285Y-106746642D01*
X160179285Y-106832357D01*
X160607857Y-107646642D02*
X160607857Y-106746642D01*
X160993571Y-107646642D02*
X160993571Y-107175214D01*
X160950714Y-107089500D01*
X160865000Y-107046642D01*
X160736428Y-107046642D01*
X160650714Y-107089500D01*
X160607857Y-107132357D01*
X161807857Y-107646642D02*
X161807857Y-107175214D01*
X161765000Y-107089500D01*
X161679285Y-107046642D01*
X161507857Y-107046642D01*
X161422142Y-107089500D01*
X161807857Y-107603785D02*
X161722142Y-107646642D01*
X161507857Y-107646642D01*
X161422142Y-107603785D01*
X161379285Y-107518071D01*
X161379285Y-107432357D01*
X161422142Y-107346642D01*
X161507857Y-107303785D01*
X161722142Y-107303785D01*
X161807857Y-107260928D01*
X162236428Y-107646642D02*
X162236428Y-107046642D01*
X162236428Y-106746642D02*
X162193571Y-106789500D01*
X162236428Y-106832357D01*
X162279285Y-106789500D01*
X162236428Y-106746642D01*
X162236428Y-106832357D01*
X162793571Y-107646642D02*
X162707857Y-107603785D01*
X162665000Y-107518071D01*
X162665000Y-106746642D01*
X163479285Y-107603785D02*
X163393571Y-107646642D01*
X163222142Y-107646642D01*
X163136428Y-107603785D01*
X163093571Y-107518071D01*
X163093571Y-107175214D01*
X163136428Y-107089500D01*
X163222142Y-107046642D01*
X163393571Y-107046642D01*
X163479285Y-107089500D01*
X163522142Y-107175214D01*
X163522142Y-107260928D01*
X163093571Y-107346642D01*
X163865000Y-107603785D02*
X163950714Y-107646642D01*
X164122142Y-107646642D01*
X164207857Y-107603785D01*
X164250714Y-107518071D01*
X164250714Y-107475214D01*
X164207857Y-107389500D01*
X164122142Y-107346642D01*
X163993571Y-107346642D01*
X163907857Y-107303785D01*
X163865000Y-107218071D01*
X163865000Y-107175214D01*
X163907857Y-107089500D01*
X163993571Y-107046642D01*
X164122142Y-107046642D01*
X164207857Y-107089500D01*
X165022142Y-107603785D02*
X164936428Y-107646642D01*
X164765000Y-107646642D01*
X164679285Y-107603785D01*
X164636428Y-107560928D01*
X164593571Y-107475214D01*
X164593571Y-107218071D01*
X164636428Y-107132357D01*
X164679285Y-107089500D01*
X164765000Y-107046642D01*
X164936428Y-107046642D01*
X165022142Y-107089500D01*
X165793571Y-107046642D02*
X165793571Y-107646642D01*
X165407857Y-107046642D02*
X165407857Y-107518071D01*
X165450714Y-107603785D01*
X165536428Y-107646642D01*
X165665000Y-107646642D01*
X165750714Y-107603785D01*
X165793571Y-107560928D01*
D11*
%TO.C,SW1*%
X63352500Y-72692000D02*
X63352500Y-88186000D01*
X63352500Y-88186000D02*
X78846500Y-88186000D01*
X78846500Y-88186000D02*
X78846500Y-72692000D01*
X78846500Y-72692000D02*
X63352500Y-72692000D01*
%TO.C,SW9*%
X88016300Y-84211000D02*
X88016300Y-99705000D01*
X88016300Y-99705000D02*
X103510300Y-99705000D01*
X103510300Y-99705000D02*
X103510300Y-84211000D01*
X103510300Y-84211000D02*
X88016300Y-84211000D01*
%TO.C,SW17*%
X137343900Y-108846000D02*
X137343900Y-124340000D01*
X137343900Y-124340000D02*
X152837900Y-124340000D01*
X152837900Y-124340000D02*
X152837900Y-108846000D01*
X152837900Y-108846000D02*
X137343900Y-108846000D01*
D12*
%TO.C,REF\u002A\u002A*%
G36*
X157556378Y-95093776D02*
G01*
X157662112Y-95094355D01*
X157738632Y-95095922D01*
X157790872Y-95098972D01*
X157823763Y-95103996D01*
X157842237Y-95111489D01*
X157851227Y-95121944D01*
X157855663Y-95135853D01*
X157856094Y-95137654D01*
X157862833Y-95170145D01*
X157875308Y-95234252D01*
X157892219Y-95323151D01*
X157912271Y-95430019D01*
X157934164Y-95548033D01*
X157934929Y-95552178D01*
X157956859Y-95667831D01*
X157977377Y-95770014D01*
X157995159Y-95852598D01*
X158008881Y-95909456D01*
X158017218Y-95934458D01*
X158017616Y-95934901D01*
X158042177Y-95947110D01*
X158092815Y-95967456D01*
X158158595Y-95991545D01*
X158158961Y-95991674D01*
X158241817Y-96022818D01*
X158339500Y-96062491D01*
X158431577Y-96102381D01*
X158435934Y-96104353D01*
X158585907Y-96172420D01*
X158917998Y-95945639D01*
X159019874Y-95876504D01*
X159112157Y-95814697D01*
X159189503Y-95763733D01*
X159246564Y-95727127D01*
X159277995Y-95708394D01*
X159280979Y-95707004D01*
X159303821Y-95713190D01*
X159346482Y-95743035D01*
X159410628Y-95797947D01*
X159497921Y-95879334D01*
X159587035Y-95965922D01*
X159672941Y-96051247D01*
X159749827Y-96129108D01*
X159813064Y-96194697D01*
X159858023Y-96243205D01*
X159880076Y-96269825D01*
X159880896Y-96271195D01*
X159883334Y-96289463D01*
X159874150Y-96319295D01*
X159851074Y-96364721D01*
X159811837Y-96429770D01*
X159754170Y-96518470D01*
X159677295Y-96632657D01*
X159609070Y-96733162D01*
X159548082Y-96823303D01*
X159497856Y-96897849D01*
X159461916Y-96951565D01*
X159443787Y-96979218D01*
X159442646Y-96981095D01*
X159444859Y-97007590D01*
X159461638Y-97059086D01*
X159489642Y-97125851D01*
X159499622Y-97147172D01*
X159543172Y-97242159D01*
X159589634Y-97349937D01*
X159627377Y-97443192D01*
X159654573Y-97512406D01*
X159676175Y-97565006D01*
X159688658Y-97592497D01*
X159690209Y-97594616D01*
X159713168Y-97598124D01*
X159767286Y-97607738D01*
X159845368Y-97622089D01*
X159940219Y-97639807D01*
X160044643Y-97659525D01*
X160151444Y-97679874D01*
X160253426Y-97699486D01*
X160343394Y-97716991D01*
X160414153Y-97731022D01*
X160458506Y-97740209D01*
X160469385Y-97742807D01*
X160480622Y-97749218D01*
X160489105Y-97763697D01*
X160495214Y-97791133D01*
X160499332Y-97836411D01*
X160501841Y-97904420D01*
X160503121Y-98000047D01*
X160503554Y-98128180D01*
X160503577Y-98180701D01*
X160503577Y-98607845D01*
X160401000Y-98628091D01*
X160343931Y-98639070D01*
X160258769Y-98655095D01*
X160155872Y-98674233D01*
X160045596Y-98694551D01*
X160015115Y-98700132D01*
X159913355Y-98719917D01*
X159824705Y-98739373D01*
X159756608Y-98756697D01*
X159716504Y-98770088D01*
X159709823Y-98774079D01*
X159693419Y-98802342D01*
X159669899Y-98857109D01*
X159643816Y-98927588D01*
X159638642Y-98942769D01*
X159604456Y-99036896D01*
X159562023Y-99143101D01*
X159520497Y-99238473D01*
X159520292Y-99238916D01*
X159451140Y-99388525D01*
X159906012Y-100057617D01*
X159614000Y-100350116D01*
X159525680Y-100437170D01*
X159445125Y-100513909D01*
X159376860Y-100576237D01*
X159325408Y-100620056D01*
X159295294Y-100641270D01*
X159290974Y-100642616D01*
X159265611Y-100632016D01*
X159213858Y-100602547D01*
X159141368Y-100557705D01*
X159053794Y-100500984D01*
X158959112Y-100437462D01*
X158863016Y-100372668D01*
X158777337Y-100316287D01*
X158707516Y-100271788D01*
X158658994Y-100242639D01*
X158637282Y-100232308D01*
X158610793Y-100241050D01*
X158560562Y-100264087D01*
X158496951Y-100296631D01*
X158490208Y-100300249D01*
X158404546Y-100343210D01*
X158345806Y-100364279D01*
X158309272Y-100364503D01*
X158290231Y-100344928D01*
X158290120Y-100344654D01*
X158280602Y-100321472D01*
X158257903Y-100266441D01*
X158223782Y-100183822D01*
X158180000Y-100077872D01*
X158128316Y-99952852D01*
X158070492Y-99813020D01*
X158014491Y-99677637D01*
X157952947Y-99528234D01*
X157896439Y-99389832D01*
X157846661Y-99266673D01*
X157805306Y-99163002D01*
X157774068Y-99083059D01*
X157754641Y-99031088D01*
X157748654Y-99011692D01*
X157763668Y-98989443D01*
X157802939Y-98953982D01*
X157855307Y-98914887D01*
X158004441Y-98791245D01*
X158121011Y-98649522D01*
X158203618Y-98492704D01*
X158250866Y-98323775D01*
X158261357Y-98145722D01*
X158253731Y-98063539D01*
X158212182Y-97893031D01*
X158140623Y-97742459D01*
X158043495Y-97613309D01*
X157925234Y-97507064D01*
X157790280Y-97425210D01*
X157643071Y-97369232D01*
X157488044Y-97340615D01*
X157329639Y-97340844D01*
X157172294Y-97371405D01*
X157020446Y-97433782D01*
X156878535Y-97529460D01*
X156819303Y-97583572D01*
X156705703Y-97722520D01*
X156626606Y-97874361D01*
X156581486Y-98034667D01*
X156569816Y-98199012D01*
X156591069Y-98362971D01*
X156644720Y-98522118D01*
X156730240Y-98672025D01*
X156847105Y-98808267D01*
X156977693Y-98914887D01*
X157032088Y-98955642D01*
X157070514Y-98990718D01*
X157084346Y-99011726D01*
X157077103Y-99034635D01*
X157056505Y-99089365D01*
X157024246Y-99171672D01*
X156982021Y-99277315D01*
X156931523Y-99402050D01*
X156874448Y-99541636D01*
X156818354Y-99677670D01*
X156756467Y-99827201D01*
X156699144Y-99965767D01*
X156648144Y-100089107D01*
X156605227Y-100192964D01*
X156572153Y-100273080D01*
X156550681Y-100325195D01*
X156542725Y-100344654D01*
X156523929Y-100364423D01*
X156487574Y-100364365D01*
X156428979Y-100343441D01*
X156343468Y-100300613D01*
X156342792Y-100300249D01*
X156278407Y-100267012D01*
X156226361Y-100242802D01*
X156197012Y-100232404D01*
X156195717Y-100232308D01*
X156173624Y-100242855D01*
X156124848Y-100272184D01*
X156054831Y-100316827D01*
X155969014Y-100373314D01*
X155873888Y-100437462D01*
X155777040Y-100502411D01*
X155689753Y-100558896D01*
X155617681Y-100603421D01*
X155566477Y-100632490D01*
X155542026Y-100642616D01*
X155519510Y-100629307D01*
X155474242Y-100592112D01*
X155410744Y-100535128D01*
X155333539Y-100462449D01*
X155247151Y-100378171D01*
X155218899Y-100350016D01*
X154926787Y-100057416D01*
X155149131Y-99731104D01*
X155216702Y-99630897D01*
X155276007Y-99540963D01*
X155323717Y-99466510D01*
X155356507Y-99412751D01*
X155371048Y-99384894D01*
X155371474Y-99382912D01*
X155363808Y-99356655D01*
X155343189Y-99303837D01*
X155313185Y-99233310D01*
X155292125Y-99186093D01*
X155252748Y-99095694D01*
X155215665Y-99004366D01*
X155186915Y-98927200D01*
X155179105Y-98903692D01*
X155156917Y-98840916D01*
X155135227Y-98792411D01*
X155123313Y-98774079D01*
X155097023Y-98762859D01*
X155039642Y-98746954D01*
X154958618Y-98728167D01*
X154861395Y-98708299D01*
X154817885Y-98700132D01*
X154707396Y-98679829D01*
X154601416Y-98660170D01*
X154510301Y-98643088D01*
X154444408Y-98630518D01*
X154432000Y-98628091D01*
X154329423Y-98607845D01*
X154329423Y-98180701D01*
X154329653Y-98040246D01*
X154330599Y-97933979D01*
X154332641Y-97857013D01*
X154336162Y-97804460D01*
X154341543Y-97771433D01*
X154349166Y-97753045D01*
X154359412Y-97744408D01*
X154363615Y-97742807D01*
X154388970Y-97737127D01*
X154444984Y-97725795D01*
X154524464Y-97710179D01*
X154620212Y-97691647D01*
X154725033Y-97671569D01*
X154831732Y-97651312D01*
X154933113Y-97632246D01*
X155021979Y-97615739D01*
X155091137Y-97603159D01*
X155133389Y-97595875D01*
X155142790Y-97594616D01*
X155151307Y-97577763D01*
X155170160Y-97532870D01*
X155195824Y-97468430D01*
X155205623Y-97443192D01*
X155245148Y-97345686D01*
X155291692Y-97237959D01*
X155333377Y-97147172D01*
X155364050Y-97077753D01*
X155384456Y-97020710D01*
X155391268Y-96985777D01*
X155390182Y-96981095D01*
X155375785Y-96958991D01*
X155342912Y-96909831D01*
X155295090Y-96838848D01*
X155235848Y-96751278D01*
X155168715Y-96652357D01*
X155155441Y-96632830D01*
X155077546Y-96517140D01*
X155020287Y-96429044D01*
X154981381Y-96364486D01*
X154958544Y-96319411D01*
X154949494Y-96289763D01*
X154951948Y-96271485D01*
X154952011Y-96271369D01*
X154971327Y-96247361D01*
X155014051Y-96200947D01*
X155075551Y-96136937D01*
X155151198Y-96060145D01*
X155236361Y-95975382D01*
X155245965Y-95965922D01*
X155353290Y-95861989D01*
X155436115Y-95785675D01*
X155496105Y-95735571D01*
X155534923Y-95710270D01*
X155552020Y-95707004D01*
X155576973Y-95721250D01*
X155628755Y-95754156D01*
X155702020Y-95802208D01*
X155791420Y-95861890D01*
X155891611Y-95929688D01*
X155915001Y-95945639D01*
X156247093Y-96172420D01*
X156397065Y-96104353D01*
X156488270Y-96064685D01*
X156586169Y-96024791D01*
X156670331Y-95992983D01*
X156674038Y-95991674D01*
X156739869Y-95967576D01*
X156790616Y-95947200D01*
X156815342Y-95934936D01*
X156815384Y-95934901D01*
X156823229Y-95912734D01*
X156836566Y-95858217D01*
X156854070Y-95777480D01*
X156874417Y-95676650D01*
X156896282Y-95561856D01*
X156898071Y-95552178D01*
X156920004Y-95433904D01*
X156940140Y-95326542D01*
X156957180Y-95236917D01*
X156969828Y-95171851D01*
X156976784Y-95138168D01*
X156976906Y-95137654D01*
X156981139Y-95123325D01*
X156989371Y-95112507D01*
X157006533Y-95104706D01*
X157037558Y-95099429D01*
X157087378Y-95096182D01*
X157160924Y-95094472D01*
X157263129Y-95093807D01*
X157398925Y-95093693D01*
X157416500Y-95093692D01*
X157556378Y-95093776D01*
G37*
X157556378Y-95093776D02*
X157662112Y-95094355D01*
X157738632Y-95095922D01*
X157790872Y-95098972D01*
X157823763Y-95103996D01*
X157842237Y-95111489D01*
X157851227Y-95121944D01*
X157855663Y-95135853D01*
X157856094Y-95137654D01*
X157862833Y-95170145D01*
X157875308Y-95234252D01*
X157892219Y-95323151D01*
X157912271Y-95430019D01*
X157934164Y-95548033D01*
X157934929Y-95552178D01*
X157956859Y-95667831D01*
X157977377Y-95770014D01*
X157995159Y-95852598D01*
X158008881Y-95909456D01*
X158017218Y-95934458D01*
X158017616Y-95934901D01*
X158042177Y-95947110D01*
X158092815Y-95967456D01*
X158158595Y-95991545D01*
X158158961Y-95991674D01*
X158241817Y-96022818D01*
X158339500Y-96062491D01*
X158431577Y-96102381D01*
X158435934Y-96104353D01*
X158585907Y-96172420D01*
X158917998Y-95945639D01*
X159019874Y-95876504D01*
X159112157Y-95814697D01*
X159189503Y-95763733D01*
X159246564Y-95727127D01*
X159277995Y-95708394D01*
X159280979Y-95707004D01*
X159303821Y-95713190D01*
X159346482Y-95743035D01*
X159410628Y-95797947D01*
X159497921Y-95879334D01*
X159587035Y-95965922D01*
X159672941Y-96051247D01*
X159749827Y-96129108D01*
X159813064Y-96194697D01*
X159858023Y-96243205D01*
X159880076Y-96269825D01*
X159880896Y-96271195D01*
X159883334Y-96289463D01*
X159874150Y-96319295D01*
X159851074Y-96364721D01*
X159811837Y-96429770D01*
X159754170Y-96518470D01*
X159677295Y-96632657D01*
X159609070Y-96733162D01*
X159548082Y-96823303D01*
X159497856Y-96897849D01*
X159461916Y-96951565D01*
X159443787Y-96979218D01*
X159442646Y-96981095D01*
X159444859Y-97007590D01*
X159461638Y-97059086D01*
X159489642Y-97125851D01*
X159499622Y-97147172D01*
X159543172Y-97242159D01*
X159589634Y-97349937D01*
X159627377Y-97443192D01*
X159654573Y-97512406D01*
X159676175Y-97565006D01*
X159688658Y-97592497D01*
X159690209Y-97594616D01*
X159713168Y-97598124D01*
X159767286Y-97607738D01*
X159845368Y-97622089D01*
X159940219Y-97639807D01*
X160044643Y-97659525D01*
X160151444Y-97679874D01*
X160253426Y-97699486D01*
X160343394Y-97716991D01*
X160414153Y-97731022D01*
X160458506Y-97740209D01*
X160469385Y-97742807D01*
X160480622Y-97749218D01*
X160489105Y-97763697D01*
X160495214Y-97791133D01*
X160499332Y-97836411D01*
X160501841Y-97904420D01*
X160503121Y-98000047D01*
X160503554Y-98128180D01*
X160503577Y-98180701D01*
X160503577Y-98607845D01*
X160401000Y-98628091D01*
X160343931Y-98639070D01*
X160258769Y-98655095D01*
X160155872Y-98674233D01*
X160045596Y-98694551D01*
X160015115Y-98700132D01*
X159913355Y-98719917D01*
X159824705Y-98739373D01*
X159756608Y-98756697D01*
X159716504Y-98770088D01*
X159709823Y-98774079D01*
X159693419Y-98802342D01*
X159669899Y-98857109D01*
X159643816Y-98927588D01*
X159638642Y-98942769D01*
X159604456Y-99036896D01*
X159562023Y-99143101D01*
X159520497Y-99238473D01*
X159520292Y-99238916D01*
X159451140Y-99388525D01*
X159906012Y-100057617D01*
X159614000Y-100350116D01*
X159525680Y-100437170D01*
X159445125Y-100513909D01*
X159376860Y-100576237D01*
X159325408Y-100620056D01*
X159295294Y-100641270D01*
X159290974Y-100642616D01*
X159265611Y-100632016D01*
X159213858Y-100602547D01*
X159141368Y-100557705D01*
X159053794Y-100500984D01*
X158959112Y-100437462D01*
X158863016Y-100372668D01*
X158777337Y-100316287D01*
X158707516Y-100271788D01*
X158658994Y-100242639D01*
X158637282Y-100232308D01*
X158610793Y-100241050D01*
X158560562Y-100264087D01*
X158496951Y-100296631D01*
X158490208Y-100300249D01*
X158404546Y-100343210D01*
X158345806Y-100364279D01*
X158309272Y-100364503D01*
X158290231Y-100344928D01*
X158290120Y-100344654D01*
X158280602Y-100321472D01*
X158257903Y-100266441D01*
X158223782Y-100183822D01*
X158180000Y-100077872D01*
X158128316Y-99952852D01*
X158070492Y-99813020D01*
X158014491Y-99677637D01*
X157952947Y-99528234D01*
X157896439Y-99389832D01*
X157846661Y-99266673D01*
X157805306Y-99163002D01*
X157774068Y-99083059D01*
X157754641Y-99031088D01*
X157748654Y-99011692D01*
X157763668Y-98989443D01*
X157802939Y-98953982D01*
X157855307Y-98914887D01*
X158004441Y-98791245D01*
X158121011Y-98649522D01*
X158203618Y-98492704D01*
X158250866Y-98323775D01*
X158261357Y-98145722D01*
X158253731Y-98063539D01*
X158212182Y-97893031D01*
X158140623Y-97742459D01*
X158043495Y-97613309D01*
X157925234Y-97507064D01*
X157790280Y-97425210D01*
X157643071Y-97369232D01*
X157488044Y-97340615D01*
X157329639Y-97340844D01*
X157172294Y-97371405D01*
X157020446Y-97433782D01*
X156878535Y-97529460D01*
X156819303Y-97583572D01*
X156705703Y-97722520D01*
X156626606Y-97874361D01*
X156581486Y-98034667D01*
X156569816Y-98199012D01*
X156591069Y-98362971D01*
X156644720Y-98522118D01*
X156730240Y-98672025D01*
X156847105Y-98808267D01*
X156977693Y-98914887D01*
X157032088Y-98955642D01*
X157070514Y-98990718D01*
X157084346Y-99011726D01*
X157077103Y-99034635D01*
X157056505Y-99089365D01*
X157024246Y-99171672D01*
X156982021Y-99277315D01*
X156931523Y-99402050D01*
X156874448Y-99541636D01*
X156818354Y-99677670D01*
X156756467Y-99827201D01*
X156699144Y-99965767D01*
X156648144Y-100089107D01*
X156605227Y-100192964D01*
X156572153Y-100273080D01*
X156550681Y-100325195D01*
X156542725Y-100344654D01*
X156523929Y-100364423D01*
X156487574Y-100364365D01*
X156428979Y-100343441D01*
X156343468Y-100300613D01*
X156342792Y-100300249D01*
X156278407Y-100267012D01*
X156226361Y-100242802D01*
X156197012Y-100232404D01*
X156195717Y-100232308D01*
X156173624Y-100242855D01*
X156124848Y-100272184D01*
X156054831Y-100316827D01*
X155969014Y-100373314D01*
X155873888Y-100437462D01*
X155777040Y-100502411D01*
X155689753Y-100558896D01*
X155617681Y-100603421D01*
X155566477Y-100632490D01*
X155542026Y-100642616D01*
X155519510Y-100629307D01*
X155474242Y-100592112D01*
X155410744Y-100535128D01*
X155333539Y-100462449D01*
X155247151Y-100378171D01*
X155218899Y-100350016D01*
X154926787Y-100057416D01*
X155149131Y-99731104D01*
X155216702Y-99630897D01*
X155276007Y-99540963D01*
X155323717Y-99466510D01*
X155356507Y-99412751D01*
X155371048Y-99384894D01*
X155371474Y-99382912D01*
X155363808Y-99356655D01*
X155343189Y-99303837D01*
X155313185Y-99233310D01*
X155292125Y-99186093D01*
X155252748Y-99095694D01*
X155215665Y-99004366D01*
X155186915Y-98927200D01*
X155179105Y-98903692D01*
X155156917Y-98840916D01*
X155135227Y-98792411D01*
X155123313Y-98774079D01*
X155097023Y-98762859D01*
X155039642Y-98746954D01*
X154958618Y-98728167D01*
X154861395Y-98708299D01*
X154817885Y-98700132D01*
X154707396Y-98679829D01*
X154601416Y-98660170D01*
X154510301Y-98643088D01*
X154444408Y-98630518D01*
X154432000Y-98628091D01*
X154329423Y-98607845D01*
X154329423Y-98180701D01*
X154329653Y-98040246D01*
X154330599Y-97933979D01*
X154332641Y-97857013D01*
X154336162Y-97804460D01*
X154341543Y-97771433D01*
X154349166Y-97753045D01*
X154359412Y-97744408D01*
X154363615Y-97742807D01*
X154388970Y-97737127D01*
X154444984Y-97725795D01*
X154524464Y-97710179D01*
X154620212Y-97691647D01*
X154725033Y-97671569D01*
X154831732Y-97651312D01*
X154933113Y-97632246D01*
X155021979Y-97615739D01*
X155091137Y-97603159D01*
X155133389Y-97595875D01*
X155142790Y-97594616D01*
X155151307Y-97577763D01*
X155170160Y-97532870D01*
X155195824Y-97468430D01*
X155205623Y-97443192D01*
X155245148Y-97345686D01*
X155291692Y-97237959D01*
X155333377Y-97147172D01*
X155364050Y-97077753D01*
X155384456Y-97020710D01*
X155391268Y-96985777D01*
X155390182Y-96981095D01*
X155375785Y-96958991D01*
X155342912Y-96909831D01*
X155295090Y-96838848D01*
X155235848Y-96751278D01*
X155168715Y-96652357D01*
X155155441Y-96632830D01*
X155077546Y-96517140D01*
X155020287Y-96429044D01*
X154981381Y-96364486D01*
X154958544Y-96319411D01*
X154949494Y-96289763D01*
X154951948Y-96271485D01*
X154952011Y-96271369D01*
X154971327Y-96247361D01*
X155014051Y-96200947D01*
X155075551Y-96136937D01*
X155151198Y-96060145D01*
X155236361Y-95975382D01*
X155245965Y-95965922D01*
X155353290Y-95861989D01*
X155436115Y-95785675D01*
X155496105Y-95735571D01*
X155534923Y-95710270D01*
X155552020Y-95707004D01*
X155576973Y-95721250D01*
X155628755Y-95754156D01*
X155702020Y-95802208D01*
X155791420Y-95861890D01*
X155891611Y-95929688D01*
X155915001Y-95945639D01*
X156247093Y-96172420D01*
X156397065Y-96104353D01*
X156488270Y-96064685D01*
X156586169Y-96024791D01*
X156670331Y-95992983D01*
X156674038Y-95991674D01*
X156739869Y-95967576D01*
X156790616Y-95947200D01*
X156815342Y-95934936D01*
X156815384Y-95934901D01*
X156823229Y-95912734D01*
X156836566Y-95858217D01*
X156854070Y-95777480D01*
X156874417Y-95676650D01*
X156896282Y-95561856D01*
X156898071Y-95552178D01*
X156920004Y-95433904D01*
X156940140Y-95326542D01*
X156957180Y-95236917D01*
X156969828Y-95171851D01*
X156976784Y-95138168D01*
X156976906Y-95137654D01*
X156981139Y-95123325D01*
X156989371Y-95112507D01*
X157006533Y-95104706D01*
X157037558Y-95099429D01*
X157087378Y-95096182D01*
X157160924Y-95094472D01*
X157263129Y-95093807D01*
X157398925Y-95093693D01*
X157416500Y-95093692D01*
X157556378Y-95093776D01*
G36*
X161661724Y-101453838D02*
G01*
X161739028Y-101504361D01*
X161776314Y-101549590D01*
X161805853Y-101631663D01*
X161808199Y-101696607D01*
X161802885Y-101783445D01*
X161602615Y-101871103D01*
X161505239Y-101915887D01*
X161441613Y-101951913D01*
X161408529Y-101983117D01*
X161402780Y-102013436D01*
X161421158Y-102046805D01*
X161441423Y-102068923D01*
X161500389Y-102104393D01*
X161564524Y-102106879D01*
X161623426Y-102079235D01*
X161666697Y-102024320D01*
X161674436Y-102004928D01*
X161711506Y-101944364D01*
X161754154Y-101918552D01*
X161812654Y-101896471D01*
X161812654Y-101980184D01*
X161807482Y-102037150D01*
X161787223Y-102085189D01*
X161744762Y-102140346D01*
X161738451Y-102147514D01*
X161691220Y-102196585D01*
X161650621Y-102222920D01*
X161599828Y-102235035D01*
X161557720Y-102239003D01*
X161482402Y-102239991D01*
X161428786Y-102227466D01*
X161395338Y-102208869D01*
X161342768Y-102167975D01*
X161306379Y-102123748D01*
X161283350Y-102068126D01*
X161270859Y-101993047D01*
X161266087Y-101890449D01*
X161265706Y-101838376D01*
X161267001Y-101775948D01*
X161384971Y-101775948D01*
X161386339Y-101809438D01*
X161389749Y-101814923D01*
X161412253Y-101807472D01*
X161460682Y-101787753D01*
X161525408Y-101759718D01*
X161538943Y-101753692D01*
X161620744Y-101712096D01*
X161665812Y-101675538D01*
X161675717Y-101641296D01*
X161652026Y-101606648D01*
X161632460Y-101591339D01*
X161561860Y-101560721D01*
X161495780Y-101565780D01*
X161440459Y-101603151D01*
X161402136Y-101669473D01*
X161389849Y-101722116D01*
X161384971Y-101775948D01*
X161267001Y-101775948D01*
X161268230Y-101716720D01*
X161277532Y-101626710D01*
X161295960Y-101561167D01*
X161325860Y-101512912D01*
X161369580Y-101474767D01*
X161388641Y-101462440D01*
X161475226Y-101430336D01*
X161570022Y-101428316D01*
X161661724Y-101453838D01*
G37*
X161661724Y-101453838D02*
X161739028Y-101504361D01*
X161776314Y-101549590D01*
X161805853Y-101631663D01*
X161808199Y-101696607D01*
X161802885Y-101783445D01*
X161602615Y-101871103D01*
X161505239Y-101915887D01*
X161441613Y-101951913D01*
X161408529Y-101983117D01*
X161402780Y-102013436D01*
X161421158Y-102046805D01*
X161441423Y-102068923D01*
X161500389Y-102104393D01*
X161564524Y-102106879D01*
X161623426Y-102079235D01*
X161666697Y-102024320D01*
X161674436Y-102004928D01*
X161711506Y-101944364D01*
X161754154Y-101918552D01*
X161812654Y-101896471D01*
X161812654Y-101980184D01*
X161807482Y-102037150D01*
X161787223Y-102085189D01*
X161744762Y-102140346D01*
X161738451Y-102147514D01*
X161691220Y-102196585D01*
X161650621Y-102222920D01*
X161599828Y-102235035D01*
X161557720Y-102239003D01*
X161482402Y-102239991D01*
X161428786Y-102227466D01*
X161395338Y-102208869D01*
X161342768Y-102167975D01*
X161306379Y-102123748D01*
X161283350Y-102068126D01*
X161270859Y-101993047D01*
X161266087Y-101890449D01*
X161265706Y-101838376D01*
X161267001Y-101775948D01*
X161384971Y-101775948D01*
X161386339Y-101809438D01*
X161389749Y-101814923D01*
X161412253Y-101807472D01*
X161460682Y-101787753D01*
X161525408Y-101759718D01*
X161538943Y-101753692D01*
X161620744Y-101712096D01*
X161665812Y-101675538D01*
X161675717Y-101641296D01*
X161652026Y-101606648D01*
X161632460Y-101591339D01*
X161561860Y-101560721D01*
X161495780Y-101565780D01*
X161440459Y-101603151D01*
X161402136Y-101669473D01*
X161389849Y-101722116D01*
X161384971Y-101775948D01*
X161267001Y-101775948D01*
X161268230Y-101716720D01*
X161277532Y-101626710D01*
X161295960Y-101561167D01*
X161325860Y-101512912D01*
X161369580Y-101474767D01*
X161388641Y-101462440D01*
X161475226Y-101430336D01*
X161570022Y-101428316D01*
X161661724Y-101453838D01*
G36*
X160987307Y-101442782D02*
G01*
X161010661Y-101452988D01*
X161066402Y-101497134D01*
X161114069Y-101560967D01*
X161143548Y-101629087D01*
X161148346Y-101662670D01*
X161132260Y-101709556D01*
X161096975Y-101734365D01*
X161059144Y-101749387D01*
X161041821Y-101752155D01*
X161033386Y-101732066D01*
X161016730Y-101688351D01*
X161009423Y-101668598D01*
X160968448Y-101600271D01*
X160909122Y-101566191D01*
X160833052Y-101567239D01*
X160827418Y-101568581D01*
X160786805Y-101587836D01*
X160756948Y-101625375D01*
X160736555Y-101685809D01*
X160724336Y-101773751D01*
X160719000Y-101893813D01*
X160718500Y-101957698D01*
X160718252Y-102058403D01*
X160716626Y-102127054D01*
X160712301Y-102170673D01*
X160703954Y-102196282D01*
X160690265Y-102210903D01*
X160669911Y-102221558D01*
X160668734Y-102222095D01*
X160629538Y-102238667D01*
X160610119Y-102244769D01*
X160607135Y-102226319D01*
X160604581Y-102175323D01*
X160602640Y-102098308D01*
X160601497Y-102001805D01*
X160601269Y-101931184D01*
X160602432Y-101794525D01*
X160606979Y-101690851D01*
X160616499Y-101614108D01*
X160632581Y-101558246D01*
X160656813Y-101517212D01*
X160690786Y-101484954D01*
X160724333Y-101462440D01*
X160804999Y-101432476D01*
X160898881Y-101425718D01*
X160987307Y-101442782D01*
G37*
X160987307Y-101442782D02*
X161010661Y-101452988D01*
X161066402Y-101497134D01*
X161114069Y-101560967D01*
X161143548Y-101629087D01*
X161148346Y-101662670D01*
X161132260Y-101709556D01*
X161096975Y-101734365D01*
X161059144Y-101749387D01*
X161041821Y-101752155D01*
X161033386Y-101732066D01*
X161016730Y-101688351D01*
X161009423Y-101668598D01*
X160968448Y-101600271D01*
X160909122Y-101566191D01*
X160833052Y-101567239D01*
X160827418Y-101568581D01*
X160786805Y-101587836D01*
X160756948Y-101625375D01*
X160736555Y-101685809D01*
X160724336Y-101773751D01*
X160719000Y-101893813D01*
X160718500Y-101957698D01*
X160718252Y-102058403D01*
X160716626Y-102127054D01*
X160712301Y-102170673D01*
X160703954Y-102196282D01*
X160690265Y-102210903D01*
X160669911Y-102221558D01*
X160668734Y-102222095D01*
X160629538Y-102238667D01*
X160610119Y-102244769D01*
X160607135Y-102226319D01*
X160604581Y-102175323D01*
X160602640Y-102098308D01*
X160601497Y-102001805D01*
X160601269Y-101931184D01*
X160602432Y-101794525D01*
X160606979Y-101690851D01*
X160616499Y-101614108D01*
X160632581Y-101558246D01*
X160656813Y-101517212D01*
X160690786Y-101484954D01*
X160724333Y-101462440D01*
X160804999Y-101432476D01*
X160898881Y-101425718D01*
X160987307Y-101442782D01*
G36*
X160303833Y-101439528D02*
G01*
X160360090Y-101465117D01*
X160404247Y-101496124D01*
X160436601Y-101530795D01*
X160458938Y-101575520D01*
X160473046Y-101636692D01*
X160480711Y-101720701D01*
X160483720Y-101833940D01*
X160484038Y-101908509D01*
X160484038Y-102199420D01*
X160434273Y-102222095D01*
X160395076Y-102238667D01*
X160375657Y-102244769D01*
X160371942Y-102226610D01*
X160368995Y-102177648D01*
X160367191Y-102106153D01*
X160366808Y-102049385D01*
X160365161Y-101967371D01*
X160360722Y-101902309D01*
X160354240Y-101862467D01*
X160349090Y-101854000D01*
X160314477Y-101862646D01*
X160260140Y-101884823D01*
X160197222Y-101914886D01*
X160136868Y-101947192D01*
X160090221Y-101976098D01*
X160068426Y-101995961D01*
X160068339Y-101996175D01*
X160070214Y-102032935D01*
X160087025Y-102068026D01*
X160116539Y-102096528D01*
X160159616Y-102106061D01*
X160196432Y-102104950D01*
X160248574Y-102104133D01*
X160275944Y-102116349D01*
X160292382Y-102148624D01*
X160294455Y-102154710D01*
X160301581Y-102200739D01*
X160282524Y-102228687D01*
X160232853Y-102242007D01*
X160179197Y-102244470D01*
X160082642Y-102226210D01*
X160032659Y-102200131D01*
X159970929Y-102138868D01*
X159938190Y-102063670D01*
X159935253Y-101984211D01*
X159962924Y-101910167D01*
X160004547Y-101863769D01*
X160046104Y-101837793D01*
X160111422Y-101804907D01*
X160187538Y-101771557D01*
X160200226Y-101766461D01*
X160283833Y-101729565D01*
X160332030Y-101697046D01*
X160347530Y-101664718D01*
X160333050Y-101628394D01*
X160308192Y-101600000D01*
X160249439Y-101565039D01*
X160184793Y-101562417D01*
X160125508Y-101589358D01*
X160082839Y-101643088D01*
X160077239Y-101656950D01*
X160044633Y-101707936D01*
X159997030Y-101745787D01*
X159936961Y-101776850D01*
X159936961Y-101688768D01*
X159940497Y-101634951D01*
X159955656Y-101592534D01*
X159989268Y-101547279D01*
X160021535Y-101512420D01*
X160071709Y-101463062D01*
X160110693Y-101436547D01*
X160152564Y-101425911D01*
X160199960Y-101424154D01*
X160303833Y-101439528D01*
G37*
X160303833Y-101439528D02*
X160360090Y-101465117D01*
X160404247Y-101496124D01*
X160436601Y-101530795D01*
X160458938Y-101575520D01*
X160473046Y-101636692D01*
X160480711Y-101720701D01*
X160483720Y-101833940D01*
X160484038Y-101908509D01*
X160484038Y-102199420D01*
X160434273Y-102222095D01*
X160395076Y-102238667D01*
X160375657Y-102244769D01*
X160371942Y-102226610D01*
X160368995Y-102177648D01*
X160367191Y-102106153D01*
X160366808Y-102049385D01*
X160365161Y-101967371D01*
X160360722Y-101902309D01*
X160354240Y-101862467D01*
X160349090Y-101854000D01*
X160314477Y-101862646D01*
X160260140Y-101884823D01*
X160197222Y-101914886D01*
X160136868Y-101947192D01*
X160090221Y-101976098D01*
X160068426Y-101995961D01*
X160068339Y-101996175D01*
X160070214Y-102032935D01*
X160087025Y-102068026D01*
X160116539Y-102096528D01*
X160159616Y-102106061D01*
X160196432Y-102104950D01*
X160248574Y-102104133D01*
X160275944Y-102116349D01*
X160292382Y-102148624D01*
X160294455Y-102154710D01*
X160301581Y-102200739D01*
X160282524Y-102228687D01*
X160232853Y-102242007D01*
X160179197Y-102244470D01*
X160082642Y-102226210D01*
X160032659Y-102200131D01*
X159970929Y-102138868D01*
X159938190Y-102063670D01*
X159935253Y-101984211D01*
X159962924Y-101910167D01*
X160004547Y-101863769D01*
X160046104Y-101837793D01*
X160111422Y-101804907D01*
X160187538Y-101771557D01*
X160200226Y-101766461D01*
X160283833Y-101729565D01*
X160332030Y-101697046D01*
X160347530Y-101664718D01*
X160333050Y-101628394D01*
X160308192Y-101600000D01*
X160249439Y-101565039D01*
X160184793Y-101562417D01*
X160125508Y-101589358D01*
X160082839Y-101643088D01*
X160077239Y-101656950D01*
X160044633Y-101707936D01*
X159997030Y-101745787D01*
X159936961Y-101776850D01*
X159936961Y-101688768D01*
X159940497Y-101634951D01*
X159955656Y-101592534D01*
X159989268Y-101547279D01*
X160021535Y-101512420D01*
X160071709Y-101463062D01*
X160110693Y-101436547D01*
X160152564Y-101425911D01*
X160199960Y-101424154D01*
X160303833Y-101439528D01*
G36*
X159812429Y-101442662D02*
G01*
X159815411Y-101494068D01*
X159817747Y-101572192D01*
X159819249Y-101670857D01*
X159819731Y-101774343D01*
X159819731Y-102124533D01*
X159757901Y-102186363D01*
X159715293Y-102224462D01*
X159677890Y-102239895D01*
X159626770Y-102238918D01*
X159606478Y-102236433D01*
X159543054Y-102229200D01*
X159490595Y-102225055D01*
X159477808Y-102224672D01*
X159434699Y-102227176D01*
X159373044Y-102233462D01*
X159349138Y-102236433D01*
X159290422Y-102241028D01*
X159250964Y-102231046D01*
X159211838Y-102200228D01*
X159197715Y-102186363D01*
X159135885Y-102124533D01*
X159135885Y-101469503D01*
X159185650Y-101446829D01*
X159228502Y-101430034D01*
X159253573Y-101424154D01*
X159260001Y-101442736D01*
X159266009Y-101494655D01*
X159271197Y-101574172D01*
X159275164Y-101675546D01*
X159277077Y-101761192D01*
X159282423Y-102098231D01*
X159329060Y-102104825D01*
X159371476Y-102100214D01*
X159392260Y-102085287D01*
X159398070Y-102057377D01*
X159403030Y-101997925D01*
X159406746Y-101914466D01*
X159408824Y-101814532D01*
X159409124Y-101763104D01*
X159409423Y-101467054D01*
X159470954Y-101445604D01*
X159514504Y-101431020D01*
X159538194Y-101424219D01*
X159538877Y-101424154D01*
X159541254Y-101442642D01*
X159543866Y-101493906D01*
X159546495Y-101571649D01*
X159548921Y-101669574D01*
X159550615Y-101761192D01*
X159555961Y-102098231D01*
X159673192Y-102098231D01*
X159678572Y-101790746D01*
X159683951Y-101483261D01*
X159741101Y-101453707D01*
X159783297Y-101433413D01*
X159808270Y-101424204D01*
X159808991Y-101424154D01*
X159812429Y-101442662D01*
G37*
X159812429Y-101442662D02*
X159815411Y-101494068D01*
X159817747Y-101572192D01*
X159819249Y-101670857D01*
X159819731Y-101774343D01*
X159819731Y-102124533D01*
X159757901Y-102186363D01*
X159715293Y-102224462D01*
X159677890Y-102239895D01*
X159626770Y-102238918D01*
X159606478Y-102236433D01*
X159543054Y-102229200D01*
X159490595Y-102225055D01*
X159477808Y-102224672D01*
X159434699Y-102227176D01*
X159373044Y-102233462D01*
X159349138Y-102236433D01*
X159290422Y-102241028D01*
X159250964Y-102231046D01*
X159211838Y-102200228D01*
X159197715Y-102186363D01*
X159135885Y-102124533D01*
X159135885Y-101469503D01*
X159185650Y-101446829D01*
X159228502Y-101430034D01*
X159253573Y-101424154D01*
X159260001Y-101442736D01*
X159266009Y-101494655D01*
X159271197Y-101574172D01*
X159275164Y-101675546D01*
X159277077Y-101761192D01*
X159282423Y-102098231D01*
X159329060Y-102104825D01*
X159371476Y-102100214D01*
X159392260Y-102085287D01*
X159398070Y-102057377D01*
X159403030Y-101997925D01*
X159406746Y-101914466D01*
X159408824Y-101814532D01*
X159409124Y-101763104D01*
X159409423Y-101467054D01*
X159470954Y-101445604D01*
X159514504Y-101431020D01*
X159538194Y-101424219D01*
X159538877Y-101424154D01*
X159541254Y-101442642D01*
X159543866Y-101493906D01*
X159546495Y-101571649D01*
X159548921Y-101669574D01*
X159550615Y-101761192D01*
X159555961Y-102098231D01*
X159673192Y-102098231D01*
X159678572Y-101790746D01*
X159683951Y-101483261D01*
X159741101Y-101453707D01*
X159783297Y-101433413D01*
X159808270Y-101424204D01*
X159808991Y-101424154D01*
X159812429Y-101442662D01*
G36*
X159018581Y-101586289D02*
G01*
X159018333Y-101732320D01*
X159017372Y-101844655D01*
X159015294Y-101928678D01*
X159011693Y-101989769D01*
X159006165Y-102033309D01*
X158998304Y-102064679D01*
X158987707Y-102089262D01*
X158979682Y-102103294D01*
X158913228Y-102179388D01*
X158828970Y-102227084D01*
X158735749Y-102244199D01*
X158642400Y-102228546D01*
X158586812Y-102200418D01*
X158528457Y-102151760D01*
X158488686Y-102092333D01*
X158464690Y-102014507D01*
X158453661Y-101910652D01*
X158452099Y-101834462D01*
X158452309Y-101828986D01*
X158588808Y-101828986D01*
X158589641Y-101916355D01*
X158593461Y-101974192D01*
X158602246Y-102012029D01*
X158617974Y-102039398D01*
X158636766Y-102060042D01*
X158699875Y-102099890D01*
X158767637Y-102103295D01*
X158831679Y-102070025D01*
X158836664Y-102065517D01*
X158857939Y-102042067D01*
X158871279Y-102014166D01*
X158878501Y-101972641D01*
X158881423Y-101908316D01*
X158881885Y-101837200D01*
X158880883Y-101747858D01*
X158876738Y-101688258D01*
X158867736Y-101649089D01*
X158852167Y-101621040D01*
X158839402Y-101606144D01*
X158780100Y-101568575D01*
X158711801Y-101564057D01*
X158646610Y-101592753D01*
X158634028Y-101603406D01*
X158612611Y-101627063D01*
X158599244Y-101655251D01*
X158592066Y-101697245D01*
X158589219Y-101762319D01*
X158588808Y-101828986D01*
X158452309Y-101828986D01*
X158456822Y-101711765D01*
X158472862Y-101619577D01*
X158503028Y-101550269D01*
X158550129Y-101496211D01*
X158586812Y-101468505D01*
X158653490Y-101438572D01*
X158730772Y-101424678D01*
X158802610Y-101428397D01*
X158842808Y-101443400D01*
X158858582Y-101447670D01*
X158869050Y-101431750D01*
X158876356Y-101389089D01*
X158881885Y-101324106D01*
X158887937Y-101251732D01*
X158896344Y-101208187D01*
X158911641Y-101183287D01*
X158938364Y-101166845D01*
X158955154Y-101159564D01*
X159018654Y-101132963D01*
X159018581Y-101586289D01*
G37*
X159018581Y-101586289D02*
X159018333Y-101732320D01*
X159017372Y-101844655D01*
X159015294Y-101928678D01*
X159011693Y-101989769D01*
X159006165Y-102033309D01*
X158998304Y-102064679D01*
X158987707Y-102089262D01*
X158979682Y-102103294D01*
X158913228Y-102179388D01*
X158828970Y-102227084D01*
X158735749Y-102244199D01*
X158642400Y-102228546D01*
X158586812Y-102200418D01*
X158528457Y-102151760D01*
X158488686Y-102092333D01*
X158464690Y-102014507D01*
X158453661Y-101910652D01*
X158452099Y-101834462D01*
X158452309Y-101828986D01*
X158588808Y-101828986D01*
X158589641Y-101916355D01*
X158593461Y-101974192D01*
X158602246Y-102012029D01*
X158617974Y-102039398D01*
X158636766Y-102060042D01*
X158699875Y-102099890D01*
X158767637Y-102103295D01*
X158831679Y-102070025D01*
X158836664Y-102065517D01*
X158857939Y-102042067D01*
X158871279Y-102014166D01*
X158878501Y-101972641D01*
X158881423Y-101908316D01*
X158881885Y-101837200D01*
X158880883Y-101747858D01*
X158876738Y-101688258D01*
X158867736Y-101649089D01*
X158852167Y-101621040D01*
X158839402Y-101606144D01*
X158780100Y-101568575D01*
X158711801Y-101564057D01*
X158646610Y-101592753D01*
X158634028Y-101603406D01*
X158612611Y-101627063D01*
X158599244Y-101655251D01*
X158592066Y-101697245D01*
X158589219Y-101762319D01*
X158588808Y-101828986D01*
X158452309Y-101828986D01*
X158456822Y-101711765D01*
X158472862Y-101619577D01*
X158503028Y-101550269D01*
X158550129Y-101496211D01*
X158586812Y-101468505D01*
X158653490Y-101438572D01*
X158730772Y-101424678D01*
X158802610Y-101428397D01*
X158842808Y-101443400D01*
X158858582Y-101447670D01*
X158869050Y-101431750D01*
X158876356Y-101389089D01*
X158881885Y-101324106D01*
X158887937Y-101251732D01*
X158896344Y-101208187D01*
X158911641Y-101183287D01*
X158938364Y-101166845D01*
X158955154Y-101159564D01*
X159018654Y-101132963D01*
X159018581Y-101586289D01*
G36*
X158129862Y-101430670D02*
G01*
X158218617Y-101463421D01*
X158290522Y-101521350D01*
X158318644Y-101562128D01*
X158349302Y-101636954D01*
X158348665Y-101691058D01*
X158316487Y-101727446D01*
X158304581Y-101733633D01*
X158253175Y-101752925D01*
X158226922Y-101747982D01*
X158218030Y-101715587D01*
X158217577Y-101697692D01*
X158201297Y-101631859D01*
X158158865Y-101585807D01*
X158099888Y-101563564D01*
X158033975Y-101569161D01*
X157980395Y-101598229D01*
X157962298Y-101614810D01*
X157949471Y-101634925D01*
X157940806Y-101665332D01*
X157935196Y-101712788D01*
X157931535Y-101784050D01*
X157928715Y-101885875D01*
X157927984Y-101918115D01*
X157925320Y-102028410D01*
X157922292Y-102106036D01*
X157917750Y-102157396D01*
X157910546Y-102188890D01*
X157899533Y-102206920D01*
X157883560Y-102217888D01*
X157873334Y-102222733D01*
X157829906Y-102239301D01*
X157804342Y-102244769D01*
X157795895Y-102226507D01*
X157790739Y-102171296D01*
X157788846Y-102078499D01*
X157790189Y-101947478D01*
X157790607Y-101927269D01*
X157793558Y-101807733D01*
X157797048Y-101720449D01*
X157802014Y-101658591D01*
X157809393Y-101615336D01*
X157820124Y-101583860D01*
X157835145Y-101557339D01*
X157843002Y-101545975D01*
X157888053Y-101495692D01*
X157938440Y-101456581D01*
X157944608Y-101453167D01*
X158034958Y-101426212D01*
X158129862Y-101430670D01*
G37*
X158129862Y-101430670D02*
X158218617Y-101463421D01*
X158290522Y-101521350D01*
X158318644Y-101562128D01*
X158349302Y-101636954D01*
X158348665Y-101691058D01*
X158316487Y-101727446D01*
X158304581Y-101733633D01*
X158253175Y-101752925D01*
X158226922Y-101747982D01*
X158218030Y-101715587D01*
X158217577Y-101697692D01*
X158201297Y-101631859D01*
X158158865Y-101585807D01*
X158099888Y-101563564D01*
X158033975Y-101569161D01*
X157980395Y-101598229D01*
X157962298Y-101614810D01*
X157949471Y-101634925D01*
X157940806Y-101665332D01*
X157935196Y-101712788D01*
X157931535Y-101784050D01*
X157928715Y-101885875D01*
X157927984Y-101918115D01*
X157925320Y-102028410D01*
X157922292Y-102106036D01*
X157917750Y-102157396D01*
X157910546Y-102188890D01*
X157899533Y-102206920D01*
X157883560Y-102217888D01*
X157873334Y-102222733D01*
X157829906Y-102239301D01*
X157804342Y-102244769D01*
X157795895Y-102226507D01*
X157790739Y-102171296D01*
X157788846Y-102078499D01*
X157790189Y-101947478D01*
X157790607Y-101927269D01*
X157793558Y-101807733D01*
X157797048Y-101720449D01*
X157802014Y-101658591D01*
X157809393Y-101615336D01*
X157820124Y-101583860D01*
X157835145Y-101557339D01*
X157843002Y-101545975D01*
X157888053Y-101495692D01*
X157938440Y-101456581D01*
X157944608Y-101453167D01*
X158034958Y-101426212D01*
X158129862Y-101430670D01*
G36*
X157470001Y-101432303D02*
G01*
X157546560Y-101460733D01*
X157547436Y-101461279D01*
X157594785Y-101496127D01*
X157629741Y-101536852D01*
X157654325Y-101589925D01*
X157670562Y-101661814D01*
X157680475Y-101758992D01*
X157686086Y-101887928D01*
X157686577Y-101906298D01*
X157693641Y-102183287D01*
X157634195Y-102214028D01*
X157591181Y-102234802D01*
X157565210Y-102244646D01*
X157564009Y-102244769D01*
X157559514Y-102226606D01*
X157555944Y-102177612D01*
X157553748Y-102106031D01*
X157553269Y-102048068D01*
X157553258Y-101954170D01*
X157548966Y-101895203D01*
X157534003Y-101867079D01*
X157501982Y-101865706D01*
X157446514Y-101886998D01*
X157362769Y-101926136D01*
X157301189Y-101958643D01*
X157269517Y-101986845D01*
X157260206Y-102017582D01*
X157260192Y-102019104D01*
X157275557Y-102072054D01*
X157321047Y-102100660D01*
X157390666Y-102104803D01*
X157440813Y-102104084D01*
X157467254Y-102118527D01*
X157483743Y-102153218D01*
X157493233Y-102197416D01*
X157479557Y-102222493D01*
X157474407Y-102226082D01*
X157425925Y-102240496D01*
X157358031Y-102242537D01*
X157288112Y-102232983D01*
X157238568Y-102215522D01*
X157170070Y-102157364D01*
X157131134Y-102076408D01*
X157123423Y-102013160D01*
X157129307Y-101956111D01*
X157150601Y-101909542D01*
X157192765Y-101868181D01*
X157261259Y-101826755D01*
X157361544Y-101779993D01*
X157367654Y-101777350D01*
X157457990Y-101735617D01*
X157513735Y-101701391D01*
X157537629Y-101670635D01*
X157532413Y-101639311D01*
X157500828Y-101603383D01*
X157491383Y-101595116D01*
X157428117Y-101563058D01*
X157362564Y-101564407D01*
X157305472Y-101595838D01*
X157267593Y-101654024D01*
X157264074Y-101665446D01*
X157229800Y-101720837D01*
X157186309Y-101747518D01*
X157123423Y-101773960D01*
X157123423Y-101705548D01*
X157142552Y-101606110D01*
X157199331Y-101514902D01*
X157228878Y-101484389D01*
X157296042Y-101445228D01*
X157381456Y-101427500D01*
X157470001Y-101432303D01*
G37*
X157470001Y-101432303D02*
X157546560Y-101460733D01*
X157547436Y-101461279D01*
X157594785Y-101496127D01*
X157629741Y-101536852D01*
X157654325Y-101589925D01*
X157670562Y-101661814D01*
X157680475Y-101758992D01*
X157686086Y-101887928D01*
X157686577Y-101906298D01*
X157693641Y-102183287D01*
X157634195Y-102214028D01*
X157591181Y-102234802D01*
X157565210Y-102244646D01*
X157564009Y-102244769D01*
X157559514Y-102226606D01*
X157555944Y-102177612D01*
X157553748Y-102106031D01*
X157553269Y-102048068D01*
X157553258Y-101954170D01*
X157548966Y-101895203D01*
X157534003Y-101867079D01*
X157501982Y-101865706D01*
X157446514Y-101886998D01*
X157362769Y-101926136D01*
X157301189Y-101958643D01*
X157269517Y-101986845D01*
X157260206Y-102017582D01*
X157260192Y-102019104D01*
X157275557Y-102072054D01*
X157321047Y-102100660D01*
X157390666Y-102104803D01*
X157440813Y-102104084D01*
X157467254Y-102118527D01*
X157483743Y-102153218D01*
X157493233Y-102197416D01*
X157479557Y-102222493D01*
X157474407Y-102226082D01*
X157425925Y-102240496D01*
X157358031Y-102242537D01*
X157288112Y-102232983D01*
X157238568Y-102215522D01*
X157170070Y-102157364D01*
X157131134Y-102076408D01*
X157123423Y-102013160D01*
X157129307Y-101956111D01*
X157150601Y-101909542D01*
X157192765Y-101868181D01*
X157261259Y-101826755D01*
X157361544Y-101779993D01*
X157367654Y-101777350D01*
X157457990Y-101735617D01*
X157513735Y-101701391D01*
X157537629Y-101670635D01*
X157532413Y-101639311D01*
X157500828Y-101603383D01*
X157491383Y-101595116D01*
X157428117Y-101563058D01*
X157362564Y-101564407D01*
X157305472Y-101595838D01*
X157267593Y-101654024D01*
X157264074Y-101665446D01*
X157229800Y-101720837D01*
X157186309Y-101747518D01*
X157123423Y-101773960D01*
X157123423Y-101705548D01*
X157142552Y-101606110D01*
X157199331Y-101514902D01*
X157228878Y-101484389D01*
X157296042Y-101445228D01*
X157381456Y-101427500D01*
X157470001Y-101432303D01*
G36*
X156576346Y-101298120D02*
G01*
X156582072Y-101377980D01*
X156588649Y-101425039D01*
X156597762Y-101445566D01*
X156611098Y-101445829D01*
X156615423Y-101443378D01*
X156672944Y-101425636D01*
X156747768Y-101426672D01*
X156823839Y-101444910D01*
X156871418Y-101468505D01*
X156920202Y-101506198D01*
X156955864Y-101548855D01*
X156980345Y-101603057D01*
X156995587Y-101675384D01*
X157003530Y-101772419D01*
X157006116Y-101900742D01*
X157006162Y-101925358D01*
X157006192Y-102201870D01*
X156944661Y-102223320D01*
X156900959Y-102237912D01*
X156876982Y-102244706D01*
X156876277Y-102244769D01*
X156873915Y-102226345D01*
X156871906Y-102175526D01*
X156870401Y-102098993D01*
X156869553Y-102003430D01*
X156869423Y-101945329D01*
X156869151Y-101830771D01*
X156867752Y-101748667D01*
X156864349Y-101692393D01*
X156858067Y-101655326D01*
X156848029Y-101630844D01*
X156833361Y-101612325D01*
X156824202Y-101603406D01*
X156761289Y-101567466D01*
X156692636Y-101564775D01*
X156630348Y-101595170D01*
X156618829Y-101606144D01*
X156601933Y-101626779D01*
X156590214Y-101651256D01*
X156582733Y-101686647D01*
X156578554Y-101740026D01*
X156576737Y-101818466D01*
X156576346Y-101926617D01*
X156576346Y-102201870D01*
X156514815Y-102223320D01*
X156471113Y-102237912D01*
X156447136Y-102244706D01*
X156446430Y-102244769D01*
X156444626Y-102226069D01*
X156443000Y-102173322D01*
X156441617Y-102091557D01*
X156440542Y-101985805D01*
X156439840Y-101861094D01*
X156439577Y-101722455D01*
X156439577Y-101187806D01*
X156566577Y-101134236D01*
X156576346Y-101298120D01*
G37*
X156576346Y-101298120D02*
X156582072Y-101377980D01*
X156588649Y-101425039D01*
X156597762Y-101445566D01*
X156611098Y-101445829D01*
X156615423Y-101443378D01*
X156672944Y-101425636D01*
X156747768Y-101426672D01*
X156823839Y-101444910D01*
X156871418Y-101468505D01*
X156920202Y-101506198D01*
X156955864Y-101548855D01*
X156980345Y-101603057D01*
X156995587Y-101675384D01*
X157003530Y-101772419D01*
X157006116Y-101900742D01*
X157006162Y-101925358D01*
X157006192Y-102201870D01*
X156944661Y-102223320D01*
X156900959Y-102237912D01*
X156876982Y-102244706D01*
X156876277Y-102244769D01*
X156873915Y-102226345D01*
X156871906Y-102175526D01*
X156870401Y-102098993D01*
X156869553Y-102003430D01*
X156869423Y-101945329D01*
X156869151Y-101830771D01*
X156867752Y-101748667D01*
X156864349Y-101692393D01*
X156858067Y-101655326D01*
X156848029Y-101630844D01*
X156833361Y-101612325D01*
X156824202Y-101603406D01*
X156761289Y-101567466D01*
X156692636Y-101564775D01*
X156630348Y-101595170D01*
X156618829Y-101606144D01*
X156601933Y-101626779D01*
X156590214Y-101651256D01*
X156582733Y-101686647D01*
X156578554Y-101740026D01*
X156576737Y-101818466D01*
X156576346Y-101926617D01*
X156576346Y-102201870D01*
X156514815Y-102223320D01*
X156471113Y-102237912D01*
X156447136Y-102244706D01*
X156446430Y-102244769D01*
X156444626Y-102226069D01*
X156443000Y-102173322D01*
X156441617Y-102091557D01*
X156440542Y-101985805D01*
X156439840Y-101861094D01*
X156439577Y-101722455D01*
X156439577Y-101187806D01*
X156566577Y-101134236D01*
X156576346Y-101298120D01*
G36*
X154950754Y-101405745D02*
G01*
X155027786Y-101457567D01*
X155087316Y-101532412D01*
X155122878Y-101627654D01*
X155130071Y-101697756D01*
X155129254Y-101727009D01*
X155122414Y-101749407D01*
X155103612Y-101769474D01*
X155066908Y-101791733D01*
X155006362Y-101820709D01*
X154916034Y-101860927D01*
X154915577Y-101861129D01*
X154832433Y-101899210D01*
X154764253Y-101933025D01*
X154718005Y-101958933D01*
X154700658Y-101973295D01*
X154700654Y-101973411D01*
X154715943Y-102004685D01*
X154751696Y-102039157D01*
X154792742Y-102063990D01*
X154813537Y-102068923D01*
X154870270Y-102051862D01*
X154919127Y-102009133D01*
X154942965Y-101962155D01*
X154965897Y-101927522D01*
X155010818Y-101888081D01*
X155063623Y-101854009D01*
X155110210Y-101835480D01*
X155119952Y-101834462D01*
X155130918Y-101851215D01*
X155131579Y-101894039D01*
X155123520Y-101951781D01*
X155108327Y-102013289D01*
X155087586Y-102067409D01*
X155086538Y-102069510D01*
X155024121Y-102156660D01*
X154943226Y-102215939D01*
X154851356Y-102245034D01*
X154756013Y-102241634D01*
X154664698Y-102203428D01*
X154660638Y-102200741D01*
X154588806Y-102135642D01*
X154541573Y-102050705D01*
X154515434Y-101939021D01*
X154511926Y-101907643D01*
X154505713Y-101759536D01*
X154513161Y-101690468D01*
X154700654Y-101690468D01*
X154703090Y-101733552D01*
X154716414Y-101746126D01*
X154749632Y-101736719D01*
X154801994Y-101714483D01*
X154860524Y-101686610D01*
X154861979Y-101685872D01*
X154911589Y-101659777D01*
X154931500Y-101642363D01*
X154926590Y-101624107D01*
X154905916Y-101600120D01*
X154853319Y-101565406D01*
X154796677Y-101562856D01*
X154745869Y-101588119D01*
X154710776Y-101636847D01*
X154700654Y-101690468D01*
X154513161Y-101690468D01*
X154518492Y-101641036D01*
X154551278Y-101547055D01*
X154596921Y-101481215D01*
X154679302Y-101414681D01*
X154770046Y-101381676D01*
X154862685Y-101379573D01*
X154950754Y-101405745D01*
G37*
X154950754Y-101405745D02*
X155027786Y-101457567D01*
X155087316Y-101532412D01*
X155122878Y-101627654D01*
X155130071Y-101697756D01*
X155129254Y-101727009D01*
X155122414Y-101749407D01*
X155103612Y-101769474D01*
X155066908Y-101791733D01*
X155006362Y-101820709D01*
X154916034Y-101860927D01*
X154915577Y-101861129D01*
X154832433Y-101899210D01*
X154764253Y-101933025D01*
X154718005Y-101958933D01*
X154700658Y-101973295D01*
X154700654Y-101973411D01*
X154715943Y-102004685D01*
X154751696Y-102039157D01*
X154792742Y-102063990D01*
X154813537Y-102068923D01*
X154870270Y-102051862D01*
X154919127Y-102009133D01*
X154942965Y-101962155D01*
X154965897Y-101927522D01*
X155010818Y-101888081D01*
X155063623Y-101854009D01*
X155110210Y-101835480D01*
X155119952Y-101834462D01*
X155130918Y-101851215D01*
X155131579Y-101894039D01*
X155123520Y-101951781D01*
X155108327Y-102013289D01*
X155087586Y-102067409D01*
X155086538Y-102069510D01*
X155024121Y-102156660D01*
X154943226Y-102215939D01*
X154851356Y-102245034D01*
X154756013Y-102241634D01*
X154664698Y-102203428D01*
X154660638Y-102200741D01*
X154588806Y-102135642D01*
X154541573Y-102050705D01*
X154515434Y-101939021D01*
X154511926Y-101907643D01*
X154505713Y-101759536D01*
X154513161Y-101690468D01*
X154700654Y-101690468D01*
X154703090Y-101733552D01*
X154716414Y-101746126D01*
X154749632Y-101736719D01*
X154801994Y-101714483D01*
X154860524Y-101686610D01*
X154861979Y-101685872D01*
X154911589Y-101659777D01*
X154931500Y-101642363D01*
X154926590Y-101624107D01*
X154905916Y-101600120D01*
X154853319Y-101565406D01*
X154796677Y-101562856D01*
X154745869Y-101588119D01*
X154710776Y-101636847D01*
X154700654Y-101690468D01*
X154513161Y-101690468D01*
X154518492Y-101641036D01*
X154551278Y-101547055D01*
X154596921Y-101481215D01*
X154679302Y-101414681D01*
X154770046Y-101381676D01*
X154862685Y-101379573D01*
X154950754Y-101405745D01*
G36*
X153433386Y-101393256D02*
G01*
X153524964Y-101441409D01*
X153592549Y-101518905D01*
X153616557Y-101568727D01*
X153635238Y-101643533D01*
X153644801Y-101738052D01*
X153645708Y-101841210D01*
X153638421Y-101941935D01*
X153623403Y-102029153D01*
X153601115Y-102091791D01*
X153594265Y-102102579D01*
X153513132Y-102183105D01*
X153416766Y-102231336D01*
X153312201Y-102245450D01*
X153206468Y-102223629D01*
X153177043Y-102210547D01*
X153119741Y-102170231D01*
X153069450Y-102116775D01*
X153064697Y-102109995D01*
X153045378Y-102077321D01*
X153032608Y-102042394D01*
X153025064Y-101996414D01*
X153021424Y-101930584D01*
X153020365Y-101836105D01*
X153020346Y-101814923D01*
X153020394Y-101808182D01*
X153215731Y-101808182D01*
X153216868Y-101897349D01*
X153221341Y-101956520D01*
X153230746Y-101994741D01*
X153246676Y-102021053D01*
X153254808Y-102029846D01*
X153301558Y-102063261D01*
X153346947Y-102061737D01*
X153392840Y-102032752D01*
X153420212Y-102001809D01*
X153436423Y-101956643D01*
X153445526Y-101885420D01*
X153446151Y-101877114D01*
X153447704Y-101748037D01*
X153431465Y-101652172D01*
X153397652Y-101590107D01*
X153346484Y-101562432D01*
X153328220Y-101560923D01*
X153280260Y-101568513D01*
X153247453Y-101594808D01*
X153227395Y-101645095D01*
X153217678Y-101724664D01*
X153215731Y-101808182D01*
X153020394Y-101808182D01*
X153021074Y-101714249D01*
X153024129Y-101643906D01*
X153030822Y-101595163D01*
X153042460Y-101559288D01*
X153060353Y-101527548D01*
X153064308Y-101521648D01*
X153130767Y-101442104D01*
X153203185Y-101395929D01*
X153291349Y-101377599D01*
X153321287Y-101376703D01*
X153433386Y-101393256D01*
G37*
X153433386Y-101393256D02*
X153524964Y-101441409D01*
X153592549Y-101518905D01*
X153616557Y-101568727D01*
X153635238Y-101643533D01*
X153644801Y-101738052D01*
X153645708Y-101841210D01*
X153638421Y-101941935D01*
X153623403Y-102029153D01*
X153601115Y-102091791D01*
X153594265Y-102102579D01*
X153513132Y-102183105D01*
X153416766Y-102231336D01*
X153312201Y-102245450D01*
X153206468Y-102223629D01*
X153177043Y-102210547D01*
X153119741Y-102170231D01*
X153069450Y-102116775D01*
X153064697Y-102109995D01*
X153045378Y-102077321D01*
X153032608Y-102042394D01*
X153025064Y-101996414D01*
X153021424Y-101930584D01*
X153020365Y-101836105D01*
X153020346Y-101814923D01*
X153020394Y-101808182D01*
X153215731Y-101808182D01*
X153216868Y-101897349D01*
X153221341Y-101956520D01*
X153230746Y-101994741D01*
X153246676Y-102021053D01*
X153254808Y-102029846D01*
X153301558Y-102063261D01*
X153346947Y-102061737D01*
X153392840Y-102032752D01*
X153420212Y-102001809D01*
X153436423Y-101956643D01*
X153445526Y-101885420D01*
X153446151Y-101877114D01*
X153447704Y-101748037D01*
X153431465Y-101652172D01*
X153397652Y-101590107D01*
X153346484Y-101562432D01*
X153328220Y-101560923D01*
X153280260Y-101568513D01*
X153247453Y-101594808D01*
X153227395Y-101645095D01*
X153217678Y-101724664D01*
X153215731Y-101808182D01*
X153020394Y-101808182D01*
X153021074Y-101714249D01*
X153024129Y-101643906D01*
X153030822Y-101595163D01*
X153042460Y-101559288D01*
X153060353Y-101527548D01*
X153064308Y-101521648D01*
X153130767Y-101442104D01*
X153203185Y-101395929D01*
X153291349Y-101377599D01*
X153321287Y-101376703D01*
X153433386Y-101393256D01*
G36*
X155688164Y-101401089D02*
G01*
X155750867Y-101437358D01*
X155794461Y-101473358D01*
X155826345Y-101511075D01*
X155848310Y-101557199D01*
X155862149Y-101618421D01*
X155869653Y-101701431D01*
X155872617Y-101812919D01*
X155872961Y-101893062D01*
X155872961Y-102188065D01*
X155706885Y-102262515D01*
X155697115Y-101939402D01*
X155693079Y-101818729D01*
X155688844Y-101731141D01*
X155683597Y-101670650D01*
X155676525Y-101631268D01*
X155666811Y-101607007D01*
X155653644Y-101591880D01*
X155649419Y-101588606D01*
X155585409Y-101563034D01*
X155520708Y-101573153D01*
X155482192Y-101600000D01*
X155466525Y-101619024D01*
X155455680Y-101643988D01*
X155448788Y-101681834D01*
X155444979Y-101739502D01*
X155443383Y-101823935D01*
X155443115Y-101911928D01*
X155443063Y-102022323D01*
X155441172Y-102100463D01*
X155434845Y-102153165D01*
X155421483Y-102187242D01*
X155398485Y-102209511D01*
X155363254Y-102226787D01*
X155316197Y-102244738D01*
X155264803Y-102264278D01*
X155270921Y-101917485D01*
X155273384Y-101792468D01*
X155276267Y-101700082D01*
X155280398Y-101633881D01*
X155286607Y-101587420D01*
X155295726Y-101554256D01*
X155308583Y-101527944D01*
X155324084Y-101504729D01*
X155398871Y-101430569D01*
X155490128Y-101387684D01*
X155589383Y-101377412D01*
X155688164Y-101401089D01*
G37*
X155688164Y-101401089D02*
X155750867Y-101437358D01*
X155794461Y-101473358D01*
X155826345Y-101511075D01*
X155848310Y-101557199D01*
X155862149Y-101618421D01*
X155869653Y-101701431D01*
X155872617Y-101812919D01*
X155872961Y-101893062D01*
X155872961Y-102188065D01*
X155706885Y-102262515D01*
X155697115Y-101939402D01*
X155693079Y-101818729D01*
X155688844Y-101731141D01*
X155683597Y-101670650D01*
X155676525Y-101631268D01*
X155666811Y-101607007D01*
X155653644Y-101591880D01*
X155649419Y-101588606D01*
X155585409Y-101563034D01*
X155520708Y-101573153D01*
X155482192Y-101600000D01*
X155466525Y-101619024D01*
X155455680Y-101643988D01*
X155448788Y-101681834D01*
X155444979Y-101739502D01*
X155443383Y-101823935D01*
X155443115Y-101911928D01*
X155443063Y-102022323D01*
X155441172Y-102100463D01*
X155434845Y-102153165D01*
X155421483Y-102187242D01*
X155398485Y-102209511D01*
X155363254Y-102226787D01*
X155316197Y-102244738D01*
X155264803Y-102264278D01*
X155270921Y-101917485D01*
X155273384Y-101792468D01*
X155276267Y-101700082D01*
X155280398Y-101633881D01*
X155286607Y-101587420D01*
X155295726Y-101554256D01*
X155308583Y-101527944D01*
X155324084Y-101504729D01*
X155398871Y-101430569D01*
X155490128Y-101387684D01*
X155589383Y-101377412D01*
X155688164Y-101401089D01*
G36*
X154185386Y-101390505D02*
G01*
X154260039Y-101427727D01*
X154325931Y-101496261D01*
X154344077Y-101521648D01*
X154363845Y-101554866D01*
X154376672Y-101590945D01*
X154384010Y-101639098D01*
X154387313Y-101708536D01*
X154388038Y-101800206D01*
X154384763Y-101925830D01*
X154373377Y-102020154D01*
X154351541Y-102090523D01*
X154316919Y-102144286D01*
X154267170Y-102188788D01*
X154263514Y-102191423D01*
X154214485Y-102218377D01*
X154155445Y-102231712D01*
X154080359Y-102235000D01*
X153958295Y-102235000D01*
X153958244Y-102353497D01*
X153957108Y-102419492D01*
X153950186Y-102458202D01*
X153932098Y-102481419D01*
X153897462Y-102500933D01*
X153889145Y-102504920D01*
X153850220Y-102523603D01*
X153820083Y-102535403D01*
X153797674Y-102536422D01*
X153781933Y-102522761D01*
X153771802Y-102490522D01*
X153766223Y-102435804D01*
X153764135Y-102354711D01*
X153764481Y-102243344D01*
X153766200Y-102097802D01*
X153766737Y-102054269D01*
X153768672Y-101904205D01*
X153770404Y-101806042D01*
X153958192Y-101806042D01*
X153959248Y-101889364D01*
X153963938Y-101943880D01*
X153974551Y-101979837D01*
X153993372Y-102007482D01*
X154006150Y-102020965D01*
X154058390Y-102060417D01*
X154104642Y-102063628D01*
X154152367Y-102031049D01*
X154153577Y-102029846D01*
X154172994Y-102004668D01*
X154184807Y-101970447D01*
X154190765Y-101917748D01*
X154192620Y-101837131D01*
X154192654Y-101819271D01*
X154188170Y-101708175D01*
X154173574Y-101631161D01*
X154147150Y-101584147D01*
X154107183Y-101563050D01*
X154084084Y-101560923D01*
X154029262Y-101570900D01*
X153991658Y-101603752D01*
X153969023Y-101663857D01*
X153959106Y-101755598D01*
X153958192Y-101806042D01*
X153770404Y-101806042D01*
X153770722Y-101788060D01*
X153773373Y-101700679D01*
X153777106Y-101636905D01*
X153782407Y-101591582D01*
X153789758Y-101559555D01*
X153799643Y-101535668D01*
X153812546Y-101514764D01*
X153818079Y-101506898D01*
X153891469Y-101432595D01*
X153984260Y-101390467D01*
X154091596Y-101378722D01*
X154185386Y-101390505D01*
G37*
X154185386Y-101390505D02*
X154260039Y-101427727D01*
X154325931Y-101496261D01*
X154344077Y-101521648D01*
X154363845Y-101554866D01*
X154376672Y-101590945D01*
X154384010Y-101639098D01*
X154387313Y-101708536D01*
X154388038Y-101800206D01*
X154384763Y-101925830D01*
X154373377Y-102020154D01*
X154351541Y-102090523D01*
X154316919Y-102144286D01*
X154267170Y-102188788D01*
X154263514Y-102191423D01*
X154214485Y-102218377D01*
X154155445Y-102231712D01*
X154080359Y-102235000D01*
X153958295Y-102235000D01*
X153958244Y-102353497D01*
X153957108Y-102419492D01*
X153950186Y-102458202D01*
X153932098Y-102481419D01*
X153897462Y-102500933D01*
X153889145Y-102504920D01*
X153850220Y-102523603D01*
X153820083Y-102535403D01*
X153797674Y-102536422D01*
X153781933Y-102522761D01*
X153771802Y-102490522D01*
X153766223Y-102435804D01*
X153764135Y-102354711D01*
X153764481Y-102243344D01*
X153766200Y-102097802D01*
X153766737Y-102054269D01*
X153768672Y-101904205D01*
X153770404Y-101806042D01*
X153958192Y-101806042D01*
X153959248Y-101889364D01*
X153963938Y-101943880D01*
X153974551Y-101979837D01*
X153993372Y-102007482D01*
X154006150Y-102020965D01*
X154058390Y-102060417D01*
X154104642Y-102063628D01*
X154152367Y-102031049D01*
X154153577Y-102029846D01*
X154172994Y-102004668D01*
X154184807Y-101970447D01*
X154190765Y-101917748D01*
X154192620Y-101837131D01*
X154192654Y-101819271D01*
X154188170Y-101708175D01*
X154173574Y-101631161D01*
X154147150Y-101584147D01*
X154107183Y-101563050D01*
X154084084Y-101560923D01*
X154029262Y-101570900D01*
X153991658Y-101603752D01*
X153969023Y-101663857D01*
X153959106Y-101755598D01*
X153958192Y-101806042D01*
X153770404Y-101806042D01*
X153770722Y-101788060D01*
X153773373Y-101700679D01*
X153777106Y-101636905D01*
X153782407Y-101591582D01*
X153789758Y-101559555D01*
X153799643Y-101535668D01*
X153812546Y-101514764D01*
X153818079Y-101506898D01*
X153891469Y-101432595D01*
X153984260Y-101390467D01*
X154091596Y-101378722D01*
X154185386Y-101390505D01*
%TO.C,G\u002A\u002A\u002A*%
G36*
X157148224Y-79049893D02*
G01*
X157249283Y-79078577D01*
X157317309Y-79122305D01*
X157351836Y-79157865D01*
X157378417Y-79199909D01*
X157398027Y-79253746D01*
X157411641Y-79324685D01*
X157420233Y-79418037D01*
X157424779Y-79539111D01*
X157426252Y-79693217D01*
X157426269Y-79715806D01*
X157426269Y-80078385D01*
X157152731Y-80078385D01*
X157152731Y-79739377D01*
X157151571Y-79623813D01*
X157148359Y-79518054D01*
X157143497Y-79429912D01*
X157137387Y-79367201D01*
X157132258Y-79341640D01*
X157093879Y-79281140D01*
X157036439Y-79248039D01*
X156968956Y-79242565D01*
X156900453Y-79264944D01*
X156839949Y-79315405D01*
X156826119Y-79333928D01*
X156809906Y-79360166D01*
X156798177Y-79387622D01*
X156790208Y-79422855D01*
X156785279Y-79472423D01*
X156782666Y-79542884D01*
X156781650Y-79640796D01*
X156781500Y-79739351D01*
X156781500Y-80078385D01*
X156507962Y-80078385D01*
X156507962Y-79062385D01*
X156761962Y-79062385D01*
X156761962Y-79184253D01*
X156828490Y-79133510D01*
X156928258Y-79077579D01*
X157038026Y-79049634D01*
X157148224Y-79049893D01*
G37*
X157148224Y-79049893D02*
X157249283Y-79078577D01*
X157317309Y-79122305D01*
X157351836Y-79157865D01*
X157378417Y-79199909D01*
X157398027Y-79253746D01*
X157411641Y-79324685D01*
X157420233Y-79418037D01*
X157424779Y-79539111D01*
X157426252Y-79693217D01*
X157426269Y-79715806D01*
X157426269Y-80078385D01*
X157152731Y-80078385D01*
X157152731Y-79739377D01*
X157151571Y-79623813D01*
X157148359Y-79518054D01*
X157143497Y-79429912D01*
X157137387Y-79367201D01*
X157132258Y-79341640D01*
X157093879Y-79281140D01*
X157036439Y-79248039D01*
X156968956Y-79242565D01*
X156900453Y-79264944D01*
X156839949Y-79315405D01*
X156826119Y-79333928D01*
X156809906Y-79360166D01*
X156798177Y-79387622D01*
X156790208Y-79422855D01*
X156785279Y-79472423D01*
X156782666Y-79542884D01*
X156781650Y-79640796D01*
X156781500Y-79739351D01*
X156781500Y-80078385D01*
X156507962Y-80078385D01*
X156507962Y-79062385D01*
X156761962Y-79062385D01*
X156761962Y-79184253D01*
X156828490Y-79133510D01*
X156928258Y-79077579D01*
X157038026Y-79049634D01*
X157148224Y-79049893D01*
G36*
X155810327Y-78700923D02*
G01*
X156080991Y-79373564D01*
X156142342Y-79526472D01*
X156198821Y-79668088D01*
X156248813Y-79794298D01*
X156290705Y-79900988D01*
X156322881Y-79984046D01*
X156343726Y-80039357D01*
X156351627Y-80062809D01*
X156351654Y-80063117D01*
X156333733Y-80070463D01*
X156286284Y-80074604D01*
X156218776Y-80074821D01*
X156203457Y-80074322D01*
X156055261Y-80068615D01*
X155996861Y-79917192D01*
X155938460Y-79765769D01*
X155383830Y-79765769D01*
X155272754Y-80078385D01*
X155128358Y-80078385D01*
X155058881Y-80076747D01*
X155007704Y-80072422D01*
X154984449Y-80066286D01*
X154983962Y-80065202D01*
X154990859Y-80044637D01*
X155010503Y-79991792D01*
X155041327Y-79910746D01*
X155081760Y-79805579D01*
X155130234Y-79680369D01*
X155185180Y-79539197D01*
X155188264Y-79531308D01*
X155473125Y-79531308D01*
X155658389Y-79531308D01*
X155738070Y-79530611D01*
X155800572Y-79528740D01*
X155837403Y-79526019D01*
X155843654Y-79524188D01*
X155837065Y-79502709D01*
X155819514Y-79453589D01*
X155794325Y-79385561D01*
X155764820Y-79307356D01*
X155734324Y-79227705D01*
X155706158Y-79155341D01*
X155683648Y-79098994D01*
X155670116Y-79067398D01*
X155668882Y-79064999D01*
X155654583Y-79055439D01*
X155638490Y-79080772D01*
X155633311Y-79094158D01*
X155617918Y-79136276D01*
X155593066Y-79204158D01*
X155562755Y-79286883D01*
X155542984Y-79340808D01*
X155473125Y-79531308D01*
X155188264Y-79531308D01*
X155245029Y-79386142D01*
X155251033Y-79370824D01*
X155518105Y-78689629D01*
X155810327Y-78700923D01*
G37*
X155810327Y-78700923D02*
X156080991Y-79373564D01*
X156142342Y-79526472D01*
X156198821Y-79668088D01*
X156248813Y-79794298D01*
X156290705Y-79900988D01*
X156322881Y-79984046D01*
X156343726Y-80039357D01*
X156351627Y-80062809D01*
X156351654Y-80063117D01*
X156333733Y-80070463D01*
X156286284Y-80074604D01*
X156218776Y-80074821D01*
X156203457Y-80074322D01*
X156055261Y-80068615D01*
X155996861Y-79917192D01*
X155938460Y-79765769D01*
X155383830Y-79765769D01*
X155272754Y-80078385D01*
X155128358Y-80078385D01*
X155058881Y-80076747D01*
X155007704Y-80072422D01*
X154984449Y-80066286D01*
X154983962Y-80065202D01*
X154990859Y-80044637D01*
X155010503Y-79991792D01*
X155041327Y-79910746D01*
X155081760Y-79805579D01*
X155130234Y-79680369D01*
X155185180Y-79539197D01*
X155188264Y-79531308D01*
X155473125Y-79531308D01*
X155658389Y-79531308D01*
X155738070Y-79530611D01*
X155800572Y-79528740D01*
X155837403Y-79526019D01*
X155843654Y-79524188D01*
X155837065Y-79502709D01*
X155819514Y-79453589D01*
X155794325Y-79385561D01*
X155764820Y-79307356D01*
X155734324Y-79227705D01*
X155706158Y-79155341D01*
X155683648Y-79098994D01*
X155670116Y-79067398D01*
X155668882Y-79064999D01*
X155654583Y-79055439D01*
X155638490Y-79080772D01*
X155633311Y-79094158D01*
X155617918Y-79136276D01*
X155593066Y-79204158D01*
X155562755Y-79286883D01*
X155542984Y-79340808D01*
X155473125Y-79531308D01*
X155188264Y-79531308D01*
X155245029Y-79386142D01*
X155251033Y-79370824D01*
X155518105Y-78689629D01*
X155810327Y-78700923D01*
G36*
X159236913Y-79048541D02*
G01*
X159357095Y-79065885D01*
X159445954Y-79098931D01*
X159509040Y-79150434D01*
X159541277Y-79199818D01*
X159554898Y-79233416D01*
X159564479Y-79275991D01*
X159570662Y-79334496D01*
X159574087Y-79415885D01*
X159575394Y-79527109D01*
X159575470Y-79571011D01*
X159577662Y-79719595D01*
X159583973Y-79843220D01*
X159594055Y-79936532D01*
X159601946Y-79976434D01*
X159628391Y-80078385D01*
X159503770Y-80078385D01*
X159435235Y-80077084D01*
X159395408Y-80070829D01*
X159373946Y-80056093D01*
X159360577Y-80029538D01*
X159335829Y-79988884D01*
X159308635Y-79984071D01*
X159290935Y-80002265D01*
X159256543Y-80031382D01*
X159196550Y-80059943D01*
X159124200Y-80083146D01*
X159052737Y-80096186D01*
X159028423Y-80097478D01*
X158943711Y-80086549D01*
X158859954Y-80057994D01*
X158856599Y-80056362D01*
X158776598Y-79997375D01*
X158724428Y-79918778D01*
X158700615Y-79828915D01*
X158703507Y-79775989D01*
X158969808Y-79775989D01*
X158986333Y-79836638D01*
X159030070Y-79878780D01*
X159092261Y-79899175D01*
X159164146Y-79894583D01*
X159224013Y-79870002D01*
X159285304Y-79813812D01*
X159316609Y-79734245D01*
X159321500Y-79675610D01*
X159318081Y-79630098D01*
X159304501Y-79614802D01*
X159287308Y-79617197D01*
X159248701Y-79627327D01*
X159189118Y-79641386D01*
X159155423Y-79648904D01*
X159058854Y-79677248D01*
X158998444Y-79712974D01*
X158971686Y-79757800D01*
X158969808Y-79775989D01*
X158703507Y-79775989D01*
X158705686Y-79736131D01*
X158740166Y-79648771D01*
X158804580Y-79575178D01*
X158825308Y-79559985D01*
X158870659Y-79538189D01*
X158942540Y-79512969D01*
X159029101Y-79488239D01*
X159079308Y-79476121D01*
X159181001Y-79452671D01*
X159250061Y-79433881D01*
X159292102Y-79416399D01*
X159312737Y-79396873D01*
X159317581Y-79371951D01*
X159312248Y-79338282D01*
X159312010Y-79337192D01*
X159283076Y-79283393D01*
X159230972Y-79250396D01*
X159165357Y-79237805D01*
X159095886Y-79245225D01*
X159032218Y-79272257D01*
X158984010Y-79318507D01*
X158967809Y-79351319D01*
X158949419Y-79363850D01*
X158903156Y-79364029D01*
X158857060Y-79357948D01*
X158797091Y-79346689D01*
X158754376Y-79335412D01*
X158742084Y-79329635D01*
X158739332Y-79302057D01*
X158756609Y-79255793D01*
X158788380Y-79201708D01*
X158829109Y-79150672D01*
X158837682Y-79141943D01*
X158921572Y-79086554D01*
X159035248Y-79054270D01*
X159176631Y-79045578D01*
X159236913Y-79048541D01*
G37*
X159236913Y-79048541D02*
X159357095Y-79065885D01*
X159445954Y-79098931D01*
X159509040Y-79150434D01*
X159541277Y-79199818D01*
X159554898Y-79233416D01*
X159564479Y-79275991D01*
X159570662Y-79334496D01*
X159574087Y-79415885D01*
X159575394Y-79527109D01*
X159575470Y-79571011D01*
X159577662Y-79719595D01*
X159583973Y-79843220D01*
X159594055Y-79936532D01*
X159601946Y-79976434D01*
X159628391Y-80078385D01*
X159503770Y-80078385D01*
X159435235Y-80077084D01*
X159395408Y-80070829D01*
X159373946Y-80056093D01*
X159360577Y-80029538D01*
X159335829Y-79988884D01*
X159308635Y-79984071D01*
X159290935Y-80002265D01*
X159256543Y-80031382D01*
X159196550Y-80059943D01*
X159124200Y-80083146D01*
X159052737Y-80096186D01*
X159028423Y-80097478D01*
X158943711Y-80086549D01*
X158859954Y-80057994D01*
X158856599Y-80056362D01*
X158776598Y-79997375D01*
X158724428Y-79918778D01*
X158700615Y-79828915D01*
X158703507Y-79775989D01*
X158969808Y-79775989D01*
X158986333Y-79836638D01*
X159030070Y-79878780D01*
X159092261Y-79899175D01*
X159164146Y-79894583D01*
X159224013Y-79870002D01*
X159285304Y-79813812D01*
X159316609Y-79734245D01*
X159321500Y-79675610D01*
X159318081Y-79630098D01*
X159304501Y-79614802D01*
X159287308Y-79617197D01*
X159248701Y-79627327D01*
X159189118Y-79641386D01*
X159155423Y-79648904D01*
X159058854Y-79677248D01*
X158998444Y-79712974D01*
X158971686Y-79757800D01*
X158969808Y-79775989D01*
X158703507Y-79775989D01*
X158705686Y-79736131D01*
X158740166Y-79648771D01*
X158804580Y-79575178D01*
X158825308Y-79559985D01*
X158870659Y-79538189D01*
X158942540Y-79512969D01*
X159029101Y-79488239D01*
X159079308Y-79476121D01*
X159181001Y-79452671D01*
X159250061Y-79433881D01*
X159292102Y-79416399D01*
X159312737Y-79396873D01*
X159317581Y-79371951D01*
X159312248Y-79338282D01*
X159312010Y-79337192D01*
X159283076Y-79283393D01*
X159230972Y-79250396D01*
X159165357Y-79237805D01*
X159095886Y-79245225D01*
X159032218Y-79272257D01*
X158984010Y-79318507D01*
X158967809Y-79351319D01*
X158949419Y-79363850D01*
X158903156Y-79364029D01*
X158857060Y-79357948D01*
X158797091Y-79346689D01*
X158754376Y-79335412D01*
X158742084Y-79329635D01*
X158739332Y-79302057D01*
X158756609Y-79255793D01*
X158788380Y-79201708D01*
X158829109Y-79150672D01*
X158837682Y-79141943D01*
X158921572Y-79086554D01*
X159035248Y-79054270D01*
X159176631Y-79045578D01*
X159236913Y-79048541D01*
G36*
X158244533Y-79052418D02*
G01*
X158360001Y-79094956D01*
X158441369Y-79151819D01*
X158488038Y-79201471D01*
X158526952Y-79255979D01*
X158552362Y-79305476D01*
X158558520Y-79340096D01*
X158555027Y-79346909D01*
X158531948Y-79355019D01*
X158482049Y-79366106D01*
X158430281Y-79375382D01*
X158361440Y-79384356D01*
X158322941Y-79382884D01*
X158307386Y-79370647D01*
X158307191Y-79370095D01*
X158288877Y-79341404D01*
X158253895Y-79301055D01*
X158245194Y-79292149D01*
X158176209Y-79246564D01*
X158101051Y-79238474D01*
X158024359Y-79267824D01*
X157988308Y-79295243D01*
X157924500Y-79352256D01*
X157924500Y-79557580D01*
X157928138Y-79676297D01*
X157940931Y-79762529D01*
X157965699Y-79822347D01*
X158005265Y-79861827D01*
X158062447Y-79887041D01*
X158079707Y-79891797D01*
X158162464Y-79896157D01*
X158231166Y-79864150D01*
X158285019Y-79796171D01*
X158289136Y-79788250D01*
X158312338Y-79743971D01*
X158327916Y-79717651D01*
X158329416Y-79715802D01*
X158351062Y-79714659D01*
X158397857Y-79719257D01*
X158456652Y-79727574D01*
X158514299Y-79737587D01*
X158557648Y-79747271D01*
X158573080Y-79753298D01*
X158573247Y-79778083D01*
X158555817Y-79823711D01*
X158526350Y-79879547D01*
X158490404Y-79934958D01*
X158456466Y-79976343D01*
X158375902Y-80034647D01*
X158270652Y-80074744D01*
X158151584Y-80094637D01*
X158029568Y-80092329D01*
X157934269Y-80072258D01*
X157857021Y-80031882D01*
X157779892Y-79965077D01*
X157713286Y-79883116D01*
X157667606Y-79797269D01*
X157660374Y-79775473D01*
X157632804Y-79621735D01*
X157637226Y-79474651D01*
X157672472Y-79340181D01*
X157737373Y-79224287D01*
X157777506Y-79178210D01*
X157878072Y-79103044D01*
X157995086Y-79056799D01*
X158120067Y-79039811D01*
X158244533Y-79052418D01*
G37*
X158244533Y-79052418D02*
X158360001Y-79094956D01*
X158441369Y-79151819D01*
X158488038Y-79201471D01*
X158526952Y-79255979D01*
X158552362Y-79305476D01*
X158558520Y-79340096D01*
X158555027Y-79346909D01*
X158531948Y-79355019D01*
X158482049Y-79366106D01*
X158430281Y-79375382D01*
X158361440Y-79384356D01*
X158322941Y-79382884D01*
X158307386Y-79370647D01*
X158307191Y-79370095D01*
X158288877Y-79341404D01*
X158253895Y-79301055D01*
X158245194Y-79292149D01*
X158176209Y-79246564D01*
X158101051Y-79238474D01*
X158024359Y-79267824D01*
X157988308Y-79295243D01*
X157924500Y-79352256D01*
X157924500Y-79557580D01*
X157928138Y-79676297D01*
X157940931Y-79762529D01*
X157965699Y-79822347D01*
X158005265Y-79861827D01*
X158062447Y-79887041D01*
X158079707Y-79891797D01*
X158162464Y-79896157D01*
X158231166Y-79864150D01*
X158285019Y-79796171D01*
X158289136Y-79788250D01*
X158312338Y-79743971D01*
X158327916Y-79717651D01*
X158329416Y-79715802D01*
X158351062Y-79714659D01*
X158397857Y-79719257D01*
X158456652Y-79727574D01*
X158514299Y-79737587D01*
X158557648Y-79747271D01*
X158573080Y-79753298D01*
X158573247Y-79778083D01*
X158555817Y-79823711D01*
X158526350Y-79879547D01*
X158490404Y-79934958D01*
X158456466Y-79976343D01*
X158375902Y-80034647D01*
X158270652Y-80074744D01*
X158151584Y-80094637D01*
X158029568Y-80092329D01*
X157934269Y-80072258D01*
X157857021Y-80031882D01*
X157779892Y-79965077D01*
X157713286Y-79883116D01*
X157667606Y-79797269D01*
X157660374Y-79775473D01*
X157632804Y-79621735D01*
X157637226Y-79474651D01*
X157672472Y-79340181D01*
X157737373Y-79224287D01*
X157777506Y-79178210D01*
X157878072Y-79103044D01*
X157995086Y-79056799D01*
X158120067Y-79039811D01*
X158244533Y-79052418D01*
G36*
X159486893Y-76551977D02*
G01*
X159686456Y-76580328D01*
X159892400Y-76624683D01*
X160091462Y-76682505D01*
X160152917Y-76703939D01*
X160362685Y-76798709D01*
X160567703Y-76925732D01*
X160759435Y-77078369D01*
X160929345Y-77249980D01*
X161044435Y-77397353D01*
X161168164Y-77609374D01*
X161263676Y-77843885D01*
X161329332Y-78094731D01*
X161363494Y-78355756D01*
X161365511Y-78603231D01*
X161345966Y-78825303D01*
X161309623Y-79037783D01*
X161254095Y-79249082D01*
X161176997Y-79467613D01*
X161075944Y-79701788D01*
X161021968Y-79814615D01*
X160836256Y-80157448D01*
X160612183Y-80507599D01*
X160349771Y-80865046D01*
X160049039Y-81229763D01*
X159710007Y-81601726D01*
X159332696Y-81980910D01*
X158917127Y-82367292D01*
X158823269Y-82450873D01*
X158714044Y-82546078D01*
X158593230Y-82649035D01*
X158464435Y-82756879D01*
X158331265Y-82866740D01*
X158197328Y-82975754D01*
X158066231Y-83081050D01*
X157941581Y-83179764D01*
X157826985Y-83269027D01*
X157726051Y-83345971D01*
X157642386Y-83407731D01*
X157579596Y-83451437D01*
X157541290Y-83474224D01*
X157532524Y-83476882D01*
X157506065Y-83471017D01*
X157452910Y-83456609D01*
X157383723Y-83436570D01*
X157371495Y-83432921D01*
X157333365Y-83421414D01*
X157299936Y-83410210D01*
X157267855Y-83396881D01*
X157233765Y-83379000D01*
X157201693Y-83358790D01*
X157267726Y-83358790D01*
X157390959Y-83397067D01*
X157456019Y-83416900D01*
X157505781Y-83431375D01*
X157528610Y-83437172D01*
X157548122Y-83426423D01*
X157593013Y-83395508D01*
X157657883Y-83348334D01*
X157737331Y-83288810D01*
X157802149Y-83239251D01*
X158307093Y-82838158D01*
X158773575Y-82442994D01*
X159201735Y-82053608D01*
X159591714Y-81669846D01*
X159943650Y-81291557D01*
X160257683Y-80918590D01*
X160533953Y-80550791D01*
X160772600Y-80188010D01*
X160973762Y-79830094D01*
X161020601Y-79736461D01*
X161137582Y-79473181D01*
X161224544Y-79222373D01*
X161283962Y-78974801D01*
X161318308Y-78721227D01*
X161326670Y-78593461D01*
X161323439Y-78320409D01*
X161287684Y-78065962D01*
X161218358Y-77825570D01*
X161114414Y-77594680D01*
X161084262Y-77540284D01*
X160947658Y-77334325D01*
X160788242Y-77154860D01*
X160600812Y-76996650D01*
X160435695Y-76886960D01*
X160262932Y-76797468D01*
X160064972Y-76719462D01*
X159853555Y-76656145D01*
X159640416Y-76610721D01*
X159437295Y-76586392D01*
X159322968Y-76583284D01*
X159174962Y-76585568D01*
X159282423Y-76602516D01*
X159562857Y-76664364D01*
X159825165Y-76757699D01*
X160066955Y-76880801D01*
X160285834Y-77031947D01*
X160479408Y-77209416D01*
X160645284Y-77411485D01*
X160781071Y-77636434D01*
X160813912Y-77704461D01*
X160886448Y-77899020D01*
X160939531Y-78117913D01*
X160972010Y-78350947D01*
X160982730Y-78587929D01*
X160970540Y-78818665D01*
X160953595Y-78939538D01*
X160888258Y-79225264D01*
X160791518Y-79514742D01*
X160662686Y-79809040D01*
X160501077Y-80109228D01*
X160306000Y-80416374D01*
X160076770Y-80731546D01*
X159812698Y-81055813D01*
X159513097Y-81390243D01*
X159177279Y-81735906D01*
X159113725Y-81798623D01*
X158625236Y-82257536D01*
X158110650Y-82701057D01*
X157563806Y-83134482D01*
X157526682Y-83162671D01*
X157267726Y-83358790D01*
X157201693Y-83358790D01*
X157194311Y-83354139D01*
X157146139Y-83319870D01*
X157085893Y-83273766D01*
X157010217Y-83213397D01*
X156915757Y-83136338D01*
X156799157Y-83040160D01*
X156657062Y-82922435D01*
X156595885Y-82871712D01*
X156178074Y-82519006D01*
X155794553Y-82181836D01*
X155444321Y-81858958D01*
X155126375Y-81549129D01*
X154839714Y-81251106D01*
X154583336Y-80963647D01*
X154356240Y-80685509D01*
X154157423Y-80415448D01*
X153985885Y-80152221D01*
X153840622Y-79894587D01*
X153720635Y-79641301D01*
X153624921Y-79391122D01*
X153552478Y-79142805D01*
X153536788Y-79075964D01*
X153493620Y-78801832D01*
X153484721Y-78527169D01*
X153487353Y-78497730D01*
X153523458Y-78497730D01*
X153524712Y-78687806D01*
X153554780Y-78957768D01*
X153614658Y-79229457D01*
X153705120Y-79504201D01*
X153826944Y-79783332D01*
X153980904Y-80068178D01*
X154167777Y-80360070D01*
X154388338Y-80660337D01*
X154643364Y-80970310D01*
X154933629Y-81291318D01*
X155207871Y-81573077D01*
X155324372Y-81688750D01*
X155432847Y-81795232D01*
X155536425Y-81895280D01*
X155638236Y-81991653D01*
X155741410Y-82087109D01*
X155849075Y-82184408D01*
X155964360Y-82286306D01*
X156090396Y-82395563D01*
X156230312Y-82514937D01*
X156387236Y-82647187D01*
X156564298Y-82795071D01*
X156764628Y-82961348D01*
X156991354Y-83148776D01*
X157055039Y-83201333D01*
X157122302Y-83256603D01*
X157177438Y-83301481D01*
X157214141Y-83330860D01*
X157226126Y-83339831D01*
X157242486Y-83329080D01*
X157284034Y-83298529D01*
X157345139Y-83252404D01*
X157420169Y-83194929D01*
X157450818Y-83171257D01*
X157833401Y-82870490D01*
X158183518Y-82585446D01*
X158503499Y-82314064D01*
X158795676Y-82054283D01*
X159062377Y-81804043D01*
X159305934Y-81561283D01*
X159482148Y-81374919D01*
X159789057Y-81026921D01*
X160059085Y-80690155D01*
X160292572Y-80363962D01*
X160489861Y-80047685D01*
X160651294Y-79740667D01*
X160777214Y-79442250D01*
X160867961Y-79151775D01*
X160923878Y-78868587D01*
X160945308Y-78592026D01*
X160945576Y-78561365D01*
X160941832Y-78393225D01*
X160928392Y-78247145D01*
X160902893Y-78106802D01*
X160862974Y-77955875D01*
X160853322Y-77923865D01*
X160760429Y-77685229D01*
X160635302Y-77466165D01*
X160480451Y-77268360D01*
X160298388Y-77093504D01*
X160091624Y-76943283D01*
X159862668Y-76819387D01*
X159614031Y-76723504D01*
X159348225Y-76657320D01*
X159067759Y-76622526D01*
X158910262Y-76617382D01*
X158644112Y-76633262D01*
X158397608Y-76682229D01*
X158168027Y-76765323D01*
X157952647Y-76883589D01*
X157748746Y-77038069D01*
X157701281Y-77080588D01*
X157611156Y-77172023D01*
X157516432Y-77282044D01*
X157425900Y-77399327D01*
X157348353Y-77512551D01*
X157297272Y-77600942D01*
X157267687Y-77653175D01*
X157242430Y-77687209D01*
X157231512Y-77694692D01*
X157213666Y-77678867D01*
X157183750Y-77637189D01*
X157147951Y-77578359D01*
X157144683Y-77572577D01*
X156994823Y-77343838D01*
X156819071Y-77143846D01*
X156619335Y-76973913D01*
X156397524Y-76835351D01*
X156155548Y-76729474D01*
X155895315Y-76657594D01*
X155786624Y-76638668D01*
X155644991Y-76625343D01*
X155482174Y-76621964D01*
X155311569Y-76627908D01*
X155146576Y-76642551D01*
X155000594Y-76665267D01*
X154944885Y-76677902D01*
X154787892Y-76727688D01*
X154619995Y-76797055D01*
X154456956Y-76878698D01*
X154314538Y-76965315D01*
X154294613Y-76979221D01*
X154113046Y-77131957D01*
X153951502Y-77314472D01*
X153812249Y-77521738D01*
X153697552Y-77748726D01*
X153609677Y-77990407D01*
X153550890Y-78241751D01*
X153523458Y-78497730D01*
X153487353Y-78497730D01*
X153508947Y-78256278D01*
X153565153Y-77993459D01*
X153652196Y-77743015D01*
X153768931Y-77509248D01*
X153914215Y-77296458D01*
X154050620Y-77143833D01*
X154259938Y-76962555D01*
X154486546Y-76816186D01*
X154729448Y-76705186D01*
X154987647Y-76630014D01*
X155247731Y-76592082D01*
X155319505Y-76586185D01*
X155781591Y-76586185D01*
X155785867Y-76590653D01*
X155804577Y-76594431D01*
X156003910Y-76638850D01*
X156204294Y-76704282D01*
X156394155Y-76786091D01*
X156561919Y-76879645D01*
X156625552Y-76923187D01*
X156703783Y-76987827D01*
X156794853Y-77074386D01*
X156890701Y-77174044D01*
X156983266Y-77277983D01*
X157064487Y-77377386D01*
X157126303Y-77463434D01*
X157140652Y-77486679D01*
X157178700Y-77548381D01*
X157210784Y-77594199D01*
X157230999Y-77615841D01*
X157233131Y-77616538D01*
X157250603Y-77600597D01*
X157277650Y-77559648D01*
X157297382Y-77523731D01*
X157330448Y-77462615D01*
X157361412Y-77410748D01*
X157373927Y-77392342D01*
X157388571Y-77366878D01*
X157386896Y-77340981D01*
X157365889Y-77303169D01*
X157341293Y-77267952D01*
X157270579Y-77182301D01*
X157177205Y-77087445D01*
X157072329Y-76993756D01*
X156967110Y-76911609D01*
X156931681Y-76887115D01*
X156717491Y-76767730D01*
X156478935Y-76677014D01*
X156219444Y-76616172D01*
X156117705Y-76601337D01*
X156051998Y-76594553D01*
X155981265Y-76589276D01*
X155912182Y-76585653D01*
X155851424Y-76583832D01*
X155805668Y-76583960D01*
X155781591Y-76586185D01*
X155319505Y-76586185D01*
X155333734Y-76585016D01*
X155442786Y-76575759D01*
X155559022Y-76565667D01*
X155639037Y-76558577D01*
X155927804Y-76549164D01*
X156203858Y-76573167D01*
X156464610Y-76629907D01*
X156707472Y-76718704D01*
X156929853Y-76838880D01*
X157059788Y-76931592D01*
X157182526Y-77035820D01*
X157290303Y-77141296D01*
X157374497Y-77239406D01*
X157392020Y-77263446D01*
X157425061Y-77310893D01*
X157544176Y-77180900D01*
X157713072Y-77018643D01*
X157902897Y-76874999D01*
X158104971Y-76755427D01*
X158310617Y-76665384D01*
X158417342Y-76631703D01*
X158484086Y-76617756D01*
X158581144Y-76602840D01*
X158699796Y-76587834D01*
X158831324Y-76573615D01*
X158967008Y-76561061D01*
X159098128Y-76551050D01*
X159215966Y-76544458D01*
X159306975Y-76542164D01*
X159486893Y-76551977D01*
G37*
X159486893Y-76551977D02*
X159686456Y-76580328D01*
X159892400Y-76624683D01*
X160091462Y-76682505D01*
X160152917Y-76703939D01*
X160362685Y-76798709D01*
X160567703Y-76925732D01*
X160759435Y-77078369D01*
X160929345Y-77249980D01*
X161044435Y-77397353D01*
X161168164Y-77609374D01*
X161263676Y-77843885D01*
X161329332Y-78094731D01*
X161363494Y-78355756D01*
X161365511Y-78603231D01*
X161345966Y-78825303D01*
X161309623Y-79037783D01*
X161254095Y-79249082D01*
X161176997Y-79467613D01*
X161075944Y-79701788D01*
X161021968Y-79814615D01*
X160836256Y-80157448D01*
X160612183Y-80507599D01*
X160349771Y-80865046D01*
X160049039Y-81229763D01*
X159710007Y-81601726D01*
X159332696Y-81980910D01*
X158917127Y-82367292D01*
X158823269Y-82450873D01*
X158714044Y-82546078D01*
X158593230Y-82649035D01*
X158464435Y-82756879D01*
X158331265Y-82866740D01*
X158197328Y-82975754D01*
X158066231Y-83081050D01*
X157941581Y-83179764D01*
X157826985Y-83269027D01*
X157726051Y-83345971D01*
X157642386Y-83407731D01*
X157579596Y-83451437D01*
X157541290Y-83474224D01*
X157532524Y-83476882D01*
X157506065Y-83471017D01*
X157452910Y-83456609D01*
X157383723Y-83436570D01*
X157371495Y-83432921D01*
X157333365Y-83421414D01*
X157299936Y-83410210D01*
X157267855Y-83396881D01*
X157233765Y-83379000D01*
X157201693Y-83358790D01*
X157267726Y-83358790D01*
X157390959Y-83397067D01*
X157456019Y-83416900D01*
X157505781Y-83431375D01*
X157528610Y-83437172D01*
X157548122Y-83426423D01*
X157593013Y-83395508D01*
X157657883Y-83348334D01*
X157737331Y-83288810D01*
X157802149Y-83239251D01*
X158307093Y-82838158D01*
X158773575Y-82442994D01*
X159201735Y-82053608D01*
X159591714Y-81669846D01*
X159943650Y-81291557D01*
X160257683Y-80918590D01*
X160533953Y-80550791D01*
X160772600Y-80188010D01*
X160973762Y-79830094D01*
X161020601Y-79736461D01*
X161137582Y-79473181D01*
X161224544Y-79222373D01*
X161283962Y-78974801D01*
X161318308Y-78721227D01*
X161326670Y-78593461D01*
X161323439Y-78320409D01*
X161287684Y-78065962D01*
X161218358Y-77825570D01*
X161114414Y-77594680D01*
X161084262Y-77540284D01*
X160947658Y-77334325D01*
X160788242Y-77154860D01*
X160600812Y-76996650D01*
X160435695Y-76886960D01*
X160262932Y-76797468D01*
X160064972Y-76719462D01*
X159853555Y-76656145D01*
X159640416Y-76610721D01*
X159437295Y-76586392D01*
X159322968Y-76583284D01*
X159174962Y-76585568D01*
X159282423Y-76602516D01*
X159562857Y-76664364D01*
X159825165Y-76757699D01*
X160066955Y-76880801D01*
X160285834Y-77031947D01*
X160479408Y-77209416D01*
X160645284Y-77411485D01*
X160781071Y-77636434D01*
X160813912Y-77704461D01*
X160886448Y-77899020D01*
X160939531Y-78117913D01*
X160972010Y-78350947D01*
X160982730Y-78587929D01*
X160970540Y-78818665D01*
X160953595Y-78939538D01*
X160888258Y-79225264D01*
X160791518Y-79514742D01*
X160662686Y-79809040D01*
X160501077Y-80109228D01*
X160306000Y-80416374D01*
X160076770Y-80731546D01*
X159812698Y-81055813D01*
X159513097Y-81390243D01*
X159177279Y-81735906D01*
X159113725Y-81798623D01*
X158625236Y-82257536D01*
X158110650Y-82701057D01*
X157563806Y-83134482D01*
X157526682Y-83162671D01*
X157267726Y-83358790D01*
X157201693Y-83358790D01*
X157194311Y-83354139D01*
X157146139Y-83319870D01*
X157085893Y-83273766D01*
X157010217Y-83213397D01*
X156915757Y-83136338D01*
X156799157Y-83040160D01*
X156657062Y-82922435D01*
X156595885Y-82871712D01*
X156178074Y-82519006D01*
X155794553Y-82181836D01*
X155444321Y-81858958D01*
X155126375Y-81549129D01*
X154839714Y-81251106D01*
X154583336Y-80963647D01*
X154356240Y-80685509D01*
X154157423Y-80415448D01*
X153985885Y-80152221D01*
X153840622Y-79894587D01*
X153720635Y-79641301D01*
X153624921Y-79391122D01*
X153552478Y-79142805D01*
X153536788Y-79075964D01*
X153493620Y-78801832D01*
X153484721Y-78527169D01*
X153487353Y-78497730D01*
X153523458Y-78497730D01*
X153524712Y-78687806D01*
X153554780Y-78957768D01*
X153614658Y-79229457D01*
X153705120Y-79504201D01*
X153826944Y-79783332D01*
X153980904Y-80068178D01*
X154167777Y-80360070D01*
X154388338Y-80660337D01*
X154643364Y-80970310D01*
X154933629Y-81291318D01*
X155207871Y-81573077D01*
X155324372Y-81688750D01*
X155432847Y-81795232D01*
X155536425Y-81895280D01*
X155638236Y-81991653D01*
X155741410Y-82087109D01*
X155849075Y-82184408D01*
X155964360Y-82286306D01*
X156090396Y-82395563D01*
X156230312Y-82514937D01*
X156387236Y-82647187D01*
X156564298Y-82795071D01*
X156764628Y-82961348D01*
X156991354Y-83148776D01*
X157055039Y-83201333D01*
X157122302Y-83256603D01*
X157177438Y-83301481D01*
X157214141Y-83330860D01*
X157226126Y-83339831D01*
X157242486Y-83329080D01*
X157284034Y-83298529D01*
X157345139Y-83252404D01*
X157420169Y-83194929D01*
X157450818Y-83171257D01*
X157833401Y-82870490D01*
X158183518Y-82585446D01*
X158503499Y-82314064D01*
X158795676Y-82054283D01*
X159062377Y-81804043D01*
X159305934Y-81561283D01*
X159482148Y-81374919D01*
X159789057Y-81026921D01*
X160059085Y-80690155D01*
X160292572Y-80363962D01*
X160489861Y-80047685D01*
X160651294Y-79740667D01*
X160777214Y-79442250D01*
X160867961Y-79151775D01*
X160923878Y-78868587D01*
X160945308Y-78592026D01*
X160945576Y-78561365D01*
X160941832Y-78393225D01*
X160928392Y-78247145D01*
X160902893Y-78106802D01*
X160862974Y-77955875D01*
X160853322Y-77923865D01*
X160760429Y-77685229D01*
X160635302Y-77466165D01*
X160480451Y-77268360D01*
X160298388Y-77093504D01*
X160091624Y-76943283D01*
X159862668Y-76819387D01*
X159614031Y-76723504D01*
X159348225Y-76657320D01*
X159067759Y-76622526D01*
X158910262Y-76617382D01*
X158644112Y-76633262D01*
X158397608Y-76682229D01*
X158168027Y-76765323D01*
X157952647Y-76883589D01*
X157748746Y-77038069D01*
X157701281Y-77080588D01*
X157611156Y-77172023D01*
X157516432Y-77282044D01*
X157425900Y-77399327D01*
X157348353Y-77512551D01*
X157297272Y-77600942D01*
X157267687Y-77653175D01*
X157242430Y-77687209D01*
X157231512Y-77694692D01*
X157213666Y-77678867D01*
X157183750Y-77637189D01*
X157147951Y-77578359D01*
X157144683Y-77572577D01*
X156994823Y-77343838D01*
X156819071Y-77143846D01*
X156619335Y-76973913D01*
X156397524Y-76835351D01*
X156155548Y-76729474D01*
X155895315Y-76657594D01*
X155786624Y-76638668D01*
X155644991Y-76625343D01*
X155482174Y-76621964D01*
X155311569Y-76627908D01*
X155146576Y-76642551D01*
X155000594Y-76665267D01*
X154944885Y-76677902D01*
X154787892Y-76727688D01*
X154619995Y-76797055D01*
X154456956Y-76878698D01*
X154314538Y-76965315D01*
X154294613Y-76979221D01*
X154113046Y-77131957D01*
X153951502Y-77314472D01*
X153812249Y-77521738D01*
X153697552Y-77748726D01*
X153609677Y-77990407D01*
X153550890Y-78241751D01*
X153523458Y-78497730D01*
X153487353Y-78497730D01*
X153508947Y-78256278D01*
X153565153Y-77993459D01*
X153652196Y-77743015D01*
X153768931Y-77509248D01*
X153914215Y-77296458D01*
X154050620Y-77143833D01*
X154259938Y-76962555D01*
X154486546Y-76816186D01*
X154729448Y-76705186D01*
X154987647Y-76630014D01*
X155247731Y-76592082D01*
X155319505Y-76586185D01*
X155781591Y-76586185D01*
X155785867Y-76590653D01*
X155804577Y-76594431D01*
X156003910Y-76638850D01*
X156204294Y-76704282D01*
X156394155Y-76786091D01*
X156561919Y-76879645D01*
X156625552Y-76923187D01*
X156703783Y-76987827D01*
X156794853Y-77074386D01*
X156890701Y-77174044D01*
X156983266Y-77277983D01*
X157064487Y-77377386D01*
X157126303Y-77463434D01*
X157140652Y-77486679D01*
X157178700Y-77548381D01*
X157210784Y-77594199D01*
X157230999Y-77615841D01*
X157233131Y-77616538D01*
X157250603Y-77600597D01*
X157277650Y-77559648D01*
X157297382Y-77523731D01*
X157330448Y-77462615D01*
X157361412Y-77410748D01*
X157373927Y-77392342D01*
X157388571Y-77366878D01*
X157386896Y-77340981D01*
X157365889Y-77303169D01*
X157341293Y-77267952D01*
X157270579Y-77182301D01*
X157177205Y-77087445D01*
X157072329Y-76993756D01*
X156967110Y-76911609D01*
X156931681Y-76887115D01*
X156717491Y-76767730D01*
X156478935Y-76677014D01*
X156219444Y-76616172D01*
X156117705Y-76601337D01*
X156051998Y-76594553D01*
X155981265Y-76589276D01*
X155912182Y-76585653D01*
X155851424Y-76583832D01*
X155805668Y-76583960D01*
X155781591Y-76586185D01*
X155319505Y-76586185D01*
X155333734Y-76585016D01*
X155442786Y-76575759D01*
X155559022Y-76565667D01*
X155639037Y-76558577D01*
X155927804Y-76549164D01*
X156203858Y-76573167D01*
X156464610Y-76629907D01*
X156707472Y-76718704D01*
X156929853Y-76838880D01*
X157059788Y-76931592D01*
X157182526Y-77035820D01*
X157290303Y-77141296D01*
X157374497Y-77239406D01*
X157392020Y-77263446D01*
X157425061Y-77310893D01*
X157544176Y-77180900D01*
X157713072Y-77018643D01*
X157902897Y-76874999D01*
X158104971Y-76755427D01*
X158310617Y-76665384D01*
X158417342Y-76631703D01*
X158484086Y-76617756D01*
X158581144Y-76602840D01*
X158699796Y-76587834D01*
X158831324Y-76573615D01*
X158967008Y-76561061D01*
X159098128Y-76551050D01*
X159215966Y-76544458D01*
X159306975Y-76542164D01*
X159486893Y-76551977D01*
D11*
%TO.C,SW8*%
X63352500Y-95730000D02*
X63352500Y-111224000D01*
X63352500Y-111224000D02*
X78846500Y-111224000D01*
X78846500Y-111224000D02*
X78846500Y-95730000D01*
X78846500Y-95730000D02*
X63352500Y-95730000D01*
%TO.C,SW15*%
X88016300Y-108846000D02*
X88016300Y-124340000D01*
X88016300Y-124340000D02*
X103510300Y-124340000D01*
X103510300Y-124340000D02*
X103510300Y-108846000D01*
X103510300Y-108846000D02*
X88016300Y-108846000D01*
%TO.C,SW19*%
X186671500Y-108846000D02*
X186671500Y-124340000D01*
X186671500Y-124340000D02*
X202165500Y-124340000D01*
X202165500Y-124340000D02*
X202165500Y-108846000D01*
X202165500Y-108846000D02*
X186671500Y-108846000D01*
%TO.C,SW14*%
X211335500Y-95730000D02*
X211335500Y-111224000D01*
X211335500Y-111224000D02*
X226829500Y-111224000D01*
X226829500Y-111224000D02*
X226829500Y-95730000D01*
X226829500Y-95730000D02*
X211335500Y-95730000D01*
%TO.C,SW5*%
X162007700Y-59576000D02*
X162007700Y-75070000D01*
X162007700Y-75070000D02*
X177501700Y-75070000D01*
X177501700Y-75070000D02*
X177501700Y-59576000D01*
X177501700Y-59576000D02*
X162007700Y-59576000D01*
%TO.C,SW2*%
X88016300Y-59576000D02*
X88016300Y-75070000D01*
X88016300Y-75070000D02*
X103510300Y-75070000D01*
X103510300Y-75070000D02*
X103510300Y-59576000D01*
X103510300Y-59576000D02*
X88016300Y-59576000D01*
%TO.C,SW18*%
X162007700Y-108846000D02*
X162007700Y-124340000D01*
X162007700Y-124340000D02*
X177501700Y-124340000D01*
X177501700Y-124340000D02*
X177501700Y-108846000D01*
X177501700Y-108846000D02*
X162007700Y-108846000D01*
%TO.C,SW16*%
X112680100Y-108846000D02*
X112680100Y-124340000D01*
X112680100Y-124340000D02*
X128174100Y-124340000D01*
X128174100Y-124340000D02*
X128174100Y-108846000D01*
X128174100Y-108846000D02*
X112680100Y-108846000D01*
%TO.C,SW13*%
X186671500Y-84211000D02*
X186671500Y-99705000D01*
X186671500Y-99705000D02*
X202165500Y-99705000D01*
X202165500Y-99705000D02*
X202165500Y-84211000D01*
X202165500Y-84211000D02*
X186671500Y-84211000D01*
%TO.C,SW12*%
X162007700Y-84211000D02*
X162007700Y-99705000D01*
X162007700Y-99705000D02*
X177501700Y-99705000D01*
X177501700Y-99705000D02*
X177501700Y-84211000D01*
X177501700Y-84211000D02*
X162007700Y-84211000D01*
%TO.C,SW11*%
X137343900Y-84211000D02*
X137343900Y-99705000D01*
X137343900Y-99705000D02*
X152837900Y-99705000D01*
X152837900Y-99705000D02*
X152837900Y-84211000D01*
X152837900Y-84211000D02*
X137343900Y-84211000D01*
%TO.C,SW10*%
X112680100Y-84211000D02*
X112680100Y-99705000D01*
X112680100Y-99705000D02*
X128174100Y-99705000D01*
X128174100Y-99705000D02*
X128174100Y-84211000D01*
X128174100Y-84211000D02*
X112680100Y-84211000D01*
%TO.C,SW7*%
X211335500Y-72692000D02*
X211335500Y-88186000D01*
X211335500Y-88186000D02*
X226829500Y-88186000D01*
X226829500Y-88186000D02*
X226829500Y-72692000D01*
X226829500Y-72692000D02*
X211335500Y-72692000D01*
%TO.C,SW6*%
X186671500Y-59576000D02*
X186671500Y-75070000D01*
X186671500Y-75070000D02*
X202165500Y-75070000D01*
X202165500Y-75070000D02*
X202165500Y-59576000D01*
X202165500Y-59576000D02*
X186671500Y-59576000D01*
%TO.C,SW4*%
X137343900Y-59576000D02*
X137343900Y-75070000D01*
X137343900Y-75070000D02*
X152837900Y-75070000D01*
X152837900Y-75070000D02*
X152837900Y-59576000D01*
X152837900Y-59576000D02*
X137343900Y-59576000D01*
%TO.C,SW3*%
X112680100Y-59576000D02*
X112680100Y-75070000D01*
X112680100Y-75070000D02*
X128174100Y-75070000D01*
X128174100Y-75070000D02*
X128174100Y-59576000D01*
X128174100Y-59576000D02*
X112680100Y-59576000D01*
D13*
%TO.C,D16*%
X133753500Y-110531000D02*
X134103500Y-110531000D01*
X133753500Y-112481000D02*
X134103500Y-112481000D01*
X134103500Y-112481000D02*
X134103500Y-110531000D01*
X131453500Y-110781000D02*
X131453500Y-110531000D01*
X131453500Y-110531000D02*
X131703500Y-110531000D01*
X131753500Y-112481000D02*
X131453500Y-112481000D01*
X131453500Y-112481000D02*
X131453500Y-112256000D01*
X134003500Y-112481000D02*
X134003500Y-110531000D01*
X133903500Y-112481000D02*
X133903500Y-110531000D01*
%TO.C,D8*%
X67332500Y-93132000D02*
X67682500Y-93132000D01*
X67332500Y-95082000D02*
X67682500Y-95082000D01*
X67682500Y-95082000D02*
X67682500Y-93132000D01*
X65032500Y-93382000D02*
X65032500Y-93132000D01*
X65032500Y-93132000D02*
X65282500Y-93132000D01*
X65332500Y-95082000D02*
X65032500Y-95082000D01*
X65032500Y-95082000D02*
X65032500Y-94857000D01*
X67582500Y-95082000D02*
X67582500Y-93132000D01*
X67482500Y-95082000D02*
X67482500Y-93132000D01*
%TO.C,D1*%
X67482500Y-72095000D02*
X67482500Y-70145000D01*
X67582500Y-72095000D02*
X67582500Y-70145000D01*
X65032500Y-72095000D02*
X65032500Y-71870000D01*
X65332500Y-72095000D02*
X65032500Y-72095000D01*
X65032500Y-70145000D02*
X65282500Y-70145000D01*
X65032500Y-70395000D02*
X65032500Y-70145000D01*
X67682500Y-72095000D02*
X67682500Y-70145000D01*
X67332500Y-72095000D02*
X67682500Y-72095000D01*
X67332500Y-70145000D02*
X67682500Y-70145000D01*
%TO.C,D2*%
X109115500Y-61255000D02*
X109465500Y-61255000D01*
X109115500Y-63205000D02*
X109465500Y-63205000D01*
X109465500Y-63205000D02*
X109465500Y-61255000D01*
X106815500Y-61505000D02*
X106815500Y-61255000D01*
X106815500Y-61255000D02*
X107065500Y-61255000D01*
X107115500Y-63205000D02*
X106815500Y-63205000D01*
X106815500Y-63205000D02*
X106815500Y-62980000D01*
X109365500Y-63205000D02*
X109365500Y-61255000D01*
X109265500Y-63205000D02*
X109265500Y-61255000D01*
%TO.C,D3*%
X133776500Y-63205000D02*
X133776500Y-61255000D01*
X133876500Y-63205000D02*
X133876500Y-61255000D01*
X131326500Y-63205000D02*
X131326500Y-62980000D01*
X131626500Y-63205000D02*
X131326500Y-63205000D01*
X131326500Y-61255000D02*
X131576500Y-61255000D01*
X131326500Y-61505000D02*
X131326500Y-61255000D01*
X133976500Y-63205000D02*
X133976500Y-61255000D01*
X133626500Y-63205000D02*
X133976500Y-63205000D01*
X133626500Y-61255000D02*
X133976500Y-61255000D01*
%TO.C,D4*%
X158391500Y-61255000D02*
X158741500Y-61255000D01*
X158391500Y-63205000D02*
X158741500Y-63205000D01*
X158741500Y-63205000D02*
X158741500Y-61255000D01*
X156091500Y-61505000D02*
X156091500Y-61255000D01*
X156091500Y-61255000D02*
X156341500Y-61255000D01*
X156391500Y-63205000D02*
X156091500Y-63205000D01*
X156091500Y-63205000D02*
X156091500Y-62980000D01*
X158641500Y-63205000D02*
X158641500Y-61255000D01*
X158541500Y-63205000D02*
X158541500Y-61255000D01*
%TO.C,D5*%
X183179500Y-63205000D02*
X183179500Y-61255000D01*
X183279500Y-63205000D02*
X183279500Y-61255000D01*
X180729500Y-63205000D02*
X180729500Y-62980000D01*
X181029500Y-63205000D02*
X180729500Y-63205000D01*
X180729500Y-61255000D02*
X180979500Y-61255000D01*
X180729500Y-61505000D02*
X180729500Y-61255000D01*
X183379500Y-63205000D02*
X183379500Y-61255000D01*
X183029500Y-63205000D02*
X183379500Y-63205000D01*
X183029500Y-61255000D02*
X183379500Y-61255000D01*
%TO.C,D6*%
X207817500Y-73492000D02*
X207817500Y-71542000D01*
X207917500Y-73492000D02*
X207917500Y-71542000D01*
X205367500Y-73492000D02*
X205367500Y-73267000D01*
X205667500Y-73492000D02*
X205367500Y-73492000D01*
X205367500Y-71542000D02*
X205617500Y-71542000D01*
X205367500Y-71792000D02*
X205367500Y-71542000D01*
X208017500Y-73492000D02*
X208017500Y-71542000D01*
X207667500Y-73492000D02*
X208017500Y-73492000D01*
X207667500Y-71542000D02*
X208017500Y-71542000D01*
%TO.C,D7*%
X225193500Y-70145000D02*
X225543500Y-70145000D01*
X225193500Y-72095000D02*
X225543500Y-72095000D01*
X225543500Y-72095000D02*
X225543500Y-70145000D01*
X222893500Y-70395000D02*
X222893500Y-70145000D01*
X222893500Y-70145000D02*
X223143500Y-70145000D01*
X223193500Y-72095000D02*
X222893500Y-72095000D01*
X222893500Y-72095000D02*
X222893500Y-71870000D01*
X225443500Y-72095000D02*
X225443500Y-70145000D01*
X225343500Y-72095000D02*
X225343500Y-70145000D01*
%TO.C,D9*%
X109265500Y-87843000D02*
X109265500Y-85893000D01*
X109365500Y-87843000D02*
X109365500Y-85893000D01*
X106815500Y-87843000D02*
X106815500Y-87618000D01*
X107115500Y-87843000D02*
X106815500Y-87843000D01*
X106815500Y-85893000D02*
X107065500Y-85893000D01*
X106815500Y-86143000D02*
X106815500Y-85893000D01*
X109465500Y-87843000D02*
X109465500Y-85893000D01*
X109115500Y-87843000D02*
X109465500Y-87843000D01*
X109115500Y-85893000D02*
X109465500Y-85893000D01*
%TO.C,D10*%
X133753500Y-85893000D02*
X134103500Y-85893000D01*
X133753500Y-87843000D02*
X134103500Y-87843000D01*
X134103500Y-87843000D02*
X134103500Y-85893000D01*
X131453500Y-86143000D02*
X131453500Y-85893000D01*
X131453500Y-85893000D02*
X131703500Y-85893000D01*
X131753500Y-87843000D02*
X131453500Y-87843000D01*
X131453500Y-87843000D02*
X131453500Y-87618000D01*
X134003500Y-87843000D02*
X134003500Y-85893000D01*
X133903500Y-87843000D02*
X133903500Y-85893000D01*
%TO.C,D11*%
X158541500Y-87843000D02*
X158541500Y-85893000D01*
X158641500Y-87843000D02*
X158641500Y-85893000D01*
X156091500Y-87843000D02*
X156091500Y-87618000D01*
X156391500Y-87843000D02*
X156091500Y-87843000D01*
X156091500Y-85893000D02*
X156341500Y-85893000D01*
X156091500Y-86143000D02*
X156091500Y-85893000D01*
X158741500Y-87843000D02*
X158741500Y-85893000D01*
X158391500Y-87843000D02*
X158741500Y-87843000D01*
X158391500Y-85893000D02*
X158741500Y-85893000D01*
%TO.C,D12*%
X183029500Y-85893000D02*
X183379500Y-85893000D01*
X183029500Y-87843000D02*
X183379500Y-87843000D01*
X183379500Y-87843000D02*
X183379500Y-85893000D01*
X180729500Y-86143000D02*
X180729500Y-85893000D01*
X180729500Y-85893000D02*
X180979500Y-85893000D01*
X181029500Y-87843000D02*
X180729500Y-87843000D01*
X180729500Y-87843000D02*
X180729500Y-87618000D01*
X183279500Y-87843000D02*
X183279500Y-85893000D01*
X183179500Y-87843000D02*
X183179500Y-85893000D01*
%TO.C,D13*%
X207817500Y-87843000D02*
X207817500Y-85893000D01*
X207917500Y-87843000D02*
X207917500Y-85893000D01*
X205367500Y-87843000D02*
X205367500Y-87618000D01*
X205667500Y-87843000D02*
X205367500Y-87843000D01*
X205367500Y-85893000D02*
X205617500Y-85893000D01*
X205367500Y-86143000D02*
X205367500Y-85893000D01*
X208017500Y-87843000D02*
X208017500Y-85893000D01*
X207667500Y-87843000D02*
X208017500Y-87843000D01*
X207667500Y-85893000D02*
X208017500Y-85893000D01*
%TO.C,D14*%
X225130000Y-93195500D02*
X225480000Y-93195500D01*
X225130000Y-95145500D02*
X225480000Y-95145500D01*
X225480000Y-95145500D02*
X225480000Y-93195500D01*
X222830000Y-93445500D02*
X222830000Y-93195500D01*
X222830000Y-93195500D02*
X223080000Y-93195500D01*
X223130000Y-95145500D02*
X222830000Y-95145500D01*
X222830000Y-95145500D02*
X222830000Y-94920500D01*
X225380000Y-95145500D02*
X225380000Y-93195500D01*
X225280000Y-95145500D02*
X225280000Y-93195500D01*
%TO.C,D15*%
X109115500Y-110531000D02*
X109465500Y-110531000D01*
X109115500Y-112481000D02*
X109465500Y-112481000D01*
X109465500Y-112481000D02*
X109465500Y-110531000D01*
X106815500Y-110781000D02*
X106815500Y-110531000D01*
X106815500Y-110531000D02*
X107065500Y-110531000D01*
X107115500Y-112481000D02*
X106815500Y-112481000D01*
X106815500Y-112481000D02*
X106815500Y-112256000D01*
X109365500Y-112481000D02*
X109365500Y-110531000D01*
X109265500Y-112481000D02*
X109265500Y-110531000D01*
%TO.C,D17*%
X158541500Y-112481000D02*
X158541500Y-110531000D01*
X158641500Y-112481000D02*
X158641500Y-110531000D01*
X156091500Y-112481000D02*
X156091500Y-112256000D01*
X156391500Y-112481000D02*
X156091500Y-112481000D01*
X156091500Y-110531000D02*
X156341500Y-110531000D01*
X156091500Y-110781000D02*
X156091500Y-110531000D01*
X158741500Y-112481000D02*
X158741500Y-110531000D01*
X158391500Y-112481000D02*
X158741500Y-112481000D01*
X158391500Y-110531000D02*
X158741500Y-110531000D01*
%TO.C,D18*%
X183179500Y-112481000D02*
X183179500Y-110531000D01*
X183279500Y-112481000D02*
X183279500Y-110531000D01*
X180729500Y-112481000D02*
X180729500Y-112256000D01*
X181029500Y-112481000D02*
X180729500Y-112481000D01*
X180729500Y-110531000D02*
X180979500Y-110531000D01*
X180729500Y-110781000D02*
X180729500Y-110531000D01*
X183379500Y-112481000D02*
X183379500Y-110531000D01*
X183029500Y-112481000D02*
X183379500Y-112481000D01*
X183029500Y-110531000D02*
X183379500Y-110531000D01*
%TO.C,D19*%
X207881000Y-112544500D02*
X207881000Y-110594500D01*
X207981000Y-112544500D02*
X207981000Y-110594500D01*
X205431000Y-112544500D02*
X205431000Y-112319500D01*
X205731000Y-112544500D02*
X205431000Y-112544500D01*
X205431000Y-110594500D02*
X205681000Y-110594500D01*
X205431000Y-110844500D02*
X205431000Y-110594500D01*
X208081000Y-112544500D02*
X208081000Y-110594500D01*
X207731000Y-112544500D02*
X208081000Y-112544500D01*
X207731000Y-110594500D02*
X208081000Y-110594500D01*
%TO.C,SW1*%
D10*
X75205166Y-71761047D02*
X75386595Y-71821523D01*
X75688976Y-71821523D01*
X75809928Y-71761047D01*
X75870404Y-71700571D01*
X75930880Y-71579619D01*
X75930880Y-71458666D01*
X75870404Y-71337714D01*
X75809928Y-71277238D01*
X75688976Y-71216761D01*
X75447071Y-71156285D01*
X75326119Y-71095809D01*
X75265642Y-71035333D01*
X75205166Y-70914380D01*
X75205166Y-70793428D01*
X75265642Y-70672476D01*
X75326119Y-70612000D01*
X75447071Y-70551523D01*
X75749452Y-70551523D01*
X75930880Y-70612000D01*
X76354214Y-70551523D02*
X76656595Y-71821523D01*
X76898500Y-70914380D01*
X77140404Y-71821523D01*
X77442785Y-70551523D01*
X78591833Y-71821523D02*
X77866119Y-71821523D01*
X78228976Y-71821523D02*
X78228976Y-70551523D01*
X78108023Y-70732952D01*
X77987071Y-70853904D01*
X77866119Y-70914380D01*
D14*
X69244622Y-89494100D02*
X70531556Y-89494100D01*
X69888089Y-90137566D02*
X69888089Y-88850633D01*
X71784622Y-89494100D02*
X73071556Y-89494100D01*
%TO.C,SW9*%
D10*
X94069966Y-83381547D02*
X94251395Y-83442023D01*
X94553776Y-83442023D01*
X94674728Y-83381547D01*
X94735204Y-83321071D01*
X94795680Y-83200119D01*
X94795680Y-83079166D01*
X94735204Y-82958214D01*
X94674728Y-82897738D01*
X94553776Y-82837261D01*
X94311871Y-82776785D01*
X94190919Y-82716309D01*
X94130442Y-82655833D01*
X94069966Y-82534880D01*
X94069966Y-82413928D01*
X94130442Y-82292976D01*
X94190919Y-82232500D01*
X94311871Y-82172023D01*
X94614252Y-82172023D01*
X94795680Y-82232500D01*
X95219014Y-82172023D02*
X95521395Y-83442023D01*
X95763300Y-82534880D01*
X96005204Y-83442023D01*
X96307585Y-82172023D01*
X96851871Y-83442023D02*
X97093776Y-83442023D01*
X97214728Y-83381547D01*
X97275204Y-83321071D01*
X97396157Y-83139642D01*
X97456633Y-82897738D01*
X97456633Y-82413928D01*
X97396157Y-82292976D01*
X97335680Y-82232500D01*
X97214728Y-82172023D01*
X96972823Y-82172023D01*
X96851871Y-82232500D01*
X96791395Y-82292976D01*
X96730919Y-82413928D01*
X96730919Y-82716309D01*
X96791395Y-82837261D01*
X96851871Y-82897738D01*
X96972823Y-82958214D01*
X97214728Y-82958214D01*
X97335680Y-82897738D01*
X97396157Y-82837261D01*
X97456633Y-82716309D01*
D14*
X93908422Y-101013100D02*
X95195356Y-101013100D01*
X94551889Y-101656566D02*
X94551889Y-100369633D01*
X96448422Y-101013100D02*
X97735356Y-101013100D01*
%TO.C,SW17*%
D10*
X142792804Y-126053547D02*
X142974233Y-126114023D01*
X143276614Y-126114023D01*
X143397566Y-126053547D01*
X143458042Y-125993071D01*
X143518519Y-125872119D01*
X143518519Y-125751166D01*
X143458042Y-125630214D01*
X143397566Y-125569738D01*
X143276614Y-125509261D01*
X143034709Y-125448785D01*
X142913757Y-125388309D01*
X142853280Y-125327833D01*
X142792804Y-125206880D01*
X142792804Y-125085928D01*
X142853280Y-124964976D01*
X142913757Y-124904500D01*
X143034709Y-124844023D01*
X143337090Y-124844023D01*
X143518519Y-124904500D01*
X143941852Y-124844023D02*
X144244233Y-126114023D01*
X144486138Y-125206880D01*
X144728042Y-126114023D01*
X145030423Y-124844023D01*
X146179471Y-126114023D02*
X145453757Y-126114023D01*
X145816614Y-126114023D02*
X145816614Y-124844023D01*
X145695661Y-125025452D01*
X145574709Y-125146404D01*
X145453757Y-125206880D01*
X146602804Y-124844023D02*
X147449471Y-124844023D01*
X146905185Y-126114023D01*
D14*
X140886522Y-125584600D02*
X142173456Y-125584600D01*
X141529989Y-126228066D02*
X141529989Y-124941133D01*
X147935022Y-125521100D02*
X149221956Y-125521100D01*
%TO.C,SW8*%
D10*
X75205166Y-94811547D02*
X75386595Y-94872023D01*
X75688976Y-94872023D01*
X75809928Y-94811547D01*
X75870404Y-94751071D01*
X75930880Y-94630119D01*
X75930880Y-94509166D01*
X75870404Y-94388214D01*
X75809928Y-94327738D01*
X75688976Y-94267261D01*
X75447071Y-94206785D01*
X75326119Y-94146309D01*
X75265642Y-94085833D01*
X75205166Y-93964880D01*
X75205166Y-93843928D01*
X75265642Y-93722976D01*
X75326119Y-93662500D01*
X75447071Y-93602023D01*
X75749452Y-93602023D01*
X75930880Y-93662500D01*
X76354214Y-93602023D02*
X76656595Y-94872023D01*
X76898500Y-93964880D01*
X77140404Y-94872023D01*
X77442785Y-93602023D01*
X78108023Y-94146309D02*
X77987071Y-94085833D01*
X77926595Y-94025357D01*
X77866119Y-93904404D01*
X77866119Y-93843928D01*
X77926595Y-93722976D01*
X77987071Y-93662500D01*
X78108023Y-93602023D01*
X78349928Y-93602023D01*
X78470880Y-93662500D01*
X78531357Y-93722976D01*
X78591833Y-93843928D01*
X78591833Y-93904404D01*
X78531357Y-94025357D01*
X78470880Y-94085833D01*
X78349928Y-94146309D01*
X78108023Y-94146309D01*
X77987071Y-94206785D01*
X77926595Y-94267261D01*
X77866119Y-94388214D01*
X77866119Y-94630119D01*
X77926595Y-94751071D01*
X77987071Y-94811547D01*
X78108023Y-94872023D01*
X78349928Y-94872023D01*
X78470880Y-94811547D01*
X78531357Y-94751071D01*
X78591833Y-94630119D01*
X78591833Y-94388214D01*
X78531357Y-94267261D01*
X78470880Y-94206785D01*
X78349928Y-94146309D01*
D14*
X69244622Y-112532100D02*
X70531556Y-112532100D01*
X69888089Y-113175566D02*
X69888089Y-111888633D01*
X71784622Y-112532100D02*
X73071556Y-112532100D01*
%TO.C,SW15*%
D10*
X93465204Y-126117047D02*
X93646633Y-126177523D01*
X93949014Y-126177523D01*
X94069966Y-126117047D01*
X94130442Y-126056571D01*
X94190919Y-125935619D01*
X94190919Y-125814666D01*
X94130442Y-125693714D01*
X94069966Y-125633238D01*
X93949014Y-125572761D01*
X93707109Y-125512285D01*
X93586157Y-125451809D01*
X93525680Y-125391333D01*
X93465204Y-125270380D01*
X93465204Y-125149428D01*
X93525680Y-125028476D01*
X93586157Y-124968000D01*
X93707109Y-124907523D01*
X94009490Y-124907523D01*
X94190919Y-124968000D01*
X94614252Y-124907523D02*
X94916633Y-126177523D01*
X95158538Y-125270380D01*
X95400442Y-126177523D01*
X95702823Y-124907523D01*
X96851871Y-126177523D02*
X96126157Y-126177523D01*
X96489014Y-126177523D02*
X96489014Y-124907523D01*
X96368061Y-125088952D01*
X96247109Y-125209904D01*
X96126157Y-125270380D01*
X98000919Y-124907523D02*
X97396157Y-124907523D01*
X97335680Y-125512285D01*
X97396157Y-125451809D01*
X97517109Y-125391333D01*
X97819490Y-125391333D01*
X97940442Y-125451809D01*
X98000919Y-125512285D01*
X98061395Y-125633238D01*
X98061395Y-125935619D01*
X98000919Y-126056571D01*
X97940442Y-126117047D01*
X97819490Y-126177523D01*
X97517109Y-126177523D01*
X97396157Y-126117047D01*
X97335680Y-126056571D01*
D14*
X91553622Y-125577600D02*
X92840556Y-125577600D01*
X92197089Y-126221066D02*
X92197089Y-124934133D01*
X98792622Y-125641100D02*
X100079556Y-125641100D01*
%TO.C,SW19*%
D10*
X192120404Y-125990047D02*
X192301833Y-126050523D01*
X192604214Y-126050523D01*
X192725166Y-125990047D01*
X192785642Y-125929571D01*
X192846119Y-125808619D01*
X192846119Y-125687666D01*
X192785642Y-125566714D01*
X192725166Y-125506238D01*
X192604214Y-125445761D01*
X192362309Y-125385285D01*
X192241357Y-125324809D01*
X192180880Y-125264333D01*
X192120404Y-125143380D01*
X192120404Y-125022428D01*
X192180880Y-124901476D01*
X192241357Y-124841000D01*
X192362309Y-124780523D01*
X192664690Y-124780523D01*
X192846119Y-124841000D01*
X193269452Y-124780523D02*
X193571833Y-126050523D01*
X193813738Y-125143380D01*
X194055642Y-126050523D01*
X194358023Y-124780523D01*
X195507071Y-126050523D02*
X194781357Y-126050523D01*
X195144214Y-126050523D02*
X195144214Y-124780523D01*
X195023261Y-124961952D01*
X194902309Y-125082904D01*
X194781357Y-125143380D01*
X196111833Y-126050523D02*
X196353738Y-126050523D01*
X196474690Y-125990047D01*
X196535166Y-125929571D01*
X196656119Y-125748142D01*
X196716595Y-125506238D01*
X196716595Y-125022428D01*
X196656119Y-124901476D01*
X196595642Y-124841000D01*
X196474690Y-124780523D01*
X196232785Y-124780523D01*
X196111833Y-124841000D01*
X196051357Y-124901476D01*
X195990880Y-125022428D01*
X195990880Y-125324809D01*
X196051357Y-125445761D01*
X196111833Y-125506238D01*
X196232785Y-125566714D01*
X196474690Y-125566714D01*
X196595642Y-125506238D01*
X196656119Y-125445761D01*
X196716595Y-125324809D01*
D14*
X190214122Y-125584600D02*
X191501056Y-125584600D01*
X190857589Y-126228066D02*
X190857589Y-124941133D01*
X197262622Y-125521100D02*
X198549556Y-125521100D01*
%TO.C,SW14*%
D10*
X211569904Y-95065547D02*
X211751333Y-95126023D01*
X212053714Y-95126023D01*
X212174666Y-95065547D01*
X212235142Y-95005071D01*
X212295619Y-94884119D01*
X212295619Y-94763166D01*
X212235142Y-94642214D01*
X212174666Y-94581738D01*
X212053714Y-94521261D01*
X211811809Y-94460785D01*
X211690857Y-94400309D01*
X211630380Y-94339833D01*
X211569904Y-94218880D01*
X211569904Y-94097928D01*
X211630380Y-93976976D01*
X211690857Y-93916500D01*
X211811809Y-93856023D01*
X212114190Y-93856023D01*
X212295619Y-93916500D01*
X212718952Y-93856023D02*
X213021333Y-95126023D01*
X213263238Y-94218880D01*
X213505142Y-95126023D01*
X213807523Y-93856023D01*
X214956571Y-95126023D02*
X214230857Y-95126023D01*
X214593714Y-95126023D02*
X214593714Y-93856023D01*
X214472761Y-94037452D01*
X214351809Y-94158404D01*
X214230857Y-94218880D01*
X216045142Y-94279357D02*
X216045142Y-95126023D01*
X215742761Y-93795547D02*
X215440380Y-94702690D01*
X216226571Y-94702690D01*
D14*
X217227622Y-112532100D02*
X218514556Y-112532100D01*
X217871089Y-113175566D02*
X217871089Y-111888633D01*
X219767622Y-112532100D02*
X221054556Y-112532100D01*
%TO.C,SW5*%
D10*
X168061366Y-58870547D02*
X168242795Y-58931023D01*
X168545176Y-58931023D01*
X168666128Y-58870547D01*
X168726604Y-58810071D01*
X168787080Y-58689119D01*
X168787080Y-58568166D01*
X168726604Y-58447214D01*
X168666128Y-58386738D01*
X168545176Y-58326261D01*
X168303271Y-58265785D01*
X168182319Y-58205309D01*
X168121842Y-58144833D01*
X168061366Y-58023880D01*
X168061366Y-57902928D01*
X168121842Y-57781976D01*
X168182319Y-57721500D01*
X168303271Y-57661023D01*
X168605652Y-57661023D01*
X168787080Y-57721500D01*
X169210414Y-57661023D02*
X169512795Y-58931023D01*
X169754700Y-58023880D01*
X169996604Y-58931023D01*
X170298985Y-57661023D01*
X171387557Y-57661023D02*
X170782795Y-57661023D01*
X170722319Y-58265785D01*
X170782795Y-58205309D01*
X170903747Y-58144833D01*
X171206128Y-58144833D01*
X171327080Y-58205309D01*
X171387557Y-58265785D01*
X171448033Y-58386738D01*
X171448033Y-58689119D01*
X171387557Y-58810071D01*
X171327080Y-58870547D01*
X171206128Y-58931023D01*
X170903747Y-58931023D01*
X170782795Y-58870547D01*
X170722319Y-58810071D01*
D14*
X167899822Y-76378100D02*
X169186756Y-76378100D01*
X168543289Y-77021566D02*
X168543289Y-75734633D01*
X170439822Y-76378100D02*
X171726756Y-76378100D01*
%TO.C,SW2*%
D10*
X94069966Y-58870547D02*
X94251395Y-58931023D01*
X94553776Y-58931023D01*
X94674728Y-58870547D01*
X94735204Y-58810071D01*
X94795680Y-58689119D01*
X94795680Y-58568166D01*
X94735204Y-58447214D01*
X94674728Y-58386738D01*
X94553776Y-58326261D01*
X94311871Y-58265785D01*
X94190919Y-58205309D01*
X94130442Y-58144833D01*
X94069966Y-58023880D01*
X94069966Y-57902928D01*
X94130442Y-57781976D01*
X94190919Y-57721500D01*
X94311871Y-57661023D01*
X94614252Y-57661023D01*
X94795680Y-57721500D01*
X95219014Y-57661023D02*
X95521395Y-58931023D01*
X95763300Y-58023880D01*
X96005204Y-58931023D01*
X96307585Y-57661023D01*
X96730919Y-57781976D02*
X96791395Y-57721500D01*
X96912347Y-57661023D01*
X97214728Y-57661023D01*
X97335680Y-57721500D01*
X97396157Y-57781976D01*
X97456633Y-57902928D01*
X97456633Y-58023880D01*
X97396157Y-58205309D01*
X96670442Y-58931023D01*
X97456633Y-58931023D01*
D14*
X93908422Y-76378100D02*
X95195356Y-76378100D01*
X94551889Y-77021566D02*
X94551889Y-75734633D01*
X96448422Y-76378100D02*
X97735356Y-76378100D01*
%TO.C,SW18*%
D10*
X167456604Y-126117047D02*
X167638033Y-126177523D01*
X167940414Y-126177523D01*
X168061366Y-126117047D01*
X168121842Y-126056571D01*
X168182319Y-125935619D01*
X168182319Y-125814666D01*
X168121842Y-125693714D01*
X168061366Y-125633238D01*
X167940414Y-125572761D01*
X167698509Y-125512285D01*
X167577557Y-125451809D01*
X167517080Y-125391333D01*
X167456604Y-125270380D01*
X167456604Y-125149428D01*
X167517080Y-125028476D01*
X167577557Y-124968000D01*
X167698509Y-124907523D01*
X168000890Y-124907523D01*
X168182319Y-124968000D01*
X168605652Y-124907523D02*
X168908033Y-126177523D01*
X169149938Y-125270380D01*
X169391842Y-126177523D01*
X169694223Y-124907523D01*
X170843271Y-126177523D02*
X170117557Y-126177523D01*
X170480414Y-126177523D02*
X170480414Y-124907523D01*
X170359461Y-125088952D01*
X170238509Y-125209904D01*
X170117557Y-125270380D01*
X171568985Y-125451809D02*
X171448033Y-125391333D01*
X171387557Y-125330857D01*
X171327080Y-125209904D01*
X171327080Y-125149428D01*
X171387557Y-125028476D01*
X171448033Y-124968000D01*
X171568985Y-124907523D01*
X171810890Y-124907523D01*
X171931842Y-124968000D01*
X171992319Y-125028476D01*
X172052795Y-125149428D01*
X172052795Y-125209904D01*
X171992319Y-125330857D01*
X171931842Y-125391333D01*
X171810890Y-125451809D01*
X171568985Y-125451809D01*
X171448033Y-125512285D01*
X171387557Y-125572761D01*
X171327080Y-125693714D01*
X171327080Y-125935619D01*
X171387557Y-126056571D01*
X171448033Y-126117047D01*
X171568985Y-126177523D01*
X171810890Y-126177523D01*
X171931842Y-126117047D01*
X171992319Y-126056571D01*
X172052795Y-125935619D01*
X172052795Y-125693714D01*
X171992319Y-125572761D01*
X171931842Y-125512285D01*
X171810890Y-125451809D01*
D14*
X165550322Y-125584600D02*
X166837256Y-125584600D01*
X166193789Y-126228066D02*
X166193789Y-124941133D01*
X172598822Y-125521100D02*
X173885756Y-125521100D01*
%TO.C,SW16*%
D10*
X118129004Y-126053547D02*
X118310433Y-126114023D01*
X118612814Y-126114023D01*
X118733766Y-126053547D01*
X118794242Y-125993071D01*
X118854719Y-125872119D01*
X118854719Y-125751166D01*
X118794242Y-125630214D01*
X118733766Y-125569738D01*
X118612814Y-125509261D01*
X118370909Y-125448785D01*
X118249957Y-125388309D01*
X118189480Y-125327833D01*
X118129004Y-125206880D01*
X118129004Y-125085928D01*
X118189480Y-124964976D01*
X118249957Y-124904500D01*
X118370909Y-124844023D01*
X118673290Y-124844023D01*
X118854719Y-124904500D01*
X119278052Y-124844023D02*
X119580433Y-126114023D01*
X119822338Y-125206880D01*
X120064242Y-126114023D01*
X120366623Y-124844023D01*
X121515671Y-126114023D02*
X120789957Y-126114023D01*
X121152814Y-126114023D02*
X121152814Y-124844023D01*
X121031861Y-125025452D01*
X120910909Y-125146404D01*
X120789957Y-125206880D01*
X122604242Y-124844023D02*
X122362338Y-124844023D01*
X122241385Y-124904500D01*
X122180909Y-124964976D01*
X122059957Y-125146404D01*
X121999480Y-125388309D01*
X121999480Y-125872119D01*
X122059957Y-125993071D01*
X122120433Y-126053547D01*
X122241385Y-126114023D01*
X122483290Y-126114023D01*
X122604242Y-126053547D01*
X122664719Y-125993071D01*
X122725195Y-125872119D01*
X122725195Y-125569738D01*
X122664719Y-125448785D01*
X122604242Y-125388309D01*
X122483290Y-125327833D01*
X122241385Y-125327833D01*
X122120433Y-125388309D01*
X122059957Y-125448785D01*
X121999480Y-125569738D01*
D14*
X116222722Y-125584600D02*
X117509656Y-125584600D01*
X116866189Y-126228066D02*
X116866189Y-124941133D01*
X123271222Y-125521100D02*
X124558156Y-125521100D01*
%TO.C,SW13*%
D10*
X192120404Y-83381547D02*
X192301833Y-83442023D01*
X192604214Y-83442023D01*
X192725166Y-83381547D01*
X192785642Y-83321071D01*
X192846119Y-83200119D01*
X192846119Y-83079166D01*
X192785642Y-82958214D01*
X192725166Y-82897738D01*
X192604214Y-82837261D01*
X192362309Y-82776785D01*
X192241357Y-82716309D01*
X192180880Y-82655833D01*
X192120404Y-82534880D01*
X192120404Y-82413928D01*
X192180880Y-82292976D01*
X192241357Y-82232500D01*
X192362309Y-82172023D01*
X192664690Y-82172023D01*
X192846119Y-82232500D01*
X193269452Y-82172023D02*
X193571833Y-83442023D01*
X193813738Y-82534880D01*
X194055642Y-83442023D01*
X194358023Y-82172023D01*
X195507071Y-83442023D02*
X194781357Y-83442023D01*
X195144214Y-83442023D02*
X195144214Y-82172023D01*
X195023261Y-82353452D01*
X194902309Y-82474404D01*
X194781357Y-82534880D01*
X195930404Y-82172023D02*
X196716595Y-82172023D01*
X196293261Y-82655833D01*
X196474690Y-82655833D01*
X196595642Y-82716309D01*
X196656119Y-82776785D01*
X196716595Y-82897738D01*
X196716595Y-83200119D01*
X196656119Y-83321071D01*
X196595642Y-83381547D01*
X196474690Y-83442023D01*
X196111833Y-83442023D01*
X195990880Y-83381547D01*
X195930404Y-83321071D01*
D14*
X192563622Y-101013100D02*
X193850556Y-101013100D01*
X193207089Y-101656566D02*
X193207089Y-100369633D01*
X195103622Y-101013100D02*
X196390556Y-101013100D01*
%TO.C,SW12*%
D10*
X167456604Y-83381547D02*
X167638033Y-83442023D01*
X167940414Y-83442023D01*
X168061366Y-83381547D01*
X168121842Y-83321071D01*
X168182319Y-83200119D01*
X168182319Y-83079166D01*
X168121842Y-82958214D01*
X168061366Y-82897738D01*
X167940414Y-82837261D01*
X167698509Y-82776785D01*
X167577557Y-82716309D01*
X167517080Y-82655833D01*
X167456604Y-82534880D01*
X167456604Y-82413928D01*
X167517080Y-82292976D01*
X167577557Y-82232500D01*
X167698509Y-82172023D01*
X168000890Y-82172023D01*
X168182319Y-82232500D01*
X168605652Y-82172023D02*
X168908033Y-83442023D01*
X169149938Y-82534880D01*
X169391842Y-83442023D01*
X169694223Y-82172023D01*
X170843271Y-83442023D02*
X170117557Y-83442023D01*
X170480414Y-83442023D02*
X170480414Y-82172023D01*
X170359461Y-82353452D01*
X170238509Y-82474404D01*
X170117557Y-82534880D01*
X171327080Y-82292976D02*
X171387557Y-82232500D01*
X171508509Y-82172023D01*
X171810890Y-82172023D01*
X171931842Y-82232500D01*
X171992319Y-82292976D01*
X172052795Y-82413928D01*
X172052795Y-82534880D01*
X171992319Y-82716309D01*
X171266604Y-83442023D01*
X172052795Y-83442023D01*
D14*
X167899822Y-101013100D02*
X169186756Y-101013100D01*
X168543289Y-101656566D02*
X168543289Y-100369633D01*
X170439822Y-101013100D02*
X171726756Y-101013100D01*
%TO.C,SW11*%
D10*
X142792804Y-83381547D02*
X142974233Y-83442023D01*
X143276614Y-83442023D01*
X143397566Y-83381547D01*
X143458042Y-83321071D01*
X143518519Y-83200119D01*
X143518519Y-83079166D01*
X143458042Y-82958214D01*
X143397566Y-82897738D01*
X143276614Y-82837261D01*
X143034709Y-82776785D01*
X142913757Y-82716309D01*
X142853280Y-82655833D01*
X142792804Y-82534880D01*
X142792804Y-82413928D01*
X142853280Y-82292976D01*
X142913757Y-82232500D01*
X143034709Y-82172023D01*
X143337090Y-82172023D01*
X143518519Y-82232500D01*
X143941852Y-82172023D02*
X144244233Y-83442023D01*
X144486138Y-82534880D01*
X144728042Y-83442023D01*
X145030423Y-82172023D01*
X146179471Y-83442023D02*
X145453757Y-83442023D01*
X145816614Y-83442023D02*
X145816614Y-82172023D01*
X145695661Y-82353452D01*
X145574709Y-82474404D01*
X145453757Y-82534880D01*
X147388995Y-83442023D02*
X146663280Y-83442023D01*
X147026138Y-83442023D02*
X147026138Y-82172023D01*
X146905185Y-82353452D01*
X146784233Y-82474404D01*
X146663280Y-82534880D01*
D14*
X143236022Y-101013100D02*
X144522956Y-101013100D01*
X143879489Y-101656566D02*
X143879489Y-100369633D01*
X145776022Y-101013100D02*
X147062956Y-101013100D01*
%TO.C,SW10*%
D10*
X118097904Y-83381547D02*
X118279333Y-83442023D01*
X118581714Y-83442023D01*
X118702666Y-83381547D01*
X118763142Y-83321071D01*
X118823619Y-83200119D01*
X118823619Y-83079166D01*
X118763142Y-82958214D01*
X118702666Y-82897738D01*
X118581714Y-82837261D01*
X118339809Y-82776785D01*
X118218857Y-82716309D01*
X118158380Y-82655833D01*
X118097904Y-82534880D01*
X118097904Y-82413928D01*
X118158380Y-82292976D01*
X118218857Y-82232500D01*
X118339809Y-82172023D01*
X118642190Y-82172023D01*
X118823619Y-82232500D01*
X119246952Y-82172023D02*
X119549333Y-83442023D01*
X119791238Y-82534880D01*
X120033142Y-83442023D01*
X120335523Y-82172023D01*
X121484571Y-83442023D02*
X120758857Y-83442023D01*
X121121714Y-83442023D02*
X121121714Y-82172023D01*
X121000761Y-82353452D01*
X120879809Y-82474404D01*
X120758857Y-82534880D01*
X122270761Y-82172023D02*
X122391714Y-82172023D01*
X122512666Y-82232500D01*
X122573142Y-82292976D01*
X122633619Y-82413928D01*
X122694095Y-82655833D01*
X122694095Y-82958214D01*
X122633619Y-83200119D01*
X122573142Y-83321071D01*
X122512666Y-83381547D01*
X122391714Y-83442023D01*
X122270761Y-83442023D01*
X122149809Y-83381547D01*
X122089333Y-83321071D01*
X122028857Y-83200119D01*
X121968380Y-82958214D01*
X121968380Y-82655833D01*
X122028857Y-82413928D01*
X122089333Y-82292976D01*
X122149809Y-82232500D01*
X122270761Y-82172023D01*
D14*
X118572222Y-101013100D02*
X119859156Y-101013100D01*
X119215689Y-101656566D02*
X119215689Y-100369633D01*
X121112222Y-101013100D02*
X122399156Y-101013100D01*
%TO.C,SW7*%
D10*
X211539666Y-71951547D02*
X211721095Y-72012023D01*
X212023476Y-72012023D01*
X212144428Y-71951547D01*
X212204904Y-71891071D01*
X212265380Y-71770119D01*
X212265380Y-71649166D01*
X212204904Y-71528214D01*
X212144428Y-71467738D01*
X212023476Y-71407261D01*
X211781571Y-71346785D01*
X211660619Y-71286309D01*
X211600142Y-71225833D01*
X211539666Y-71104880D01*
X211539666Y-70983928D01*
X211600142Y-70862976D01*
X211660619Y-70802500D01*
X211781571Y-70742023D01*
X212083952Y-70742023D01*
X212265380Y-70802500D01*
X212688714Y-70742023D02*
X212991095Y-72012023D01*
X213233000Y-71104880D01*
X213474904Y-72012023D01*
X213777285Y-70742023D01*
X214140142Y-70742023D02*
X214986809Y-70742023D01*
X214442523Y-72012023D01*
D14*
X217227622Y-89494100D02*
X218514556Y-89494100D01*
X217871089Y-90137566D02*
X217871089Y-88850633D01*
X219767622Y-89494100D02*
X221054556Y-89494100D01*
%TO.C,SW6*%
D10*
X192725166Y-58870547D02*
X192906595Y-58931023D01*
X193208976Y-58931023D01*
X193329928Y-58870547D01*
X193390404Y-58810071D01*
X193450880Y-58689119D01*
X193450880Y-58568166D01*
X193390404Y-58447214D01*
X193329928Y-58386738D01*
X193208976Y-58326261D01*
X192967071Y-58265785D01*
X192846119Y-58205309D01*
X192785642Y-58144833D01*
X192725166Y-58023880D01*
X192725166Y-57902928D01*
X192785642Y-57781976D01*
X192846119Y-57721500D01*
X192967071Y-57661023D01*
X193269452Y-57661023D01*
X193450880Y-57721500D01*
X193874214Y-57661023D02*
X194176595Y-58931023D01*
X194418500Y-58023880D01*
X194660404Y-58931023D01*
X194962785Y-57661023D01*
X195990880Y-57661023D02*
X195748976Y-57661023D01*
X195628023Y-57721500D01*
X195567547Y-57781976D01*
X195446595Y-57963404D01*
X195386119Y-58205309D01*
X195386119Y-58689119D01*
X195446595Y-58810071D01*
X195507071Y-58870547D01*
X195628023Y-58931023D01*
X195869928Y-58931023D01*
X195990880Y-58870547D01*
X196051357Y-58810071D01*
X196111833Y-58689119D01*
X196111833Y-58386738D01*
X196051357Y-58265785D01*
X195990880Y-58205309D01*
X195869928Y-58144833D01*
X195628023Y-58144833D01*
X195507071Y-58205309D01*
X195446595Y-58265785D01*
X195386119Y-58386738D01*
D14*
X192563622Y-76378100D02*
X193850556Y-76378100D01*
X193207089Y-77021566D02*
X193207089Y-75734633D01*
X195103622Y-76378100D02*
X196390556Y-76378100D01*
%TO.C,SW4*%
D10*
X143397566Y-58870547D02*
X143578995Y-58931023D01*
X143881376Y-58931023D01*
X144002328Y-58870547D01*
X144062804Y-58810071D01*
X144123280Y-58689119D01*
X144123280Y-58568166D01*
X144062804Y-58447214D01*
X144002328Y-58386738D01*
X143881376Y-58326261D01*
X143639471Y-58265785D01*
X143518519Y-58205309D01*
X143458042Y-58144833D01*
X143397566Y-58023880D01*
X143397566Y-57902928D01*
X143458042Y-57781976D01*
X143518519Y-57721500D01*
X143639471Y-57661023D01*
X143941852Y-57661023D01*
X144123280Y-57721500D01*
X144546614Y-57661023D02*
X144848995Y-58931023D01*
X145090900Y-58023880D01*
X145332804Y-58931023D01*
X145635185Y-57661023D01*
X146663280Y-58084357D02*
X146663280Y-58931023D01*
X146360900Y-57600547D02*
X146058519Y-58507690D01*
X146844709Y-58507690D01*
D14*
X143236022Y-76378100D02*
X144522956Y-76378100D01*
X143879489Y-77021566D02*
X143879489Y-75734633D01*
X145776022Y-76378100D02*
X147062956Y-76378100D01*
%TO.C,SW3*%
D10*
X118702666Y-58870547D02*
X118884095Y-58931023D01*
X119186476Y-58931023D01*
X119307428Y-58870547D01*
X119367904Y-58810071D01*
X119428380Y-58689119D01*
X119428380Y-58568166D01*
X119367904Y-58447214D01*
X119307428Y-58386738D01*
X119186476Y-58326261D01*
X118944571Y-58265785D01*
X118823619Y-58205309D01*
X118763142Y-58144833D01*
X118702666Y-58023880D01*
X118702666Y-57902928D01*
X118763142Y-57781976D01*
X118823619Y-57721500D01*
X118944571Y-57661023D01*
X119246952Y-57661023D01*
X119428380Y-57721500D01*
X119851714Y-57661023D02*
X120154095Y-58931023D01*
X120396000Y-58023880D01*
X120637904Y-58931023D01*
X120940285Y-57661023D01*
X121303142Y-57661023D02*
X122089333Y-57661023D01*
X121666000Y-58144833D01*
X121847428Y-58144833D01*
X121968380Y-58205309D01*
X122028857Y-58265785D01*
X122089333Y-58386738D01*
X122089333Y-58689119D01*
X122028857Y-58810071D01*
X121968380Y-58870547D01*
X121847428Y-58931023D01*
X121484571Y-58931023D01*
X121363619Y-58870547D01*
X121303142Y-58810071D01*
D14*
X118572222Y-76378100D02*
X119859156Y-76378100D01*
X119215689Y-77021566D02*
X119215689Y-75734633D01*
X121112222Y-76378100D02*
X122399156Y-76378100D01*
%TO.C,D16*%
D10*
X131574214Y-113848380D02*
X131574214Y-112848380D01*
X131812309Y-112848380D01*
X131955166Y-112896000D01*
X132050404Y-112991238D01*
X132098023Y-113086476D01*
X132145642Y-113276952D01*
X132145642Y-113419809D01*
X132098023Y-113610285D01*
X132050404Y-113705523D01*
X131955166Y-113800761D01*
X131812309Y-113848380D01*
X131574214Y-113848380D01*
X133098023Y-113848380D02*
X132526595Y-113848380D01*
X132812309Y-113848380D02*
X132812309Y-112848380D01*
X132717071Y-112991238D01*
X132621833Y-113086476D01*
X132526595Y-113134095D01*
X133955166Y-112848380D02*
X133764690Y-112848380D01*
X133669452Y-112896000D01*
X133621833Y-112943619D01*
X133526595Y-113086476D01*
X133478976Y-113276952D01*
X133478976Y-113657904D01*
X133526595Y-113753142D01*
X133574214Y-113800761D01*
X133669452Y-113848380D01*
X133859928Y-113848380D01*
X133955166Y-113800761D01*
X134002785Y-113753142D01*
X134050404Y-113657904D01*
X134050404Y-113419809D01*
X134002785Y-113324571D01*
X133955166Y-113276952D01*
X133859928Y-113229333D01*
X133669452Y-113229333D01*
X133574214Y-113276952D01*
X133526595Y-113324571D01*
X133478976Y-113419809D01*
%TO.C,D8*%
X65555904Y-97226380D02*
X65555904Y-96226380D01*
X65794000Y-96226380D01*
X65936857Y-96274000D01*
X66032095Y-96369238D01*
X66079714Y-96464476D01*
X66127333Y-96654952D01*
X66127333Y-96797809D01*
X66079714Y-96988285D01*
X66032095Y-97083523D01*
X65936857Y-97178761D01*
X65794000Y-97226380D01*
X65555904Y-97226380D01*
X66698761Y-96654952D02*
X66603523Y-96607333D01*
X66555904Y-96559714D01*
X66508285Y-96464476D01*
X66508285Y-96416857D01*
X66555904Y-96321619D01*
X66603523Y-96274000D01*
X66698761Y-96226380D01*
X66889238Y-96226380D01*
X66984476Y-96274000D01*
X67032095Y-96321619D01*
X67079714Y-96416857D01*
X67079714Y-96464476D01*
X67032095Y-96559714D01*
X66984476Y-96607333D01*
X66889238Y-96654952D01*
X66698761Y-96654952D01*
X66603523Y-96702571D01*
X66555904Y-96750190D01*
X66508285Y-96845428D01*
X66508285Y-97035904D01*
X66555904Y-97131142D01*
X66603523Y-97178761D01*
X66698761Y-97226380D01*
X66889238Y-97226380D01*
X66984476Y-97178761D01*
X67032095Y-97131142D01*
X67079714Y-97035904D01*
X67079714Y-96845428D01*
X67032095Y-96750190D01*
X66984476Y-96702571D01*
X66889238Y-96654952D01*
%TO.C,D1*%
X65682904Y-74175880D02*
X65682904Y-73175880D01*
X65921000Y-73175880D01*
X66063857Y-73223500D01*
X66159095Y-73318738D01*
X66206714Y-73413976D01*
X66254333Y-73604452D01*
X66254333Y-73747309D01*
X66206714Y-73937785D01*
X66159095Y-74033023D01*
X66063857Y-74128261D01*
X65921000Y-74175880D01*
X65682904Y-74175880D01*
X67206714Y-74175880D02*
X66635285Y-74175880D01*
X66921000Y-74175880D02*
X66921000Y-73175880D01*
X66825761Y-73318738D01*
X66730523Y-73413976D01*
X66635285Y-73461595D01*
%TO.C,D2*%
X107412404Y-64572380D02*
X107412404Y-63572380D01*
X107650500Y-63572380D01*
X107793357Y-63620000D01*
X107888595Y-63715238D01*
X107936214Y-63810476D01*
X107983833Y-64000952D01*
X107983833Y-64143809D01*
X107936214Y-64334285D01*
X107888595Y-64429523D01*
X107793357Y-64524761D01*
X107650500Y-64572380D01*
X107412404Y-64572380D01*
X108364785Y-63667619D02*
X108412404Y-63620000D01*
X108507642Y-63572380D01*
X108745738Y-63572380D01*
X108840976Y-63620000D01*
X108888595Y-63667619D01*
X108936214Y-63762857D01*
X108936214Y-63858095D01*
X108888595Y-64000952D01*
X108317166Y-64572380D01*
X108936214Y-64572380D01*
%TO.C,D3*%
X131923404Y-64572380D02*
X131923404Y-63572380D01*
X132161500Y-63572380D01*
X132304357Y-63620000D01*
X132399595Y-63715238D01*
X132447214Y-63810476D01*
X132494833Y-64000952D01*
X132494833Y-64143809D01*
X132447214Y-64334285D01*
X132399595Y-64429523D01*
X132304357Y-64524761D01*
X132161500Y-64572380D01*
X131923404Y-64572380D01*
X132828166Y-63572380D02*
X133447214Y-63572380D01*
X133113880Y-63953333D01*
X133256738Y-63953333D01*
X133351976Y-64000952D01*
X133399595Y-64048571D01*
X133447214Y-64143809D01*
X133447214Y-64381904D01*
X133399595Y-64477142D01*
X133351976Y-64524761D01*
X133256738Y-64572380D01*
X132971023Y-64572380D01*
X132875785Y-64524761D01*
X132828166Y-64477142D01*
%TO.C,D4*%
X156688404Y-64572380D02*
X156688404Y-63572380D01*
X156926500Y-63572380D01*
X157069357Y-63620000D01*
X157164595Y-63715238D01*
X157212214Y-63810476D01*
X157259833Y-64000952D01*
X157259833Y-64143809D01*
X157212214Y-64334285D01*
X157164595Y-64429523D01*
X157069357Y-64524761D01*
X156926500Y-64572380D01*
X156688404Y-64572380D01*
X158116976Y-63905714D02*
X158116976Y-64572380D01*
X157878880Y-63524761D02*
X157640785Y-64239047D01*
X158259833Y-64239047D01*
%TO.C,D5*%
X181326404Y-64572380D02*
X181326404Y-63572380D01*
X181564500Y-63572380D01*
X181707357Y-63620000D01*
X181802595Y-63715238D01*
X181850214Y-63810476D01*
X181897833Y-64000952D01*
X181897833Y-64143809D01*
X181850214Y-64334285D01*
X181802595Y-64429523D01*
X181707357Y-64524761D01*
X181564500Y-64572380D01*
X181326404Y-64572380D01*
X182802595Y-63572380D02*
X182326404Y-63572380D01*
X182278785Y-64048571D01*
X182326404Y-64000952D01*
X182421642Y-63953333D01*
X182659738Y-63953333D01*
X182754976Y-64000952D01*
X182802595Y-64048571D01*
X182850214Y-64143809D01*
X182850214Y-64381904D01*
X182802595Y-64477142D01*
X182754976Y-64524761D01*
X182659738Y-64572380D01*
X182421642Y-64572380D01*
X182326404Y-64524761D01*
X182278785Y-64477142D01*
%TO.C,D6*%
X206017904Y-74874380D02*
X206017904Y-73874380D01*
X206256000Y-73874380D01*
X206398857Y-73922000D01*
X206494095Y-74017238D01*
X206541714Y-74112476D01*
X206589333Y-74302952D01*
X206589333Y-74445809D01*
X206541714Y-74636285D01*
X206494095Y-74731523D01*
X206398857Y-74826761D01*
X206256000Y-74874380D01*
X206017904Y-74874380D01*
X207446476Y-73874380D02*
X207256000Y-73874380D01*
X207160761Y-73922000D01*
X207113142Y-73969619D01*
X207017904Y-74112476D01*
X206970285Y-74302952D01*
X206970285Y-74683904D01*
X207017904Y-74779142D01*
X207065523Y-74826761D01*
X207160761Y-74874380D01*
X207351238Y-74874380D01*
X207446476Y-74826761D01*
X207494095Y-74779142D01*
X207541714Y-74683904D01*
X207541714Y-74445809D01*
X207494095Y-74350571D01*
X207446476Y-74302952D01*
X207351238Y-74255333D01*
X207160761Y-74255333D01*
X207065523Y-74302952D01*
X207017904Y-74350571D01*
X206970285Y-74445809D01*
%TO.C,D7*%
X223490404Y-74175880D02*
X223490404Y-73175880D01*
X223728500Y-73175880D01*
X223871357Y-73223500D01*
X223966595Y-73318738D01*
X224014214Y-73413976D01*
X224061833Y-73604452D01*
X224061833Y-73747309D01*
X224014214Y-73937785D01*
X223966595Y-74033023D01*
X223871357Y-74128261D01*
X223728500Y-74175880D01*
X223490404Y-74175880D01*
X224395166Y-73175880D02*
X225061833Y-73175880D01*
X224633261Y-74175880D01*
%TO.C,D9*%
X107412404Y-89210380D02*
X107412404Y-88210380D01*
X107650500Y-88210380D01*
X107793357Y-88258000D01*
X107888595Y-88353238D01*
X107936214Y-88448476D01*
X107983833Y-88638952D01*
X107983833Y-88781809D01*
X107936214Y-88972285D01*
X107888595Y-89067523D01*
X107793357Y-89162761D01*
X107650500Y-89210380D01*
X107412404Y-89210380D01*
X108460023Y-89210380D02*
X108650500Y-89210380D01*
X108745738Y-89162761D01*
X108793357Y-89115142D01*
X108888595Y-88972285D01*
X108936214Y-88781809D01*
X108936214Y-88400857D01*
X108888595Y-88305619D01*
X108840976Y-88258000D01*
X108745738Y-88210380D01*
X108555261Y-88210380D01*
X108460023Y-88258000D01*
X108412404Y-88305619D01*
X108364785Y-88400857D01*
X108364785Y-88638952D01*
X108412404Y-88734190D01*
X108460023Y-88781809D01*
X108555261Y-88829428D01*
X108745738Y-88829428D01*
X108840976Y-88781809D01*
X108888595Y-88734190D01*
X108936214Y-88638952D01*
%TO.C,D10*%
X131574214Y-89210380D02*
X131574214Y-88210380D01*
X131812309Y-88210380D01*
X131955166Y-88258000D01*
X132050404Y-88353238D01*
X132098023Y-88448476D01*
X132145642Y-88638952D01*
X132145642Y-88781809D01*
X132098023Y-88972285D01*
X132050404Y-89067523D01*
X131955166Y-89162761D01*
X131812309Y-89210380D01*
X131574214Y-89210380D01*
X133098023Y-89210380D02*
X132526595Y-89210380D01*
X132812309Y-89210380D02*
X132812309Y-88210380D01*
X132717071Y-88353238D01*
X132621833Y-88448476D01*
X132526595Y-88496095D01*
X133717071Y-88210380D02*
X133812309Y-88210380D01*
X133907547Y-88258000D01*
X133955166Y-88305619D01*
X134002785Y-88400857D01*
X134050404Y-88591333D01*
X134050404Y-88829428D01*
X134002785Y-89019904D01*
X133955166Y-89115142D01*
X133907547Y-89162761D01*
X133812309Y-89210380D01*
X133717071Y-89210380D01*
X133621833Y-89162761D01*
X133574214Y-89115142D01*
X133526595Y-89019904D01*
X133478976Y-88829428D01*
X133478976Y-88591333D01*
X133526595Y-88400857D01*
X133574214Y-88305619D01*
X133621833Y-88258000D01*
X133717071Y-88210380D01*
%TO.C,D11*%
X156212214Y-89210380D02*
X156212214Y-88210380D01*
X156450309Y-88210380D01*
X156593166Y-88258000D01*
X156688404Y-88353238D01*
X156736023Y-88448476D01*
X156783642Y-88638952D01*
X156783642Y-88781809D01*
X156736023Y-88972285D01*
X156688404Y-89067523D01*
X156593166Y-89162761D01*
X156450309Y-89210380D01*
X156212214Y-89210380D01*
X157736023Y-89210380D02*
X157164595Y-89210380D01*
X157450309Y-89210380D02*
X157450309Y-88210380D01*
X157355071Y-88353238D01*
X157259833Y-88448476D01*
X157164595Y-88496095D01*
X158688404Y-89210380D02*
X158116976Y-89210380D01*
X158402690Y-89210380D02*
X158402690Y-88210380D01*
X158307452Y-88353238D01*
X158212214Y-88448476D01*
X158116976Y-88496095D01*
%TO.C,D12*%
X180713214Y-89210380D02*
X180713214Y-88210380D01*
X180951309Y-88210380D01*
X181094166Y-88258000D01*
X181189404Y-88353238D01*
X181237023Y-88448476D01*
X181284642Y-88638952D01*
X181284642Y-88781809D01*
X181237023Y-88972285D01*
X181189404Y-89067523D01*
X181094166Y-89162761D01*
X180951309Y-89210380D01*
X180713214Y-89210380D01*
X182237023Y-89210380D02*
X181665595Y-89210380D01*
X181951309Y-89210380D02*
X181951309Y-88210380D01*
X181856071Y-88353238D01*
X181760833Y-88448476D01*
X181665595Y-88496095D01*
X182617976Y-88305619D02*
X182665595Y-88258000D01*
X182760833Y-88210380D01*
X182998928Y-88210380D01*
X183094166Y-88258000D01*
X183141785Y-88305619D01*
X183189404Y-88400857D01*
X183189404Y-88496095D01*
X183141785Y-88638952D01*
X182570357Y-89210380D01*
X183189404Y-89210380D01*
%TO.C,D13*%
X205488214Y-89210380D02*
X205488214Y-88210380D01*
X205726309Y-88210380D01*
X205869166Y-88258000D01*
X205964404Y-88353238D01*
X206012023Y-88448476D01*
X206059642Y-88638952D01*
X206059642Y-88781809D01*
X206012023Y-88972285D01*
X205964404Y-89067523D01*
X205869166Y-89162761D01*
X205726309Y-89210380D01*
X205488214Y-89210380D01*
X207012023Y-89210380D02*
X206440595Y-89210380D01*
X206726309Y-89210380D02*
X206726309Y-88210380D01*
X206631071Y-88353238D01*
X206535833Y-88448476D01*
X206440595Y-88496095D01*
X207345357Y-88210380D02*
X207964404Y-88210380D01*
X207631071Y-88591333D01*
X207773928Y-88591333D01*
X207869166Y-88638952D01*
X207916785Y-88686571D01*
X207964404Y-88781809D01*
X207964404Y-89019904D01*
X207916785Y-89115142D01*
X207869166Y-89162761D01*
X207773928Y-89210380D01*
X207488214Y-89210380D01*
X207392976Y-89162761D01*
X207345357Y-89115142D01*
%TO.C,D14*%
X222940714Y-97162880D02*
X222940714Y-96162880D01*
X223178809Y-96162880D01*
X223321666Y-96210500D01*
X223416904Y-96305738D01*
X223464523Y-96400976D01*
X223512142Y-96591452D01*
X223512142Y-96734309D01*
X223464523Y-96924785D01*
X223416904Y-97020023D01*
X223321666Y-97115261D01*
X223178809Y-97162880D01*
X222940714Y-97162880D01*
X224464523Y-97162880D02*
X223893095Y-97162880D01*
X224178809Y-97162880D02*
X224178809Y-96162880D01*
X224083571Y-96305738D01*
X223988333Y-96400976D01*
X223893095Y-96448595D01*
X225321666Y-96496214D02*
X225321666Y-97162880D01*
X225083571Y-96115261D02*
X224845476Y-96829547D01*
X225464523Y-96829547D01*
%TO.C,D15*%
X106936214Y-113848380D02*
X106936214Y-112848380D01*
X107174309Y-112848380D01*
X107317166Y-112896000D01*
X107412404Y-112991238D01*
X107460023Y-113086476D01*
X107507642Y-113276952D01*
X107507642Y-113419809D01*
X107460023Y-113610285D01*
X107412404Y-113705523D01*
X107317166Y-113800761D01*
X107174309Y-113848380D01*
X106936214Y-113848380D01*
X108460023Y-113848380D02*
X107888595Y-113848380D01*
X108174309Y-113848380D02*
X108174309Y-112848380D01*
X108079071Y-112991238D01*
X107983833Y-113086476D01*
X107888595Y-113134095D01*
X109364785Y-112848380D02*
X108888595Y-112848380D01*
X108840976Y-113324571D01*
X108888595Y-113276952D01*
X108983833Y-113229333D01*
X109221928Y-113229333D01*
X109317166Y-113276952D01*
X109364785Y-113324571D01*
X109412404Y-113419809D01*
X109412404Y-113657904D01*
X109364785Y-113753142D01*
X109317166Y-113800761D01*
X109221928Y-113848380D01*
X108983833Y-113848380D01*
X108888595Y-113800761D01*
X108840976Y-113753142D01*
%TO.C,D17*%
X156212214Y-113848380D02*
X156212214Y-112848380D01*
X156450309Y-112848380D01*
X156593166Y-112896000D01*
X156688404Y-112991238D01*
X156736023Y-113086476D01*
X156783642Y-113276952D01*
X156783642Y-113419809D01*
X156736023Y-113610285D01*
X156688404Y-113705523D01*
X156593166Y-113800761D01*
X156450309Y-113848380D01*
X156212214Y-113848380D01*
X157736023Y-113848380D02*
X157164595Y-113848380D01*
X157450309Y-113848380D02*
X157450309Y-112848380D01*
X157355071Y-112991238D01*
X157259833Y-113086476D01*
X157164595Y-113134095D01*
X158069357Y-112848380D02*
X158736023Y-112848380D01*
X158307452Y-113848380D01*
%TO.C,D18*%
X180850214Y-113848380D02*
X180850214Y-112848380D01*
X181088309Y-112848380D01*
X181231166Y-112896000D01*
X181326404Y-112991238D01*
X181374023Y-113086476D01*
X181421642Y-113276952D01*
X181421642Y-113419809D01*
X181374023Y-113610285D01*
X181326404Y-113705523D01*
X181231166Y-113800761D01*
X181088309Y-113848380D01*
X180850214Y-113848380D01*
X182374023Y-113848380D02*
X181802595Y-113848380D01*
X182088309Y-113848380D02*
X182088309Y-112848380D01*
X181993071Y-112991238D01*
X181897833Y-113086476D01*
X181802595Y-113134095D01*
X182945452Y-113276952D02*
X182850214Y-113229333D01*
X182802595Y-113181714D01*
X182754976Y-113086476D01*
X182754976Y-113038857D01*
X182802595Y-112943619D01*
X182850214Y-112896000D01*
X182945452Y-112848380D01*
X183135928Y-112848380D01*
X183231166Y-112896000D01*
X183278785Y-112943619D01*
X183326404Y-113038857D01*
X183326404Y-113086476D01*
X183278785Y-113181714D01*
X183231166Y-113229333D01*
X183135928Y-113276952D01*
X182945452Y-113276952D01*
X182850214Y-113324571D01*
X182802595Y-113372190D01*
X182754976Y-113467428D01*
X182754976Y-113657904D01*
X182802595Y-113753142D01*
X182850214Y-113800761D01*
X182945452Y-113848380D01*
X183135928Y-113848380D01*
X183231166Y-113800761D01*
X183278785Y-113753142D01*
X183326404Y-113657904D01*
X183326404Y-113467428D01*
X183278785Y-113372190D01*
X183231166Y-113324571D01*
X183135928Y-113276952D01*
%TO.C,D19*%
X205551714Y-113911880D02*
X205551714Y-112911880D01*
X205789809Y-112911880D01*
X205932666Y-112959500D01*
X206027904Y-113054738D01*
X206075523Y-113149976D01*
X206123142Y-113340452D01*
X206123142Y-113483309D01*
X206075523Y-113673785D01*
X206027904Y-113769023D01*
X205932666Y-113864261D01*
X205789809Y-113911880D01*
X205551714Y-113911880D01*
X207075523Y-113911880D02*
X206504095Y-113911880D01*
X206789809Y-113911880D02*
X206789809Y-112911880D01*
X206694571Y-113054738D01*
X206599333Y-113149976D01*
X206504095Y-113197595D01*
X207551714Y-113911880D02*
X207742190Y-113911880D01*
X207837428Y-113864261D01*
X207885047Y-113816642D01*
X207980285Y-113673785D01*
X208027904Y-113483309D01*
X208027904Y-113102357D01*
X207980285Y-113007119D01*
X207932666Y-112959500D01*
X207837428Y-112911880D01*
X207646952Y-112911880D01*
X207551714Y-112959500D01*
X207504095Y-113007119D01*
X207456476Y-113102357D01*
X207456476Y-113340452D01*
X207504095Y-113435690D01*
X207551714Y-113483309D01*
X207646952Y-113530928D01*
X207837428Y-113530928D01*
X207932666Y-113483309D01*
X207980285Y-113435690D01*
X208027904Y-113340452D01*
%TD*%
M02*
