M48
; DRILL file {KiCad (5.1.9)-1} date 03/22/21 18:36:54
; FORMAT={-:-/ absolute / metric / decimal}
; #@! TF.CreationDate,2021-03-22T18:36:54-04:00
; #@! TF.GenerationSoftware,Kicad,Pcbnew,(5.1.9)-1
; #@! TF.FileFunction,NonPlated,1,2,NPTH
FMAT,2
METRIC
T1C1.753
T2C4.089
%
G90
G05
T1
X66.019Y-80.439
X66.019Y-103.477
X76.179Y-80.439
X76.179Y-103.477
X90.683Y-67.323
X90.683Y-91.958
X90.683Y-116.593
X100.843Y-67.323
X100.843Y-91.958
X100.843Y-116.593
X115.347Y-67.323
X115.347Y-91.958
X115.347Y-116.593
X125.507Y-67.323
X125.507Y-91.958
X125.507Y-116.593
X140.011Y-67.323
X140.011Y-91.958
X140.011Y-116.593
X150.171Y-67.323
X150.171Y-91.958
X150.171Y-116.593
X164.675Y-67.323
X164.675Y-91.958
X164.675Y-116.593
X174.835Y-67.323
X174.835Y-91.958
X174.835Y-116.593
X189.338Y-67.323
X189.338Y-91.958
X189.338Y-116.593
X199.498Y-67.323
X199.498Y-91.958
X199.498Y-116.593
X214.002Y-80.439
X214.002Y-103.477
X224.162Y-80.439
X224.162Y-103.477
T2
X71.099Y-80.439
X71.099Y-103.477
X95.763Y-67.323
X95.763Y-91.958
X95.763Y-116.593
X120.427Y-67.323
X120.427Y-91.958
X120.427Y-116.593
X145.091Y-67.323
X145.091Y-91.958
X145.091Y-116.593
X169.755Y-67.323
X169.755Y-91.958
X169.755Y-116.593
X194.418Y-67.323
X194.418Y-91.958
X194.418Y-116.593
X219.082Y-80.439
X219.082Y-103.477
T0
M30
