%TF.GenerationSoftware,KiCad,Pcbnew,(5.1.9)-1*%
%TF.CreationDate,2021-03-29T17:32:38-04:00*%
%TF.ProjectId,DSKY_keyboard,44534b59-5f6b-4657-9962-6f6172642e6b,2.0*%
%TF.SameCoordinates,Original*%
%TF.FileFunction,Paste,Bot*%
%TF.FilePolarity,Positive*%
%FSLAX46Y46*%
G04 Gerber Fmt 4.6, Leading zero omitted, Abs format (unit mm)*
G04 Created by KiCad (PCBNEW (5.1.9)-1) date 2021-03-29 17:32:38*
%MOMM*%
%LPD*%
G01*
G04 APERTURE LIST*
%ADD10R,0.507200X1.461999*%
%ADD11R,1.461999X0.507200*%
%ADD12R,1.200000X0.800000*%
%ADD13R,0.550000X1.200000*%
%ADD14R,0.800000X0.800000*%
%ADD15R,1.220000X0.910000*%
%ADD16R,1.500000X1.240000*%
%ADD17R,1.075000X1.000000*%
%ADD18R,1.000000X1.075000*%
%ADD19R,0.900000X0.900000*%
G04 APERTURE END LIST*
D10*
%TO.C,U1*%
X184854499Y-99263200D03*
X184054499Y-99263200D03*
X183254500Y-99263200D03*
X182454499Y-99263200D03*
X181654501Y-99263200D03*
X180854500Y-99263200D03*
X180054499Y-99263200D03*
X179254501Y-99263200D03*
D11*
X177939700Y-100578001D03*
X177939700Y-101378001D03*
X177939700Y-102178000D03*
X177939700Y-102978001D03*
X177939700Y-103777999D03*
X177939700Y-104578000D03*
X177939700Y-105378001D03*
X177939700Y-106177999D03*
D10*
X179254501Y-107492800D03*
X180054501Y-107492800D03*
X180854500Y-107492800D03*
X181654501Y-107492800D03*
X182454499Y-107492800D03*
X183254500Y-107492800D03*
X184054501Y-107492800D03*
X184854499Y-107492800D03*
D11*
X186169300Y-106177999D03*
X186169300Y-105377999D03*
X186169300Y-104578000D03*
X186169300Y-103777999D03*
X186169300Y-102978001D03*
X186169300Y-102178000D03*
X186169300Y-101377999D03*
X186169300Y-100578001D03*
%TD*%
D12*
%TO.C,U2*%
X154543500Y-78295500D03*
X160543500Y-78295500D03*
X160543500Y-80835500D03*
X154543500Y-80835500D03*
%TD*%
D13*
%TO.C,U3*%
X177924500Y-78265400D03*
X176024500Y-78265400D03*
X176024500Y-80865600D03*
X176974500Y-80865600D03*
X177924500Y-80865600D03*
%TD*%
D14*
%TO.C,D21*%
X192341500Y-104445500D03*
X192341500Y-102945500D03*
%TD*%
D15*
%TO.C,D20*%
X171196000Y-77928000D03*
X171196000Y-81203000D03*
%TD*%
D16*
%TO.C,C1*%
X173799500Y-80515500D03*
X173799500Y-78615500D03*
%TD*%
%TO.C,C2*%
X180149500Y-80515500D03*
X180149500Y-78615500D03*
%TD*%
D17*
%TO.C,R1*%
X198222500Y-106299000D03*
X199922500Y-106299000D03*
%TD*%
D18*
%TO.C,R2*%
X163576000Y-78715500D03*
X163576000Y-80415500D03*
%TD*%
D19*
%TO.C,RESET*%
X201122500Y-104051000D03*
X201122500Y-102451000D03*
X197022500Y-102451000D03*
X197022500Y-104051000D03*
%TD*%
D15*
%TO.C,D22*%
X168021000Y-81203000D03*
X168021000Y-77928000D03*
%TD*%
D17*
%TO.C,C3*%
X173521000Y-98615500D03*
X175221000Y-98615500D03*
%TD*%
D18*
%TO.C,C4*%
X175069500Y-104877500D03*
X175069500Y-106577500D03*
%TD*%
D17*
%TO.C,C5*%
X188355500Y-97091500D03*
X190055500Y-97091500D03*
%TD*%
%TO.C,C6*%
X189586500Y-106426000D03*
X191286500Y-106426000D03*
%TD*%
D18*
%TO.C,C7*%
X190436500Y-104760500D03*
X190436500Y-103060500D03*
%TD*%
M02*
