M48
; DRILL file {KiCad (5.1.9)-1} date 03/22/21 18:36:54
; FORMAT={-:-/ absolute / metric / decimal}
; #@! TF.CreationDate,2021-03-22T18:36:54-04:00
; #@! TF.GenerationSoftware,Kicad,Pcbnew,(5.1.9)-1
; #@! TF.FileFunction,Plated,1,2,PTH
FMAT,2
METRIC
T1C0.300
T2C0.350
T3C0.400
T4C1.000
T5C1.600
%
G90
G05
T1
X62.357Y-84.963
X68.453Y-83.82
X78.232Y-82.931
X80.518Y-99.695
X80.518Y-104.775
X82.677Y-97.727
X82.677Y-106.362
X84.963Y-83.121
X86.042Y-77.66
X86.36Y-88.265
X86.786Y-69.895
X89.599Y-81.852
X93.027Y-74.486
X93.027Y-78.867
X96.965Y-77.025
X97.346Y-80.391
X98.189Y-94.343
X108.458Y-75.946
X109.728Y-88.582
X109.728Y-94.234
X114.109Y-60.452
X129.017Y-95.202
X131.445Y-97.599
X132.08Y-107.696
X134.366Y-88.519
X138.176Y-97.663
X147.241Y-95.202
X156.083Y-96.965
X157.416Y-69.532
X157.448Y-86.773
X157.448Y-93.948
X157.543Y-108.648
X159.004Y-88.392
X159.004Y-93.027
X160.845Y-91.313
X163.195Y-102.298
X163.639Y-98.806
X163.672Y-101.378
X172.91Y-93.98
X172.91Y-96.774
X175.958Y-102.489
X176.149Y-104.965
X177.292Y-108.712
X177.609Y-110.49
X179.387Y-105.346
X180.022Y-97.536
X180.022Y-101.409
X180.086Y-96.075
X181.102Y-94.17
X181.229Y-104.521
X181.673Y-109.093
X181.864Y-101.663
X182.245Y-104.584
X182.435Y-105.981
X182.689Y-100.838
X183.325Y-102.679
X183.642Y-88.582
X183.642Y-94.17
X183.959Y-100.711
X184.785Y-106.045
X184.849Y-114.935
X185.039Y-94.17
X185.039Y-96.965
X186.055Y-94.17
X186.88Y-97.028
X186.88Y-107.759
X187.611Y-101.123
X187.611Y-105.378
X187.96Y-94.234
X187.96Y-97.727
X188.468Y-104.584
X188.849Y-107.632
X190.684Y-101.288
X190.754Y-96.901
X192.087Y-94.488
X203.93Y-90.837
X204.153Y-104.521
X206.502Y-95.758
X213.804Y-97.599
X216.725Y-70.675
T3
X131.351Y-101.983
X132.001Y-102.983
X132.651Y-101.983
X133.302Y-102.983
X133.951Y-101.983
T4
X69.829Y-85.519
X69.829Y-108.557
X72.37Y-85.519
X72.37Y-108.557
X94.493Y-72.403
X94.493Y-97.038
X94.493Y-121.673
X97.033Y-72.403
X97.033Y-97.038
X97.033Y-121.673
X119.157Y-72.403
X119.157Y-97.038
X119.157Y-121.673
X121.697Y-72.403
X121.697Y-97.038
X121.697Y-121.673
X143.821Y-72.403
X143.821Y-97.038
X143.821Y-121.673
X146.361Y-72.403
X146.361Y-97.038
X146.361Y-121.673
X152.654Y-103.632
X155.194Y-103.632
X157.734Y-103.632
X160.274Y-103.632
X168.485Y-72.403
X168.485Y-97.038
X168.485Y-121.673
X171.025Y-72.403
X171.025Y-97.038
X171.025Y-121.673
X193.148Y-72.403
X193.148Y-97.038
X193.148Y-121.673
X195.689Y-72.403
X195.689Y-97.038
X195.689Y-121.673
X217.812Y-85.519
X217.812Y-108.557
X220.352Y-85.519
X220.352Y-108.557
T5
X67.29Y-77.899
X67.29Y-100.937
X73.639Y-75.359
X73.639Y-98.397
X91.953Y-64.783
X91.953Y-89.418
X91.953Y-114.053
X98.303Y-62.243
X98.303Y-86.878
X98.303Y-111.513
X116.617Y-64.783
X116.617Y-89.418
X116.617Y-114.053
X122.967Y-62.243
X122.967Y-86.878
X122.967Y-111.513
X141.281Y-64.783
X141.281Y-89.418
X141.281Y-114.053
X147.631Y-62.243
X147.631Y-86.878
X147.631Y-111.513
X165.945Y-64.783
X165.945Y-89.418
X165.945Y-114.053
X172.295Y-62.243
X172.295Y-86.878
X172.295Y-111.513
X190.608Y-64.783
X190.608Y-89.418
X190.608Y-114.053
X196.958Y-62.243
X196.958Y-86.878
X196.958Y-111.513
X215.272Y-77.899
X215.272Y-100.937
X221.623Y-75.359
X221.623Y-98.397
T2
G00X129.076Y-102.703
M15
G01X129.076Y-101.703
M16
G05
G00X136.226Y-102.703
M15
G01X136.226Y-101.703
M16
G05
T0
M30
