%TF.GenerationSoftware,KiCad,Pcbnew,(5.1.9)-1*%
%TF.CreationDate,2021-03-17T19:25:06-04:00*%
%TF.ProjectId,DSKY_keyboard,44534b59-5f6b-4657-9962-6f6172642e6b,1.0*%
%TF.SameCoordinates,Original*%
%TF.FileFunction,Paste,Bot*%
%TF.FilePolarity,Positive*%
%FSLAX46Y46*%
G04 Gerber Fmt 4.6, Leading zero omitted, Abs format (unit mm)*
G04 Created by KiCad (PCBNEW (5.1.9)-1) date 2021-03-17 19:25:06*
%MOMM*%
%LPD*%
G01*
G04 APERTURE LIST*
%ADD10R,0.550000X1.200000*%
%ADD11R,0.507200X1.461999*%
%ADD12R,1.461999X0.507200*%
%ADD13R,0.800000X0.800000*%
%ADD14R,1.220000X0.910000*%
%ADD15R,1.500000X1.240000*%
%ADD16R,1.000000X1.075000*%
%ADD17R,1.075000X1.000000*%
%ADD18R,0.900000X0.900000*%
%ADD19R,1.200000X0.800000*%
G04 APERTURE END LIST*
D10*
%TO.C,U3*%
X100581500Y-77503400D03*
X98681500Y-77503400D03*
X98681500Y-80103600D03*
X99631500Y-80103600D03*
X100581500Y-80103600D03*
%TD*%
D11*
%TO.C,U1*%
X184854499Y-99263200D03*
X184054499Y-99263200D03*
X183254500Y-99263200D03*
X182454499Y-99263200D03*
X181654501Y-99263200D03*
X180854500Y-99263200D03*
X180054499Y-99263200D03*
X179254501Y-99263200D03*
D12*
X177939700Y-100578001D03*
X177939700Y-101378001D03*
X177939700Y-102178000D03*
X177939700Y-102978001D03*
X177939700Y-103777999D03*
X177939700Y-104578000D03*
X177939700Y-105378001D03*
X177939700Y-106177999D03*
D11*
X179254501Y-107492800D03*
X180054501Y-107492800D03*
X180854500Y-107492800D03*
X181654501Y-107492800D03*
X182454499Y-107492800D03*
X183254500Y-107492800D03*
X184054501Y-107492800D03*
X184854499Y-107492800D03*
D12*
X186169300Y-106177999D03*
X186169300Y-105377999D03*
X186169300Y-104578000D03*
X186169300Y-103777999D03*
X186169300Y-102978001D03*
X186169300Y-102178000D03*
X186169300Y-101377999D03*
X186169300Y-100578001D03*
%TD*%
D13*
%TO.C,D21*%
X192341500Y-104445500D03*
X192341500Y-102945500D03*
%TD*%
D14*
%TO.C,D20*%
X160845500Y-83806500D03*
X160845500Y-80531500D03*
%TD*%
D15*
%TO.C,C1*%
X88582500Y-79563000D03*
X88582500Y-77663000D03*
%TD*%
%TO.C,C2*%
X91249500Y-79563000D03*
X91249500Y-77663000D03*
%TD*%
D16*
%TO.C,C3*%
X95123000Y-82828500D03*
X95123000Y-81128500D03*
%TD*%
%TO.C,R1*%
X95123000Y-77152500D03*
X95123000Y-78852500D03*
%TD*%
D17*
%TO.C,R2*%
X84352500Y-88265000D03*
X82652500Y-88265000D03*
%TD*%
D18*
%TO.C,SW20*%
X190665000Y-94089000D03*
X189065000Y-94089000D03*
X189065000Y-98189000D03*
X190665000Y-98189000D03*
%TD*%
D19*
%TO.C,U2*%
X80502500Y-82931000D03*
X86502500Y-82931000D03*
X86502500Y-85471000D03*
X80502500Y-85471000D03*
%TD*%
M02*
