%TF.GenerationSoftware,KiCad,Pcbnew,(5.1.9)-1*%
%TF.CreationDate,2021-03-17T19:25:06-04:00*%
%TF.ProjectId,DSKY_keyboard,44534b59-5f6b-4657-9962-6f6172642e6b,1.0*%
%TF.SameCoordinates,Original*%
%TF.FileFunction,Legend,Bot*%
%TF.FilePolarity,Positive*%
%FSLAX46Y46*%
G04 Gerber Fmt 4.6, Leading zero omitted, Abs format (unit mm)*
G04 Created by KiCad (PCBNEW (5.1.9)-1) date 2021-03-17 19:25:06*
%MOMM*%
%LPD*%
G01*
G04 APERTURE LIST*
%ADD10C,0.150000*%
%ADD11C,0.010000*%
%ADD12C,0.203200*%
%ADD13C,0.152400*%
%ADD14C,0.100000*%
%ADD15C,0.127000*%
%ADD16C,0.304800*%
%ADD17C,0.120000*%
%ADD18C,0.138988*%
G04 APERTURE END LIST*
D10*
X117988714Y-106210142D02*
X117988714Y-105310142D01*
X117774428Y-105310142D01*
X117645857Y-105353000D01*
X117560142Y-105438714D01*
X117517285Y-105524428D01*
X117474428Y-105695857D01*
X117474428Y-105824428D01*
X117517285Y-105995857D01*
X117560142Y-106081571D01*
X117645857Y-106167285D01*
X117774428Y-106210142D01*
X117988714Y-106210142D01*
X117131571Y-106167285D02*
X117003000Y-106210142D01*
X116788714Y-106210142D01*
X116703000Y-106167285D01*
X116660142Y-106124428D01*
X116617285Y-106038714D01*
X116617285Y-105953000D01*
X116660142Y-105867285D01*
X116703000Y-105824428D01*
X116788714Y-105781571D01*
X116960142Y-105738714D01*
X117045857Y-105695857D01*
X117088714Y-105653000D01*
X117131571Y-105567285D01*
X117131571Y-105481571D01*
X117088714Y-105395857D01*
X117045857Y-105353000D01*
X116960142Y-105310142D01*
X116745857Y-105310142D01*
X116617285Y-105353000D01*
X116231571Y-106210142D02*
X116231571Y-105310142D01*
X115717285Y-106210142D02*
X116103000Y-105695857D01*
X115717285Y-105310142D02*
X116231571Y-105824428D01*
X115160142Y-105781571D02*
X115160142Y-106210142D01*
X115460142Y-105310142D02*
X115160142Y-105781571D01*
X114860142Y-105310142D01*
X113874428Y-106210142D02*
X113874428Y-105310142D01*
X113360142Y-106210142D02*
X113745857Y-105695857D01*
X113360142Y-105310142D02*
X113874428Y-105824428D01*
X112631571Y-106167285D02*
X112717285Y-106210142D01*
X112888714Y-106210142D01*
X112974428Y-106167285D01*
X113017285Y-106081571D01*
X113017285Y-105738714D01*
X112974428Y-105653000D01*
X112888714Y-105610142D01*
X112717285Y-105610142D01*
X112631571Y-105653000D01*
X112588714Y-105738714D01*
X112588714Y-105824428D01*
X113017285Y-105910142D01*
X112288714Y-105610142D02*
X112074428Y-106210142D01*
X111860142Y-105610142D02*
X112074428Y-106210142D01*
X112160142Y-106424428D01*
X112203000Y-106467285D01*
X112288714Y-106510142D01*
X111517285Y-106210142D02*
X111517285Y-105310142D01*
X111517285Y-105653000D02*
X111431571Y-105610142D01*
X111260142Y-105610142D01*
X111174428Y-105653000D01*
X111131571Y-105695857D01*
X111088714Y-105781571D01*
X111088714Y-106038714D01*
X111131571Y-106124428D01*
X111174428Y-106167285D01*
X111260142Y-106210142D01*
X111431571Y-106210142D01*
X111517285Y-106167285D01*
X110574428Y-106210142D02*
X110660142Y-106167285D01*
X110703000Y-106124428D01*
X110745857Y-106038714D01*
X110745857Y-105781571D01*
X110703000Y-105695857D01*
X110660142Y-105653000D01*
X110574428Y-105610142D01*
X110445857Y-105610142D01*
X110360142Y-105653000D01*
X110317285Y-105695857D01*
X110274428Y-105781571D01*
X110274428Y-106038714D01*
X110317285Y-106124428D01*
X110360142Y-106167285D01*
X110445857Y-106210142D01*
X110574428Y-106210142D01*
X109503000Y-106210142D02*
X109503000Y-105738714D01*
X109545857Y-105653000D01*
X109631571Y-105610142D01*
X109803000Y-105610142D01*
X109888714Y-105653000D01*
X109503000Y-106167285D02*
X109588714Y-106210142D01*
X109803000Y-106210142D01*
X109888714Y-106167285D01*
X109931571Y-106081571D01*
X109931571Y-105995857D01*
X109888714Y-105910142D01*
X109803000Y-105867285D01*
X109588714Y-105867285D01*
X109503000Y-105824428D01*
X109074428Y-106210142D02*
X109074428Y-105610142D01*
X109074428Y-105781571D02*
X109031571Y-105695857D01*
X108988714Y-105653000D01*
X108903000Y-105610142D01*
X108817285Y-105610142D01*
X108131571Y-106210142D02*
X108131571Y-105310142D01*
X108131571Y-106167285D02*
X108217285Y-106210142D01*
X108388714Y-106210142D01*
X108474428Y-106167285D01*
X108517285Y-106124428D01*
X108560142Y-106038714D01*
X108560142Y-105781571D01*
X108517285Y-105695857D01*
X108474428Y-105653000D01*
X108388714Y-105610142D01*
X108217285Y-105610142D01*
X108131571Y-105653000D01*
X106760142Y-106553000D02*
X106803000Y-106510142D01*
X106888714Y-106381571D01*
X106931571Y-106295857D01*
X106974428Y-106167285D01*
X107017285Y-105953000D01*
X107017285Y-105781571D01*
X106974428Y-105567285D01*
X106931571Y-105438714D01*
X106888714Y-105353000D01*
X106803000Y-105224428D01*
X106760142Y-105181571D01*
X105903000Y-106124428D02*
X105945857Y-106167285D01*
X106074428Y-106210142D01*
X106160142Y-106210142D01*
X106288714Y-106167285D01*
X106374428Y-106081571D01*
X106417285Y-105995857D01*
X106460142Y-105824428D01*
X106460142Y-105695857D01*
X106417285Y-105524428D01*
X106374428Y-105438714D01*
X106288714Y-105353000D01*
X106160142Y-105310142D01*
X106074428Y-105310142D01*
X105945857Y-105353000D01*
X105903000Y-105395857D01*
X105517285Y-106210142D02*
X105517285Y-105310142D01*
X105131571Y-106210142D02*
X105131571Y-105738714D01*
X105174428Y-105653000D01*
X105260142Y-105610142D01*
X105388714Y-105610142D01*
X105474428Y-105653000D01*
X105517285Y-105695857D01*
X104360142Y-106167285D02*
X104445857Y-106210142D01*
X104617285Y-106210142D01*
X104703000Y-106167285D01*
X104745857Y-106081571D01*
X104745857Y-105738714D01*
X104703000Y-105653000D01*
X104617285Y-105610142D01*
X104445857Y-105610142D01*
X104360142Y-105653000D01*
X104317285Y-105738714D01*
X104317285Y-105824428D01*
X104745857Y-105910142D01*
X103931571Y-106210142D02*
X103931571Y-105610142D01*
X103931571Y-105781571D02*
X103888714Y-105695857D01*
X103845857Y-105653000D01*
X103760142Y-105610142D01*
X103674428Y-105610142D01*
X103374428Y-106210142D02*
X103374428Y-105610142D01*
X103374428Y-105781571D02*
X103331571Y-105695857D01*
X103288714Y-105653000D01*
X103203000Y-105610142D01*
X103117285Y-105610142D01*
X102903000Y-105610142D02*
X102688714Y-106210142D01*
X102474428Y-105610142D02*
X102688714Y-106210142D01*
X102774428Y-106424428D01*
X102817285Y-106467285D01*
X102903000Y-106510142D01*
X101445857Y-106210142D02*
X101445857Y-105310142D01*
X101145857Y-105953000D01*
X100845857Y-105310142D01*
X100845857Y-106210142D01*
X100503000Y-105310142D02*
X99903000Y-106210142D01*
X99903000Y-105310142D02*
X100503000Y-106210142D01*
X99645857Y-106553000D02*
X99603000Y-106510142D01*
X99517285Y-106381571D01*
X99474428Y-106295857D01*
X99431571Y-106167285D01*
X99388714Y-105953000D01*
X99388714Y-105781571D01*
X99431571Y-105567285D01*
X99474428Y-105438714D01*
X99517285Y-105353000D01*
X99603000Y-105224428D01*
X99645857Y-105181571D01*
X98403000Y-105310142D02*
X98103000Y-106210142D01*
X97803000Y-105310142D01*
X97031571Y-106210142D02*
X97545857Y-106210142D01*
X97288714Y-106210142D02*
X97288714Y-105310142D01*
X97374428Y-105438714D01*
X97460142Y-105524428D01*
X97545857Y-105567285D01*
X117988714Y-107710142D02*
X117988714Y-106810142D01*
X117774428Y-106810142D01*
X117645857Y-106853000D01*
X117560142Y-106938714D01*
X117517285Y-107024428D01*
X117474428Y-107195857D01*
X117474428Y-107324428D01*
X117517285Y-107495857D01*
X117560142Y-107581571D01*
X117645857Y-107667285D01*
X117774428Y-107710142D01*
X117988714Y-107710142D01*
X116745857Y-107667285D02*
X116831571Y-107710142D01*
X117003000Y-107710142D01*
X117088714Y-107667285D01*
X117131571Y-107581571D01*
X117131571Y-107238714D01*
X117088714Y-107153000D01*
X117003000Y-107110142D01*
X116831571Y-107110142D01*
X116745857Y-107153000D01*
X116703000Y-107238714D01*
X116703000Y-107324428D01*
X117131571Y-107410142D01*
X116360142Y-107667285D02*
X116274428Y-107710142D01*
X116103000Y-107710142D01*
X116017285Y-107667285D01*
X115974428Y-107581571D01*
X115974428Y-107538714D01*
X116017285Y-107453000D01*
X116103000Y-107410142D01*
X116231571Y-107410142D01*
X116317285Y-107367285D01*
X116360142Y-107281571D01*
X116360142Y-107238714D01*
X116317285Y-107153000D01*
X116231571Y-107110142D01*
X116103000Y-107110142D01*
X116017285Y-107153000D01*
X115588714Y-107710142D02*
X115588714Y-107110142D01*
X115588714Y-106810142D02*
X115631571Y-106853000D01*
X115588714Y-106895857D01*
X115545857Y-106853000D01*
X115588714Y-106810142D01*
X115588714Y-106895857D01*
X114774428Y-107110142D02*
X114774428Y-107838714D01*
X114817285Y-107924428D01*
X114860142Y-107967285D01*
X114945857Y-108010142D01*
X115074428Y-108010142D01*
X115160142Y-107967285D01*
X114774428Y-107667285D02*
X114860142Y-107710142D01*
X115031571Y-107710142D01*
X115117285Y-107667285D01*
X115160142Y-107624428D01*
X115203000Y-107538714D01*
X115203000Y-107281571D01*
X115160142Y-107195857D01*
X115117285Y-107153000D01*
X115031571Y-107110142D01*
X114860142Y-107110142D01*
X114774428Y-107153000D01*
X114345857Y-107110142D02*
X114345857Y-107710142D01*
X114345857Y-107195857D02*
X114303000Y-107153000D01*
X114217285Y-107110142D01*
X114088714Y-107110142D01*
X114003000Y-107153000D01*
X113960142Y-107238714D01*
X113960142Y-107710142D01*
X113188714Y-107667285D02*
X113274428Y-107710142D01*
X113445857Y-107710142D01*
X113531571Y-107667285D01*
X113574428Y-107581571D01*
X113574428Y-107238714D01*
X113531571Y-107153000D01*
X113445857Y-107110142D01*
X113274428Y-107110142D01*
X113188714Y-107153000D01*
X113145857Y-107238714D01*
X113145857Y-107324428D01*
X113574428Y-107410142D01*
X112374428Y-107710142D02*
X112374428Y-106810142D01*
X112374428Y-107667285D02*
X112460142Y-107710142D01*
X112631571Y-107710142D01*
X112717285Y-107667285D01*
X112760142Y-107624428D01*
X112803000Y-107538714D01*
X112803000Y-107281571D01*
X112760142Y-107195857D01*
X112717285Y-107153000D01*
X112631571Y-107110142D01*
X112460142Y-107110142D01*
X112374428Y-107153000D01*
X111260142Y-107710142D02*
X111260142Y-106810142D01*
X111260142Y-107153000D02*
X111174428Y-107110142D01*
X111003000Y-107110142D01*
X110917285Y-107153000D01*
X110874428Y-107195857D01*
X110831571Y-107281571D01*
X110831571Y-107538714D01*
X110874428Y-107624428D01*
X110917285Y-107667285D01*
X111003000Y-107710142D01*
X111174428Y-107710142D01*
X111260142Y-107667285D01*
X110531571Y-107110142D02*
X110317285Y-107710142D01*
X110103000Y-107110142D02*
X110317285Y-107710142D01*
X110403000Y-107924428D01*
X110445857Y-107967285D01*
X110531571Y-108010142D01*
X109203000Y-106810142D02*
X108903000Y-107710142D01*
X108603000Y-106810142D01*
X108174428Y-107710142D02*
X108260142Y-107667285D01*
X108303000Y-107581571D01*
X108303000Y-106810142D01*
X107445857Y-107710142D02*
X107445857Y-107238714D01*
X107488714Y-107153000D01*
X107574428Y-107110142D01*
X107745857Y-107110142D01*
X107831571Y-107153000D01*
X107445857Y-107667285D02*
X107531571Y-107710142D01*
X107745857Y-107710142D01*
X107831571Y-107667285D01*
X107874428Y-107581571D01*
X107874428Y-107495857D01*
X107831571Y-107410142D01*
X107745857Y-107367285D01*
X107531571Y-107367285D01*
X107445857Y-107324428D01*
X106631571Y-107710142D02*
X106631571Y-106810142D01*
X106631571Y-107667285D02*
X106717285Y-107710142D01*
X106888714Y-107710142D01*
X106974428Y-107667285D01*
X107017285Y-107624428D01*
X107060142Y-107538714D01*
X107060142Y-107281571D01*
X107017285Y-107195857D01*
X106974428Y-107153000D01*
X106888714Y-107110142D01*
X106717285Y-107110142D01*
X106631571Y-107153000D01*
X105517285Y-107710142D02*
X105517285Y-106810142D01*
X105217285Y-107453000D01*
X104917285Y-106810142D01*
X104917285Y-107710142D01*
X104488714Y-107710142D02*
X104488714Y-107110142D01*
X104488714Y-106810142D02*
X104531571Y-106853000D01*
X104488714Y-106895857D01*
X104445857Y-106853000D01*
X104488714Y-106810142D01*
X104488714Y-106895857D01*
X104060142Y-107710142D02*
X104060142Y-106810142D01*
X103674428Y-107710142D02*
X103674428Y-107238714D01*
X103717285Y-107153000D01*
X103803000Y-107110142D01*
X103931571Y-107110142D01*
X104017285Y-107153000D01*
X104060142Y-107195857D01*
X102860142Y-107710142D02*
X102860142Y-107238714D01*
X102903000Y-107153000D01*
X102988714Y-107110142D01*
X103160142Y-107110142D01*
X103245857Y-107153000D01*
X102860142Y-107667285D02*
X102945857Y-107710142D01*
X103160142Y-107710142D01*
X103245857Y-107667285D01*
X103288714Y-107581571D01*
X103288714Y-107495857D01*
X103245857Y-107410142D01*
X103160142Y-107367285D01*
X102945857Y-107367285D01*
X102860142Y-107324428D01*
X102431571Y-107710142D02*
X102431571Y-107110142D01*
X102431571Y-106810142D02*
X102474428Y-106853000D01*
X102431571Y-106895857D01*
X102388714Y-106853000D01*
X102431571Y-106810142D01*
X102431571Y-106895857D01*
X101874428Y-107710142D02*
X101960142Y-107667285D01*
X102003000Y-107581571D01*
X102003000Y-106810142D01*
X101188714Y-107667285D02*
X101274428Y-107710142D01*
X101445857Y-107710142D01*
X101531571Y-107667285D01*
X101574428Y-107581571D01*
X101574428Y-107238714D01*
X101531571Y-107153000D01*
X101445857Y-107110142D01*
X101274428Y-107110142D01*
X101188714Y-107153000D01*
X101145857Y-107238714D01*
X101145857Y-107324428D01*
X101574428Y-107410142D01*
X100803000Y-107667285D02*
X100717285Y-107710142D01*
X100545857Y-107710142D01*
X100460142Y-107667285D01*
X100417285Y-107581571D01*
X100417285Y-107538714D01*
X100460142Y-107453000D01*
X100545857Y-107410142D01*
X100674428Y-107410142D01*
X100760142Y-107367285D01*
X100803000Y-107281571D01*
X100803000Y-107238714D01*
X100760142Y-107153000D01*
X100674428Y-107110142D01*
X100545857Y-107110142D01*
X100460142Y-107153000D01*
X99645857Y-107667285D02*
X99731571Y-107710142D01*
X99903000Y-107710142D01*
X99988714Y-107667285D01*
X100031571Y-107624428D01*
X100074428Y-107538714D01*
X100074428Y-107281571D01*
X100031571Y-107195857D01*
X99988714Y-107153000D01*
X99903000Y-107110142D01*
X99731571Y-107110142D01*
X99645857Y-107153000D01*
X98874428Y-107110142D02*
X98874428Y-107710142D01*
X99260142Y-107110142D02*
X99260142Y-107581571D01*
X99217285Y-107667285D01*
X99131571Y-107710142D01*
X99003000Y-107710142D01*
X98917285Y-107667285D01*
X98874428Y-107624428D01*
X156104714Y-105904071D02*
X155997571Y-105939785D01*
X155819000Y-105939785D01*
X155747571Y-105904071D01*
X155711857Y-105868357D01*
X155676142Y-105796928D01*
X155676142Y-105725500D01*
X155711857Y-105654071D01*
X155747571Y-105618357D01*
X155819000Y-105582642D01*
X155961857Y-105546928D01*
X156033285Y-105511214D01*
X156069000Y-105475500D01*
X156104714Y-105404071D01*
X156104714Y-105332642D01*
X156069000Y-105261214D01*
X156033285Y-105225500D01*
X155961857Y-105189785D01*
X155783285Y-105189785D01*
X155676142Y-105225500D01*
X155354714Y-105939785D02*
X155354714Y-105189785D01*
X155176142Y-105189785D01*
X155069000Y-105225500D01*
X154997571Y-105296928D01*
X154961857Y-105368357D01*
X154926142Y-105511214D01*
X154926142Y-105618357D01*
X154961857Y-105761214D01*
X154997571Y-105832642D01*
X155069000Y-105904071D01*
X155176142Y-105939785D01*
X155354714Y-105939785D01*
X154640428Y-105725500D02*
X154283285Y-105725500D01*
X154711857Y-105939785D02*
X154461857Y-105189785D01*
X154211857Y-105939785D01*
X153483357Y-105904071D02*
X153376214Y-105939785D01*
X153197642Y-105939785D01*
X153126214Y-105904071D01*
X153090500Y-105868357D01*
X153054785Y-105796928D01*
X153054785Y-105725500D01*
X153090500Y-105654071D01*
X153126214Y-105618357D01*
X153197642Y-105582642D01*
X153340500Y-105546928D01*
X153411928Y-105511214D01*
X153447642Y-105475500D01*
X153483357Y-105404071D01*
X153483357Y-105332642D01*
X153447642Y-105261214D01*
X153411928Y-105225500D01*
X153340500Y-105189785D01*
X153161928Y-105189785D01*
X153054785Y-105225500D01*
X152304785Y-105868357D02*
X152340500Y-105904071D01*
X152447642Y-105939785D01*
X152519071Y-105939785D01*
X152626214Y-105904071D01*
X152697642Y-105832642D01*
X152733357Y-105761214D01*
X152769071Y-105618357D01*
X152769071Y-105511214D01*
X152733357Y-105368357D01*
X152697642Y-105296928D01*
X152626214Y-105225500D01*
X152519071Y-105189785D01*
X152447642Y-105189785D01*
X152340500Y-105225500D01*
X152304785Y-105261214D01*
X151626214Y-105939785D02*
X151983357Y-105939785D01*
X151983357Y-105189785D01*
X158305428Y-105225500D02*
X158376857Y-105189785D01*
X158484000Y-105189785D01*
X158591142Y-105225500D01*
X158662571Y-105296928D01*
X158698285Y-105368357D01*
X158734000Y-105511214D01*
X158734000Y-105618357D01*
X158698285Y-105761214D01*
X158662571Y-105832642D01*
X158591142Y-105904071D01*
X158484000Y-105939785D01*
X158412571Y-105939785D01*
X158305428Y-105904071D01*
X158269714Y-105868357D01*
X158269714Y-105618357D01*
X158412571Y-105618357D01*
X157948285Y-105939785D02*
X157948285Y-105189785D01*
X157519714Y-105939785D01*
X157519714Y-105189785D01*
X157162571Y-105939785D02*
X157162571Y-105189785D01*
X156984000Y-105189785D01*
X156876857Y-105225500D01*
X156805428Y-105296928D01*
X156769714Y-105368357D01*
X156734000Y-105511214D01*
X156734000Y-105618357D01*
X156769714Y-105761214D01*
X156805428Y-105832642D01*
X156876857Y-105904071D01*
X156984000Y-105939785D01*
X157162571Y-105939785D01*
X161135142Y-105654071D02*
X160563714Y-105654071D01*
X160849428Y-105939785D02*
X160849428Y-105368357D01*
X160313714Y-105189785D02*
X160063714Y-105939785D01*
X159813714Y-105189785D01*
D11*
%TO.C,REF1*%
G36*
X107937122Y-96871776D02*
G01*
X107831388Y-96872355D01*
X107754868Y-96873922D01*
X107702628Y-96876972D01*
X107669737Y-96881996D01*
X107651263Y-96889489D01*
X107642273Y-96899944D01*
X107637837Y-96913853D01*
X107637406Y-96915654D01*
X107630667Y-96948145D01*
X107618192Y-97012252D01*
X107601281Y-97101151D01*
X107581229Y-97208019D01*
X107559336Y-97326033D01*
X107558571Y-97330178D01*
X107536641Y-97445831D01*
X107516123Y-97548014D01*
X107498341Y-97630598D01*
X107484619Y-97687456D01*
X107476282Y-97712458D01*
X107475884Y-97712901D01*
X107451323Y-97725110D01*
X107400685Y-97745456D01*
X107334905Y-97769545D01*
X107334539Y-97769674D01*
X107251683Y-97800818D01*
X107154000Y-97840491D01*
X107061923Y-97880381D01*
X107057566Y-97882353D01*
X106907593Y-97950420D01*
X106575502Y-97723639D01*
X106473626Y-97654504D01*
X106381343Y-97592697D01*
X106303997Y-97541733D01*
X106246936Y-97505127D01*
X106215505Y-97486394D01*
X106212521Y-97485004D01*
X106189679Y-97491190D01*
X106147018Y-97521035D01*
X106082872Y-97575947D01*
X105995579Y-97657334D01*
X105906465Y-97743922D01*
X105820559Y-97829247D01*
X105743673Y-97907108D01*
X105680436Y-97972697D01*
X105635477Y-98021205D01*
X105613424Y-98047825D01*
X105612604Y-98049195D01*
X105610166Y-98067463D01*
X105619350Y-98097295D01*
X105642426Y-98142721D01*
X105681663Y-98207770D01*
X105739330Y-98296470D01*
X105816205Y-98410657D01*
X105884430Y-98511162D01*
X105945418Y-98601303D01*
X105995644Y-98675849D01*
X106031584Y-98729565D01*
X106049713Y-98757218D01*
X106050854Y-98759095D01*
X106048641Y-98785590D01*
X106031862Y-98837086D01*
X106003858Y-98903851D01*
X105993878Y-98925172D01*
X105950328Y-99020159D01*
X105903866Y-99127937D01*
X105866123Y-99221192D01*
X105838927Y-99290406D01*
X105817325Y-99343006D01*
X105804842Y-99370497D01*
X105803291Y-99372616D01*
X105780332Y-99376124D01*
X105726214Y-99385738D01*
X105648132Y-99400089D01*
X105553281Y-99417807D01*
X105448857Y-99437525D01*
X105342056Y-99457874D01*
X105240074Y-99477486D01*
X105150106Y-99494991D01*
X105079347Y-99509022D01*
X105034994Y-99518209D01*
X105024115Y-99520807D01*
X105012878Y-99527218D01*
X105004395Y-99541697D01*
X104998286Y-99569133D01*
X104994168Y-99614411D01*
X104991659Y-99682420D01*
X104990379Y-99778047D01*
X104989946Y-99906180D01*
X104989923Y-99958701D01*
X104989923Y-100385845D01*
X105092500Y-100406091D01*
X105149569Y-100417070D01*
X105234731Y-100433095D01*
X105337628Y-100452233D01*
X105447904Y-100472551D01*
X105478385Y-100478132D01*
X105580145Y-100497917D01*
X105668795Y-100517373D01*
X105736892Y-100534697D01*
X105776996Y-100548088D01*
X105783677Y-100552079D01*
X105800081Y-100580342D01*
X105823601Y-100635109D01*
X105849684Y-100705588D01*
X105854858Y-100720769D01*
X105889044Y-100814896D01*
X105931477Y-100921101D01*
X105973003Y-101016473D01*
X105973208Y-101016916D01*
X106042360Y-101166525D01*
X105587488Y-101835617D01*
X105879500Y-102128116D01*
X105967820Y-102215170D01*
X106048375Y-102291909D01*
X106116640Y-102354237D01*
X106168092Y-102398056D01*
X106198206Y-102419270D01*
X106202526Y-102420616D01*
X106227889Y-102410016D01*
X106279642Y-102380547D01*
X106352132Y-102335705D01*
X106439706Y-102278984D01*
X106534388Y-102215462D01*
X106630484Y-102150668D01*
X106716163Y-102094287D01*
X106785984Y-102049788D01*
X106834506Y-102020639D01*
X106856218Y-102010308D01*
X106882707Y-102019050D01*
X106932938Y-102042087D01*
X106996549Y-102074631D01*
X107003292Y-102078249D01*
X107088954Y-102121210D01*
X107147694Y-102142279D01*
X107184228Y-102142503D01*
X107203269Y-102122928D01*
X107203380Y-102122654D01*
X107212898Y-102099472D01*
X107235597Y-102044441D01*
X107269718Y-101961822D01*
X107313500Y-101855872D01*
X107365184Y-101730852D01*
X107423008Y-101591020D01*
X107479009Y-101455637D01*
X107540553Y-101306234D01*
X107597061Y-101167832D01*
X107646839Y-101044673D01*
X107688194Y-100941002D01*
X107719432Y-100861059D01*
X107738859Y-100809088D01*
X107744846Y-100789692D01*
X107729832Y-100767443D01*
X107690561Y-100731982D01*
X107638193Y-100692887D01*
X107489059Y-100569245D01*
X107372489Y-100427522D01*
X107289882Y-100270704D01*
X107242634Y-100101775D01*
X107232143Y-99923722D01*
X107239769Y-99841539D01*
X107281318Y-99671031D01*
X107352877Y-99520459D01*
X107450005Y-99391309D01*
X107568266Y-99285064D01*
X107703220Y-99203210D01*
X107850429Y-99147232D01*
X108005456Y-99118615D01*
X108163861Y-99118844D01*
X108321206Y-99149405D01*
X108473054Y-99211782D01*
X108614965Y-99307460D01*
X108674197Y-99361572D01*
X108787797Y-99500520D01*
X108866894Y-99652361D01*
X108912014Y-99812667D01*
X108923684Y-99977012D01*
X108902431Y-100140971D01*
X108848780Y-100300118D01*
X108763260Y-100450025D01*
X108646395Y-100586267D01*
X108515807Y-100692887D01*
X108461412Y-100733642D01*
X108422986Y-100768718D01*
X108409154Y-100789726D01*
X108416397Y-100812635D01*
X108436995Y-100867365D01*
X108469254Y-100949672D01*
X108511479Y-101055315D01*
X108561977Y-101180050D01*
X108619052Y-101319636D01*
X108675146Y-101455670D01*
X108737033Y-101605201D01*
X108794356Y-101743767D01*
X108845356Y-101867107D01*
X108888273Y-101970964D01*
X108921347Y-102051080D01*
X108942819Y-102103195D01*
X108950775Y-102122654D01*
X108969571Y-102142423D01*
X109005926Y-102142365D01*
X109064521Y-102121441D01*
X109150032Y-102078613D01*
X109150708Y-102078249D01*
X109215093Y-102045012D01*
X109267139Y-102020802D01*
X109296488Y-102010404D01*
X109297783Y-102010308D01*
X109319876Y-102020855D01*
X109368652Y-102050184D01*
X109438669Y-102094827D01*
X109524486Y-102151314D01*
X109619612Y-102215462D01*
X109716460Y-102280411D01*
X109803747Y-102336896D01*
X109875819Y-102381421D01*
X109927023Y-102410490D01*
X109951474Y-102420616D01*
X109973990Y-102407307D01*
X110019258Y-102370112D01*
X110082756Y-102313128D01*
X110159961Y-102240449D01*
X110246349Y-102156171D01*
X110274601Y-102128016D01*
X110566713Y-101835416D01*
X110344369Y-101509104D01*
X110276798Y-101408897D01*
X110217493Y-101318963D01*
X110169783Y-101244510D01*
X110136993Y-101190751D01*
X110122452Y-101162894D01*
X110122026Y-101160912D01*
X110129692Y-101134655D01*
X110150311Y-101081837D01*
X110180315Y-101011310D01*
X110201375Y-100964093D01*
X110240752Y-100873694D01*
X110277835Y-100782366D01*
X110306585Y-100705200D01*
X110314395Y-100681692D01*
X110336583Y-100618916D01*
X110358273Y-100570411D01*
X110370187Y-100552079D01*
X110396477Y-100540859D01*
X110453858Y-100524954D01*
X110534882Y-100506167D01*
X110632105Y-100486299D01*
X110675615Y-100478132D01*
X110786104Y-100457829D01*
X110892084Y-100438170D01*
X110983199Y-100421088D01*
X111049092Y-100408518D01*
X111061500Y-100406091D01*
X111164077Y-100385845D01*
X111164077Y-99958701D01*
X111163847Y-99818246D01*
X111162901Y-99711979D01*
X111160859Y-99635013D01*
X111157338Y-99582460D01*
X111151957Y-99549433D01*
X111144334Y-99531045D01*
X111134088Y-99522408D01*
X111129885Y-99520807D01*
X111104530Y-99515127D01*
X111048516Y-99503795D01*
X110969036Y-99488179D01*
X110873288Y-99469647D01*
X110768467Y-99449569D01*
X110661768Y-99429312D01*
X110560387Y-99410246D01*
X110471521Y-99393739D01*
X110402363Y-99381159D01*
X110360111Y-99373875D01*
X110350710Y-99372616D01*
X110342193Y-99355763D01*
X110323340Y-99310870D01*
X110297676Y-99246430D01*
X110287877Y-99221192D01*
X110248352Y-99123686D01*
X110201808Y-99015959D01*
X110160123Y-98925172D01*
X110129450Y-98855753D01*
X110109044Y-98798710D01*
X110102232Y-98763777D01*
X110103318Y-98759095D01*
X110117715Y-98736991D01*
X110150588Y-98687831D01*
X110198410Y-98616848D01*
X110257652Y-98529278D01*
X110324785Y-98430357D01*
X110338059Y-98410830D01*
X110415954Y-98295140D01*
X110473213Y-98207044D01*
X110512119Y-98142486D01*
X110534956Y-98097411D01*
X110544006Y-98067763D01*
X110541552Y-98049485D01*
X110541489Y-98049369D01*
X110522173Y-98025361D01*
X110479449Y-97978947D01*
X110417949Y-97914937D01*
X110342302Y-97838145D01*
X110257139Y-97753382D01*
X110247535Y-97743922D01*
X110140210Y-97639989D01*
X110057385Y-97563675D01*
X109997395Y-97513571D01*
X109958577Y-97488270D01*
X109941480Y-97485004D01*
X109916527Y-97499250D01*
X109864745Y-97532156D01*
X109791480Y-97580208D01*
X109702080Y-97639890D01*
X109601889Y-97707688D01*
X109578499Y-97723639D01*
X109246407Y-97950420D01*
X109096435Y-97882353D01*
X109005230Y-97842685D01*
X108907331Y-97802791D01*
X108823169Y-97770983D01*
X108819462Y-97769674D01*
X108753631Y-97745576D01*
X108702884Y-97725200D01*
X108678158Y-97712936D01*
X108678116Y-97712901D01*
X108670271Y-97690734D01*
X108656934Y-97636217D01*
X108639430Y-97555480D01*
X108619083Y-97454650D01*
X108597218Y-97339856D01*
X108595429Y-97330178D01*
X108573496Y-97211904D01*
X108553360Y-97104542D01*
X108536320Y-97014917D01*
X108523672Y-96949851D01*
X108516716Y-96916168D01*
X108516594Y-96915654D01*
X108512361Y-96901325D01*
X108504129Y-96890507D01*
X108486967Y-96882706D01*
X108455942Y-96877429D01*
X108406122Y-96874182D01*
X108332576Y-96872472D01*
X108230371Y-96871807D01*
X108094575Y-96871693D01*
X108077000Y-96871692D01*
X107937122Y-96871776D01*
G37*
X107937122Y-96871776D02*
X107831388Y-96872355D01*
X107754868Y-96873922D01*
X107702628Y-96876972D01*
X107669737Y-96881996D01*
X107651263Y-96889489D01*
X107642273Y-96899944D01*
X107637837Y-96913853D01*
X107637406Y-96915654D01*
X107630667Y-96948145D01*
X107618192Y-97012252D01*
X107601281Y-97101151D01*
X107581229Y-97208019D01*
X107559336Y-97326033D01*
X107558571Y-97330178D01*
X107536641Y-97445831D01*
X107516123Y-97548014D01*
X107498341Y-97630598D01*
X107484619Y-97687456D01*
X107476282Y-97712458D01*
X107475884Y-97712901D01*
X107451323Y-97725110D01*
X107400685Y-97745456D01*
X107334905Y-97769545D01*
X107334539Y-97769674D01*
X107251683Y-97800818D01*
X107154000Y-97840491D01*
X107061923Y-97880381D01*
X107057566Y-97882353D01*
X106907593Y-97950420D01*
X106575502Y-97723639D01*
X106473626Y-97654504D01*
X106381343Y-97592697D01*
X106303997Y-97541733D01*
X106246936Y-97505127D01*
X106215505Y-97486394D01*
X106212521Y-97485004D01*
X106189679Y-97491190D01*
X106147018Y-97521035D01*
X106082872Y-97575947D01*
X105995579Y-97657334D01*
X105906465Y-97743922D01*
X105820559Y-97829247D01*
X105743673Y-97907108D01*
X105680436Y-97972697D01*
X105635477Y-98021205D01*
X105613424Y-98047825D01*
X105612604Y-98049195D01*
X105610166Y-98067463D01*
X105619350Y-98097295D01*
X105642426Y-98142721D01*
X105681663Y-98207770D01*
X105739330Y-98296470D01*
X105816205Y-98410657D01*
X105884430Y-98511162D01*
X105945418Y-98601303D01*
X105995644Y-98675849D01*
X106031584Y-98729565D01*
X106049713Y-98757218D01*
X106050854Y-98759095D01*
X106048641Y-98785590D01*
X106031862Y-98837086D01*
X106003858Y-98903851D01*
X105993878Y-98925172D01*
X105950328Y-99020159D01*
X105903866Y-99127937D01*
X105866123Y-99221192D01*
X105838927Y-99290406D01*
X105817325Y-99343006D01*
X105804842Y-99370497D01*
X105803291Y-99372616D01*
X105780332Y-99376124D01*
X105726214Y-99385738D01*
X105648132Y-99400089D01*
X105553281Y-99417807D01*
X105448857Y-99437525D01*
X105342056Y-99457874D01*
X105240074Y-99477486D01*
X105150106Y-99494991D01*
X105079347Y-99509022D01*
X105034994Y-99518209D01*
X105024115Y-99520807D01*
X105012878Y-99527218D01*
X105004395Y-99541697D01*
X104998286Y-99569133D01*
X104994168Y-99614411D01*
X104991659Y-99682420D01*
X104990379Y-99778047D01*
X104989946Y-99906180D01*
X104989923Y-99958701D01*
X104989923Y-100385845D01*
X105092500Y-100406091D01*
X105149569Y-100417070D01*
X105234731Y-100433095D01*
X105337628Y-100452233D01*
X105447904Y-100472551D01*
X105478385Y-100478132D01*
X105580145Y-100497917D01*
X105668795Y-100517373D01*
X105736892Y-100534697D01*
X105776996Y-100548088D01*
X105783677Y-100552079D01*
X105800081Y-100580342D01*
X105823601Y-100635109D01*
X105849684Y-100705588D01*
X105854858Y-100720769D01*
X105889044Y-100814896D01*
X105931477Y-100921101D01*
X105973003Y-101016473D01*
X105973208Y-101016916D01*
X106042360Y-101166525D01*
X105587488Y-101835617D01*
X105879500Y-102128116D01*
X105967820Y-102215170D01*
X106048375Y-102291909D01*
X106116640Y-102354237D01*
X106168092Y-102398056D01*
X106198206Y-102419270D01*
X106202526Y-102420616D01*
X106227889Y-102410016D01*
X106279642Y-102380547D01*
X106352132Y-102335705D01*
X106439706Y-102278984D01*
X106534388Y-102215462D01*
X106630484Y-102150668D01*
X106716163Y-102094287D01*
X106785984Y-102049788D01*
X106834506Y-102020639D01*
X106856218Y-102010308D01*
X106882707Y-102019050D01*
X106932938Y-102042087D01*
X106996549Y-102074631D01*
X107003292Y-102078249D01*
X107088954Y-102121210D01*
X107147694Y-102142279D01*
X107184228Y-102142503D01*
X107203269Y-102122928D01*
X107203380Y-102122654D01*
X107212898Y-102099472D01*
X107235597Y-102044441D01*
X107269718Y-101961822D01*
X107313500Y-101855872D01*
X107365184Y-101730852D01*
X107423008Y-101591020D01*
X107479009Y-101455637D01*
X107540553Y-101306234D01*
X107597061Y-101167832D01*
X107646839Y-101044673D01*
X107688194Y-100941002D01*
X107719432Y-100861059D01*
X107738859Y-100809088D01*
X107744846Y-100789692D01*
X107729832Y-100767443D01*
X107690561Y-100731982D01*
X107638193Y-100692887D01*
X107489059Y-100569245D01*
X107372489Y-100427522D01*
X107289882Y-100270704D01*
X107242634Y-100101775D01*
X107232143Y-99923722D01*
X107239769Y-99841539D01*
X107281318Y-99671031D01*
X107352877Y-99520459D01*
X107450005Y-99391309D01*
X107568266Y-99285064D01*
X107703220Y-99203210D01*
X107850429Y-99147232D01*
X108005456Y-99118615D01*
X108163861Y-99118844D01*
X108321206Y-99149405D01*
X108473054Y-99211782D01*
X108614965Y-99307460D01*
X108674197Y-99361572D01*
X108787797Y-99500520D01*
X108866894Y-99652361D01*
X108912014Y-99812667D01*
X108923684Y-99977012D01*
X108902431Y-100140971D01*
X108848780Y-100300118D01*
X108763260Y-100450025D01*
X108646395Y-100586267D01*
X108515807Y-100692887D01*
X108461412Y-100733642D01*
X108422986Y-100768718D01*
X108409154Y-100789726D01*
X108416397Y-100812635D01*
X108436995Y-100867365D01*
X108469254Y-100949672D01*
X108511479Y-101055315D01*
X108561977Y-101180050D01*
X108619052Y-101319636D01*
X108675146Y-101455670D01*
X108737033Y-101605201D01*
X108794356Y-101743767D01*
X108845356Y-101867107D01*
X108888273Y-101970964D01*
X108921347Y-102051080D01*
X108942819Y-102103195D01*
X108950775Y-102122654D01*
X108969571Y-102142423D01*
X109005926Y-102142365D01*
X109064521Y-102121441D01*
X109150032Y-102078613D01*
X109150708Y-102078249D01*
X109215093Y-102045012D01*
X109267139Y-102020802D01*
X109296488Y-102010404D01*
X109297783Y-102010308D01*
X109319876Y-102020855D01*
X109368652Y-102050184D01*
X109438669Y-102094827D01*
X109524486Y-102151314D01*
X109619612Y-102215462D01*
X109716460Y-102280411D01*
X109803747Y-102336896D01*
X109875819Y-102381421D01*
X109927023Y-102410490D01*
X109951474Y-102420616D01*
X109973990Y-102407307D01*
X110019258Y-102370112D01*
X110082756Y-102313128D01*
X110159961Y-102240449D01*
X110246349Y-102156171D01*
X110274601Y-102128016D01*
X110566713Y-101835416D01*
X110344369Y-101509104D01*
X110276798Y-101408897D01*
X110217493Y-101318963D01*
X110169783Y-101244510D01*
X110136993Y-101190751D01*
X110122452Y-101162894D01*
X110122026Y-101160912D01*
X110129692Y-101134655D01*
X110150311Y-101081837D01*
X110180315Y-101011310D01*
X110201375Y-100964093D01*
X110240752Y-100873694D01*
X110277835Y-100782366D01*
X110306585Y-100705200D01*
X110314395Y-100681692D01*
X110336583Y-100618916D01*
X110358273Y-100570411D01*
X110370187Y-100552079D01*
X110396477Y-100540859D01*
X110453858Y-100524954D01*
X110534882Y-100506167D01*
X110632105Y-100486299D01*
X110675615Y-100478132D01*
X110786104Y-100457829D01*
X110892084Y-100438170D01*
X110983199Y-100421088D01*
X111049092Y-100408518D01*
X111061500Y-100406091D01*
X111164077Y-100385845D01*
X111164077Y-99958701D01*
X111163847Y-99818246D01*
X111162901Y-99711979D01*
X111160859Y-99635013D01*
X111157338Y-99582460D01*
X111151957Y-99549433D01*
X111144334Y-99531045D01*
X111134088Y-99522408D01*
X111129885Y-99520807D01*
X111104530Y-99515127D01*
X111048516Y-99503795D01*
X110969036Y-99488179D01*
X110873288Y-99469647D01*
X110768467Y-99449569D01*
X110661768Y-99429312D01*
X110560387Y-99410246D01*
X110471521Y-99393739D01*
X110402363Y-99381159D01*
X110360111Y-99373875D01*
X110350710Y-99372616D01*
X110342193Y-99355763D01*
X110323340Y-99310870D01*
X110297676Y-99246430D01*
X110287877Y-99221192D01*
X110248352Y-99123686D01*
X110201808Y-99015959D01*
X110160123Y-98925172D01*
X110129450Y-98855753D01*
X110109044Y-98798710D01*
X110102232Y-98763777D01*
X110103318Y-98759095D01*
X110117715Y-98736991D01*
X110150588Y-98687831D01*
X110198410Y-98616848D01*
X110257652Y-98529278D01*
X110324785Y-98430357D01*
X110338059Y-98410830D01*
X110415954Y-98295140D01*
X110473213Y-98207044D01*
X110512119Y-98142486D01*
X110534956Y-98097411D01*
X110544006Y-98067763D01*
X110541552Y-98049485D01*
X110541489Y-98049369D01*
X110522173Y-98025361D01*
X110479449Y-97978947D01*
X110417949Y-97914937D01*
X110342302Y-97838145D01*
X110257139Y-97753382D01*
X110247535Y-97743922D01*
X110140210Y-97639989D01*
X110057385Y-97563675D01*
X109997395Y-97513571D01*
X109958577Y-97488270D01*
X109941480Y-97485004D01*
X109916527Y-97499250D01*
X109864745Y-97532156D01*
X109791480Y-97580208D01*
X109702080Y-97639890D01*
X109601889Y-97707688D01*
X109578499Y-97723639D01*
X109246407Y-97950420D01*
X109096435Y-97882353D01*
X109005230Y-97842685D01*
X108907331Y-97802791D01*
X108823169Y-97770983D01*
X108819462Y-97769674D01*
X108753631Y-97745576D01*
X108702884Y-97725200D01*
X108678158Y-97712936D01*
X108678116Y-97712901D01*
X108670271Y-97690734D01*
X108656934Y-97636217D01*
X108639430Y-97555480D01*
X108619083Y-97454650D01*
X108597218Y-97339856D01*
X108595429Y-97330178D01*
X108573496Y-97211904D01*
X108553360Y-97104542D01*
X108536320Y-97014917D01*
X108523672Y-96949851D01*
X108516716Y-96916168D01*
X108516594Y-96915654D01*
X108512361Y-96901325D01*
X108504129Y-96890507D01*
X108486967Y-96882706D01*
X108455942Y-96877429D01*
X108406122Y-96874182D01*
X108332576Y-96872472D01*
X108230371Y-96871807D01*
X108094575Y-96871693D01*
X108077000Y-96871692D01*
X107937122Y-96871776D01*
G36*
X103831776Y-103231838D02*
G01*
X103754472Y-103282361D01*
X103717186Y-103327590D01*
X103687647Y-103409663D01*
X103685301Y-103474607D01*
X103690615Y-103561445D01*
X103890885Y-103649103D01*
X103988261Y-103693887D01*
X104051887Y-103729913D01*
X104084971Y-103761117D01*
X104090720Y-103791436D01*
X104072342Y-103824805D01*
X104052077Y-103846923D01*
X103993111Y-103882393D01*
X103928976Y-103884879D01*
X103870074Y-103857235D01*
X103826803Y-103802320D01*
X103819064Y-103782928D01*
X103781994Y-103722364D01*
X103739346Y-103696552D01*
X103680846Y-103674471D01*
X103680846Y-103758184D01*
X103686018Y-103815150D01*
X103706277Y-103863189D01*
X103748738Y-103918346D01*
X103755049Y-103925514D01*
X103802280Y-103974585D01*
X103842879Y-104000920D01*
X103893672Y-104013035D01*
X103935780Y-104017003D01*
X104011098Y-104017991D01*
X104064714Y-104005466D01*
X104098162Y-103986869D01*
X104150732Y-103945975D01*
X104187121Y-103901748D01*
X104210150Y-103846126D01*
X104222641Y-103771047D01*
X104227413Y-103668449D01*
X104227794Y-103616376D01*
X104226499Y-103553948D01*
X104108529Y-103553948D01*
X104107161Y-103587438D01*
X104103751Y-103592923D01*
X104081247Y-103585472D01*
X104032818Y-103565753D01*
X103968092Y-103537718D01*
X103954557Y-103531692D01*
X103872756Y-103490096D01*
X103827688Y-103453538D01*
X103817783Y-103419296D01*
X103841474Y-103384648D01*
X103861040Y-103369339D01*
X103931640Y-103338721D01*
X103997720Y-103343780D01*
X104053041Y-103381151D01*
X104091364Y-103447473D01*
X104103651Y-103500116D01*
X104108529Y-103553948D01*
X104226499Y-103553948D01*
X104225270Y-103494720D01*
X104215968Y-103404710D01*
X104197540Y-103339167D01*
X104167640Y-103290912D01*
X104123920Y-103252767D01*
X104104859Y-103240440D01*
X104018274Y-103208336D01*
X103923478Y-103206316D01*
X103831776Y-103231838D01*
G37*
X103831776Y-103231838D02*
X103754472Y-103282361D01*
X103717186Y-103327590D01*
X103687647Y-103409663D01*
X103685301Y-103474607D01*
X103690615Y-103561445D01*
X103890885Y-103649103D01*
X103988261Y-103693887D01*
X104051887Y-103729913D01*
X104084971Y-103761117D01*
X104090720Y-103791436D01*
X104072342Y-103824805D01*
X104052077Y-103846923D01*
X103993111Y-103882393D01*
X103928976Y-103884879D01*
X103870074Y-103857235D01*
X103826803Y-103802320D01*
X103819064Y-103782928D01*
X103781994Y-103722364D01*
X103739346Y-103696552D01*
X103680846Y-103674471D01*
X103680846Y-103758184D01*
X103686018Y-103815150D01*
X103706277Y-103863189D01*
X103748738Y-103918346D01*
X103755049Y-103925514D01*
X103802280Y-103974585D01*
X103842879Y-104000920D01*
X103893672Y-104013035D01*
X103935780Y-104017003D01*
X104011098Y-104017991D01*
X104064714Y-104005466D01*
X104098162Y-103986869D01*
X104150732Y-103945975D01*
X104187121Y-103901748D01*
X104210150Y-103846126D01*
X104222641Y-103771047D01*
X104227413Y-103668449D01*
X104227794Y-103616376D01*
X104226499Y-103553948D01*
X104108529Y-103553948D01*
X104107161Y-103587438D01*
X104103751Y-103592923D01*
X104081247Y-103585472D01*
X104032818Y-103565753D01*
X103968092Y-103537718D01*
X103954557Y-103531692D01*
X103872756Y-103490096D01*
X103827688Y-103453538D01*
X103817783Y-103419296D01*
X103841474Y-103384648D01*
X103861040Y-103369339D01*
X103931640Y-103338721D01*
X103997720Y-103343780D01*
X104053041Y-103381151D01*
X104091364Y-103447473D01*
X104103651Y-103500116D01*
X104108529Y-103553948D01*
X104226499Y-103553948D01*
X104225270Y-103494720D01*
X104215968Y-103404710D01*
X104197540Y-103339167D01*
X104167640Y-103290912D01*
X104123920Y-103252767D01*
X104104859Y-103240440D01*
X104018274Y-103208336D01*
X103923478Y-103206316D01*
X103831776Y-103231838D01*
G36*
X104506193Y-103220782D02*
G01*
X104482839Y-103230988D01*
X104427098Y-103275134D01*
X104379431Y-103338967D01*
X104349952Y-103407087D01*
X104345154Y-103440670D01*
X104361240Y-103487556D01*
X104396525Y-103512365D01*
X104434356Y-103527387D01*
X104451679Y-103530155D01*
X104460114Y-103510066D01*
X104476770Y-103466351D01*
X104484077Y-103446598D01*
X104525052Y-103378271D01*
X104584378Y-103344191D01*
X104660448Y-103345239D01*
X104666082Y-103346581D01*
X104706695Y-103365836D01*
X104736552Y-103403375D01*
X104756945Y-103463809D01*
X104769164Y-103551751D01*
X104774500Y-103671813D01*
X104775000Y-103735698D01*
X104775248Y-103836403D01*
X104776874Y-103905054D01*
X104781199Y-103948673D01*
X104789546Y-103974282D01*
X104803235Y-103988903D01*
X104823589Y-103999558D01*
X104824766Y-104000095D01*
X104863962Y-104016667D01*
X104883381Y-104022769D01*
X104886365Y-104004319D01*
X104888919Y-103953323D01*
X104890860Y-103876308D01*
X104892003Y-103779805D01*
X104892231Y-103709184D01*
X104891068Y-103572525D01*
X104886521Y-103468851D01*
X104877001Y-103392108D01*
X104860919Y-103336246D01*
X104836687Y-103295212D01*
X104802714Y-103262954D01*
X104769167Y-103240440D01*
X104688501Y-103210476D01*
X104594619Y-103203718D01*
X104506193Y-103220782D01*
G37*
X104506193Y-103220782D02*
X104482839Y-103230988D01*
X104427098Y-103275134D01*
X104379431Y-103338967D01*
X104349952Y-103407087D01*
X104345154Y-103440670D01*
X104361240Y-103487556D01*
X104396525Y-103512365D01*
X104434356Y-103527387D01*
X104451679Y-103530155D01*
X104460114Y-103510066D01*
X104476770Y-103466351D01*
X104484077Y-103446598D01*
X104525052Y-103378271D01*
X104584378Y-103344191D01*
X104660448Y-103345239D01*
X104666082Y-103346581D01*
X104706695Y-103365836D01*
X104736552Y-103403375D01*
X104756945Y-103463809D01*
X104769164Y-103551751D01*
X104774500Y-103671813D01*
X104775000Y-103735698D01*
X104775248Y-103836403D01*
X104776874Y-103905054D01*
X104781199Y-103948673D01*
X104789546Y-103974282D01*
X104803235Y-103988903D01*
X104823589Y-103999558D01*
X104824766Y-104000095D01*
X104863962Y-104016667D01*
X104883381Y-104022769D01*
X104886365Y-104004319D01*
X104888919Y-103953323D01*
X104890860Y-103876308D01*
X104892003Y-103779805D01*
X104892231Y-103709184D01*
X104891068Y-103572525D01*
X104886521Y-103468851D01*
X104877001Y-103392108D01*
X104860919Y-103336246D01*
X104836687Y-103295212D01*
X104802714Y-103262954D01*
X104769167Y-103240440D01*
X104688501Y-103210476D01*
X104594619Y-103203718D01*
X104506193Y-103220782D01*
G36*
X105189667Y-103217528D02*
G01*
X105133410Y-103243117D01*
X105089253Y-103274124D01*
X105056899Y-103308795D01*
X105034562Y-103353520D01*
X105020454Y-103414692D01*
X105012789Y-103498701D01*
X105009780Y-103611940D01*
X105009462Y-103686509D01*
X105009462Y-103977420D01*
X105059227Y-104000095D01*
X105098424Y-104016667D01*
X105117843Y-104022769D01*
X105121558Y-104004610D01*
X105124505Y-103955648D01*
X105126309Y-103884153D01*
X105126692Y-103827385D01*
X105128339Y-103745371D01*
X105132778Y-103680309D01*
X105139260Y-103640467D01*
X105144410Y-103632000D01*
X105179023Y-103640646D01*
X105233360Y-103662823D01*
X105296278Y-103692886D01*
X105356632Y-103725192D01*
X105403279Y-103754098D01*
X105425074Y-103773961D01*
X105425161Y-103774175D01*
X105423286Y-103810935D01*
X105406475Y-103846026D01*
X105376961Y-103874528D01*
X105333884Y-103884061D01*
X105297068Y-103882950D01*
X105244926Y-103882133D01*
X105217556Y-103894349D01*
X105201118Y-103926624D01*
X105199045Y-103932710D01*
X105191919Y-103978739D01*
X105210976Y-104006687D01*
X105260647Y-104020007D01*
X105314303Y-104022470D01*
X105410858Y-104004210D01*
X105460841Y-103978131D01*
X105522571Y-103916868D01*
X105555310Y-103841670D01*
X105558247Y-103762211D01*
X105530576Y-103688167D01*
X105488953Y-103641769D01*
X105447396Y-103615793D01*
X105382078Y-103582907D01*
X105305962Y-103549557D01*
X105293274Y-103544461D01*
X105209667Y-103507565D01*
X105161470Y-103475046D01*
X105145970Y-103442718D01*
X105160450Y-103406394D01*
X105185308Y-103378000D01*
X105244061Y-103343039D01*
X105308707Y-103340417D01*
X105367992Y-103367358D01*
X105410661Y-103421088D01*
X105416261Y-103434950D01*
X105448867Y-103485936D01*
X105496470Y-103523787D01*
X105556539Y-103554850D01*
X105556539Y-103466768D01*
X105553003Y-103412951D01*
X105537844Y-103370534D01*
X105504232Y-103325279D01*
X105471965Y-103290420D01*
X105421791Y-103241062D01*
X105382807Y-103214547D01*
X105340936Y-103203911D01*
X105293540Y-103202154D01*
X105189667Y-103217528D01*
G37*
X105189667Y-103217528D02*
X105133410Y-103243117D01*
X105089253Y-103274124D01*
X105056899Y-103308795D01*
X105034562Y-103353520D01*
X105020454Y-103414692D01*
X105012789Y-103498701D01*
X105009780Y-103611940D01*
X105009462Y-103686509D01*
X105009462Y-103977420D01*
X105059227Y-104000095D01*
X105098424Y-104016667D01*
X105117843Y-104022769D01*
X105121558Y-104004610D01*
X105124505Y-103955648D01*
X105126309Y-103884153D01*
X105126692Y-103827385D01*
X105128339Y-103745371D01*
X105132778Y-103680309D01*
X105139260Y-103640467D01*
X105144410Y-103632000D01*
X105179023Y-103640646D01*
X105233360Y-103662823D01*
X105296278Y-103692886D01*
X105356632Y-103725192D01*
X105403279Y-103754098D01*
X105425074Y-103773961D01*
X105425161Y-103774175D01*
X105423286Y-103810935D01*
X105406475Y-103846026D01*
X105376961Y-103874528D01*
X105333884Y-103884061D01*
X105297068Y-103882950D01*
X105244926Y-103882133D01*
X105217556Y-103894349D01*
X105201118Y-103926624D01*
X105199045Y-103932710D01*
X105191919Y-103978739D01*
X105210976Y-104006687D01*
X105260647Y-104020007D01*
X105314303Y-104022470D01*
X105410858Y-104004210D01*
X105460841Y-103978131D01*
X105522571Y-103916868D01*
X105555310Y-103841670D01*
X105558247Y-103762211D01*
X105530576Y-103688167D01*
X105488953Y-103641769D01*
X105447396Y-103615793D01*
X105382078Y-103582907D01*
X105305962Y-103549557D01*
X105293274Y-103544461D01*
X105209667Y-103507565D01*
X105161470Y-103475046D01*
X105145970Y-103442718D01*
X105160450Y-103406394D01*
X105185308Y-103378000D01*
X105244061Y-103343039D01*
X105308707Y-103340417D01*
X105367992Y-103367358D01*
X105410661Y-103421088D01*
X105416261Y-103434950D01*
X105448867Y-103485936D01*
X105496470Y-103523787D01*
X105556539Y-103554850D01*
X105556539Y-103466768D01*
X105553003Y-103412951D01*
X105537844Y-103370534D01*
X105504232Y-103325279D01*
X105471965Y-103290420D01*
X105421791Y-103241062D01*
X105382807Y-103214547D01*
X105340936Y-103203911D01*
X105293540Y-103202154D01*
X105189667Y-103217528D01*
G36*
X105681071Y-103220662D02*
G01*
X105678089Y-103272068D01*
X105675753Y-103350192D01*
X105674251Y-103448857D01*
X105673769Y-103552343D01*
X105673769Y-103902533D01*
X105735599Y-103964363D01*
X105778207Y-104002462D01*
X105815610Y-104017895D01*
X105866730Y-104016918D01*
X105887022Y-104014433D01*
X105950446Y-104007200D01*
X106002905Y-104003055D01*
X106015692Y-104002672D01*
X106058801Y-104005176D01*
X106120456Y-104011462D01*
X106144362Y-104014433D01*
X106203078Y-104019028D01*
X106242536Y-104009046D01*
X106281662Y-103978228D01*
X106295785Y-103964363D01*
X106357615Y-103902533D01*
X106357615Y-103247503D01*
X106307850Y-103224829D01*
X106264998Y-103208034D01*
X106239927Y-103202154D01*
X106233499Y-103220736D01*
X106227491Y-103272655D01*
X106222303Y-103352172D01*
X106218336Y-103453546D01*
X106216423Y-103539192D01*
X106211077Y-103876231D01*
X106164440Y-103882825D01*
X106122024Y-103878214D01*
X106101240Y-103863287D01*
X106095430Y-103835377D01*
X106090470Y-103775925D01*
X106086754Y-103692466D01*
X106084676Y-103592532D01*
X106084376Y-103541104D01*
X106084077Y-103245054D01*
X106022546Y-103223604D01*
X105978996Y-103209020D01*
X105955306Y-103202219D01*
X105954623Y-103202154D01*
X105952246Y-103220642D01*
X105949634Y-103271906D01*
X105947005Y-103349649D01*
X105944579Y-103447574D01*
X105942885Y-103539192D01*
X105937539Y-103876231D01*
X105820308Y-103876231D01*
X105814928Y-103568746D01*
X105809549Y-103261261D01*
X105752399Y-103231707D01*
X105710203Y-103211413D01*
X105685230Y-103202204D01*
X105684509Y-103202154D01*
X105681071Y-103220662D01*
G37*
X105681071Y-103220662D02*
X105678089Y-103272068D01*
X105675753Y-103350192D01*
X105674251Y-103448857D01*
X105673769Y-103552343D01*
X105673769Y-103902533D01*
X105735599Y-103964363D01*
X105778207Y-104002462D01*
X105815610Y-104017895D01*
X105866730Y-104016918D01*
X105887022Y-104014433D01*
X105950446Y-104007200D01*
X106002905Y-104003055D01*
X106015692Y-104002672D01*
X106058801Y-104005176D01*
X106120456Y-104011462D01*
X106144362Y-104014433D01*
X106203078Y-104019028D01*
X106242536Y-104009046D01*
X106281662Y-103978228D01*
X106295785Y-103964363D01*
X106357615Y-103902533D01*
X106357615Y-103247503D01*
X106307850Y-103224829D01*
X106264998Y-103208034D01*
X106239927Y-103202154D01*
X106233499Y-103220736D01*
X106227491Y-103272655D01*
X106222303Y-103352172D01*
X106218336Y-103453546D01*
X106216423Y-103539192D01*
X106211077Y-103876231D01*
X106164440Y-103882825D01*
X106122024Y-103878214D01*
X106101240Y-103863287D01*
X106095430Y-103835377D01*
X106090470Y-103775925D01*
X106086754Y-103692466D01*
X106084676Y-103592532D01*
X106084376Y-103541104D01*
X106084077Y-103245054D01*
X106022546Y-103223604D01*
X105978996Y-103209020D01*
X105955306Y-103202219D01*
X105954623Y-103202154D01*
X105952246Y-103220642D01*
X105949634Y-103271906D01*
X105947005Y-103349649D01*
X105944579Y-103447574D01*
X105942885Y-103539192D01*
X105937539Y-103876231D01*
X105820308Y-103876231D01*
X105814928Y-103568746D01*
X105809549Y-103261261D01*
X105752399Y-103231707D01*
X105710203Y-103211413D01*
X105685230Y-103202204D01*
X105684509Y-103202154D01*
X105681071Y-103220662D01*
G36*
X106474919Y-103364289D02*
G01*
X106475167Y-103510320D01*
X106476128Y-103622655D01*
X106478206Y-103706678D01*
X106481807Y-103767769D01*
X106487335Y-103811309D01*
X106495196Y-103842679D01*
X106505793Y-103867262D01*
X106513818Y-103881294D01*
X106580272Y-103957388D01*
X106664530Y-104005084D01*
X106757751Y-104022199D01*
X106851100Y-104006546D01*
X106906688Y-103978418D01*
X106965043Y-103929760D01*
X107004814Y-103870333D01*
X107028810Y-103792507D01*
X107039839Y-103688652D01*
X107041401Y-103612462D01*
X107041191Y-103606986D01*
X106904692Y-103606986D01*
X106903859Y-103694355D01*
X106900039Y-103752192D01*
X106891254Y-103790029D01*
X106875526Y-103817398D01*
X106856734Y-103838042D01*
X106793625Y-103877890D01*
X106725863Y-103881295D01*
X106661821Y-103848025D01*
X106656836Y-103843517D01*
X106635561Y-103820067D01*
X106622221Y-103792166D01*
X106614999Y-103750641D01*
X106612077Y-103686316D01*
X106611615Y-103615200D01*
X106612617Y-103525858D01*
X106616762Y-103466258D01*
X106625764Y-103427089D01*
X106641333Y-103399040D01*
X106654098Y-103384144D01*
X106713400Y-103346575D01*
X106781699Y-103342057D01*
X106846890Y-103370753D01*
X106859472Y-103381406D01*
X106880889Y-103405063D01*
X106894256Y-103433251D01*
X106901434Y-103475245D01*
X106904281Y-103540319D01*
X106904692Y-103606986D01*
X107041191Y-103606986D01*
X107036678Y-103489765D01*
X107020638Y-103397577D01*
X106990472Y-103328269D01*
X106943371Y-103274211D01*
X106906688Y-103246505D01*
X106840010Y-103216572D01*
X106762728Y-103202678D01*
X106690890Y-103206397D01*
X106650692Y-103221400D01*
X106634918Y-103225670D01*
X106624450Y-103209750D01*
X106617144Y-103167089D01*
X106611615Y-103102106D01*
X106605563Y-103029732D01*
X106597156Y-102986187D01*
X106581859Y-102961287D01*
X106555136Y-102944845D01*
X106538346Y-102937564D01*
X106474846Y-102910963D01*
X106474919Y-103364289D01*
G37*
X106474919Y-103364289D02*
X106475167Y-103510320D01*
X106476128Y-103622655D01*
X106478206Y-103706678D01*
X106481807Y-103767769D01*
X106487335Y-103811309D01*
X106495196Y-103842679D01*
X106505793Y-103867262D01*
X106513818Y-103881294D01*
X106580272Y-103957388D01*
X106664530Y-104005084D01*
X106757751Y-104022199D01*
X106851100Y-104006546D01*
X106906688Y-103978418D01*
X106965043Y-103929760D01*
X107004814Y-103870333D01*
X107028810Y-103792507D01*
X107039839Y-103688652D01*
X107041401Y-103612462D01*
X107041191Y-103606986D01*
X106904692Y-103606986D01*
X106903859Y-103694355D01*
X106900039Y-103752192D01*
X106891254Y-103790029D01*
X106875526Y-103817398D01*
X106856734Y-103838042D01*
X106793625Y-103877890D01*
X106725863Y-103881295D01*
X106661821Y-103848025D01*
X106656836Y-103843517D01*
X106635561Y-103820067D01*
X106622221Y-103792166D01*
X106614999Y-103750641D01*
X106612077Y-103686316D01*
X106611615Y-103615200D01*
X106612617Y-103525858D01*
X106616762Y-103466258D01*
X106625764Y-103427089D01*
X106641333Y-103399040D01*
X106654098Y-103384144D01*
X106713400Y-103346575D01*
X106781699Y-103342057D01*
X106846890Y-103370753D01*
X106859472Y-103381406D01*
X106880889Y-103405063D01*
X106894256Y-103433251D01*
X106901434Y-103475245D01*
X106904281Y-103540319D01*
X106904692Y-103606986D01*
X107041191Y-103606986D01*
X107036678Y-103489765D01*
X107020638Y-103397577D01*
X106990472Y-103328269D01*
X106943371Y-103274211D01*
X106906688Y-103246505D01*
X106840010Y-103216572D01*
X106762728Y-103202678D01*
X106690890Y-103206397D01*
X106650692Y-103221400D01*
X106634918Y-103225670D01*
X106624450Y-103209750D01*
X106617144Y-103167089D01*
X106611615Y-103102106D01*
X106605563Y-103029732D01*
X106597156Y-102986187D01*
X106581859Y-102961287D01*
X106555136Y-102944845D01*
X106538346Y-102937564D01*
X106474846Y-102910963D01*
X106474919Y-103364289D01*
G36*
X107363638Y-103208670D02*
G01*
X107274883Y-103241421D01*
X107202978Y-103299350D01*
X107174856Y-103340128D01*
X107144198Y-103414954D01*
X107144835Y-103469058D01*
X107177013Y-103505446D01*
X107188919Y-103511633D01*
X107240325Y-103530925D01*
X107266578Y-103525982D01*
X107275470Y-103493587D01*
X107275923Y-103475692D01*
X107292203Y-103409859D01*
X107334635Y-103363807D01*
X107393612Y-103341564D01*
X107459525Y-103347161D01*
X107513105Y-103376229D01*
X107531202Y-103392810D01*
X107544029Y-103412925D01*
X107552694Y-103443332D01*
X107558304Y-103490788D01*
X107561965Y-103562050D01*
X107564785Y-103663875D01*
X107565516Y-103696115D01*
X107568180Y-103806410D01*
X107571208Y-103884036D01*
X107575750Y-103935396D01*
X107582954Y-103966890D01*
X107593967Y-103984920D01*
X107609940Y-103995888D01*
X107620166Y-104000733D01*
X107663594Y-104017301D01*
X107689158Y-104022769D01*
X107697605Y-104004507D01*
X107702761Y-103949296D01*
X107704654Y-103856499D01*
X107703311Y-103725478D01*
X107702893Y-103705269D01*
X107699942Y-103585733D01*
X107696452Y-103498449D01*
X107691486Y-103436591D01*
X107684107Y-103393336D01*
X107673376Y-103361860D01*
X107658355Y-103335339D01*
X107650498Y-103323975D01*
X107605447Y-103273692D01*
X107555060Y-103234581D01*
X107548892Y-103231167D01*
X107458542Y-103204212D01*
X107363638Y-103208670D01*
G37*
X107363638Y-103208670D02*
X107274883Y-103241421D01*
X107202978Y-103299350D01*
X107174856Y-103340128D01*
X107144198Y-103414954D01*
X107144835Y-103469058D01*
X107177013Y-103505446D01*
X107188919Y-103511633D01*
X107240325Y-103530925D01*
X107266578Y-103525982D01*
X107275470Y-103493587D01*
X107275923Y-103475692D01*
X107292203Y-103409859D01*
X107334635Y-103363807D01*
X107393612Y-103341564D01*
X107459525Y-103347161D01*
X107513105Y-103376229D01*
X107531202Y-103392810D01*
X107544029Y-103412925D01*
X107552694Y-103443332D01*
X107558304Y-103490788D01*
X107561965Y-103562050D01*
X107564785Y-103663875D01*
X107565516Y-103696115D01*
X107568180Y-103806410D01*
X107571208Y-103884036D01*
X107575750Y-103935396D01*
X107582954Y-103966890D01*
X107593967Y-103984920D01*
X107609940Y-103995888D01*
X107620166Y-104000733D01*
X107663594Y-104017301D01*
X107689158Y-104022769D01*
X107697605Y-104004507D01*
X107702761Y-103949296D01*
X107704654Y-103856499D01*
X107703311Y-103725478D01*
X107702893Y-103705269D01*
X107699942Y-103585733D01*
X107696452Y-103498449D01*
X107691486Y-103436591D01*
X107684107Y-103393336D01*
X107673376Y-103361860D01*
X107658355Y-103335339D01*
X107650498Y-103323975D01*
X107605447Y-103273692D01*
X107555060Y-103234581D01*
X107548892Y-103231167D01*
X107458542Y-103204212D01*
X107363638Y-103208670D01*
G36*
X108023499Y-103210303D02*
G01*
X107946940Y-103238733D01*
X107946064Y-103239279D01*
X107898715Y-103274127D01*
X107863759Y-103314852D01*
X107839175Y-103367925D01*
X107822938Y-103439814D01*
X107813025Y-103536992D01*
X107807414Y-103665928D01*
X107806923Y-103684298D01*
X107799859Y-103961287D01*
X107859305Y-103992028D01*
X107902319Y-104012802D01*
X107928290Y-104022646D01*
X107929491Y-104022769D01*
X107933986Y-104004606D01*
X107937556Y-103955612D01*
X107939752Y-103884031D01*
X107940231Y-103826068D01*
X107940242Y-103732170D01*
X107944534Y-103673203D01*
X107959497Y-103645079D01*
X107991518Y-103643706D01*
X108046986Y-103664998D01*
X108130731Y-103704136D01*
X108192311Y-103736643D01*
X108223983Y-103764845D01*
X108233294Y-103795582D01*
X108233308Y-103797104D01*
X108217943Y-103850054D01*
X108172453Y-103878660D01*
X108102834Y-103882803D01*
X108052687Y-103882084D01*
X108026246Y-103896527D01*
X108009757Y-103931218D01*
X108000267Y-103975416D01*
X108013943Y-104000493D01*
X108019093Y-104004082D01*
X108067575Y-104018496D01*
X108135469Y-104020537D01*
X108205388Y-104010983D01*
X108254932Y-103993522D01*
X108323430Y-103935364D01*
X108362366Y-103854408D01*
X108370077Y-103791160D01*
X108364193Y-103734111D01*
X108342899Y-103687542D01*
X108300735Y-103646181D01*
X108232241Y-103604755D01*
X108131956Y-103557993D01*
X108125846Y-103555350D01*
X108035510Y-103513617D01*
X107979765Y-103479391D01*
X107955871Y-103448635D01*
X107961087Y-103417311D01*
X107992672Y-103381383D01*
X108002117Y-103373116D01*
X108065383Y-103341058D01*
X108130936Y-103342407D01*
X108188028Y-103373838D01*
X108225907Y-103432024D01*
X108229426Y-103443446D01*
X108263700Y-103498837D01*
X108307191Y-103525518D01*
X108370077Y-103551960D01*
X108370077Y-103483548D01*
X108350948Y-103384110D01*
X108294169Y-103292902D01*
X108264622Y-103262389D01*
X108197458Y-103223228D01*
X108112044Y-103205500D01*
X108023499Y-103210303D01*
G37*
X108023499Y-103210303D02*
X107946940Y-103238733D01*
X107946064Y-103239279D01*
X107898715Y-103274127D01*
X107863759Y-103314852D01*
X107839175Y-103367925D01*
X107822938Y-103439814D01*
X107813025Y-103536992D01*
X107807414Y-103665928D01*
X107806923Y-103684298D01*
X107799859Y-103961287D01*
X107859305Y-103992028D01*
X107902319Y-104012802D01*
X107928290Y-104022646D01*
X107929491Y-104022769D01*
X107933986Y-104004606D01*
X107937556Y-103955612D01*
X107939752Y-103884031D01*
X107940231Y-103826068D01*
X107940242Y-103732170D01*
X107944534Y-103673203D01*
X107959497Y-103645079D01*
X107991518Y-103643706D01*
X108046986Y-103664998D01*
X108130731Y-103704136D01*
X108192311Y-103736643D01*
X108223983Y-103764845D01*
X108233294Y-103795582D01*
X108233308Y-103797104D01*
X108217943Y-103850054D01*
X108172453Y-103878660D01*
X108102834Y-103882803D01*
X108052687Y-103882084D01*
X108026246Y-103896527D01*
X108009757Y-103931218D01*
X108000267Y-103975416D01*
X108013943Y-104000493D01*
X108019093Y-104004082D01*
X108067575Y-104018496D01*
X108135469Y-104020537D01*
X108205388Y-104010983D01*
X108254932Y-103993522D01*
X108323430Y-103935364D01*
X108362366Y-103854408D01*
X108370077Y-103791160D01*
X108364193Y-103734111D01*
X108342899Y-103687542D01*
X108300735Y-103646181D01*
X108232241Y-103604755D01*
X108131956Y-103557993D01*
X108125846Y-103555350D01*
X108035510Y-103513617D01*
X107979765Y-103479391D01*
X107955871Y-103448635D01*
X107961087Y-103417311D01*
X107992672Y-103381383D01*
X108002117Y-103373116D01*
X108065383Y-103341058D01*
X108130936Y-103342407D01*
X108188028Y-103373838D01*
X108225907Y-103432024D01*
X108229426Y-103443446D01*
X108263700Y-103498837D01*
X108307191Y-103525518D01*
X108370077Y-103551960D01*
X108370077Y-103483548D01*
X108350948Y-103384110D01*
X108294169Y-103292902D01*
X108264622Y-103262389D01*
X108197458Y-103223228D01*
X108112044Y-103205500D01*
X108023499Y-103210303D01*
G36*
X108917154Y-103076120D02*
G01*
X108911428Y-103155980D01*
X108904851Y-103203039D01*
X108895738Y-103223566D01*
X108882402Y-103223829D01*
X108878077Y-103221378D01*
X108820556Y-103203636D01*
X108745732Y-103204672D01*
X108669661Y-103222910D01*
X108622082Y-103246505D01*
X108573298Y-103284198D01*
X108537636Y-103326855D01*
X108513155Y-103381057D01*
X108497913Y-103453384D01*
X108489970Y-103550419D01*
X108487384Y-103678742D01*
X108487338Y-103703358D01*
X108487308Y-103979870D01*
X108548839Y-104001320D01*
X108592541Y-104015912D01*
X108616518Y-104022706D01*
X108617223Y-104022769D01*
X108619585Y-104004345D01*
X108621594Y-103953526D01*
X108623099Y-103876993D01*
X108623947Y-103781430D01*
X108624077Y-103723329D01*
X108624349Y-103608771D01*
X108625748Y-103526667D01*
X108629151Y-103470393D01*
X108635433Y-103433326D01*
X108645471Y-103408844D01*
X108660139Y-103390325D01*
X108669298Y-103381406D01*
X108732211Y-103345466D01*
X108800864Y-103342775D01*
X108863152Y-103373170D01*
X108874671Y-103384144D01*
X108891567Y-103404779D01*
X108903286Y-103429256D01*
X108910767Y-103464647D01*
X108914946Y-103518026D01*
X108916763Y-103596466D01*
X108917154Y-103704617D01*
X108917154Y-103979870D01*
X108978685Y-104001320D01*
X109022387Y-104015912D01*
X109046364Y-104022706D01*
X109047070Y-104022769D01*
X109048874Y-104004069D01*
X109050500Y-103951322D01*
X109051883Y-103869557D01*
X109052958Y-103763805D01*
X109053660Y-103639094D01*
X109053923Y-103500455D01*
X109053923Y-102965806D01*
X108926923Y-102912236D01*
X108917154Y-103076120D01*
G37*
X108917154Y-103076120D02*
X108911428Y-103155980D01*
X108904851Y-103203039D01*
X108895738Y-103223566D01*
X108882402Y-103223829D01*
X108878077Y-103221378D01*
X108820556Y-103203636D01*
X108745732Y-103204672D01*
X108669661Y-103222910D01*
X108622082Y-103246505D01*
X108573298Y-103284198D01*
X108537636Y-103326855D01*
X108513155Y-103381057D01*
X108497913Y-103453384D01*
X108489970Y-103550419D01*
X108487384Y-103678742D01*
X108487338Y-103703358D01*
X108487308Y-103979870D01*
X108548839Y-104001320D01*
X108592541Y-104015912D01*
X108616518Y-104022706D01*
X108617223Y-104022769D01*
X108619585Y-104004345D01*
X108621594Y-103953526D01*
X108623099Y-103876993D01*
X108623947Y-103781430D01*
X108624077Y-103723329D01*
X108624349Y-103608771D01*
X108625748Y-103526667D01*
X108629151Y-103470393D01*
X108635433Y-103433326D01*
X108645471Y-103408844D01*
X108660139Y-103390325D01*
X108669298Y-103381406D01*
X108732211Y-103345466D01*
X108800864Y-103342775D01*
X108863152Y-103373170D01*
X108874671Y-103384144D01*
X108891567Y-103404779D01*
X108903286Y-103429256D01*
X108910767Y-103464647D01*
X108914946Y-103518026D01*
X108916763Y-103596466D01*
X108917154Y-103704617D01*
X108917154Y-103979870D01*
X108978685Y-104001320D01*
X109022387Y-104015912D01*
X109046364Y-104022706D01*
X109047070Y-104022769D01*
X109048874Y-104004069D01*
X109050500Y-103951322D01*
X109051883Y-103869557D01*
X109052958Y-103763805D01*
X109053660Y-103639094D01*
X109053923Y-103500455D01*
X109053923Y-102965806D01*
X108926923Y-102912236D01*
X108917154Y-103076120D01*
G36*
X110542746Y-103183745D02*
G01*
X110465714Y-103235567D01*
X110406184Y-103310412D01*
X110370622Y-103405654D01*
X110363429Y-103475756D01*
X110364246Y-103505009D01*
X110371086Y-103527407D01*
X110389888Y-103547474D01*
X110426592Y-103569733D01*
X110487138Y-103598709D01*
X110577466Y-103638927D01*
X110577923Y-103639129D01*
X110661067Y-103677210D01*
X110729247Y-103711025D01*
X110775495Y-103736933D01*
X110792842Y-103751295D01*
X110792846Y-103751411D01*
X110777557Y-103782685D01*
X110741804Y-103817157D01*
X110700758Y-103841990D01*
X110679963Y-103846923D01*
X110623230Y-103829862D01*
X110574373Y-103787133D01*
X110550535Y-103740155D01*
X110527603Y-103705522D01*
X110482682Y-103666081D01*
X110429877Y-103632009D01*
X110383290Y-103613480D01*
X110373548Y-103612462D01*
X110362582Y-103629215D01*
X110361921Y-103672039D01*
X110369980Y-103729781D01*
X110385173Y-103791289D01*
X110405914Y-103845409D01*
X110406962Y-103847510D01*
X110469379Y-103934660D01*
X110550274Y-103993939D01*
X110642144Y-104023034D01*
X110737487Y-104019634D01*
X110828802Y-103981428D01*
X110832862Y-103978741D01*
X110904694Y-103913642D01*
X110951927Y-103828705D01*
X110978066Y-103717021D01*
X110981574Y-103685643D01*
X110987787Y-103537536D01*
X110980339Y-103468468D01*
X110792846Y-103468468D01*
X110790410Y-103511552D01*
X110777086Y-103524126D01*
X110743868Y-103514719D01*
X110691506Y-103492483D01*
X110632976Y-103464610D01*
X110631521Y-103463872D01*
X110581911Y-103437777D01*
X110562000Y-103420363D01*
X110566910Y-103402107D01*
X110587584Y-103378120D01*
X110640181Y-103343406D01*
X110696823Y-103340856D01*
X110747631Y-103366119D01*
X110782724Y-103414847D01*
X110792846Y-103468468D01*
X110980339Y-103468468D01*
X110975008Y-103419036D01*
X110942222Y-103325055D01*
X110896579Y-103259215D01*
X110814198Y-103192681D01*
X110723454Y-103159676D01*
X110630815Y-103157573D01*
X110542746Y-103183745D01*
G37*
X110542746Y-103183745D02*
X110465714Y-103235567D01*
X110406184Y-103310412D01*
X110370622Y-103405654D01*
X110363429Y-103475756D01*
X110364246Y-103505009D01*
X110371086Y-103527407D01*
X110389888Y-103547474D01*
X110426592Y-103569733D01*
X110487138Y-103598709D01*
X110577466Y-103638927D01*
X110577923Y-103639129D01*
X110661067Y-103677210D01*
X110729247Y-103711025D01*
X110775495Y-103736933D01*
X110792842Y-103751295D01*
X110792846Y-103751411D01*
X110777557Y-103782685D01*
X110741804Y-103817157D01*
X110700758Y-103841990D01*
X110679963Y-103846923D01*
X110623230Y-103829862D01*
X110574373Y-103787133D01*
X110550535Y-103740155D01*
X110527603Y-103705522D01*
X110482682Y-103666081D01*
X110429877Y-103632009D01*
X110383290Y-103613480D01*
X110373548Y-103612462D01*
X110362582Y-103629215D01*
X110361921Y-103672039D01*
X110369980Y-103729781D01*
X110385173Y-103791289D01*
X110405914Y-103845409D01*
X110406962Y-103847510D01*
X110469379Y-103934660D01*
X110550274Y-103993939D01*
X110642144Y-104023034D01*
X110737487Y-104019634D01*
X110828802Y-103981428D01*
X110832862Y-103978741D01*
X110904694Y-103913642D01*
X110951927Y-103828705D01*
X110978066Y-103717021D01*
X110981574Y-103685643D01*
X110987787Y-103537536D01*
X110980339Y-103468468D01*
X110792846Y-103468468D01*
X110790410Y-103511552D01*
X110777086Y-103524126D01*
X110743868Y-103514719D01*
X110691506Y-103492483D01*
X110632976Y-103464610D01*
X110631521Y-103463872D01*
X110581911Y-103437777D01*
X110562000Y-103420363D01*
X110566910Y-103402107D01*
X110587584Y-103378120D01*
X110640181Y-103343406D01*
X110696823Y-103340856D01*
X110747631Y-103366119D01*
X110782724Y-103414847D01*
X110792846Y-103468468D01*
X110980339Y-103468468D01*
X110975008Y-103419036D01*
X110942222Y-103325055D01*
X110896579Y-103259215D01*
X110814198Y-103192681D01*
X110723454Y-103159676D01*
X110630815Y-103157573D01*
X110542746Y-103183745D01*
G36*
X112060114Y-103171256D02*
G01*
X111968536Y-103219409D01*
X111900951Y-103296905D01*
X111876943Y-103346727D01*
X111858262Y-103421533D01*
X111848699Y-103516052D01*
X111847792Y-103619210D01*
X111855079Y-103719935D01*
X111870097Y-103807153D01*
X111892385Y-103869791D01*
X111899235Y-103880579D01*
X111980368Y-103961105D01*
X112076734Y-104009336D01*
X112181299Y-104023450D01*
X112287032Y-104001629D01*
X112316457Y-103988547D01*
X112373759Y-103948231D01*
X112424050Y-103894775D01*
X112428803Y-103887995D01*
X112448122Y-103855321D01*
X112460892Y-103820394D01*
X112468436Y-103774414D01*
X112472076Y-103708584D01*
X112473135Y-103614105D01*
X112473154Y-103592923D01*
X112473106Y-103586182D01*
X112277769Y-103586182D01*
X112276632Y-103675349D01*
X112272159Y-103734520D01*
X112262754Y-103772741D01*
X112246824Y-103799053D01*
X112238692Y-103807846D01*
X112191942Y-103841261D01*
X112146553Y-103839737D01*
X112100660Y-103810752D01*
X112073288Y-103779809D01*
X112057077Y-103734643D01*
X112047974Y-103663420D01*
X112047349Y-103655114D01*
X112045796Y-103526037D01*
X112062035Y-103430172D01*
X112095848Y-103368107D01*
X112147016Y-103340432D01*
X112165280Y-103338923D01*
X112213240Y-103346513D01*
X112246047Y-103372808D01*
X112266105Y-103423095D01*
X112275822Y-103502664D01*
X112277769Y-103586182D01*
X112473106Y-103586182D01*
X112472426Y-103492249D01*
X112469371Y-103421906D01*
X112462678Y-103373163D01*
X112451040Y-103337288D01*
X112433147Y-103305548D01*
X112429192Y-103299648D01*
X112362733Y-103220104D01*
X112290315Y-103173929D01*
X112202151Y-103155599D01*
X112172213Y-103154703D01*
X112060114Y-103171256D01*
G37*
X112060114Y-103171256D02*
X111968536Y-103219409D01*
X111900951Y-103296905D01*
X111876943Y-103346727D01*
X111858262Y-103421533D01*
X111848699Y-103516052D01*
X111847792Y-103619210D01*
X111855079Y-103719935D01*
X111870097Y-103807153D01*
X111892385Y-103869791D01*
X111899235Y-103880579D01*
X111980368Y-103961105D01*
X112076734Y-104009336D01*
X112181299Y-104023450D01*
X112287032Y-104001629D01*
X112316457Y-103988547D01*
X112373759Y-103948231D01*
X112424050Y-103894775D01*
X112428803Y-103887995D01*
X112448122Y-103855321D01*
X112460892Y-103820394D01*
X112468436Y-103774414D01*
X112472076Y-103708584D01*
X112473135Y-103614105D01*
X112473154Y-103592923D01*
X112473106Y-103586182D01*
X112277769Y-103586182D01*
X112276632Y-103675349D01*
X112272159Y-103734520D01*
X112262754Y-103772741D01*
X112246824Y-103799053D01*
X112238692Y-103807846D01*
X112191942Y-103841261D01*
X112146553Y-103839737D01*
X112100660Y-103810752D01*
X112073288Y-103779809D01*
X112057077Y-103734643D01*
X112047974Y-103663420D01*
X112047349Y-103655114D01*
X112045796Y-103526037D01*
X112062035Y-103430172D01*
X112095848Y-103368107D01*
X112147016Y-103340432D01*
X112165280Y-103338923D01*
X112213240Y-103346513D01*
X112246047Y-103372808D01*
X112266105Y-103423095D01*
X112275822Y-103502664D01*
X112277769Y-103586182D01*
X112473106Y-103586182D01*
X112472426Y-103492249D01*
X112469371Y-103421906D01*
X112462678Y-103373163D01*
X112451040Y-103337288D01*
X112433147Y-103305548D01*
X112429192Y-103299648D01*
X112362733Y-103220104D01*
X112290315Y-103173929D01*
X112202151Y-103155599D01*
X112172213Y-103154703D01*
X112060114Y-103171256D01*
G36*
X109805336Y-103179089D02*
G01*
X109742633Y-103215358D01*
X109699039Y-103251358D01*
X109667155Y-103289075D01*
X109645190Y-103335199D01*
X109631351Y-103396421D01*
X109623847Y-103479431D01*
X109620883Y-103590919D01*
X109620539Y-103671062D01*
X109620539Y-103966065D01*
X109786615Y-104040515D01*
X109796385Y-103717402D01*
X109800421Y-103596729D01*
X109804656Y-103509141D01*
X109809903Y-103448650D01*
X109816975Y-103409268D01*
X109826689Y-103385007D01*
X109839856Y-103369880D01*
X109844081Y-103366606D01*
X109908091Y-103341034D01*
X109972792Y-103351153D01*
X110011308Y-103378000D01*
X110026975Y-103397024D01*
X110037820Y-103421988D01*
X110044712Y-103459834D01*
X110048521Y-103517502D01*
X110050117Y-103601935D01*
X110050385Y-103689928D01*
X110050437Y-103800323D01*
X110052328Y-103878463D01*
X110058655Y-103931165D01*
X110072017Y-103965242D01*
X110095015Y-103987511D01*
X110130246Y-104004787D01*
X110177303Y-104022738D01*
X110228697Y-104042278D01*
X110222579Y-103695485D01*
X110220116Y-103570468D01*
X110217233Y-103478082D01*
X110213102Y-103411881D01*
X110206893Y-103365420D01*
X110197774Y-103332256D01*
X110184917Y-103305944D01*
X110169416Y-103282729D01*
X110094629Y-103208569D01*
X110003372Y-103165684D01*
X109904117Y-103155412D01*
X109805336Y-103179089D01*
G37*
X109805336Y-103179089D02*
X109742633Y-103215358D01*
X109699039Y-103251358D01*
X109667155Y-103289075D01*
X109645190Y-103335199D01*
X109631351Y-103396421D01*
X109623847Y-103479431D01*
X109620883Y-103590919D01*
X109620539Y-103671062D01*
X109620539Y-103966065D01*
X109786615Y-104040515D01*
X109796385Y-103717402D01*
X109800421Y-103596729D01*
X109804656Y-103509141D01*
X109809903Y-103448650D01*
X109816975Y-103409268D01*
X109826689Y-103385007D01*
X109839856Y-103369880D01*
X109844081Y-103366606D01*
X109908091Y-103341034D01*
X109972792Y-103351153D01*
X110011308Y-103378000D01*
X110026975Y-103397024D01*
X110037820Y-103421988D01*
X110044712Y-103459834D01*
X110048521Y-103517502D01*
X110050117Y-103601935D01*
X110050385Y-103689928D01*
X110050437Y-103800323D01*
X110052328Y-103878463D01*
X110058655Y-103931165D01*
X110072017Y-103965242D01*
X110095015Y-103987511D01*
X110130246Y-104004787D01*
X110177303Y-104022738D01*
X110228697Y-104042278D01*
X110222579Y-103695485D01*
X110220116Y-103570468D01*
X110217233Y-103478082D01*
X110213102Y-103411881D01*
X110206893Y-103365420D01*
X110197774Y-103332256D01*
X110184917Y-103305944D01*
X110169416Y-103282729D01*
X110094629Y-103208569D01*
X110003372Y-103165684D01*
X109904117Y-103155412D01*
X109805336Y-103179089D01*
G36*
X111308114Y-103168505D02*
G01*
X111233461Y-103205727D01*
X111167569Y-103274261D01*
X111149423Y-103299648D01*
X111129655Y-103332866D01*
X111116828Y-103368945D01*
X111109490Y-103417098D01*
X111106187Y-103486536D01*
X111105462Y-103578206D01*
X111108737Y-103703830D01*
X111120123Y-103798154D01*
X111141959Y-103868523D01*
X111176581Y-103922286D01*
X111226330Y-103966788D01*
X111229986Y-103969423D01*
X111279015Y-103996377D01*
X111338055Y-104009712D01*
X111413141Y-104013000D01*
X111535205Y-104013000D01*
X111535256Y-104131497D01*
X111536392Y-104197492D01*
X111543314Y-104236202D01*
X111561402Y-104259419D01*
X111596038Y-104278933D01*
X111604355Y-104282920D01*
X111643280Y-104301603D01*
X111673417Y-104313403D01*
X111695826Y-104314422D01*
X111711567Y-104300761D01*
X111721698Y-104268522D01*
X111727277Y-104213804D01*
X111729365Y-104132711D01*
X111729019Y-104021344D01*
X111727300Y-103875802D01*
X111726763Y-103832269D01*
X111724828Y-103682205D01*
X111723096Y-103584042D01*
X111535308Y-103584042D01*
X111534252Y-103667364D01*
X111529562Y-103721880D01*
X111518949Y-103757837D01*
X111500128Y-103785482D01*
X111487350Y-103798965D01*
X111435110Y-103838417D01*
X111388858Y-103841628D01*
X111341133Y-103809049D01*
X111339923Y-103807846D01*
X111320506Y-103782668D01*
X111308693Y-103748447D01*
X111302735Y-103695748D01*
X111300880Y-103615131D01*
X111300846Y-103597271D01*
X111305330Y-103486175D01*
X111319926Y-103409161D01*
X111346350Y-103362147D01*
X111386317Y-103341050D01*
X111409416Y-103338923D01*
X111464238Y-103348900D01*
X111501842Y-103381752D01*
X111524477Y-103441857D01*
X111534394Y-103533598D01*
X111535308Y-103584042D01*
X111723096Y-103584042D01*
X111722778Y-103566060D01*
X111720127Y-103478679D01*
X111716394Y-103414905D01*
X111711093Y-103369582D01*
X111703742Y-103337555D01*
X111693857Y-103313668D01*
X111680954Y-103292764D01*
X111675421Y-103284898D01*
X111602031Y-103210595D01*
X111509240Y-103168467D01*
X111401904Y-103156722D01*
X111308114Y-103168505D01*
G37*
X111308114Y-103168505D02*
X111233461Y-103205727D01*
X111167569Y-103274261D01*
X111149423Y-103299648D01*
X111129655Y-103332866D01*
X111116828Y-103368945D01*
X111109490Y-103417098D01*
X111106187Y-103486536D01*
X111105462Y-103578206D01*
X111108737Y-103703830D01*
X111120123Y-103798154D01*
X111141959Y-103868523D01*
X111176581Y-103922286D01*
X111226330Y-103966788D01*
X111229986Y-103969423D01*
X111279015Y-103996377D01*
X111338055Y-104009712D01*
X111413141Y-104013000D01*
X111535205Y-104013000D01*
X111535256Y-104131497D01*
X111536392Y-104197492D01*
X111543314Y-104236202D01*
X111561402Y-104259419D01*
X111596038Y-104278933D01*
X111604355Y-104282920D01*
X111643280Y-104301603D01*
X111673417Y-104313403D01*
X111695826Y-104314422D01*
X111711567Y-104300761D01*
X111721698Y-104268522D01*
X111727277Y-104213804D01*
X111729365Y-104132711D01*
X111729019Y-104021344D01*
X111727300Y-103875802D01*
X111726763Y-103832269D01*
X111724828Y-103682205D01*
X111723096Y-103584042D01*
X111535308Y-103584042D01*
X111534252Y-103667364D01*
X111529562Y-103721880D01*
X111518949Y-103757837D01*
X111500128Y-103785482D01*
X111487350Y-103798965D01*
X111435110Y-103838417D01*
X111388858Y-103841628D01*
X111341133Y-103809049D01*
X111339923Y-103807846D01*
X111320506Y-103782668D01*
X111308693Y-103748447D01*
X111302735Y-103695748D01*
X111300880Y-103615131D01*
X111300846Y-103597271D01*
X111305330Y-103486175D01*
X111319926Y-103409161D01*
X111346350Y-103362147D01*
X111386317Y-103341050D01*
X111409416Y-103338923D01*
X111464238Y-103348900D01*
X111501842Y-103381752D01*
X111524477Y-103441857D01*
X111534394Y-103533598D01*
X111535308Y-103584042D01*
X111723096Y-103584042D01*
X111722778Y-103566060D01*
X111720127Y-103478679D01*
X111716394Y-103414905D01*
X111711093Y-103369582D01*
X111703742Y-103337555D01*
X111693857Y-103313668D01*
X111680954Y-103292764D01*
X111675421Y-103284898D01*
X111602031Y-103210595D01*
X111509240Y-103168467D01*
X111401904Y-103156722D01*
X111308114Y-103168505D01*
D12*
%TO.C,U3*%
X101281500Y-78003500D02*
X101281500Y-79603500D01*
X97981500Y-78003500D02*
X97981500Y-79603500D01*
X100031500Y-77753500D02*
X99231500Y-77753500D01*
D13*
%TO.C,U1*%
X185686700Y-107010200D02*
X185440839Y-107010200D01*
X178422300Y-107010200D02*
X178422300Y-106764339D01*
X178422300Y-99745800D02*
X178668161Y-99745800D01*
X185686700Y-99745800D02*
X185686700Y-99991661D01*
X185686700Y-106764339D02*
X185686700Y-107010200D01*
X178668161Y-107010200D02*
X178422300Y-107010200D01*
X178422300Y-99991661D02*
X178422300Y-99745800D01*
X185440839Y-99745800D02*
X185686700Y-99745800D01*
X184245001Y-108477799D02*
X184245001Y-108731799D01*
X184245001Y-108731799D02*
X183864001Y-108731799D01*
X183864001Y-108731799D02*
X183864001Y-108477799D01*
X183864001Y-108477799D02*
X184245001Y-108477799D01*
X176700701Y-103587499D02*
X176700701Y-103968499D01*
X176700701Y-103968499D02*
X176954701Y-103968499D01*
X176954701Y-103968499D02*
X176954701Y-103587499D01*
X176954701Y-103587499D02*
X176700701Y-103587499D01*
X183445000Y-98278201D02*
X183445000Y-98024201D01*
X183445000Y-98024201D02*
X183064000Y-98024201D01*
X183064000Y-98024201D02*
X183064000Y-98278201D01*
X183064000Y-98278201D02*
X183445000Y-98278201D01*
D14*
%TO.C,D21*%
G36*
X192341500Y-103555800D02*
G01*
X192595500Y-103873300D01*
X192087500Y-103873300D01*
X192341500Y-103555800D01*
G37*
G36*
X192722500Y-103555800D02*
G01*
X191960500Y-103555800D01*
X191960500Y-103428800D01*
X192722500Y-103428800D01*
X192722500Y-103555800D01*
G37*
%TO.C,D20*%
G36*
X161545500Y-81469000D02*
G01*
X161545500Y-81669000D01*
X160145500Y-81669000D01*
X160145500Y-81469000D01*
X161545500Y-81469000D01*
G37*
D15*
X161670500Y-80819000D02*
X160020500Y-80819000D01*
X161670500Y-83519000D02*
X161670500Y-80819000D01*
X160020500Y-83519000D02*
X161670500Y-83519000D01*
X160020500Y-80819000D02*
X160020500Y-83519000D01*
D13*
X161245500Y-82669000D02*
X160845500Y-81669000D01*
X160445500Y-82669000D02*
X161245500Y-82669000D01*
X160845500Y-81669000D02*
X160445500Y-82669000D01*
D16*
%TO.C,C1*%
X89090500Y-78613000D02*
X88074500Y-78613000D01*
%TO.C,C2*%
X90741500Y-78613000D02*
X91757500Y-78613000D01*
%TO.C,C3*%
X94723000Y-81978500D02*
X95523000Y-81978500D01*
D17*
%TO.C,J1*%
X161544000Y-104902000D02*
X161544000Y-103632000D01*
X160274000Y-104902000D02*
X161544000Y-104902000D01*
X152274000Y-102589071D02*
X152274000Y-102192000D01*
X153034000Y-102589071D02*
X153034000Y-102192000D01*
X152274000Y-93532000D02*
X152274000Y-99532000D01*
X153034000Y-93532000D02*
X152274000Y-93532000D01*
X153034000Y-99532000D02*
X153034000Y-93532000D01*
X153924000Y-102192000D02*
X153924000Y-99532000D01*
X154814000Y-102589071D02*
X154814000Y-102192000D01*
X155574000Y-102589071D02*
X155574000Y-102192000D01*
X154814000Y-93532000D02*
X154814000Y-99532000D01*
X155574000Y-93532000D02*
X154814000Y-93532000D01*
X155574000Y-99532000D02*
X155574000Y-93532000D01*
X156464000Y-102192000D02*
X156464000Y-99532000D01*
X157354000Y-102589071D02*
X157354000Y-102192000D01*
X158114000Y-102589071D02*
X158114000Y-102192000D01*
X157354000Y-93532000D02*
X157354000Y-99532000D01*
X158114000Y-93532000D02*
X157354000Y-93532000D01*
X158114000Y-99532000D02*
X158114000Y-93532000D01*
X159004000Y-102192000D02*
X159004000Y-99532000D01*
X159894000Y-102522000D02*
X159894000Y-102192000D01*
X160654000Y-102522000D02*
X160654000Y-102192000D01*
X159994000Y-99532000D02*
X159994000Y-93532000D01*
X160114000Y-99532000D02*
X160114000Y-93532000D01*
X160234000Y-99532000D02*
X160234000Y-93532000D01*
X160354000Y-99532000D02*
X160354000Y-93532000D01*
X160474000Y-99532000D02*
X160474000Y-93532000D01*
X160594000Y-99532000D02*
X160594000Y-93532000D01*
X159894000Y-93532000D02*
X159894000Y-99532000D01*
X160654000Y-93532000D02*
X159894000Y-93532000D01*
X160654000Y-99532000D02*
X160654000Y-93532000D01*
X161604000Y-99532000D02*
X161604000Y-102192000D01*
X151324000Y-99532000D02*
X161604000Y-99532000D01*
X151324000Y-102192000D02*
X151324000Y-99532000D01*
X161604000Y-102192000D02*
X151324000Y-102192000D01*
D16*
%TO.C,R1*%
X94723000Y-78002500D02*
X95523000Y-78002500D01*
%TO.C,R2*%
X83502500Y-87865000D02*
X83502500Y-88665000D01*
D12*
%TO.C,SW20*%
X188339600Y-94039000D02*
X188339600Y-98239000D01*
X191390400Y-98239000D02*
X191390400Y-94039000D01*
D17*
%TO.C,U2*%
X81152500Y-84821000D02*
X81152500Y-83581000D01*
X85852500Y-84821000D02*
X85852500Y-83581000D01*
X85852500Y-82251000D02*
X85852500Y-81901000D01*
X85852500Y-81901000D02*
X81152500Y-81901000D01*
X81152500Y-81901000D02*
X81152500Y-82251000D01*
X85852500Y-82251000D02*
X87102500Y-82251000D01*
X85852500Y-86151000D02*
X85852500Y-86501000D01*
X85852500Y-86501000D02*
X81152500Y-86501000D01*
X81152500Y-86501000D02*
X81152500Y-86151000D01*
%TO.C,U3*%
D18*
X100320314Y-81370230D02*
X100320314Y-81995312D01*
X100283545Y-82068851D01*
X100246775Y-82105620D01*
X100173236Y-82142390D01*
X100026158Y-82142390D01*
X99952619Y-82105620D01*
X99915849Y-82068851D01*
X99879080Y-81995312D01*
X99879080Y-81370230D01*
X99584924Y-81370230D02*
X99106920Y-81370230D01*
X99364306Y-81664386D01*
X99253998Y-81664386D01*
X99180459Y-81701156D01*
X99143689Y-81737925D01*
X99106920Y-81811464D01*
X99106920Y-81995312D01*
X99143689Y-82068851D01*
X99180459Y-82105620D01*
X99253998Y-82142390D01*
X99474615Y-82142390D01*
X99548154Y-82105620D01*
X99584924Y-82068851D01*
%TO.C,U1*%
D10*
X182752904Y-96607380D02*
X182752904Y-97416904D01*
X182705285Y-97512142D01*
X182657666Y-97559761D01*
X182562428Y-97607380D01*
X182371952Y-97607380D01*
X182276714Y-97559761D01*
X182229095Y-97512142D01*
X182181476Y-97416904D01*
X182181476Y-96607380D01*
X181181476Y-97607380D02*
X181752904Y-97607380D01*
X181467190Y-97607380D02*
X181467190Y-96607380D01*
X181562428Y-96750238D01*
X181657666Y-96845476D01*
X181752904Y-96893095D01*
X186372500Y-98956880D02*
X186372500Y-99194976D01*
X186610595Y-99099738D02*
X186372500Y-99194976D01*
X186134404Y-99099738D01*
X186515357Y-99385452D02*
X186372500Y-99194976D01*
X186229642Y-99385452D01*
%TO.C,D21*%
X194436880Y-102481214D02*
X193436880Y-102481214D01*
X193436880Y-102719309D01*
X193484500Y-102862166D01*
X193579738Y-102957404D01*
X193674976Y-103005023D01*
X193865452Y-103052642D01*
X194008309Y-103052642D01*
X194198785Y-103005023D01*
X194294023Y-102957404D01*
X194389261Y-102862166D01*
X194436880Y-102719309D01*
X194436880Y-102481214D01*
X193532119Y-103433595D02*
X193484500Y-103481214D01*
X193436880Y-103576452D01*
X193436880Y-103814547D01*
X193484500Y-103909785D01*
X193532119Y-103957404D01*
X193627357Y-104005023D01*
X193722595Y-104005023D01*
X193865452Y-103957404D01*
X194436880Y-103385976D01*
X194436880Y-104005023D01*
X194436880Y-104957404D02*
X194436880Y-104385976D01*
X194436880Y-104671690D02*
X193436880Y-104671690D01*
X193579738Y-104576452D01*
X193674976Y-104481214D01*
X193722595Y-104385976D01*
%TO.C,D20*%
X163194880Y-80954714D02*
X162194880Y-80954714D01*
X162194880Y-81192809D01*
X162242500Y-81335666D01*
X162337738Y-81430904D01*
X162432976Y-81478523D01*
X162623452Y-81526142D01*
X162766309Y-81526142D01*
X162956785Y-81478523D01*
X163052023Y-81430904D01*
X163147261Y-81335666D01*
X163194880Y-81192809D01*
X163194880Y-80954714D01*
X162290119Y-81907095D02*
X162242500Y-81954714D01*
X162194880Y-82049952D01*
X162194880Y-82288047D01*
X162242500Y-82383285D01*
X162290119Y-82430904D01*
X162385357Y-82478523D01*
X162480595Y-82478523D01*
X162623452Y-82430904D01*
X163194880Y-81859476D01*
X163194880Y-82478523D01*
X162194880Y-83097571D02*
X162194880Y-83192809D01*
X162242500Y-83288047D01*
X162290119Y-83335666D01*
X162385357Y-83383285D01*
X162575833Y-83430904D01*
X162813928Y-83430904D01*
X163004404Y-83383285D01*
X163099642Y-83335666D01*
X163147261Y-83288047D01*
X163194880Y-83192809D01*
X163194880Y-83097571D01*
X163147261Y-83002333D01*
X163099642Y-82954714D01*
X163004404Y-82907095D01*
X162813928Y-82859476D01*
X162575833Y-82859476D01*
X162385357Y-82907095D01*
X162290119Y-82954714D01*
X162242500Y-83002333D01*
X162194880Y-83097571D01*
%TO.C,C1*%
D18*
X88926851Y-75862189D02*
X88963620Y-75825419D01*
X89000390Y-75715111D01*
X89000390Y-75641572D01*
X88963620Y-75531263D01*
X88890081Y-75457724D01*
X88816542Y-75420954D01*
X88669464Y-75384185D01*
X88559156Y-75384185D01*
X88412078Y-75420954D01*
X88338539Y-75457724D01*
X88265000Y-75531263D01*
X88228230Y-75641572D01*
X88228230Y-75715111D01*
X88265000Y-75825419D01*
X88301769Y-75862189D01*
X89000390Y-76597579D02*
X89000390Y-76156345D01*
X89000390Y-76376962D02*
X88228230Y-76376962D01*
X88338539Y-76303423D01*
X88412078Y-76229884D01*
X88448847Y-76156345D01*
%TO.C,C2*%
X91530351Y-75862189D02*
X91567120Y-75825419D01*
X91603890Y-75715111D01*
X91603890Y-75641572D01*
X91567120Y-75531263D01*
X91493581Y-75457724D01*
X91420042Y-75420954D01*
X91272964Y-75384185D01*
X91162656Y-75384185D01*
X91015578Y-75420954D01*
X90942039Y-75457724D01*
X90868500Y-75531263D01*
X90831730Y-75641572D01*
X90831730Y-75715111D01*
X90868500Y-75825419D01*
X90905269Y-75862189D01*
X90905269Y-76156345D02*
X90868500Y-76193114D01*
X90831730Y-76266653D01*
X90831730Y-76450501D01*
X90868500Y-76524040D01*
X90905269Y-76560810D01*
X90978808Y-76597579D01*
X91052347Y-76597579D01*
X91162656Y-76560810D01*
X91603890Y-76119575D01*
X91603890Y-76597579D01*
%TO.C,C3*%
X93933191Y-81894689D02*
X93969960Y-81857919D01*
X94006730Y-81747611D01*
X94006730Y-81674072D01*
X93969960Y-81563763D01*
X93896421Y-81490224D01*
X93822882Y-81453454D01*
X93675804Y-81416685D01*
X93565496Y-81416685D01*
X93418418Y-81453454D01*
X93344879Y-81490224D01*
X93271340Y-81563763D01*
X93234570Y-81674072D01*
X93234570Y-81747611D01*
X93271340Y-81857919D01*
X93308109Y-81894689D01*
X93234570Y-82152075D02*
X93234570Y-82630079D01*
X93528726Y-82372693D01*
X93528726Y-82483001D01*
X93565496Y-82556540D01*
X93602265Y-82593310D01*
X93675804Y-82630079D01*
X93859652Y-82630079D01*
X93933191Y-82593310D01*
X93969960Y-82556540D01*
X94006730Y-82483001D01*
X94006730Y-82262384D01*
X93969960Y-82188845D01*
X93933191Y-82152075D01*
%TO.C,J1*%
D10*
X161996380Y-98913666D02*
X162710666Y-98913666D01*
X162853523Y-98866047D01*
X162948761Y-98770809D01*
X162996380Y-98627952D01*
X162996380Y-98532714D01*
X162996380Y-99913666D02*
X162996380Y-99342238D01*
X162996380Y-99627952D02*
X161996380Y-99627952D01*
X162139238Y-99532714D01*
X162234476Y-99437476D01*
X162282095Y-99342238D01*
%TO.C,R1*%
D18*
X94070230Y-77767189D02*
X93702535Y-77509802D01*
X94070230Y-77325954D02*
X93298070Y-77325954D01*
X93298070Y-77620111D01*
X93334840Y-77693650D01*
X93371609Y-77730419D01*
X93445148Y-77767189D01*
X93555457Y-77767189D01*
X93628996Y-77730419D01*
X93665765Y-77693650D01*
X93702535Y-77620111D01*
X93702535Y-77325954D01*
X94070230Y-78502579D02*
X94070230Y-78061345D01*
X94070230Y-78281962D02*
X93298070Y-78281962D01*
X93408379Y-78208423D01*
X93481918Y-78134884D01*
X93518687Y-78061345D01*
%TO.C,R2*%
X83649810Y-90260230D02*
X83907197Y-89892535D01*
X84091045Y-90260230D02*
X84091045Y-89488070D01*
X83796888Y-89488070D01*
X83723349Y-89524840D01*
X83686580Y-89561609D01*
X83649810Y-89635148D01*
X83649810Y-89745457D01*
X83686580Y-89818996D01*
X83723349Y-89855765D01*
X83796888Y-89892535D01*
X84091045Y-89892535D01*
X83355654Y-89561609D02*
X83318885Y-89524840D01*
X83245346Y-89488070D01*
X83061498Y-89488070D01*
X82987959Y-89524840D01*
X82951189Y-89561609D01*
X82914420Y-89635148D01*
X82914420Y-89708687D01*
X82951189Y-89818996D01*
X83392424Y-90260230D01*
X82914420Y-90260230D01*
%TO.C,SW20*%
X188013460Y-94567595D02*
X188050230Y-94677904D01*
X188050230Y-94861752D01*
X188013460Y-94935291D01*
X187976691Y-94972060D01*
X187903152Y-95008830D01*
X187829613Y-95008830D01*
X187756074Y-94972060D01*
X187719304Y-94935291D01*
X187682535Y-94861752D01*
X187645765Y-94714673D01*
X187608996Y-94641134D01*
X187572226Y-94604365D01*
X187498687Y-94567595D01*
X187425148Y-94567595D01*
X187351609Y-94604365D01*
X187314840Y-94641134D01*
X187278070Y-94714673D01*
X187278070Y-94898521D01*
X187314840Y-95008830D01*
X187278070Y-95266216D02*
X188050230Y-95450064D01*
X187498687Y-95597142D01*
X188050230Y-95744220D01*
X187278070Y-95928068D01*
X187351609Y-96185454D02*
X187314840Y-96222224D01*
X187278070Y-96295763D01*
X187278070Y-96479611D01*
X187314840Y-96553150D01*
X187351609Y-96589919D01*
X187425148Y-96626689D01*
X187498687Y-96626689D01*
X187608996Y-96589919D01*
X188050230Y-96148685D01*
X188050230Y-96626689D01*
X187278070Y-97104693D02*
X187278070Y-97178232D01*
X187314840Y-97251771D01*
X187351609Y-97288540D01*
X187425148Y-97325310D01*
X187572226Y-97362079D01*
X187756074Y-97362079D01*
X187903152Y-97325310D01*
X187976691Y-97288540D01*
X188013460Y-97251771D01*
X188050230Y-97178232D01*
X188050230Y-97104693D01*
X188013460Y-97031153D01*
X187976691Y-96994384D01*
X187903152Y-96957614D01*
X187756074Y-96920845D01*
X187572226Y-96920845D01*
X187425148Y-96957614D01*
X187351609Y-96994384D01*
X187314840Y-97031153D01*
X187278070Y-97104693D01*
%TO.C,U2*%
D10*
X84264404Y-80153380D02*
X84264404Y-80962904D01*
X84216785Y-81058142D01*
X84169166Y-81105761D01*
X84073928Y-81153380D01*
X83883452Y-81153380D01*
X83788214Y-81105761D01*
X83740595Y-81058142D01*
X83692976Y-80962904D01*
X83692976Y-80153380D01*
X83264404Y-80248619D02*
X83216785Y-80201000D01*
X83121547Y-80153380D01*
X82883452Y-80153380D01*
X82788214Y-80201000D01*
X82740595Y-80248619D01*
X82692976Y-80343857D01*
X82692976Y-80439095D01*
X82740595Y-80581952D01*
X83312023Y-81153380D01*
X82692976Y-81153380D01*
%TD*%
M02*
