%TF.GenerationSoftware,KiCad,Pcbnew,(5.1.9)-1*%
%TF.CreationDate,2021-03-22T18:36:52-04:00*%
%TF.ProjectId,DSKY_keyboard,44534b59-5f6b-4657-9962-6f6172642e6b,1.0*%
%TF.SameCoordinates,Original*%
%TF.FileFunction,Soldermask,Top*%
%TF.FilePolarity,Negative*%
%FSLAX46Y46*%
G04 Gerber Fmt 4.6, Leading zero omitted, Abs format (unit mm)*
G04 Created by KiCad (PCBNEW (5.1.9)-1) date 2021-03-22 18:36:52*
%MOMM*%
%LPD*%
G01*
G04 APERTURE LIST*
%ADD10C,1.852600*%
%ADD11C,4.189400*%
%ADD12C,2.603200*%
%ADD13C,1.711200*%
%ADD14O,1.800000X1.800000*%
%ADD15O,1.070000X2.040000*%
%ADD16C,1.008000*%
G04 APERTURE END LIST*
D10*
%TO.C,SW8*%
X66019500Y-103477000D03*
X76179500Y-103477000D03*
D11*
X71099500Y-103477000D03*
D12*
X67289500Y-100937000D03*
X73639500Y-98397000D03*
D13*
X72369500Y-108557000D03*
X69829500Y-108557000D03*
%TD*%
D10*
%TO.C,SW15*%
X90683300Y-116593000D03*
X100843300Y-116593000D03*
D11*
X95763300Y-116593000D03*
D12*
X91953300Y-114053000D03*
X98303300Y-111513000D03*
D13*
X97033300Y-121673000D03*
X94493300Y-121673000D03*
%TD*%
D10*
%TO.C,SW19*%
X189338500Y-116593000D03*
X199498500Y-116593000D03*
D11*
X194418500Y-116593000D03*
D12*
X190608500Y-114053000D03*
X196958500Y-111513000D03*
D13*
X195688500Y-121673000D03*
X193148500Y-121673000D03*
%TD*%
D10*
%TO.C,SW14*%
X214002500Y-103477000D03*
X224162500Y-103477000D03*
D11*
X219082500Y-103477000D03*
D12*
X215272500Y-100937000D03*
X221622500Y-98397000D03*
D13*
X220352500Y-108557000D03*
X217812500Y-108557000D03*
%TD*%
D10*
%TO.C,SW5*%
X164674700Y-67323000D03*
X174834700Y-67323000D03*
D11*
X169754700Y-67323000D03*
D12*
X165944700Y-64783000D03*
X172294700Y-62243000D03*
D13*
X171024700Y-72403000D03*
X168484700Y-72403000D03*
%TD*%
D10*
%TO.C,SW2*%
X90683300Y-67323000D03*
X100843300Y-67323000D03*
D11*
X95763300Y-67323000D03*
D12*
X91953300Y-64783000D03*
X98303300Y-62243000D03*
D13*
X97033300Y-72403000D03*
X94493300Y-72403000D03*
%TD*%
D10*
%TO.C,SW1*%
X66019500Y-80439000D03*
X76179500Y-80439000D03*
D11*
X71099500Y-80439000D03*
D12*
X67289500Y-77899000D03*
X73639500Y-75359000D03*
D13*
X72369500Y-85519000D03*
X69829500Y-85519000D03*
%TD*%
D10*
%TO.C,SW18*%
X164674700Y-116593000D03*
X174834700Y-116593000D03*
D11*
X169754700Y-116593000D03*
D12*
X165944700Y-114053000D03*
X172294700Y-111513000D03*
D13*
X171024700Y-121673000D03*
X168484700Y-121673000D03*
%TD*%
D10*
%TO.C,SW17*%
X140010900Y-116593000D03*
X150170900Y-116593000D03*
D11*
X145090900Y-116593000D03*
D12*
X141280900Y-114053000D03*
X147630900Y-111513000D03*
D13*
X146360900Y-121673000D03*
X143820900Y-121673000D03*
%TD*%
D10*
%TO.C,SW16*%
X115347100Y-116593000D03*
X125507100Y-116593000D03*
D11*
X120427100Y-116593000D03*
D12*
X116617100Y-114053000D03*
X122967100Y-111513000D03*
D13*
X121697100Y-121673000D03*
X119157100Y-121673000D03*
%TD*%
D10*
%TO.C,SW13*%
X189338500Y-91958000D03*
X199498500Y-91958000D03*
D11*
X194418500Y-91958000D03*
D12*
X190608500Y-89418000D03*
X196958500Y-86878000D03*
D13*
X195688500Y-97038000D03*
X193148500Y-97038000D03*
%TD*%
D10*
%TO.C,SW12*%
X164674700Y-91958000D03*
X174834700Y-91958000D03*
D11*
X169754700Y-91958000D03*
D12*
X165944700Y-89418000D03*
X172294700Y-86878000D03*
D13*
X171024700Y-97038000D03*
X168484700Y-97038000D03*
%TD*%
D10*
%TO.C,SW11*%
X140010900Y-91958000D03*
X150170900Y-91958000D03*
D11*
X145090900Y-91958000D03*
D12*
X141280900Y-89418000D03*
X147630900Y-86878000D03*
D13*
X146360900Y-97038000D03*
X143820900Y-97038000D03*
%TD*%
D10*
%TO.C,SW10*%
X115347100Y-91958000D03*
X125507100Y-91958000D03*
D11*
X120427100Y-91958000D03*
D12*
X116617100Y-89418000D03*
X122967100Y-86878000D03*
D13*
X121697100Y-97038000D03*
X119157100Y-97038000D03*
%TD*%
D10*
%TO.C,SW9*%
X90683300Y-91958000D03*
X100843300Y-91958000D03*
D11*
X95763300Y-91958000D03*
D12*
X91953300Y-89418000D03*
X98303300Y-86878000D03*
D13*
X97033300Y-97038000D03*
X94493300Y-97038000D03*
%TD*%
D10*
%TO.C,SW7*%
X214002500Y-80439000D03*
X224162500Y-80439000D03*
D11*
X219082500Y-80439000D03*
D12*
X215272500Y-77899000D03*
X221622500Y-75359000D03*
D13*
X220352500Y-85519000D03*
X217812500Y-85519000D03*
%TD*%
D10*
%TO.C,SW6*%
X189338500Y-67323000D03*
X199498500Y-67323000D03*
D11*
X194418500Y-67323000D03*
D12*
X190608500Y-64783000D03*
X196958500Y-62243000D03*
D13*
X195688500Y-72403000D03*
X193148500Y-72403000D03*
%TD*%
D10*
%TO.C,SW4*%
X140010900Y-67323000D03*
X150170900Y-67323000D03*
D11*
X145090900Y-67323000D03*
D12*
X141280900Y-64783000D03*
X147630900Y-62243000D03*
D13*
X146360900Y-72403000D03*
X143820900Y-72403000D03*
%TD*%
D10*
%TO.C,SW3*%
X115347100Y-67323000D03*
X125507100Y-67323000D03*
D11*
X120427100Y-67323000D03*
D12*
X116617100Y-64783000D03*
X122967100Y-62243000D03*
D13*
X121697100Y-72403000D03*
X119157100Y-72403000D03*
%TD*%
%TO.C,D16*%
G36*
G01*
X131703500Y-111031000D02*
X131703500Y-111981000D01*
G75*
G02*
X131653500Y-112031000I-50000J0D01*
G01*
X130753500Y-112031000D01*
G75*
G02*
X130703500Y-111981000I0J50000D01*
G01*
X130703500Y-111031000D01*
G75*
G02*
X130753500Y-110981000I50000J0D01*
G01*
X131653500Y-110981000D01*
G75*
G02*
X131703500Y-111031000I0J-50000D01*
G01*
G37*
G36*
G01*
X134853500Y-111031000D02*
X134853500Y-111981000D01*
G75*
G02*
X134803500Y-112031000I-50000J0D01*
G01*
X133903500Y-112031000D01*
G75*
G02*
X133853500Y-111981000I0J50000D01*
G01*
X133853500Y-111031000D01*
G75*
G02*
X133903500Y-110981000I50000J0D01*
G01*
X134803500Y-110981000D01*
G75*
G02*
X134853500Y-111031000I0J-50000D01*
G01*
G37*
%TD*%
%TO.C,D8*%
G36*
G01*
X67432500Y-94582000D02*
X67432500Y-93632000D01*
G75*
G02*
X67482500Y-93582000I50000J0D01*
G01*
X68382500Y-93582000D01*
G75*
G02*
X68432500Y-93632000I0J-50000D01*
G01*
X68432500Y-94582000D01*
G75*
G02*
X68382500Y-94632000I-50000J0D01*
G01*
X67482500Y-94632000D01*
G75*
G02*
X67432500Y-94582000I0J50000D01*
G01*
G37*
G36*
G01*
X64282500Y-94582000D02*
X64282500Y-93632000D01*
G75*
G02*
X64332500Y-93582000I50000J0D01*
G01*
X65232500Y-93582000D01*
G75*
G02*
X65282500Y-93632000I0J-50000D01*
G01*
X65282500Y-94582000D01*
G75*
G02*
X65232500Y-94632000I-50000J0D01*
G01*
X64332500Y-94632000D01*
G75*
G02*
X64282500Y-94582000I0J50000D01*
G01*
G37*
%TD*%
%TO.C,D1*%
G36*
G01*
X64282500Y-71595000D02*
X64282500Y-70645000D01*
G75*
G02*
X64332500Y-70595000I50000J0D01*
G01*
X65232500Y-70595000D01*
G75*
G02*
X65282500Y-70645000I0J-50000D01*
G01*
X65282500Y-71595000D01*
G75*
G02*
X65232500Y-71645000I-50000J0D01*
G01*
X64332500Y-71645000D01*
G75*
G02*
X64282500Y-71595000I0J50000D01*
G01*
G37*
G36*
G01*
X67432500Y-71595000D02*
X67432500Y-70645000D01*
G75*
G02*
X67482500Y-70595000I50000J0D01*
G01*
X68382500Y-70595000D01*
G75*
G02*
X68432500Y-70645000I0J-50000D01*
G01*
X68432500Y-71595000D01*
G75*
G02*
X68382500Y-71645000I-50000J0D01*
G01*
X67482500Y-71645000D01*
G75*
G02*
X67432500Y-71595000I0J50000D01*
G01*
G37*
%TD*%
%TO.C,D2*%
G36*
G01*
X107065500Y-61755000D02*
X107065500Y-62705000D01*
G75*
G02*
X107015500Y-62755000I-50000J0D01*
G01*
X106115500Y-62755000D01*
G75*
G02*
X106065500Y-62705000I0J50000D01*
G01*
X106065500Y-61755000D01*
G75*
G02*
X106115500Y-61705000I50000J0D01*
G01*
X107015500Y-61705000D01*
G75*
G02*
X107065500Y-61755000I0J-50000D01*
G01*
G37*
G36*
G01*
X110215500Y-61755000D02*
X110215500Y-62705000D01*
G75*
G02*
X110165500Y-62755000I-50000J0D01*
G01*
X109265500Y-62755000D01*
G75*
G02*
X109215500Y-62705000I0J50000D01*
G01*
X109215500Y-61755000D01*
G75*
G02*
X109265500Y-61705000I50000J0D01*
G01*
X110165500Y-61705000D01*
G75*
G02*
X110215500Y-61755000I0J-50000D01*
G01*
G37*
%TD*%
%TO.C,D3*%
G36*
G01*
X134726500Y-61755000D02*
X134726500Y-62705000D01*
G75*
G02*
X134676500Y-62755000I-50000J0D01*
G01*
X133776500Y-62755000D01*
G75*
G02*
X133726500Y-62705000I0J50000D01*
G01*
X133726500Y-61755000D01*
G75*
G02*
X133776500Y-61705000I50000J0D01*
G01*
X134676500Y-61705000D01*
G75*
G02*
X134726500Y-61755000I0J-50000D01*
G01*
G37*
G36*
G01*
X131576500Y-61755000D02*
X131576500Y-62705000D01*
G75*
G02*
X131526500Y-62755000I-50000J0D01*
G01*
X130626500Y-62755000D01*
G75*
G02*
X130576500Y-62705000I0J50000D01*
G01*
X130576500Y-61755000D01*
G75*
G02*
X130626500Y-61705000I50000J0D01*
G01*
X131526500Y-61705000D01*
G75*
G02*
X131576500Y-61755000I0J-50000D01*
G01*
G37*
%TD*%
%TO.C,D4*%
G36*
G01*
X156341500Y-61755000D02*
X156341500Y-62705000D01*
G75*
G02*
X156291500Y-62755000I-50000J0D01*
G01*
X155391500Y-62755000D01*
G75*
G02*
X155341500Y-62705000I0J50000D01*
G01*
X155341500Y-61755000D01*
G75*
G02*
X155391500Y-61705000I50000J0D01*
G01*
X156291500Y-61705000D01*
G75*
G02*
X156341500Y-61755000I0J-50000D01*
G01*
G37*
G36*
G01*
X159491500Y-61755000D02*
X159491500Y-62705000D01*
G75*
G02*
X159441500Y-62755000I-50000J0D01*
G01*
X158541500Y-62755000D01*
G75*
G02*
X158491500Y-62705000I0J50000D01*
G01*
X158491500Y-61755000D01*
G75*
G02*
X158541500Y-61705000I50000J0D01*
G01*
X159441500Y-61705000D01*
G75*
G02*
X159491500Y-61755000I0J-50000D01*
G01*
G37*
%TD*%
%TO.C,D5*%
G36*
G01*
X184129500Y-61755000D02*
X184129500Y-62705000D01*
G75*
G02*
X184079500Y-62755000I-50000J0D01*
G01*
X183179500Y-62755000D01*
G75*
G02*
X183129500Y-62705000I0J50000D01*
G01*
X183129500Y-61755000D01*
G75*
G02*
X183179500Y-61705000I50000J0D01*
G01*
X184079500Y-61705000D01*
G75*
G02*
X184129500Y-61755000I0J-50000D01*
G01*
G37*
G36*
G01*
X180979500Y-61755000D02*
X180979500Y-62705000D01*
G75*
G02*
X180929500Y-62755000I-50000J0D01*
G01*
X180029500Y-62755000D01*
G75*
G02*
X179979500Y-62705000I0J50000D01*
G01*
X179979500Y-61755000D01*
G75*
G02*
X180029500Y-61705000I50000J0D01*
G01*
X180929500Y-61705000D01*
G75*
G02*
X180979500Y-61755000I0J-50000D01*
G01*
G37*
%TD*%
%TO.C,D6*%
G36*
G01*
X204246500Y-76116000D02*
X203296500Y-76116000D01*
G75*
G02*
X203246500Y-76066000I0J50000D01*
G01*
X203246500Y-75166000D01*
G75*
G02*
X203296500Y-75116000I50000J0D01*
G01*
X204246500Y-75116000D01*
G75*
G02*
X204296500Y-75166000I0J-50000D01*
G01*
X204296500Y-76066000D01*
G75*
G02*
X204246500Y-76116000I-50000J0D01*
G01*
G37*
G36*
G01*
X204246500Y-72966000D02*
X203296500Y-72966000D01*
G75*
G02*
X203246500Y-72916000I0J50000D01*
G01*
X203246500Y-72016000D01*
G75*
G02*
X203296500Y-71966000I50000J0D01*
G01*
X204246500Y-71966000D01*
G75*
G02*
X204296500Y-72016000I0J-50000D01*
G01*
X204296500Y-72916000D01*
G75*
G02*
X204246500Y-72966000I-50000J0D01*
G01*
G37*
%TD*%
%TO.C,D7*%
G36*
G01*
X223143500Y-70645000D02*
X223143500Y-71595000D01*
G75*
G02*
X223093500Y-71645000I-50000J0D01*
G01*
X222193500Y-71645000D01*
G75*
G02*
X222143500Y-71595000I0J50000D01*
G01*
X222143500Y-70645000D01*
G75*
G02*
X222193500Y-70595000I50000J0D01*
G01*
X223093500Y-70595000D01*
G75*
G02*
X223143500Y-70645000I0J-50000D01*
G01*
G37*
G36*
G01*
X226293500Y-70645000D02*
X226293500Y-71595000D01*
G75*
G02*
X226243500Y-71645000I-50000J0D01*
G01*
X225343500Y-71645000D01*
G75*
G02*
X225293500Y-71595000I0J50000D01*
G01*
X225293500Y-70645000D01*
G75*
G02*
X225343500Y-70595000I50000J0D01*
G01*
X226243500Y-70595000D01*
G75*
G02*
X226293500Y-70645000I0J-50000D01*
G01*
G37*
%TD*%
%TO.C,D9*%
G36*
G01*
X110215500Y-86393000D02*
X110215500Y-87343000D01*
G75*
G02*
X110165500Y-87393000I-50000J0D01*
G01*
X109265500Y-87393000D01*
G75*
G02*
X109215500Y-87343000I0J50000D01*
G01*
X109215500Y-86393000D01*
G75*
G02*
X109265500Y-86343000I50000J0D01*
G01*
X110165500Y-86343000D01*
G75*
G02*
X110215500Y-86393000I0J-50000D01*
G01*
G37*
G36*
G01*
X107065500Y-86393000D02*
X107065500Y-87343000D01*
G75*
G02*
X107015500Y-87393000I-50000J0D01*
G01*
X106115500Y-87393000D01*
G75*
G02*
X106065500Y-87343000I0J50000D01*
G01*
X106065500Y-86393000D01*
G75*
G02*
X106115500Y-86343000I50000J0D01*
G01*
X107015500Y-86343000D01*
G75*
G02*
X107065500Y-86393000I0J-50000D01*
G01*
G37*
%TD*%
%TO.C,D10*%
G36*
G01*
X131703500Y-86393000D02*
X131703500Y-87343000D01*
G75*
G02*
X131653500Y-87393000I-50000J0D01*
G01*
X130753500Y-87393000D01*
G75*
G02*
X130703500Y-87343000I0J50000D01*
G01*
X130703500Y-86393000D01*
G75*
G02*
X130753500Y-86343000I50000J0D01*
G01*
X131653500Y-86343000D01*
G75*
G02*
X131703500Y-86393000I0J-50000D01*
G01*
G37*
G36*
G01*
X134853500Y-86393000D02*
X134853500Y-87343000D01*
G75*
G02*
X134803500Y-87393000I-50000J0D01*
G01*
X133903500Y-87393000D01*
G75*
G02*
X133853500Y-87343000I0J50000D01*
G01*
X133853500Y-86393000D01*
G75*
G02*
X133903500Y-86343000I50000J0D01*
G01*
X134803500Y-86343000D01*
G75*
G02*
X134853500Y-86393000I0J-50000D01*
G01*
G37*
%TD*%
%TO.C,D11*%
G36*
G01*
X159491500Y-86393000D02*
X159491500Y-87343000D01*
G75*
G02*
X159441500Y-87393000I-50000J0D01*
G01*
X158541500Y-87393000D01*
G75*
G02*
X158491500Y-87343000I0J50000D01*
G01*
X158491500Y-86393000D01*
G75*
G02*
X158541500Y-86343000I50000J0D01*
G01*
X159441500Y-86343000D01*
G75*
G02*
X159491500Y-86393000I0J-50000D01*
G01*
G37*
G36*
G01*
X156341500Y-86393000D02*
X156341500Y-87343000D01*
G75*
G02*
X156291500Y-87393000I-50000J0D01*
G01*
X155391500Y-87393000D01*
G75*
G02*
X155341500Y-87343000I0J50000D01*
G01*
X155341500Y-86393000D01*
G75*
G02*
X155391500Y-86343000I50000J0D01*
G01*
X156291500Y-86343000D01*
G75*
G02*
X156341500Y-86393000I0J-50000D01*
G01*
G37*
%TD*%
%TO.C,D12*%
G36*
G01*
X180979500Y-86393000D02*
X180979500Y-87343000D01*
G75*
G02*
X180929500Y-87393000I-50000J0D01*
G01*
X180029500Y-87393000D01*
G75*
G02*
X179979500Y-87343000I0J50000D01*
G01*
X179979500Y-86393000D01*
G75*
G02*
X180029500Y-86343000I50000J0D01*
G01*
X180929500Y-86343000D01*
G75*
G02*
X180979500Y-86393000I0J-50000D01*
G01*
G37*
G36*
G01*
X184129500Y-86393000D02*
X184129500Y-87343000D01*
G75*
G02*
X184079500Y-87393000I-50000J0D01*
G01*
X183179500Y-87393000D01*
G75*
G02*
X183129500Y-87343000I0J50000D01*
G01*
X183129500Y-86393000D01*
G75*
G02*
X183179500Y-86343000I50000J0D01*
G01*
X184079500Y-86343000D01*
G75*
G02*
X184129500Y-86393000I0J-50000D01*
G01*
G37*
%TD*%
%TO.C,D13*%
G36*
G01*
X203296500Y-83269000D02*
X204246500Y-83269000D01*
G75*
G02*
X204296500Y-83319000I0J-50000D01*
G01*
X204296500Y-84219000D01*
G75*
G02*
X204246500Y-84269000I-50000J0D01*
G01*
X203296500Y-84269000D01*
G75*
G02*
X203246500Y-84219000I0J50000D01*
G01*
X203246500Y-83319000D01*
G75*
G02*
X203296500Y-83269000I50000J0D01*
G01*
G37*
G36*
G01*
X203296500Y-86419000D02*
X204246500Y-86419000D01*
G75*
G02*
X204296500Y-86469000I0J-50000D01*
G01*
X204296500Y-87369000D01*
G75*
G02*
X204246500Y-87419000I-50000J0D01*
G01*
X203296500Y-87419000D01*
G75*
G02*
X203246500Y-87369000I0J50000D01*
G01*
X203246500Y-86469000D01*
G75*
G02*
X203296500Y-86419000I50000J0D01*
G01*
G37*
%TD*%
%TO.C,D14*%
G36*
G01*
X225267500Y-93023000D02*
X226217500Y-93023000D01*
G75*
G02*
X226267500Y-93073000I0J-50000D01*
G01*
X226267500Y-93973000D01*
G75*
G02*
X226217500Y-94023000I-50000J0D01*
G01*
X225267500Y-94023000D01*
G75*
G02*
X225217500Y-93973000I0J50000D01*
G01*
X225217500Y-93073000D01*
G75*
G02*
X225267500Y-93023000I50000J0D01*
G01*
G37*
G36*
G01*
X225267500Y-89873000D02*
X226217500Y-89873000D01*
G75*
G02*
X226267500Y-89923000I0J-50000D01*
G01*
X226267500Y-90823000D01*
G75*
G02*
X226217500Y-90873000I-50000J0D01*
G01*
X225267500Y-90873000D01*
G75*
G02*
X225217500Y-90823000I0J50000D01*
G01*
X225217500Y-89923000D01*
G75*
G02*
X225267500Y-89873000I50000J0D01*
G01*
G37*
%TD*%
%TO.C,D15*%
G36*
G01*
X107065500Y-111031000D02*
X107065500Y-111981000D01*
G75*
G02*
X107015500Y-112031000I-50000J0D01*
G01*
X106115500Y-112031000D01*
G75*
G02*
X106065500Y-111981000I0J50000D01*
G01*
X106065500Y-111031000D01*
G75*
G02*
X106115500Y-110981000I50000J0D01*
G01*
X107015500Y-110981000D01*
G75*
G02*
X107065500Y-111031000I0J-50000D01*
G01*
G37*
G36*
G01*
X110215500Y-111031000D02*
X110215500Y-111981000D01*
G75*
G02*
X110165500Y-112031000I-50000J0D01*
G01*
X109265500Y-112031000D01*
G75*
G02*
X109215500Y-111981000I0J50000D01*
G01*
X109215500Y-111031000D01*
G75*
G02*
X109265500Y-110981000I50000J0D01*
G01*
X110165500Y-110981000D01*
G75*
G02*
X110215500Y-111031000I0J-50000D01*
G01*
G37*
%TD*%
%TO.C,D17*%
G36*
G01*
X159491500Y-111031000D02*
X159491500Y-111981000D01*
G75*
G02*
X159441500Y-112031000I-50000J0D01*
G01*
X158541500Y-112031000D01*
G75*
G02*
X158491500Y-111981000I0J50000D01*
G01*
X158491500Y-111031000D01*
G75*
G02*
X158541500Y-110981000I50000J0D01*
G01*
X159441500Y-110981000D01*
G75*
G02*
X159491500Y-111031000I0J-50000D01*
G01*
G37*
G36*
G01*
X156341500Y-111031000D02*
X156341500Y-111981000D01*
G75*
G02*
X156291500Y-112031000I-50000J0D01*
G01*
X155391500Y-112031000D01*
G75*
G02*
X155341500Y-111981000I0J50000D01*
G01*
X155341500Y-111031000D01*
G75*
G02*
X155391500Y-110981000I50000J0D01*
G01*
X156291500Y-110981000D01*
G75*
G02*
X156341500Y-111031000I0J-50000D01*
G01*
G37*
%TD*%
%TO.C,D18*%
G36*
G01*
X184129500Y-111031000D02*
X184129500Y-111981000D01*
G75*
G02*
X184079500Y-112031000I-50000J0D01*
G01*
X183179500Y-112031000D01*
G75*
G02*
X183129500Y-111981000I0J50000D01*
G01*
X183129500Y-111031000D01*
G75*
G02*
X183179500Y-110981000I50000J0D01*
G01*
X184079500Y-110981000D01*
G75*
G02*
X184129500Y-111031000I0J-50000D01*
G01*
G37*
G36*
G01*
X180979500Y-111031000D02*
X180979500Y-111981000D01*
G75*
G02*
X180929500Y-112031000I-50000J0D01*
G01*
X180029500Y-112031000D01*
G75*
G02*
X179979500Y-111981000I0J50000D01*
G01*
X179979500Y-111031000D01*
G75*
G02*
X180029500Y-110981000I50000J0D01*
G01*
X180929500Y-110981000D01*
G75*
G02*
X180979500Y-111031000I0J-50000D01*
G01*
G37*
%TD*%
%TO.C,D19*%
G36*
G01*
X203423500Y-107907000D02*
X204373500Y-107907000D01*
G75*
G02*
X204423500Y-107957000I0J-50000D01*
G01*
X204423500Y-108857000D01*
G75*
G02*
X204373500Y-108907000I-50000J0D01*
G01*
X203423500Y-108907000D01*
G75*
G02*
X203373500Y-108857000I0J50000D01*
G01*
X203373500Y-107957000D01*
G75*
G02*
X203423500Y-107907000I50000J0D01*
G01*
G37*
G36*
G01*
X203423500Y-111057000D02*
X204373500Y-111057000D01*
G75*
G02*
X204423500Y-111107000I0J-50000D01*
G01*
X204423500Y-112007000D01*
G75*
G02*
X204373500Y-112057000I-50000J0D01*
G01*
X203423500Y-112057000D01*
G75*
G02*
X203373500Y-112007000I0J50000D01*
G01*
X203373500Y-111107000D01*
G75*
G02*
X203423500Y-111057000I50000J0D01*
G01*
G37*
%TD*%
%TO.C,J1*%
G36*
G01*
X161124000Y-104532000D02*
X159424000Y-104532000D01*
G75*
G02*
X159374000Y-104482000I0J50000D01*
G01*
X159374000Y-102782000D01*
G75*
G02*
X159424000Y-102732000I50000J0D01*
G01*
X161124000Y-102732000D01*
G75*
G02*
X161174000Y-102782000I0J-50000D01*
G01*
X161174000Y-104482000D01*
G75*
G02*
X161124000Y-104532000I-50000J0D01*
G01*
G37*
D14*
X157734000Y-103632000D03*
X155194000Y-103632000D03*
X152654000Y-103632000D03*
%TD*%
D15*
%TO.C,J2*%
X129076500Y-102203000D03*
X136226500Y-102203000D03*
D16*
X131351500Y-101983000D03*
X132001500Y-102983000D03*
X132651500Y-101983000D03*
X133301500Y-102983000D03*
X133951500Y-101983000D03*
%TD*%
M02*
