%TF.GenerationSoftware,KiCad,Pcbnew,(5.1.9)-1*%
%TF.CreationDate,2021-03-29T17:32:38-04:00*%
%TF.ProjectId,DSKY_keyboard,44534b59-5f6b-4657-9962-6f6172642e6b,2.0*%
%TF.SameCoordinates,Original*%
%TF.FileFunction,Paste,Top*%
%TF.FilePolarity,Positive*%
%FSLAX46Y46*%
G04 Gerber Fmt 4.6, Leading zero omitted, Abs format (unit mm)*
G04 Created by KiCad (PCBNEW (5.1.9)-1) date 2021-03-29 17:32:38*
%MOMM*%
%LPD*%
G01*
G04 APERTURE LIST*
%ADD10R,0.900000X0.950000*%
G04 APERTURE END LIST*
D10*
%TO.C,D16*%
X131203500Y-111506000D03*
X134353500Y-111506000D03*
%TD*%
%TO.C,D8*%
X64782500Y-94107000D03*
X67932500Y-94107000D03*
%TD*%
%TO.C,D1*%
X67932500Y-71120000D03*
X64782500Y-71120000D03*
%TD*%
%TO.C,D2*%
X106565500Y-62230000D03*
X109715500Y-62230000D03*
%TD*%
%TO.C,D3*%
X134226500Y-62230000D03*
X131076500Y-62230000D03*
%TD*%
%TO.C,D4*%
X155841500Y-62230000D03*
X158991500Y-62230000D03*
%TD*%
%TO.C,D5*%
X183629500Y-62230000D03*
X180479500Y-62230000D03*
%TD*%
%TO.C,D6*%
X208267500Y-72517000D03*
X205117500Y-72517000D03*
%TD*%
%TO.C,D7*%
X222643500Y-71120000D03*
X225793500Y-71120000D03*
%TD*%
%TO.C,D9*%
X109715500Y-86868000D03*
X106565500Y-86868000D03*
%TD*%
%TO.C,D10*%
X131203500Y-86868000D03*
X134353500Y-86868000D03*
%TD*%
%TO.C,D11*%
X158991500Y-86868000D03*
X155841500Y-86868000D03*
%TD*%
%TO.C,D12*%
X180479500Y-86868000D03*
X183629500Y-86868000D03*
%TD*%
%TO.C,D13*%
X208267500Y-86868000D03*
X205117500Y-86868000D03*
%TD*%
%TO.C,D14*%
X222580000Y-94170500D03*
X225730000Y-94170500D03*
%TD*%
%TO.C,D15*%
X106565500Y-111506000D03*
X109715500Y-111506000D03*
%TD*%
%TO.C,D17*%
X158991500Y-111506000D03*
X155841500Y-111506000D03*
%TD*%
%TO.C,D18*%
X183629500Y-111506000D03*
X180479500Y-111506000D03*
%TD*%
%TO.C,D19*%
X208331000Y-111569500D03*
X205181000Y-111569500D03*
%TD*%
M02*
