%TF.GenerationSoftware,KiCad,Pcbnew,(5.1.9)-1*%
%TF.CreationDate,2021-03-29T17:32:38-04:00*%
%TF.ProjectId,DSKY_keyboard,44534b59-5f6b-4657-9962-6f6172642e6b,2.0*%
%TF.SameCoordinates,Original*%
%TF.FileFunction,Legend,Bot*%
%TF.FilePolarity,Positive*%
%FSLAX46Y46*%
G04 Gerber Fmt 4.6, Leading zero omitted, Abs format (unit mm)*
G04 Created by KiCad (PCBNEW (5.1.9)-1) date 2021-03-29 17:32:38*
%MOMM*%
%LPD*%
G01*
G04 APERTURE LIST*
%ADD10C,0.150000*%
%ADD11C,0.010000*%
%ADD12C,0.152400*%
%ADD13C,0.120000*%
%ADD14C,0.203200*%
%ADD15C,0.100000*%
%ADD16C,0.127000*%
%ADD17C,0.304800*%
%ADD18C,0.200000*%
%ADD19C,0.138988*%
G04 APERTURE END LIST*
D10*
X117988714Y-106210142D02*
X117988714Y-105310142D01*
X117774428Y-105310142D01*
X117645857Y-105353000D01*
X117560142Y-105438714D01*
X117517285Y-105524428D01*
X117474428Y-105695857D01*
X117474428Y-105824428D01*
X117517285Y-105995857D01*
X117560142Y-106081571D01*
X117645857Y-106167285D01*
X117774428Y-106210142D01*
X117988714Y-106210142D01*
X117131571Y-106167285D02*
X117003000Y-106210142D01*
X116788714Y-106210142D01*
X116703000Y-106167285D01*
X116660142Y-106124428D01*
X116617285Y-106038714D01*
X116617285Y-105953000D01*
X116660142Y-105867285D01*
X116703000Y-105824428D01*
X116788714Y-105781571D01*
X116960142Y-105738714D01*
X117045857Y-105695857D01*
X117088714Y-105653000D01*
X117131571Y-105567285D01*
X117131571Y-105481571D01*
X117088714Y-105395857D01*
X117045857Y-105353000D01*
X116960142Y-105310142D01*
X116745857Y-105310142D01*
X116617285Y-105353000D01*
X116231571Y-106210142D02*
X116231571Y-105310142D01*
X115717285Y-106210142D02*
X116103000Y-105695857D01*
X115717285Y-105310142D02*
X116231571Y-105824428D01*
X115160142Y-105781571D02*
X115160142Y-106210142D01*
X115460142Y-105310142D02*
X115160142Y-105781571D01*
X114860142Y-105310142D01*
X113874428Y-106210142D02*
X113874428Y-105310142D01*
X113360142Y-106210142D02*
X113745857Y-105695857D01*
X113360142Y-105310142D02*
X113874428Y-105824428D01*
X112631571Y-106167285D02*
X112717285Y-106210142D01*
X112888714Y-106210142D01*
X112974428Y-106167285D01*
X113017285Y-106081571D01*
X113017285Y-105738714D01*
X112974428Y-105653000D01*
X112888714Y-105610142D01*
X112717285Y-105610142D01*
X112631571Y-105653000D01*
X112588714Y-105738714D01*
X112588714Y-105824428D01*
X113017285Y-105910142D01*
X112288714Y-105610142D02*
X112074428Y-106210142D01*
X111860142Y-105610142D02*
X112074428Y-106210142D01*
X112160142Y-106424428D01*
X112203000Y-106467285D01*
X112288714Y-106510142D01*
X111517285Y-106210142D02*
X111517285Y-105310142D01*
X111517285Y-105653000D02*
X111431571Y-105610142D01*
X111260142Y-105610142D01*
X111174428Y-105653000D01*
X111131571Y-105695857D01*
X111088714Y-105781571D01*
X111088714Y-106038714D01*
X111131571Y-106124428D01*
X111174428Y-106167285D01*
X111260142Y-106210142D01*
X111431571Y-106210142D01*
X111517285Y-106167285D01*
X110574428Y-106210142D02*
X110660142Y-106167285D01*
X110703000Y-106124428D01*
X110745857Y-106038714D01*
X110745857Y-105781571D01*
X110703000Y-105695857D01*
X110660142Y-105653000D01*
X110574428Y-105610142D01*
X110445857Y-105610142D01*
X110360142Y-105653000D01*
X110317285Y-105695857D01*
X110274428Y-105781571D01*
X110274428Y-106038714D01*
X110317285Y-106124428D01*
X110360142Y-106167285D01*
X110445857Y-106210142D01*
X110574428Y-106210142D01*
X109503000Y-106210142D02*
X109503000Y-105738714D01*
X109545857Y-105653000D01*
X109631571Y-105610142D01*
X109803000Y-105610142D01*
X109888714Y-105653000D01*
X109503000Y-106167285D02*
X109588714Y-106210142D01*
X109803000Y-106210142D01*
X109888714Y-106167285D01*
X109931571Y-106081571D01*
X109931571Y-105995857D01*
X109888714Y-105910142D01*
X109803000Y-105867285D01*
X109588714Y-105867285D01*
X109503000Y-105824428D01*
X109074428Y-106210142D02*
X109074428Y-105610142D01*
X109074428Y-105781571D02*
X109031571Y-105695857D01*
X108988714Y-105653000D01*
X108903000Y-105610142D01*
X108817285Y-105610142D01*
X108131571Y-106210142D02*
X108131571Y-105310142D01*
X108131571Y-106167285D02*
X108217285Y-106210142D01*
X108388714Y-106210142D01*
X108474428Y-106167285D01*
X108517285Y-106124428D01*
X108560142Y-106038714D01*
X108560142Y-105781571D01*
X108517285Y-105695857D01*
X108474428Y-105653000D01*
X108388714Y-105610142D01*
X108217285Y-105610142D01*
X108131571Y-105653000D01*
X106760142Y-106553000D02*
X106803000Y-106510142D01*
X106888714Y-106381571D01*
X106931571Y-106295857D01*
X106974428Y-106167285D01*
X107017285Y-105953000D01*
X107017285Y-105781571D01*
X106974428Y-105567285D01*
X106931571Y-105438714D01*
X106888714Y-105353000D01*
X106803000Y-105224428D01*
X106760142Y-105181571D01*
X105903000Y-106124428D02*
X105945857Y-106167285D01*
X106074428Y-106210142D01*
X106160142Y-106210142D01*
X106288714Y-106167285D01*
X106374428Y-106081571D01*
X106417285Y-105995857D01*
X106460142Y-105824428D01*
X106460142Y-105695857D01*
X106417285Y-105524428D01*
X106374428Y-105438714D01*
X106288714Y-105353000D01*
X106160142Y-105310142D01*
X106074428Y-105310142D01*
X105945857Y-105353000D01*
X105903000Y-105395857D01*
X105517285Y-106210142D02*
X105517285Y-105310142D01*
X105131571Y-106210142D02*
X105131571Y-105738714D01*
X105174428Y-105653000D01*
X105260142Y-105610142D01*
X105388714Y-105610142D01*
X105474428Y-105653000D01*
X105517285Y-105695857D01*
X104360142Y-106167285D02*
X104445857Y-106210142D01*
X104617285Y-106210142D01*
X104703000Y-106167285D01*
X104745857Y-106081571D01*
X104745857Y-105738714D01*
X104703000Y-105653000D01*
X104617285Y-105610142D01*
X104445857Y-105610142D01*
X104360142Y-105653000D01*
X104317285Y-105738714D01*
X104317285Y-105824428D01*
X104745857Y-105910142D01*
X103931571Y-106210142D02*
X103931571Y-105610142D01*
X103931571Y-105781571D02*
X103888714Y-105695857D01*
X103845857Y-105653000D01*
X103760142Y-105610142D01*
X103674428Y-105610142D01*
X103374428Y-106210142D02*
X103374428Y-105610142D01*
X103374428Y-105781571D02*
X103331571Y-105695857D01*
X103288714Y-105653000D01*
X103203000Y-105610142D01*
X103117285Y-105610142D01*
X102903000Y-105610142D02*
X102688714Y-106210142D01*
X102474428Y-105610142D02*
X102688714Y-106210142D01*
X102774428Y-106424428D01*
X102817285Y-106467285D01*
X102903000Y-106510142D01*
X101445857Y-106210142D02*
X101445857Y-105310142D01*
X101145857Y-105953000D01*
X100845857Y-105310142D01*
X100845857Y-106210142D01*
X100503000Y-105310142D02*
X99903000Y-106210142D01*
X99903000Y-105310142D02*
X100503000Y-106210142D01*
X99645857Y-106553000D02*
X99603000Y-106510142D01*
X99517285Y-106381571D01*
X99474428Y-106295857D01*
X99431571Y-106167285D01*
X99388714Y-105953000D01*
X99388714Y-105781571D01*
X99431571Y-105567285D01*
X99474428Y-105438714D01*
X99517285Y-105353000D01*
X99603000Y-105224428D01*
X99645857Y-105181571D01*
X98403000Y-105310142D02*
X98103000Y-106210142D01*
X97803000Y-105310142D01*
X97545857Y-105395857D02*
X97503000Y-105353000D01*
X97417285Y-105310142D01*
X97203000Y-105310142D01*
X97117285Y-105353000D01*
X97074428Y-105395857D01*
X97031571Y-105481571D01*
X97031571Y-105567285D01*
X97074428Y-105695857D01*
X97588714Y-106210142D01*
X97031571Y-106210142D01*
X117988714Y-107710142D02*
X117988714Y-106810142D01*
X117774428Y-106810142D01*
X117645857Y-106853000D01*
X117560142Y-106938714D01*
X117517285Y-107024428D01*
X117474428Y-107195857D01*
X117474428Y-107324428D01*
X117517285Y-107495857D01*
X117560142Y-107581571D01*
X117645857Y-107667285D01*
X117774428Y-107710142D01*
X117988714Y-107710142D01*
X116745857Y-107667285D02*
X116831571Y-107710142D01*
X117003000Y-107710142D01*
X117088714Y-107667285D01*
X117131571Y-107581571D01*
X117131571Y-107238714D01*
X117088714Y-107153000D01*
X117003000Y-107110142D01*
X116831571Y-107110142D01*
X116745857Y-107153000D01*
X116703000Y-107238714D01*
X116703000Y-107324428D01*
X117131571Y-107410142D01*
X116360142Y-107667285D02*
X116274428Y-107710142D01*
X116103000Y-107710142D01*
X116017285Y-107667285D01*
X115974428Y-107581571D01*
X115974428Y-107538714D01*
X116017285Y-107453000D01*
X116103000Y-107410142D01*
X116231571Y-107410142D01*
X116317285Y-107367285D01*
X116360142Y-107281571D01*
X116360142Y-107238714D01*
X116317285Y-107153000D01*
X116231571Y-107110142D01*
X116103000Y-107110142D01*
X116017285Y-107153000D01*
X115588714Y-107710142D02*
X115588714Y-107110142D01*
X115588714Y-106810142D02*
X115631571Y-106853000D01*
X115588714Y-106895857D01*
X115545857Y-106853000D01*
X115588714Y-106810142D01*
X115588714Y-106895857D01*
X114774428Y-107110142D02*
X114774428Y-107838714D01*
X114817285Y-107924428D01*
X114860142Y-107967285D01*
X114945857Y-108010142D01*
X115074428Y-108010142D01*
X115160142Y-107967285D01*
X114774428Y-107667285D02*
X114860142Y-107710142D01*
X115031571Y-107710142D01*
X115117285Y-107667285D01*
X115160142Y-107624428D01*
X115203000Y-107538714D01*
X115203000Y-107281571D01*
X115160142Y-107195857D01*
X115117285Y-107153000D01*
X115031571Y-107110142D01*
X114860142Y-107110142D01*
X114774428Y-107153000D01*
X114345857Y-107110142D02*
X114345857Y-107710142D01*
X114345857Y-107195857D02*
X114303000Y-107153000D01*
X114217285Y-107110142D01*
X114088714Y-107110142D01*
X114003000Y-107153000D01*
X113960142Y-107238714D01*
X113960142Y-107710142D01*
X113188714Y-107667285D02*
X113274428Y-107710142D01*
X113445857Y-107710142D01*
X113531571Y-107667285D01*
X113574428Y-107581571D01*
X113574428Y-107238714D01*
X113531571Y-107153000D01*
X113445857Y-107110142D01*
X113274428Y-107110142D01*
X113188714Y-107153000D01*
X113145857Y-107238714D01*
X113145857Y-107324428D01*
X113574428Y-107410142D01*
X112374428Y-107710142D02*
X112374428Y-106810142D01*
X112374428Y-107667285D02*
X112460142Y-107710142D01*
X112631571Y-107710142D01*
X112717285Y-107667285D01*
X112760142Y-107624428D01*
X112803000Y-107538714D01*
X112803000Y-107281571D01*
X112760142Y-107195857D01*
X112717285Y-107153000D01*
X112631571Y-107110142D01*
X112460142Y-107110142D01*
X112374428Y-107153000D01*
X111260142Y-107710142D02*
X111260142Y-106810142D01*
X111260142Y-107153000D02*
X111174428Y-107110142D01*
X111003000Y-107110142D01*
X110917285Y-107153000D01*
X110874428Y-107195857D01*
X110831571Y-107281571D01*
X110831571Y-107538714D01*
X110874428Y-107624428D01*
X110917285Y-107667285D01*
X111003000Y-107710142D01*
X111174428Y-107710142D01*
X111260142Y-107667285D01*
X110531571Y-107110142D02*
X110317285Y-107710142D01*
X110103000Y-107110142D02*
X110317285Y-107710142D01*
X110403000Y-107924428D01*
X110445857Y-107967285D01*
X110531571Y-108010142D01*
X109203000Y-106810142D02*
X108903000Y-107710142D01*
X108603000Y-106810142D01*
X108174428Y-107710142D02*
X108260142Y-107667285D01*
X108303000Y-107581571D01*
X108303000Y-106810142D01*
X107445857Y-107710142D02*
X107445857Y-107238714D01*
X107488714Y-107153000D01*
X107574428Y-107110142D01*
X107745857Y-107110142D01*
X107831571Y-107153000D01*
X107445857Y-107667285D02*
X107531571Y-107710142D01*
X107745857Y-107710142D01*
X107831571Y-107667285D01*
X107874428Y-107581571D01*
X107874428Y-107495857D01*
X107831571Y-107410142D01*
X107745857Y-107367285D01*
X107531571Y-107367285D01*
X107445857Y-107324428D01*
X106631571Y-107710142D02*
X106631571Y-106810142D01*
X106631571Y-107667285D02*
X106717285Y-107710142D01*
X106888714Y-107710142D01*
X106974428Y-107667285D01*
X107017285Y-107624428D01*
X107060142Y-107538714D01*
X107060142Y-107281571D01*
X107017285Y-107195857D01*
X106974428Y-107153000D01*
X106888714Y-107110142D01*
X106717285Y-107110142D01*
X106631571Y-107153000D01*
X105517285Y-107710142D02*
X105517285Y-106810142D01*
X105217285Y-107453000D01*
X104917285Y-106810142D01*
X104917285Y-107710142D01*
X104488714Y-107710142D02*
X104488714Y-107110142D01*
X104488714Y-106810142D02*
X104531571Y-106853000D01*
X104488714Y-106895857D01*
X104445857Y-106853000D01*
X104488714Y-106810142D01*
X104488714Y-106895857D01*
X104060142Y-107710142D02*
X104060142Y-106810142D01*
X103674428Y-107710142D02*
X103674428Y-107238714D01*
X103717285Y-107153000D01*
X103803000Y-107110142D01*
X103931571Y-107110142D01*
X104017285Y-107153000D01*
X104060142Y-107195857D01*
X102860142Y-107710142D02*
X102860142Y-107238714D01*
X102903000Y-107153000D01*
X102988714Y-107110142D01*
X103160142Y-107110142D01*
X103245857Y-107153000D01*
X102860142Y-107667285D02*
X102945857Y-107710142D01*
X103160142Y-107710142D01*
X103245857Y-107667285D01*
X103288714Y-107581571D01*
X103288714Y-107495857D01*
X103245857Y-107410142D01*
X103160142Y-107367285D01*
X102945857Y-107367285D01*
X102860142Y-107324428D01*
X102431571Y-107710142D02*
X102431571Y-107110142D01*
X102431571Y-106810142D02*
X102474428Y-106853000D01*
X102431571Y-106895857D01*
X102388714Y-106853000D01*
X102431571Y-106810142D01*
X102431571Y-106895857D01*
X101874428Y-107710142D02*
X101960142Y-107667285D01*
X102003000Y-107581571D01*
X102003000Y-106810142D01*
X101188714Y-107667285D02*
X101274428Y-107710142D01*
X101445857Y-107710142D01*
X101531571Y-107667285D01*
X101574428Y-107581571D01*
X101574428Y-107238714D01*
X101531571Y-107153000D01*
X101445857Y-107110142D01*
X101274428Y-107110142D01*
X101188714Y-107153000D01*
X101145857Y-107238714D01*
X101145857Y-107324428D01*
X101574428Y-107410142D01*
X100803000Y-107667285D02*
X100717285Y-107710142D01*
X100545857Y-107710142D01*
X100460142Y-107667285D01*
X100417285Y-107581571D01*
X100417285Y-107538714D01*
X100460142Y-107453000D01*
X100545857Y-107410142D01*
X100674428Y-107410142D01*
X100760142Y-107367285D01*
X100803000Y-107281571D01*
X100803000Y-107238714D01*
X100760142Y-107153000D01*
X100674428Y-107110142D01*
X100545857Y-107110142D01*
X100460142Y-107153000D01*
X99645857Y-107667285D02*
X99731571Y-107710142D01*
X99903000Y-107710142D01*
X99988714Y-107667285D01*
X100031571Y-107624428D01*
X100074428Y-107538714D01*
X100074428Y-107281571D01*
X100031571Y-107195857D01*
X99988714Y-107153000D01*
X99903000Y-107110142D01*
X99731571Y-107110142D01*
X99645857Y-107153000D01*
X98874428Y-107110142D02*
X98874428Y-107710142D01*
X99260142Y-107110142D02*
X99260142Y-107581571D01*
X99217285Y-107667285D01*
X99131571Y-107710142D01*
X99003000Y-107710142D01*
X98917285Y-107667285D01*
X98874428Y-107624428D01*
X156104714Y-105904071D02*
X155997571Y-105939785D01*
X155819000Y-105939785D01*
X155747571Y-105904071D01*
X155711857Y-105868357D01*
X155676142Y-105796928D01*
X155676142Y-105725500D01*
X155711857Y-105654071D01*
X155747571Y-105618357D01*
X155819000Y-105582642D01*
X155961857Y-105546928D01*
X156033285Y-105511214D01*
X156069000Y-105475500D01*
X156104714Y-105404071D01*
X156104714Y-105332642D01*
X156069000Y-105261214D01*
X156033285Y-105225500D01*
X155961857Y-105189785D01*
X155783285Y-105189785D01*
X155676142Y-105225500D01*
X155354714Y-105939785D02*
X155354714Y-105189785D01*
X155176142Y-105189785D01*
X155069000Y-105225500D01*
X154997571Y-105296928D01*
X154961857Y-105368357D01*
X154926142Y-105511214D01*
X154926142Y-105618357D01*
X154961857Y-105761214D01*
X154997571Y-105832642D01*
X155069000Y-105904071D01*
X155176142Y-105939785D01*
X155354714Y-105939785D01*
X154640428Y-105725500D02*
X154283285Y-105725500D01*
X154711857Y-105939785D02*
X154461857Y-105189785D01*
X154211857Y-105939785D01*
X153483357Y-105904071D02*
X153376214Y-105939785D01*
X153197642Y-105939785D01*
X153126214Y-105904071D01*
X153090500Y-105868357D01*
X153054785Y-105796928D01*
X153054785Y-105725500D01*
X153090500Y-105654071D01*
X153126214Y-105618357D01*
X153197642Y-105582642D01*
X153340500Y-105546928D01*
X153411928Y-105511214D01*
X153447642Y-105475500D01*
X153483357Y-105404071D01*
X153483357Y-105332642D01*
X153447642Y-105261214D01*
X153411928Y-105225500D01*
X153340500Y-105189785D01*
X153161928Y-105189785D01*
X153054785Y-105225500D01*
X152304785Y-105868357D02*
X152340500Y-105904071D01*
X152447642Y-105939785D01*
X152519071Y-105939785D01*
X152626214Y-105904071D01*
X152697642Y-105832642D01*
X152733357Y-105761214D01*
X152769071Y-105618357D01*
X152769071Y-105511214D01*
X152733357Y-105368357D01*
X152697642Y-105296928D01*
X152626214Y-105225500D01*
X152519071Y-105189785D01*
X152447642Y-105189785D01*
X152340500Y-105225500D01*
X152304785Y-105261214D01*
X151626214Y-105939785D02*
X151983357Y-105939785D01*
X151983357Y-105189785D01*
X158305428Y-105225500D02*
X158376857Y-105189785D01*
X158484000Y-105189785D01*
X158591142Y-105225500D01*
X158662571Y-105296928D01*
X158698285Y-105368357D01*
X158734000Y-105511214D01*
X158734000Y-105618357D01*
X158698285Y-105761214D01*
X158662571Y-105832642D01*
X158591142Y-105904071D01*
X158484000Y-105939785D01*
X158412571Y-105939785D01*
X158305428Y-105904071D01*
X158269714Y-105868357D01*
X158269714Y-105618357D01*
X158412571Y-105618357D01*
X157948285Y-105939785D02*
X157948285Y-105189785D01*
X157519714Y-105939785D01*
X157519714Y-105189785D01*
X157162571Y-105939785D02*
X157162571Y-105189785D01*
X156984000Y-105189785D01*
X156876857Y-105225500D01*
X156805428Y-105296928D01*
X156769714Y-105368357D01*
X156734000Y-105511214D01*
X156734000Y-105618357D01*
X156769714Y-105761214D01*
X156805428Y-105832642D01*
X156876857Y-105904071D01*
X156984000Y-105939785D01*
X157162571Y-105939785D01*
X161135142Y-105654071D02*
X160563714Y-105654071D01*
X160849428Y-105939785D02*
X160849428Y-105368357D01*
X160313714Y-105189785D02*
X160063714Y-105939785D01*
X159813714Y-105189785D01*
D11*
%TO.C,REF\u002A\u002A*%
G36*
X108000622Y-96998776D02*
G01*
X107894888Y-96999355D01*
X107818368Y-97000922D01*
X107766128Y-97003972D01*
X107733237Y-97008996D01*
X107714763Y-97016489D01*
X107705773Y-97026944D01*
X107701337Y-97040853D01*
X107700906Y-97042654D01*
X107694167Y-97075145D01*
X107681692Y-97139252D01*
X107664781Y-97228151D01*
X107644729Y-97335019D01*
X107622836Y-97453033D01*
X107622071Y-97457178D01*
X107600141Y-97572831D01*
X107579623Y-97675014D01*
X107561841Y-97757598D01*
X107548119Y-97814456D01*
X107539782Y-97839458D01*
X107539384Y-97839901D01*
X107514823Y-97852110D01*
X107464185Y-97872456D01*
X107398405Y-97896545D01*
X107398039Y-97896674D01*
X107315183Y-97927818D01*
X107217500Y-97967491D01*
X107125423Y-98007381D01*
X107121066Y-98009353D01*
X106971093Y-98077420D01*
X106639002Y-97850639D01*
X106537126Y-97781504D01*
X106444843Y-97719697D01*
X106367497Y-97668733D01*
X106310436Y-97632127D01*
X106279005Y-97613394D01*
X106276021Y-97612004D01*
X106253179Y-97618190D01*
X106210518Y-97648035D01*
X106146372Y-97702947D01*
X106059079Y-97784334D01*
X105969965Y-97870922D01*
X105884059Y-97956247D01*
X105807173Y-98034108D01*
X105743936Y-98099697D01*
X105698977Y-98148205D01*
X105676924Y-98174825D01*
X105676104Y-98176195D01*
X105673666Y-98194463D01*
X105682850Y-98224295D01*
X105705926Y-98269721D01*
X105745163Y-98334770D01*
X105802830Y-98423470D01*
X105879705Y-98537657D01*
X105947930Y-98638162D01*
X106008918Y-98728303D01*
X106059144Y-98802849D01*
X106095084Y-98856565D01*
X106113213Y-98884218D01*
X106114354Y-98886095D01*
X106112141Y-98912590D01*
X106095362Y-98964086D01*
X106067358Y-99030851D01*
X106057378Y-99052172D01*
X106013828Y-99147159D01*
X105967366Y-99254937D01*
X105929623Y-99348192D01*
X105902427Y-99417406D01*
X105880825Y-99470006D01*
X105868342Y-99497497D01*
X105866791Y-99499616D01*
X105843832Y-99503124D01*
X105789714Y-99512738D01*
X105711632Y-99527089D01*
X105616781Y-99544807D01*
X105512357Y-99564525D01*
X105405556Y-99584874D01*
X105303574Y-99604486D01*
X105213606Y-99621991D01*
X105142847Y-99636022D01*
X105098494Y-99645209D01*
X105087615Y-99647807D01*
X105076378Y-99654218D01*
X105067895Y-99668697D01*
X105061786Y-99696133D01*
X105057668Y-99741411D01*
X105055159Y-99809420D01*
X105053879Y-99905047D01*
X105053446Y-100033180D01*
X105053423Y-100085701D01*
X105053423Y-100512845D01*
X105156000Y-100533091D01*
X105213069Y-100544070D01*
X105298231Y-100560095D01*
X105401128Y-100579233D01*
X105511404Y-100599551D01*
X105541885Y-100605132D01*
X105643645Y-100624917D01*
X105732295Y-100644373D01*
X105800392Y-100661697D01*
X105840496Y-100675088D01*
X105847177Y-100679079D01*
X105863581Y-100707342D01*
X105887101Y-100762109D01*
X105913184Y-100832588D01*
X105918358Y-100847769D01*
X105952544Y-100941896D01*
X105994977Y-101048101D01*
X106036503Y-101143473D01*
X106036708Y-101143916D01*
X106105860Y-101293525D01*
X105650988Y-101962617D01*
X105943000Y-102255116D01*
X106031320Y-102342170D01*
X106111875Y-102418909D01*
X106180140Y-102481237D01*
X106231592Y-102525056D01*
X106261706Y-102546270D01*
X106266026Y-102547616D01*
X106291389Y-102537016D01*
X106343142Y-102507547D01*
X106415632Y-102462705D01*
X106503206Y-102405984D01*
X106597888Y-102342462D01*
X106693984Y-102277668D01*
X106779663Y-102221287D01*
X106849484Y-102176788D01*
X106898006Y-102147639D01*
X106919718Y-102137308D01*
X106946207Y-102146050D01*
X106996438Y-102169087D01*
X107060049Y-102201631D01*
X107066792Y-102205249D01*
X107152454Y-102248210D01*
X107211194Y-102269279D01*
X107247728Y-102269503D01*
X107266769Y-102249928D01*
X107266880Y-102249654D01*
X107276398Y-102226472D01*
X107299097Y-102171441D01*
X107333218Y-102088822D01*
X107377000Y-101982872D01*
X107428684Y-101857852D01*
X107486508Y-101718020D01*
X107542509Y-101582637D01*
X107604053Y-101433234D01*
X107660561Y-101294832D01*
X107710339Y-101171673D01*
X107751694Y-101068002D01*
X107782932Y-100988059D01*
X107802359Y-100936088D01*
X107808346Y-100916692D01*
X107793332Y-100894443D01*
X107754061Y-100858982D01*
X107701693Y-100819887D01*
X107552559Y-100696245D01*
X107435989Y-100554522D01*
X107353382Y-100397704D01*
X107306134Y-100228775D01*
X107295643Y-100050722D01*
X107303269Y-99968539D01*
X107344818Y-99798031D01*
X107416377Y-99647459D01*
X107513505Y-99518309D01*
X107631766Y-99412064D01*
X107766720Y-99330210D01*
X107913929Y-99274232D01*
X108068956Y-99245615D01*
X108227361Y-99245844D01*
X108384706Y-99276405D01*
X108536554Y-99338782D01*
X108678465Y-99434460D01*
X108737697Y-99488572D01*
X108851297Y-99627520D01*
X108930394Y-99779361D01*
X108975514Y-99939667D01*
X108987184Y-100104012D01*
X108965931Y-100267971D01*
X108912280Y-100427118D01*
X108826760Y-100577025D01*
X108709895Y-100713267D01*
X108579307Y-100819887D01*
X108524912Y-100860642D01*
X108486486Y-100895718D01*
X108472654Y-100916726D01*
X108479897Y-100939635D01*
X108500495Y-100994365D01*
X108532754Y-101076672D01*
X108574979Y-101182315D01*
X108625477Y-101307050D01*
X108682552Y-101446636D01*
X108738646Y-101582670D01*
X108800533Y-101732201D01*
X108857856Y-101870767D01*
X108908856Y-101994107D01*
X108951773Y-102097964D01*
X108984847Y-102178080D01*
X109006319Y-102230195D01*
X109014275Y-102249654D01*
X109033071Y-102269423D01*
X109069426Y-102269365D01*
X109128021Y-102248441D01*
X109213532Y-102205613D01*
X109214208Y-102205249D01*
X109278593Y-102172012D01*
X109330639Y-102147802D01*
X109359988Y-102137404D01*
X109361283Y-102137308D01*
X109383376Y-102147855D01*
X109432152Y-102177184D01*
X109502169Y-102221827D01*
X109587986Y-102278314D01*
X109683112Y-102342462D01*
X109779960Y-102407411D01*
X109867247Y-102463896D01*
X109939319Y-102508421D01*
X109990523Y-102537490D01*
X110014974Y-102547616D01*
X110037490Y-102534307D01*
X110082758Y-102497112D01*
X110146256Y-102440128D01*
X110223461Y-102367449D01*
X110309849Y-102283171D01*
X110338101Y-102255016D01*
X110630213Y-101962416D01*
X110407869Y-101636104D01*
X110340298Y-101535897D01*
X110280993Y-101445963D01*
X110233283Y-101371510D01*
X110200493Y-101317751D01*
X110185952Y-101289894D01*
X110185526Y-101287912D01*
X110193192Y-101261655D01*
X110213811Y-101208837D01*
X110243815Y-101138310D01*
X110264875Y-101091093D01*
X110304252Y-101000694D01*
X110341335Y-100909366D01*
X110370085Y-100832200D01*
X110377895Y-100808692D01*
X110400083Y-100745916D01*
X110421773Y-100697411D01*
X110433687Y-100679079D01*
X110459977Y-100667859D01*
X110517358Y-100651954D01*
X110598382Y-100633167D01*
X110695605Y-100613299D01*
X110739115Y-100605132D01*
X110849604Y-100584829D01*
X110955584Y-100565170D01*
X111046699Y-100548088D01*
X111112592Y-100535518D01*
X111125000Y-100533091D01*
X111227577Y-100512845D01*
X111227577Y-100085701D01*
X111227347Y-99945246D01*
X111226401Y-99838979D01*
X111224359Y-99762013D01*
X111220838Y-99709460D01*
X111215457Y-99676433D01*
X111207834Y-99658045D01*
X111197588Y-99649408D01*
X111193385Y-99647807D01*
X111168030Y-99642127D01*
X111112016Y-99630795D01*
X111032536Y-99615179D01*
X110936788Y-99596647D01*
X110831967Y-99576569D01*
X110725268Y-99556312D01*
X110623887Y-99537246D01*
X110535021Y-99520739D01*
X110465863Y-99508159D01*
X110423611Y-99500875D01*
X110414210Y-99499616D01*
X110405693Y-99482763D01*
X110386840Y-99437870D01*
X110361176Y-99373430D01*
X110351377Y-99348192D01*
X110311852Y-99250686D01*
X110265308Y-99142959D01*
X110223623Y-99052172D01*
X110192950Y-98982753D01*
X110172544Y-98925710D01*
X110165732Y-98890777D01*
X110166818Y-98886095D01*
X110181215Y-98863991D01*
X110214088Y-98814831D01*
X110261910Y-98743848D01*
X110321152Y-98656278D01*
X110388285Y-98557357D01*
X110401559Y-98537830D01*
X110479454Y-98422140D01*
X110536713Y-98334044D01*
X110575619Y-98269486D01*
X110598456Y-98224411D01*
X110607506Y-98194763D01*
X110605052Y-98176485D01*
X110604989Y-98176369D01*
X110585673Y-98152361D01*
X110542949Y-98105947D01*
X110481449Y-98041937D01*
X110405802Y-97965145D01*
X110320639Y-97880382D01*
X110311035Y-97870922D01*
X110203710Y-97766989D01*
X110120885Y-97690675D01*
X110060895Y-97640571D01*
X110022077Y-97615270D01*
X110004980Y-97612004D01*
X109980027Y-97626250D01*
X109928245Y-97659156D01*
X109854980Y-97707208D01*
X109765580Y-97766890D01*
X109665389Y-97834688D01*
X109641999Y-97850639D01*
X109309907Y-98077420D01*
X109159935Y-98009353D01*
X109068730Y-97969685D01*
X108970831Y-97929791D01*
X108886669Y-97897983D01*
X108882962Y-97896674D01*
X108817131Y-97872576D01*
X108766384Y-97852200D01*
X108741658Y-97839936D01*
X108741616Y-97839901D01*
X108733771Y-97817734D01*
X108720434Y-97763217D01*
X108702930Y-97682480D01*
X108682583Y-97581650D01*
X108660718Y-97466856D01*
X108658929Y-97457178D01*
X108636996Y-97338904D01*
X108616860Y-97231542D01*
X108599820Y-97141917D01*
X108587172Y-97076851D01*
X108580216Y-97043168D01*
X108580094Y-97042654D01*
X108575861Y-97028325D01*
X108567629Y-97017507D01*
X108550467Y-97009706D01*
X108519442Y-97004429D01*
X108469622Y-97001182D01*
X108396076Y-96999472D01*
X108293871Y-96998807D01*
X108158075Y-96998693D01*
X108140500Y-96998692D01*
X108000622Y-96998776D01*
G37*
X108000622Y-96998776D02*
X107894888Y-96999355D01*
X107818368Y-97000922D01*
X107766128Y-97003972D01*
X107733237Y-97008996D01*
X107714763Y-97016489D01*
X107705773Y-97026944D01*
X107701337Y-97040853D01*
X107700906Y-97042654D01*
X107694167Y-97075145D01*
X107681692Y-97139252D01*
X107664781Y-97228151D01*
X107644729Y-97335019D01*
X107622836Y-97453033D01*
X107622071Y-97457178D01*
X107600141Y-97572831D01*
X107579623Y-97675014D01*
X107561841Y-97757598D01*
X107548119Y-97814456D01*
X107539782Y-97839458D01*
X107539384Y-97839901D01*
X107514823Y-97852110D01*
X107464185Y-97872456D01*
X107398405Y-97896545D01*
X107398039Y-97896674D01*
X107315183Y-97927818D01*
X107217500Y-97967491D01*
X107125423Y-98007381D01*
X107121066Y-98009353D01*
X106971093Y-98077420D01*
X106639002Y-97850639D01*
X106537126Y-97781504D01*
X106444843Y-97719697D01*
X106367497Y-97668733D01*
X106310436Y-97632127D01*
X106279005Y-97613394D01*
X106276021Y-97612004D01*
X106253179Y-97618190D01*
X106210518Y-97648035D01*
X106146372Y-97702947D01*
X106059079Y-97784334D01*
X105969965Y-97870922D01*
X105884059Y-97956247D01*
X105807173Y-98034108D01*
X105743936Y-98099697D01*
X105698977Y-98148205D01*
X105676924Y-98174825D01*
X105676104Y-98176195D01*
X105673666Y-98194463D01*
X105682850Y-98224295D01*
X105705926Y-98269721D01*
X105745163Y-98334770D01*
X105802830Y-98423470D01*
X105879705Y-98537657D01*
X105947930Y-98638162D01*
X106008918Y-98728303D01*
X106059144Y-98802849D01*
X106095084Y-98856565D01*
X106113213Y-98884218D01*
X106114354Y-98886095D01*
X106112141Y-98912590D01*
X106095362Y-98964086D01*
X106067358Y-99030851D01*
X106057378Y-99052172D01*
X106013828Y-99147159D01*
X105967366Y-99254937D01*
X105929623Y-99348192D01*
X105902427Y-99417406D01*
X105880825Y-99470006D01*
X105868342Y-99497497D01*
X105866791Y-99499616D01*
X105843832Y-99503124D01*
X105789714Y-99512738D01*
X105711632Y-99527089D01*
X105616781Y-99544807D01*
X105512357Y-99564525D01*
X105405556Y-99584874D01*
X105303574Y-99604486D01*
X105213606Y-99621991D01*
X105142847Y-99636022D01*
X105098494Y-99645209D01*
X105087615Y-99647807D01*
X105076378Y-99654218D01*
X105067895Y-99668697D01*
X105061786Y-99696133D01*
X105057668Y-99741411D01*
X105055159Y-99809420D01*
X105053879Y-99905047D01*
X105053446Y-100033180D01*
X105053423Y-100085701D01*
X105053423Y-100512845D01*
X105156000Y-100533091D01*
X105213069Y-100544070D01*
X105298231Y-100560095D01*
X105401128Y-100579233D01*
X105511404Y-100599551D01*
X105541885Y-100605132D01*
X105643645Y-100624917D01*
X105732295Y-100644373D01*
X105800392Y-100661697D01*
X105840496Y-100675088D01*
X105847177Y-100679079D01*
X105863581Y-100707342D01*
X105887101Y-100762109D01*
X105913184Y-100832588D01*
X105918358Y-100847769D01*
X105952544Y-100941896D01*
X105994977Y-101048101D01*
X106036503Y-101143473D01*
X106036708Y-101143916D01*
X106105860Y-101293525D01*
X105650988Y-101962617D01*
X105943000Y-102255116D01*
X106031320Y-102342170D01*
X106111875Y-102418909D01*
X106180140Y-102481237D01*
X106231592Y-102525056D01*
X106261706Y-102546270D01*
X106266026Y-102547616D01*
X106291389Y-102537016D01*
X106343142Y-102507547D01*
X106415632Y-102462705D01*
X106503206Y-102405984D01*
X106597888Y-102342462D01*
X106693984Y-102277668D01*
X106779663Y-102221287D01*
X106849484Y-102176788D01*
X106898006Y-102147639D01*
X106919718Y-102137308D01*
X106946207Y-102146050D01*
X106996438Y-102169087D01*
X107060049Y-102201631D01*
X107066792Y-102205249D01*
X107152454Y-102248210D01*
X107211194Y-102269279D01*
X107247728Y-102269503D01*
X107266769Y-102249928D01*
X107266880Y-102249654D01*
X107276398Y-102226472D01*
X107299097Y-102171441D01*
X107333218Y-102088822D01*
X107377000Y-101982872D01*
X107428684Y-101857852D01*
X107486508Y-101718020D01*
X107542509Y-101582637D01*
X107604053Y-101433234D01*
X107660561Y-101294832D01*
X107710339Y-101171673D01*
X107751694Y-101068002D01*
X107782932Y-100988059D01*
X107802359Y-100936088D01*
X107808346Y-100916692D01*
X107793332Y-100894443D01*
X107754061Y-100858982D01*
X107701693Y-100819887D01*
X107552559Y-100696245D01*
X107435989Y-100554522D01*
X107353382Y-100397704D01*
X107306134Y-100228775D01*
X107295643Y-100050722D01*
X107303269Y-99968539D01*
X107344818Y-99798031D01*
X107416377Y-99647459D01*
X107513505Y-99518309D01*
X107631766Y-99412064D01*
X107766720Y-99330210D01*
X107913929Y-99274232D01*
X108068956Y-99245615D01*
X108227361Y-99245844D01*
X108384706Y-99276405D01*
X108536554Y-99338782D01*
X108678465Y-99434460D01*
X108737697Y-99488572D01*
X108851297Y-99627520D01*
X108930394Y-99779361D01*
X108975514Y-99939667D01*
X108987184Y-100104012D01*
X108965931Y-100267971D01*
X108912280Y-100427118D01*
X108826760Y-100577025D01*
X108709895Y-100713267D01*
X108579307Y-100819887D01*
X108524912Y-100860642D01*
X108486486Y-100895718D01*
X108472654Y-100916726D01*
X108479897Y-100939635D01*
X108500495Y-100994365D01*
X108532754Y-101076672D01*
X108574979Y-101182315D01*
X108625477Y-101307050D01*
X108682552Y-101446636D01*
X108738646Y-101582670D01*
X108800533Y-101732201D01*
X108857856Y-101870767D01*
X108908856Y-101994107D01*
X108951773Y-102097964D01*
X108984847Y-102178080D01*
X109006319Y-102230195D01*
X109014275Y-102249654D01*
X109033071Y-102269423D01*
X109069426Y-102269365D01*
X109128021Y-102248441D01*
X109213532Y-102205613D01*
X109214208Y-102205249D01*
X109278593Y-102172012D01*
X109330639Y-102147802D01*
X109359988Y-102137404D01*
X109361283Y-102137308D01*
X109383376Y-102147855D01*
X109432152Y-102177184D01*
X109502169Y-102221827D01*
X109587986Y-102278314D01*
X109683112Y-102342462D01*
X109779960Y-102407411D01*
X109867247Y-102463896D01*
X109939319Y-102508421D01*
X109990523Y-102537490D01*
X110014974Y-102547616D01*
X110037490Y-102534307D01*
X110082758Y-102497112D01*
X110146256Y-102440128D01*
X110223461Y-102367449D01*
X110309849Y-102283171D01*
X110338101Y-102255016D01*
X110630213Y-101962416D01*
X110407869Y-101636104D01*
X110340298Y-101535897D01*
X110280993Y-101445963D01*
X110233283Y-101371510D01*
X110200493Y-101317751D01*
X110185952Y-101289894D01*
X110185526Y-101287912D01*
X110193192Y-101261655D01*
X110213811Y-101208837D01*
X110243815Y-101138310D01*
X110264875Y-101091093D01*
X110304252Y-101000694D01*
X110341335Y-100909366D01*
X110370085Y-100832200D01*
X110377895Y-100808692D01*
X110400083Y-100745916D01*
X110421773Y-100697411D01*
X110433687Y-100679079D01*
X110459977Y-100667859D01*
X110517358Y-100651954D01*
X110598382Y-100633167D01*
X110695605Y-100613299D01*
X110739115Y-100605132D01*
X110849604Y-100584829D01*
X110955584Y-100565170D01*
X111046699Y-100548088D01*
X111112592Y-100535518D01*
X111125000Y-100533091D01*
X111227577Y-100512845D01*
X111227577Y-100085701D01*
X111227347Y-99945246D01*
X111226401Y-99838979D01*
X111224359Y-99762013D01*
X111220838Y-99709460D01*
X111215457Y-99676433D01*
X111207834Y-99658045D01*
X111197588Y-99649408D01*
X111193385Y-99647807D01*
X111168030Y-99642127D01*
X111112016Y-99630795D01*
X111032536Y-99615179D01*
X110936788Y-99596647D01*
X110831967Y-99576569D01*
X110725268Y-99556312D01*
X110623887Y-99537246D01*
X110535021Y-99520739D01*
X110465863Y-99508159D01*
X110423611Y-99500875D01*
X110414210Y-99499616D01*
X110405693Y-99482763D01*
X110386840Y-99437870D01*
X110361176Y-99373430D01*
X110351377Y-99348192D01*
X110311852Y-99250686D01*
X110265308Y-99142959D01*
X110223623Y-99052172D01*
X110192950Y-98982753D01*
X110172544Y-98925710D01*
X110165732Y-98890777D01*
X110166818Y-98886095D01*
X110181215Y-98863991D01*
X110214088Y-98814831D01*
X110261910Y-98743848D01*
X110321152Y-98656278D01*
X110388285Y-98557357D01*
X110401559Y-98537830D01*
X110479454Y-98422140D01*
X110536713Y-98334044D01*
X110575619Y-98269486D01*
X110598456Y-98224411D01*
X110607506Y-98194763D01*
X110605052Y-98176485D01*
X110604989Y-98176369D01*
X110585673Y-98152361D01*
X110542949Y-98105947D01*
X110481449Y-98041937D01*
X110405802Y-97965145D01*
X110320639Y-97880382D01*
X110311035Y-97870922D01*
X110203710Y-97766989D01*
X110120885Y-97690675D01*
X110060895Y-97640571D01*
X110022077Y-97615270D01*
X110004980Y-97612004D01*
X109980027Y-97626250D01*
X109928245Y-97659156D01*
X109854980Y-97707208D01*
X109765580Y-97766890D01*
X109665389Y-97834688D01*
X109641999Y-97850639D01*
X109309907Y-98077420D01*
X109159935Y-98009353D01*
X109068730Y-97969685D01*
X108970831Y-97929791D01*
X108886669Y-97897983D01*
X108882962Y-97896674D01*
X108817131Y-97872576D01*
X108766384Y-97852200D01*
X108741658Y-97839936D01*
X108741616Y-97839901D01*
X108733771Y-97817734D01*
X108720434Y-97763217D01*
X108702930Y-97682480D01*
X108682583Y-97581650D01*
X108660718Y-97466856D01*
X108658929Y-97457178D01*
X108636996Y-97338904D01*
X108616860Y-97231542D01*
X108599820Y-97141917D01*
X108587172Y-97076851D01*
X108580216Y-97043168D01*
X108580094Y-97042654D01*
X108575861Y-97028325D01*
X108567629Y-97017507D01*
X108550467Y-97009706D01*
X108519442Y-97004429D01*
X108469622Y-97001182D01*
X108396076Y-96999472D01*
X108293871Y-96998807D01*
X108158075Y-96998693D01*
X108140500Y-96998692D01*
X108000622Y-96998776D01*
G36*
X103895276Y-103358838D02*
G01*
X103817972Y-103409361D01*
X103780686Y-103454590D01*
X103751147Y-103536663D01*
X103748801Y-103601607D01*
X103754115Y-103688445D01*
X103954385Y-103776103D01*
X104051761Y-103820887D01*
X104115387Y-103856913D01*
X104148471Y-103888117D01*
X104154220Y-103918436D01*
X104135842Y-103951805D01*
X104115577Y-103973923D01*
X104056611Y-104009393D01*
X103992476Y-104011879D01*
X103933574Y-103984235D01*
X103890303Y-103929320D01*
X103882564Y-103909928D01*
X103845494Y-103849364D01*
X103802846Y-103823552D01*
X103744346Y-103801471D01*
X103744346Y-103885184D01*
X103749518Y-103942150D01*
X103769777Y-103990189D01*
X103812238Y-104045346D01*
X103818549Y-104052514D01*
X103865780Y-104101585D01*
X103906379Y-104127920D01*
X103957172Y-104140035D01*
X103999280Y-104144003D01*
X104074598Y-104144991D01*
X104128214Y-104132466D01*
X104161662Y-104113869D01*
X104214232Y-104072975D01*
X104250621Y-104028748D01*
X104273650Y-103973126D01*
X104286141Y-103898047D01*
X104290913Y-103795449D01*
X104291294Y-103743376D01*
X104289999Y-103680948D01*
X104172029Y-103680948D01*
X104170661Y-103714438D01*
X104167251Y-103719923D01*
X104144747Y-103712472D01*
X104096318Y-103692753D01*
X104031592Y-103664718D01*
X104018057Y-103658692D01*
X103936256Y-103617096D01*
X103891188Y-103580538D01*
X103881283Y-103546296D01*
X103904974Y-103511648D01*
X103924540Y-103496339D01*
X103995140Y-103465721D01*
X104061220Y-103470780D01*
X104116541Y-103508151D01*
X104154864Y-103574473D01*
X104167151Y-103627116D01*
X104172029Y-103680948D01*
X104289999Y-103680948D01*
X104288770Y-103621720D01*
X104279468Y-103531710D01*
X104261040Y-103466167D01*
X104231140Y-103417912D01*
X104187420Y-103379767D01*
X104168359Y-103367440D01*
X104081774Y-103335336D01*
X103986978Y-103333316D01*
X103895276Y-103358838D01*
G37*
X103895276Y-103358838D02*
X103817972Y-103409361D01*
X103780686Y-103454590D01*
X103751147Y-103536663D01*
X103748801Y-103601607D01*
X103754115Y-103688445D01*
X103954385Y-103776103D01*
X104051761Y-103820887D01*
X104115387Y-103856913D01*
X104148471Y-103888117D01*
X104154220Y-103918436D01*
X104135842Y-103951805D01*
X104115577Y-103973923D01*
X104056611Y-104009393D01*
X103992476Y-104011879D01*
X103933574Y-103984235D01*
X103890303Y-103929320D01*
X103882564Y-103909928D01*
X103845494Y-103849364D01*
X103802846Y-103823552D01*
X103744346Y-103801471D01*
X103744346Y-103885184D01*
X103749518Y-103942150D01*
X103769777Y-103990189D01*
X103812238Y-104045346D01*
X103818549Y-104052514D01*
X103865780Y-104101585D01*
X103906379Y-104127920D01*
X103957172Y-104140035D01*
X103999280Y-104144003D01*
X104074598Y-104144991D01*
X104128214Y-104132466D01*
X104161662Y-104113869D01*
X104214232Y-104072975D01*
X104250621Y-104028748D01*
X104273650Y-103973126D01*
X104286141Y-103898047D01*
X104290913Y-103795449D01*
X104291294Y-103743376D01*
X104289999Y-103680948D01*
X104172029Y-103680948D01*
X104170661Y-103714438D01*
X104167251Y-103719923D01*
X104144747Y-103712472D01*
X104096318Y-103692753D01*
X104031592Y-103664718D01*
X104018057Y-103658692D01*
X103936256Y-103617096D01*
X103891188Y-103580538D01*
X103881283Y-103546296D01*
X103904974Y-103511648D01*
X103924540Y-103496339D01*
X103995140Y-103465721D01*
X104061220Y-103470780D01*
X104116541Y-103508151D01*
X104154864Y-103574473D01*
X104167151Y-103627116D01*
X104172029Y-103680948D01*
X104289999Y-103680948D01*
X104288770Y-103621720D01*
X104279468Y-103531710D01*
X104261040Y-103466167D01*
X104231140Y-103417912D01*
X104187420Y-103379767D01*
X104168359Y-103367440D01*
X104081774Y-103335336D01*
X103986978Y-103333316D01*
X103895276Y-103358838D01*
G36*
X104569693Y-103347782D02*
G01*
X104546339Y-103357988D01*
X104490598Y-103402134D01*
X104442931Y-103465967D01*
X104413452Y-103534087D01*
X104408654Y-103567670D01*
X104424740Y-103614556D01*
X104460025Y-103639365D01*
X104497856Y-103654387D01*
X104515179Y-103657155D01*
X104523614Y-103637066D01*
X104540270Y-103593351D01*
X104547577Y-103573598D01*
X104588552Y-103505271D01*
X104647878Y-103471191D01*
X104723948Y-103472239D01*
X104729582Y-103473581D01*
X104770195Y-103492836D01*
X104800052Y-103530375D01*
X104820445Y-103590809D01*
X104832664Y-103678751D01*
X104838000Y-103798813D01*
X104838500Y-103862698D01*
X104838748Y-103963403D01*
X104840374Y-104032054D01*
X104844699Y-104075673D01*
X104853046Y-104101282D01*
X104866735Y-104115903D01*
X104887089Y-104126558D01*
X104888266Y-104127095D01*
X104927462Y-104143667D01*
X104946881Y-104149769D01*
X104949865Y-104131319D01*
X104952419Y-104080323D01*
X104954360Y-104003308D01*
X104955503Y-103906805D01*
X104955731Y-103836184D01*
X104954568Y-103699525D01*
X104950021Y-103595851D01*
X104940501Y-103519108D01*
X104924419Y-103463246D01*
X104900187Y-103422212D01*
X104866214Y-103389954D01*
X104832667Y-103367440D01*
X104752001Y-103337476D01*
X104658119Y-103330718D01*
X104569693Y-103347782D01*
G37*
X104569693Y-103347782D02*
X104546339Y-103357988D01*
X104490598Y-103402134D01*
X104442931Y-103465967D01*
X104413452Y-103534087D01*
X104408654Y-103567670D01*
X104424740Y-103614556D01*
X104460025Y-103639365D01*
X104497856Y-103654387D01*
X104515179Y-103657155D01*
X104523614Y-103637066D01*
X104540270Y-103593351D01*
X104547577Y-103573598D01*
X104588552Y-103505271D01*
X104647878Y-103471191D01*
X104723948Y-103472239D01*
X104729582Y-103473581D01*
X104770195Y-103492836D01*
X104800052Y-103530375D01*
X104820445Y-103590809D01*
X104832664Y-103678751D01*
X104838000Y-103798813D01*
X104838500Y-103862698D01*
X104838748Y-103963403D01*
X104840374Y-104032054D01*
X104844699Y-104075673D01*
X104853046Y-104101282D01*
X104866735Y-104115903D01*
X104887089Y-104126558D01*
X104888266Y-104127095D01*
X104927462Y-104143667D01*
X104946881Y-104149769D01*
X104949865Y-104131319D01*
X104952419Y-104080323D01*
X104954360Y-104003308D01*
X104955503Y-103906805D01*
X104955731Y-103836184D01*
X104954568Y-103699525D01*
X104950021Y-103595851D01*
X104940501Y-103519108D01*
X104924419Y-103463246D01*
X104900187Y-103422212D01*
X104866214Y-103389954D01*
X104832667Y-103367440D01*
X104752001Y-103337476D01*
X104658119Y-103330718D01*
X104569693Y-103347782D01*
G36*
X105253167Y-103344528D02*
G01*
X105196910Y-103370117D01*
X105152753Y-103401124D01*
X105120399Y-103435795D01*
X105098062Y-103480520D01*
X105083954Y-103541692D01*
X105076289Y-103625701D01*
X105073280Y-103738940D01*
X105072962Y-103813509D01*
X105072962Y-104104420D01*
X105122727Y-104127095D01*
X105161924Y-104143667D01*
X105181343Y-104149769D01*
X105185058Y-104131610D01*
X105188005Y-104082648D01*
X105189809Y-104011153D01*
X105190192Y-103954385D01*
X105191839Y-103872371D01*
X105196278Y-103807309D01*
X105202760Y-103767467D01*
X105207910Y-103759000D01*
X105242523Y-103767646D01*
X105296860Y-103789823D01*
X105359778Y-103819886D01*
X105420132Y-103852192D01*
X105466779Y-103881098D01*
X105488574Y-103900961D01*
X105488661Y-103901175D01*
X105486786Y-103937935D01*
X105469975Y-103973026D01*
X105440461Y-104001528D01*
X105397384Y-104011061D01*
X105360568Y-104009950D01*
X105308426Y-104009133D01*
X105281056Y-104021349D01*
X105264618Y-104053624D01*
X105262545Y-104059710D01*
X105255419Y-104105739D01*
X105274476Y-104133687D01*
X105324147Y-104147007D01*
X105377803Y-104149470D01*
X105474358Y-104131210D01*
X105524341Y-104105131D01*
X105586071Y-104043868D01*
X105618810Y-103968670D01*
X105621747Y-103889211D01*
X105594076Y-103815167D01*
X105552453Y-103768769D01*
X105510896Y-103742793D01*
X105445578Y-103709907D01*
X105369462Y-103676557D01*
X105356774Y-103671461D01*
X105273167Y-103634565D01*
X105224970Y-103602046D01*
X105209470Y-103569718D01*
X105223950Y-103533394D01*
X105248808Y-103505000D01*
X105307561Y-103470039D01*
X105372207Y-103467417D01*
X105431492Y-103494358D01*
X105474161Y-103548088D01*
X105479761Y-103561950D01*
X105512367Y-103612936D01*
X105559970Y-103650787D01*
X105620039Y-103681850D01*
X105620039Y-103593768D01*
X105616503Y-103539951D01*
X105601344Y-103497534D01*
X105567732Y-103452279D01*
X105535465Y-103417420D01*
X105485291Y-103368062D01*
X105446307Y-103341547D01*
X105404436Y-103330911D01*
X105357040Y-103329154D01*
X105253167Y-103344528D01*
G37*
X105253167Y-103344528D02*
X105196910Y-103370117D01*
X105152753Y-103401124D01*
X105120399Y-103435795D01*
X105098062Y-103480520D01*
X105083954Y-103541692D01*
X105076289Y-103625701D01*
X105073280Y-103738940D01*
X105072962Y-103813509D01*
X105072962Y-104104420D01*
X105122727Y-104127095D01*
X105161924Y-104143667D01*
X105181343Y-104149769D01*
X105185058Y-104131610D01*
X105188005Y-104082648D01*
X105189809Y-104011153D01*
X105190192Y-103954385D01*
X105191839Y-103872371D01*
X105196278Y-103807309D01*
X105202760Y-103767467D01*
X105207910Y-103759000D01*
X105242523Y-103767646D01*
X105296860Y-103789823D01*
X105359778Y-103819886D01*
X105420132Y-103852192D01*
X105466779Y-103881098D01*
X105488574Y-103900961D01*
X105488661Y-103901175D01*
X105486786Y-103937935D01*
X105469975Y-103973026D01*
X105440461Y-104001528D01*
X105397384Y-104011061D01*
X105360568Y-104009950D01*
X105308426Y-104009133D01*
X105281056Y-104021349D01*
X105264618Y-104053624D01*
X105262545Y-104059710D01*
X105255419Y-104105739D01*
X105274476Y-104133687D01*
X105324147Y-104147007D01*
X105377803Y-104149470D01*
X105474358Y-104131210D01*
X105524341Y-104105131D01*
X105586071Y-104043868D01*
X105618810Y-103968670D01*
X105621747Y-103889211D01*
X105594076Y-103815167D01*
X105552453Y-103768769D01*
X105510896Y-103742793D01*
X105445578Y-103709907D01*
X105369462Y-103676557D01*
X105356774Y-103671461D01*
X105273167Y-103634565D01*
X105224970Y-103602046D01*
X105209470Y-103569718D01*
X105223950Y-103533394D01*
X105248808Y-103505000D01*
X105307561Y-103470039D01*
X105372207Y-103467417D01*
X105431492Y-103494358D01*
X105474161Y-103548088D01*
X105479761Y-103561950D01*
X105512367Y-103612936D01*
X105559970Y-103650787D01*
X105620039Y-103681850D01*
X105620039Y-103593768D01*
X105616503Y-103539951D01*
X105601344Y-103497534D01*
X105567732Y-103452279D01*
X105535465Y-103417420D01*
X105485291Y-103368062D01*
X105446307Y-103341547D01*
X105404436Y-103330911D01*
X105357040Y-103329154D01*
X105253167Y-103344528D01*
G36*
X105744571Y-103347662D02*
G01*
X105741589Y-103399068D01*
X105739253Y-103477192D01*
X105737751Y-103575857D01*
X105737269Y-103679343D01*
X105737269Y-104029533D01*
X105799099Y-104091363D01*
X105841707Y-104129462D01*
X105879110Y-104144895D01*
X105930230Y-104143918D01*
X105950522Y-104141433D01*
X106013946Y-104134200D01*
X106066405Y-104130055D01*
X106079192Y-104129672D01*
X106122301Y-104132176D01*
X106183956Y-104138462D01*
X106207862Y-104141433D01*
X106266578Y-104146028D01*
X106306036Y-104136046D01*
X106345162Y-104105228D01*
X106359285Y-104091363D01*
X106421115Y-104029533D01*
X106421115Y-103374503D01*
X106371350Y-103351829D01*
X106328498Y-103335034D01*
X106303427Y-103329154D01*
X106296999Y-103347736D01*
X106290991Y-103399655D01*
X106285803Y-103479172D01*
X106281836Y-103580546D01*
X106279923Y-103666192D01*
X106274577Y-104003231D01*
X106227940Y-104009825D01*
X106185524Y-104005214D01*
X106164740Y-103990287D01*
X106158930Y-103962377D01*
X106153970Y-103902925D01*
X106150254Y-103819466D01*
X106148176Y-103719532D01*
X106147876Y-103668104D01*
X106147577Y-103372054D01*
X106086046Y-103350604D01*
X106042496Y-103336020D01*
X106018806Y-103329219D01*
X106018123Y-103329154D01*
X106015746Y-103347642D01*
X106013134Y-103398906D01*
X106010505Y-103476649D01*
X106008079Y-103574574D01*
X106006385Y-103666192D01*
X106001039Y-104003231D01*
X105883808Y-104003231D01*
X105878428Y-103695746D01*
X105873049Y-103388261D01*
X105815899Y-103358707D01*
X105773703Y-103338413D01*
X105748730Y-103329204D01*
X105748009Y-103329154D01*
X105744571Y-103347662D01*
G37*
X105744571Y-103347662D02*
X105741589Y-103399068D01*
X105739253Y-103477192D01*
X105737751Y-103575857D01*
X105737269Y-103679343D01*
X105737269Y-104029533D01*
X105799099Y-104091363D01*
X105841707Y-104129462D01*
X105879110Y-104144895D01*
X105930230Y-104143918D01*
X105950522Y-104141433D01*
X106013946Y-104134200D01*
X106066405Y-104130055D01*
X106079192Y-104129672D01*
X106122301Y-104132176D01*
X106183956Y-104138462D01*
X106207862Y-104141433D01*
X106266578Y-104146028D01*
X106306036Y-104136046D01*
X106345162Y-104105228D01*
X106359285Y-104091363D01*
X106421115Y-104029533D01*
X106421115Y-103374503D01*
X106371350Y-103351829D01*
X106328498Y-103335034D01*
X106303427Y-103329154D01*
X106296999Y-103347736D01*
X106290991Y-103399655D01*
X106285803Y-103479172D01*
X106281836Y-103580546D01*
X106279923Y-103666192D01*
X106274577Y-104003231D01*
X106227940Y-104009825D01*
X106185524Y-104005214D01*
X106164740Y-103990287D01*
X106158930Y-103962377D01*
X106153970Y-103902925D01*
X106150254Y-103819466D01*
X106148176Y-103719532D01*
X106147876Y-103668104D01*
X106147577Y-103372054D01*
X106086046Y-103350604D01*
X106042496Y-103336020D01*
X106018806Y-103329219D01*
X106018123Y-103329154D01*
X106015746Y-103347642D01*
X106013134Y-103398906D01*
X106010505Y-103476649D01*
X106008079Y-103574574D01*
X106006385Y-103666192D01*
X106001039Y-104003231D01*
X105883808Y-104003231D01*
X105878428Y-103695746D01*
X105873049Y-103388261D01*
X105815899Y-103358707D01*
X105773703Y-103338413D01*
X105748730Y-103329204D01*
X105748009Y-103329154D01*
X105744571Y-103347662D01*
G36*
X106538419Y-103491289D02*
G01*
X106538667Y-103637320D01*
X106539628Y-103749655D01*
X106541706Y-103833678D01*
X106545307Y-103894769D01*
X106550835Y-103938309D01*
X106558696Y-103969679D01*
X106569293Y-103994262D01*
X106577318Y-104008294D01*
X106643772Y-104084388D01*
X106728030Y-104132084D01*
X106821251Y-104149199D01*
X106914600Y-104133546D01*
X106970188Y-104105418D01*
X107028543Y-104056760D01*
X107068314Y-103997333D01*
X107092310Y-103919507D01*
X107103339Y-103815652D01*
X107104901Y-103739462D01*
X107104691Y-103733986D01*
X106968192Y-103733986D01*
X106967359Y-103821355D01*
X106963539Y-103879192D01*
X106954754Y-103917029D01*
X106939026Y-103944398D01*
X106920234Y-103965042D01*
X106857125Y-104004890D01*
X106789363Y-104008295D01*
X106725321Y-103975025D01*
X106720336Y-103970517D01*
X106699061Y-103947067D01*
X106685721Y-103919166D01*
X106678499Y-103877641D01*
X106675577Y-103813316D01*
X106675115Y-103742200D01*
X106676117Y-103652858D01*
X106680262Y-103593258D01*
X106689264Y-103554089D01*
X106704833Y-103526040D01*
X106717598Y-103511144D01*
X106776900Y-103473575D01*
X106845199Y-103469057D01*
X106910390Y-103497753D01*
X106922972Y-103508406D01*
X106944389Y-103532063D01*
X106957756Y-103560251D01*
X106964934Y-103602245D01*
X106967781Y-103667319D01*
X106968192Y-103733986D01*
X107104691Y-103733986D01*
X107100178Y-103616765D01*
X107084138Y-103524577D01*
X107053972Y-103455269D01*
X107006871Y-103401211D01*
X106970188Y-103373505D01*
X106903510Y-103343572D01*
X106826228Y-103329678D01*
X106754390Y-103333397D01*
X106714192Y-103348400D01*
X106698418Y-103352670D01*
X106687950Y-103336750D01*
X106680644Y-103294089D01*
X106675115Y-103229106D01*
X106669063Y-103156732D01*
X106660656Y-103113187D01*
X106645359Y-103088287D01*
X106618636Y-103071845D01*
X106601846Y-103064564D01*
X106538346Y-103037963D01*
X106538419Y-103491289D01*
G37*
X106538419Y-103491289D02*
X106538667Y-103637320D01*
X106539628Y-103749655D01*
X106541706Y-103833678D01*
X106545307Y-103894769D01*
X106550835Y-103938309D01*
X106558696Y-103969679D01*
X106569293Y-103994262D01*
X106577318Y-104008294D01*
X106643772Y-104084388D01*
X106728030Y-104132084D01*
X106821251Y-104149199D01*
X106914600Y-104133546D01*
X106970188Y-104105418D01*
X107028543Y-104056760D01*
X107068314Y-103997333D01*
X107092310Y-103919507D01*
X107103339Y-103815652D01*
X107104901Y-103739462D01*
X107104691Y-103733986D01*
X106968192Y-103733986D01*
X106967359Y-103821355D01*
X106963539Y-103879192D01*
X106954754Y-103917029D01*
X106939026Y-103944398D01*
X106920234Y-103965042D01*
X106857125Y-104004890D01*
X106789363Y-104008295D01*
X106725321Y-103975025D01*
X106720336Y-103970517D01*
X106699061Y-103947067D01*
X106685721Y-103919166D01*
X106678499Y-103877641D01*
X106675577Y-103813316D01*
X106675115Y-103742200D01*
X106676117Y-103652858D01*
X106680262Y-103593258D01*
X106689264Y-103554089D01*
X106704833Y-103526040D01*
X106717598Y-103511144D01*
X106776900Y-103473575D01*
X106845199Y-103469057D01*
X106910390Y-103497753D01*
X106922972Y-103508406D01*
X106944389Y-103532063D01*
X106957756Y-103560251D01*
X106964934Y-103602245D01*
X106967781Y-103667319D01*
X106968192Y-103733986D01*
X107104691Y-103733986D01*
X107100178Y-103616765D01*
X107084138Y-103524577D01*
X107053972Y-103455269D01*
X107006871Y-103401211D01*
X106970188Y-103373505D01*
X106903510Y-103343572D01*
X106826228Y-103329678D01*
X106754390Y-103333397D01*
X106714192Y-103348400D01*
X106698418Y-103352670D01*
X106687950Y-103336750D01*
X106680644Y-103294089D01*
X106675115Y-103229106D01*
X106669063Y-103156732D01*
X106660656Y-103113187D01*
X106645359Y-103088287D01*
X106618636Y-103071845D01*
X106601846Y-103064564D01*
X106538346Y-103037963D01*
X106538419Y-103491289D01*
G36*
X107427138Y-103335670D02*
G01*
X107338383Y-103368421D01*
X107266478Y-103426350D01*
X107238356Y-103467128D01*
X107207698Y-103541954D01*
X107208335Y-103596058D01*
X107240513Y-103632446D01*
X107252419Y-103638633D01*
X107303825Y-103657925D01*
X107330078Y-103652982D01*
X107338970Y-103620587D01*
X107339423Y-103602692D01*
X107355703Y-103536859D01*
X107398135Y-103490807D01*
X107457112Y-103468564D01*
X107523025Y-103474161D01*
X107576605Y-103503229D01*
X107594702Y-103519810D01*
X107607529Y-103539925D01*
X107616194Y-103570332D01*
X107621804Y-103617788D01*
X107625465Y-103689050D01*
X107628285Y-103790875D01*
X107629016Y-103823115D01*
X107631680Y-103933410D01*
X107634708Y-104011036D01*
X107639250Y-104062396D01*
X107646454Y-104093890D01*
X107657467Y-104111920D01*
X107673440Y-104122888D01*
X107683666Y-104127733D01*
X107727094Y-104144301D01*
X107752658Y-104149769D01*
X107761105Y-104131507D01*
X107766261Y-104076296D01*
X107768154Y-103983499D01*
X107766811Y-103852478D01*
X107766393Y-103832269D01*
X107763442Y-103712733D01*
X107759952Y-103625449D01*
X107754986Y-103563591D01*
X107747607Y-103520336D01*
X107736876Y-103488860D01*
X107721855Y-103462339D01*
X107713998Y-103450975D01*
X107668947Y-103400692D01*
X107618560Y-103361581D01*
X107612392Y-103358167D01*
X107522042Y-103331212D01*
X107427138Y-103335670D01*
G37*
X107427138Y-103335670D02*
X107338383Y-103368421D01*
X107266478Y-103426350D01*
X107238356Y-103467128D01*
X107207698Y-103541954D01*
X107208335Y-103596058D01*
X107240513Y-103632446D01*
X107252419Y-103638633D01*
X107303825Y-103657925D01*
X107330078Y-103652982D01*
X107338970Y-103620587D01*
X107339423Y-103602692D01*
X107355703Y-103536859D01*
X107398135Y-103490807D01*
X107457112Y-103468564D01*
X107523025Y-103474161D01*
X107576605Y-103503229D01*
X107594702Y-103519810D01*
X107607529Y-103539925D01*
X107616194Y-103570332D01*
X107621804Y-103617788D01*
X107625465Y-103689050D01*
X107628285Y-103790875D01*
X107629016Y-103823115D01*
X107631680Y-103933410D01*
X107634708Y-104011036D01*
X107639250Y-104062396D01*
X107646454Y-104093890D01*
X107657467Y-104111920D01*
X107673440Y-104122888D01*
X107683666Y-104127733D01*
X107727094Y-104144301D01*
X107752658Y-104149769D01*
X107761105Y-104131507D01*
X107766261Y-104076296D01*
X107768154Y-103983499D01*
X107766811Y-103852478D01*
X107766393Y-103832269D01*
X107763442Y-103712733D01*
X107759952Y-103625449D01*
X107754986Y-103563591D01*
X107747607Y-103520336D01*
X107736876Y-103488860D01*
X107721855Y-103462339D01*
X107713998Y-103450975D01*
X107668947Y-103400692D01*
X107618560Y-103361581D01*
X107612392Y-103358167D01*
X107522042Y-103331212D01*
X107427138Y-103335670D01*
G36*
X108086999Y-103337303D02*
G01*
X108010440Y-103365733D01*
X108009564Y-103366279D01*
X107962215Y-103401127D01*
X107927259Y-103441852D01*
X107902675Y-103494925D01*
X107886438Y-103566814D01*
X107876525Y-103663992D01*
X107870914Y-103792928D01*
X107870423Y-103811298D01*
X107863359Y-104088287D01*
X107922805Y-104119028D01*
X107965819Y-104139802D01*
X107991790Y-104149646D01*
X107992991Y-104149769D01*
X107997486Y-104131606D01*
X108001056Y-104082612D01*
X108003252Y-104011031D01*
X108003731Y-103953068D01*
X108003742Y-103859170D01*
X108008034Y-103800203D01*
X108022997Y-103772079D01*
X108055018Y-103770706D01*
X108110486Y-103791998D01*
X108194231Y-103831136D01*
X108255811Y-103863643D01*
X108287483Y-103891845D01*
X108296794Y-103922582D01*
X108296808Y-103924104D01*
X108281443Y-103977054D01*
X108235953Y-104005660D01*
X108166334Y-104009803D01*
X108116187Y-104009084D01*
X108089746Y-104023527D01*
X108073257Y-104058218D01*
X108063767Y-104102416D01*
X108077443Y-104127493D01*
X108082593Y-104131082D01*
X108131075Y-104145496D01*
X108198969Y-104147537D01*
X108268888Y-104137983D01*
X108318432Y-104120522D01*
X108386930Y-104062364D01*
X108425866Y-103981408D01*
X108433577Y-103918160D01*
X108427693Y-103861111D01*
X108406399Y-103814542D01*
X108364235Y-103773181D01*
X108295741Y-103731755D01*
X108195456Y-103684993D01*
X108189346Y-103682350D01*
X108099010Y-103640617D01*
X108043265Y-103606391D01*
X108019371Y-103575635D01*
X108024587Y-103544311D01*
X108056172Y-103508383D01*
X108065617Y-103500116D01*
X108128883Y-103468058D01*
X108194436Y-103469407D01*
X108251528Y-103500838D01*
X108289407Y-103559024D01*
X108292926Y-103570446D01*
X108327200Y-103625837D01*
X108370691Y-103652518D01*
X108433577Y-103678960D01*
X108433577Y-103610548D01*
X108414448Y-103511110D01*
X108357669Y-103419902D01*
X108328122Y-103389389D01*
X108260958Y-103350228D01*
X108175544Y-103332500D01*
X108086999Y-103337303D01*
G37*
X108086999Y-103337303D02*
X108010440Y-103365733D01*
X108009564Y-103366279D01*
X107962215Y-103401127D01*
X107927259Y-103441852D01*
X107902675Y-103494925D01*
X107886438Y-103566814D01*
X107876525Y-103663992D01*
X107870914Y-103792928D01*
X107870423Y-103811298D01*
X107863359Y-104088287D01*
X107922805Y-104119028D01*
X107965819Y-104139802D01*
X107991790Y-104149646D01*
X107992991Y-104149769D01*
X107997486Y-104131606D01*
X108001056Y-104082612D01*
X108003252Y-104011031D01*
X108003731Y-103953068D01*
X108003742Y-103859170D01*
X108008034Y-103800203D01*
X108022997Y-103772079D01*
X108055018Y-103770706D01*
X108110486Y-103791998D01*
X108194231Y-103831136D01*
X108255811Y-103863643D01*
X108287483Y-103891845D01*
X108296794Y-103922582D01*
X108296808Y-103924104D01*
X108281443Y-103977054D01*
X108235953Y-104005660D01*
X108166334Y-104009803D01*
X108116187Y-104009084D01*
X108089746Y-104023527D01*
X108073257Y-104058218D01*
X108063767Y-104102416D01*
X108077443Y-104127493D01*
X108082593Y-104131082D01*
X108131075Y-104145496D01*
X108198969Y-104147537D01*
X108268888Y-104137983D01*
X108318432Y-104120522D01*
X108386930Y-104062364D01*
X108425866Y-103981408D01*
X108433577Y-103918160D01*
X108427693Y-103861111D01*
X108406399Y-103814542D01*
X108364235Y-103773181D01*
X108295741Y-103731755D01*
X108195456Y-103684993D01*
X108189346Y-103682350D01*
X108099010Y-103640617D01*
X108043265Y-103606391D01*
X108019371Y-103575635D01*
X108024587Y-103544311D01*
X108056172Y-103508383D01*
X108065617Y-103500116D01*
X108128883Y-103468058D01*
X108194436Y-103469407D01*
X108251528Y-103500838D01*
X108289407Y-103559024D01*
X108292926Y-103570446D01*
X108327200Y-103625837D01*
X108370691Y-103652518D01*
X108433577Y-103678960D01*
X108433577Y-103610548D01*
X108414448Y-103511110D01*
X108357669Y-103419902D01*
X108328122Y-103389389D01*
X108260958Y-103350228D01*
X108175544Y-103332500D01*
X108086999Y-103337303D01*
G36*
X108980654Y-103203120D02*
G01*
X108974928Y-103282980D01*
X108968351Y-103330039D01*
X108959238Y-103350566D01*
X108945902Y-103350829D01*
X108941577Y-103348378D01*
X108884056Y-103330636D01*
X108809232Y-103331672D01*
X108733161Y-103349910D01*
X108685582Y-103373505D01*
X108636798Y-103411198D01*
X108601136Y-103453855D01*
X108576655Y-103508057D01*
X108561413Y-103580384D01*
X108553470Y-103677419D01*
X108550884Y-103805742D01*
X108550838Y-103830358D01*
X108550808Y-104106870D01*
X108612339Y-104128320D01*
X108656041Y-104142912D01*
X108680018Y-104149706D01*
X108680723Y-104149769D01*
X108683085Y-104131345D01*
X108685094Y-104080526D01*
X108686599Y-104003993D01*
X108687447Y-103908430D01*
X108687577Y-103850329D01*
X108687849Y-103735771D01*
X108689248Y-103653667D01*
X108692651Y-103597393D01*
X108698933Y-103560326D01*
X108708971Y-103535844D01*
X108723639Y-103517325D01*
X108732798Y-103508406D01*
X108795711Y-103472466D01*
X108864364Y-103469775D01*
X108926652Y-103500170D01*
X108938171Y-103511144D01*
X108955067Y-103531779D01*
X108966786Y-103556256D01*
X108974267Y-103591647D01*
X108978446Y-103645026D01*
X108980263Y-103723466D01*
X108980654Y-103831617D01*
X108980654Y-104106870D01*
X109042185Y-104128320D01*
X109085887Y-104142912D01*
X109109864Y-104149706D01*
X109110570Y-104149769D01*
X109112374Y-104131069D01*
X109114000Y-104078322D01*
X109115383Y-103996557D01*
X109116458Y-103890805D01*
X109117160Y-103766094D01*
X109117423Y-103627455D01*
X109117423Y-103092806D01*
X108990423Y-103039236D01*
X108980654Y-103203120D01*
G37*
X108980654Y-103203120D02*
X108974928Y-103282980D01*
X108968351Y-103330039D01*
X108959238Y-103350566D01*
X108945902Y-103350829D01*
X108941577Y-103348378D01*
X108884056Y-103330636D01*
X108809232Y-103331672D01*
X108733161Y-103349910D01*
X108685582Y-103373505D01*
X108636798Y-103411198D01*
X108601136Y-103453855D01*
X108576655Y-103508057D01*
X108561413Y-103580384D01*
X108553470Y-103677419D01*
X108550884Y-103805742D01*
X108550838Y-103830358D01*
X108550808Y-104106870D01*
X108612339Y-104128320D01*
X108656041Y-104142912D01*
X108680018Y-104149706D01*
X108680723Y-104149769D01*
X108683085Y-104131345D01*
X108685094Y-104080526D01*
X108686599Y-104003993D01*
X108687447Y-103908430D01*
X108687577Y-103850329D01*
X108687849Y-103735771D01*
X108689248Y-103653667D01*
X108692651Y-103597393D01*
X108698933Y-103560326D01*
X108708971Y-103535844D01*
X108723639Y-103517325D01*
X108732798Y-103508406D01*
X108795711Y-103472466D01*
X108864364Y-103469775D01*
X108926652Y-103500170D01*
X108938171Y-103511144D01*
X108955067Y-103531779D01*
X108966786Y-103556256D01*
X108974267Y-103591647D01*
X108978446Y-103645026D01*
X108980263Y-103723466D01*
X108980654Y-103831617D01*
X108980654Y-104106870D01*
X109042185Y-104128320D01*
X109085887Y-104142912D01*
X109109864Y-104149706D01*
X109110570Y-104149769D01*
X109112374Y-104131069D01*
X109114000Y-104078322D01*
X109115383Y-103996557D01*
X109116458Y-103890805D01*
X109117160Y-103766094D01*
X109117423Y-103627455D01*
X109117423Y-103092806D01*
X108990423Y-103039236D01*
X108980654Y-103203120D01*
G36*
X110606246Y-103310745D02*
G01*
X110529214Y-103362567D01*
X110469684Y-103437412D01*
X110434122Y-103532654D01*
X110426929Y-103602756D01*
X110427746Y-103632009D01*
X110434586Y-103654407D01*
X110453388Y-103674474D01*
X110490092Y-103696733D01*
X110550638Y-103725709D01*
X110640966Y-103765927D01*
X110641423Y-103766129D01*
X110724567Y-103804210D01*
X110792747Y-103838025D01*
X110838995Y-103863933D01*
X110856342Y-103878295D01*
X110856346Y-103878411D01*
X110841057Y-103909685D01*
X110805304Y-103944157D01*
X110764258Y-103968990D01*
X110743463Y-103973923D01*
X110686730Y-103956862D01*
X110637873Y-103914133D01*
X110614035Y-103867155D01*
X110591103Y-103832522D01*
X110546182Y-103793081D01*
X110493377Y-103759009D01*
X110446790Y-103740480D01*
X110437048Y-103739462D01*
X110426082Y-103756215D01*
X110425421Y-103799039D01*
X110433480Y-103856781D01*
X110448673Y-103918289D01*
X110469414Y-103972409D01*
X110470462Y-103974510D01*
X110532879Y-104061660D01*
X110613774Y-104120939D01*
X110705644Y-104150034D01*
X110800987Y-104146634D01*
X110892302Y-104108428D01*
X110896362Y-104105741D01*
X110968194Y-104040642D01*
X111015427Y-103955705D01*
X111041566Y-103844021D01*
X111045074Y-103812643D01*
X111051287Y-103664536D01*
X111043839Y-103595468D01*
X110856346Y-103595468D01*
X110853910Y-103638552D01*
X110840586Y-103651126D01*
X110807368Y-103641719D01*
X110755006Y-103619483D01*
X110696476Y-103591610D01*
X110695021Y-103590872D01*
X110645411Y-103564777D01*
X110625500Y-103547363D01*
X110630410Y-103529107D01*
X110651084Y-103505120D01*
X110703681Y-103470406D01*
X110760323Y-103467856D01*
X110811131Y-103493119D01*
X110846224Y-103541847D01*
X110856346Y-103595468D01*
X111043839Y-103595468D01*
X111038508Y-103546036D01*
X111005722Y-103452055D01*
X110960079Y-103386215D01*
X110877698Y-103319681D01*
X110786954Y-103286676D01*
X110694315Y-103284573D01*
X110606246Y-103310745D01*
G37*
X110606246Y-103310745D02*
X110529214Y-103362567D01*
X110469684Y-103437412D01*
X110434122Y-103532654D01*
X110426929Y-103602756D01*
X110427746Y-103632009D01*
X110434586Y-103654407D01*
X110453388Y-103674474D01*
X110490092Y-103696733D01*
X110550638Y-103725709D01*
X110640966Y-103765927D01*
X110641423Y-103766129D01*
X110724567Y-103804210D01*
X110792747Y-103838025D01*
X110838995Y-103863933D01*
X110856342Y-103878295D01*
X110856346Y-103878411D01*
X110841057Y-103909685D01*
X110805304Y-103944157D01*
X110764258Y-103968990D01*
X110743463Y-103973923D01*
X110686730Y-103956862D01*
X110637873Y-103914133D01*
X110614035Y-103867155D01*
X110591103Y-103832522D01*
X110546182Y-103793081D01*
X110493377Y-103759009D01*
X110446790Y-103740480D01*
X110437048Y-103739462D01*
X110426082Y-103756215D01*
X110425421Y-103799039D01*
X110433480Y-103856781D01*
X110448673Y-103918289D01*
X110469414Y-103972409D01*
X110470462Y-103974510D01*
X110532879Y-104061660D01*
X110613774Y-104120939D01*
X110705644Y-104150034D01*
X110800987Y-104146634D01*
X110892302Y-104108428D01*
X110896362Y-104105741D01*
X110968194Y-104040642D01*
X111015427Y-103955705D01*
X111041566Y-103844021D01*
X111045074Y-103812643D01*
X111051287Y-103664536D01*
X111043839Y-103595468D01*
X110856346Y-103595468D01*
X110853910Y-103638552D01*
X110840586Y-103651126D01*
X110807368Y-103641719D01*
X110755006Y-103619483D01*
X110696476Y-103591610D01*
X110695021Y-103590872D01*
X110645411Y-103564777D01*
X110625500Y-103547363D01*
X110630410Y-103529107D01*
X110651084Y-103505120D01*
X110703681Y-103470406D01*
X110760323Y-103467856D01*
X110811131Y-103493119D01*
X110846224Y-103541847D01*
X110856346Y-103595468D01*
X111043839Y-103595468D01*
X111038508Y-103546036D01*
X111005722Y-103452055D01*
X110960079Y-103386215D01*
X110877698Y-103319681D01*
X110786954Y-103286676D01*
X110694315Y-103284573D01*
X110606246Y-103310745D01*
G36*
X112123614Y-103298256D02*
G01*
X112032036Y-103346409D01*
X111964451Y-103423905D01*
X111940443Y-103473727D01*
X111921762Y-103548533D01*
X111912199Y-103643052D01*
X111911292Y-103746210D01*
X111918579Y-103846935D01*
X111933597Y-103934153D01*
X111955885Y-103996791D01*
X111962735Y-104007579D01*
X112043868Y-104088105D01*
X112140234Y-104136336D01*
X112244799Y-104150450D01*
X112350532Y-104128629D01*
X112379957Y-104115547D01*
X112437259Y-104075231D01*
X112487550Y-104021775D01*
X112492303Y-104014995D01*
X112511622Y-103982321D01*
X112524392Y-103947394D01*
X112531936Y-103901414D01*
X112535576Y-103835584D01*
X112536635Y-103741105D01*
X112536654Y-103719923D01*
X112536606Y-103713182D01*
X112341269Y-103713182D01*
X112340132Y-103802349D01*
X112335659Y-103861520D01*
X112326254Y-103899741D01*
X112310324Y-103926053D01*
X112302192Y-103934846D01*
X112255442Y-103968261D01*
X112210053Y-103966737D01*
X112164160Y-103937752D01*
X112136788Y-103906809D01*
X112120577Y-103861643D01*
X112111474Y-103790420D01*
X112110849Y-103782114D01*
X112109296Y-103653037D01*
X112125535Y-103557172D01*
X112159348Y-103495107D01*
X112210516Y-103467432D01*
X112228780Y-103465923D01*
X112276740Y-103473513D01*
X112309547Y-103499808D01*
X112329605Y-103550095D01*
X112339322Y-103629664D01*
X112341269Y-103713182D01*
X112536606Y-103713182D01*
X112535926Y-103619249D01*
X112532871Y-103548906D01*
X112526178Y-103500163D01*
X112514540Y-103464288D01*
X112496647Y-103432548D01*
X112492692Y-103426648D01*
X112426233Y-103347104D01*
X112353815Y-103300929D01*
X112265651Y-103282599D01*
X112235713Y-103281703D01*
X112123614Y-103298256D01*
G37*
X112123614Y-103298256D02*
X112032036Y-103346409D01*
X111964451Y-103423905D01*
X111940443Y-103473727D01*
X111921762Y-103548533D01*
X111912199Y-103643052D01*
X111911292Y-103746210D01*
X111918579Y-103846935D01*
X111933597Y-103934153D01*
X111955885Y-103996791D01*
X111962735Y-104007579D01*
X112043868Y-104088105D01*
X112140234Y-104136336D01*
X112244799Y-104150450D01*
X112350532Y-104128629D01*
X112379957Y-104115547D01*
X112437259Y-104075231D01*
X112487550Y-104021775D01*
X112492303Y-104014995D01*
X112511622Y-103982321D01*
X112524392Y-103947394D01*
X112531936Y-103901414D01*
X112535576Y-103835584D01*
X112536635Y-103741105D01*
X112536654Y-103719923D01*
X112536606Y-103713182D01*
X112341269Y-103713182D01*
X112340132Y-103802349D01*
X112335659Y-103861520D01*
X112326254Y-103899741D01*
X112310324Y-103926053D01*
X112302192Y-103934846D01*
X112255442Y-103968261D01*
X112210053Y-103966737D01*
X112164160Y-103937752D01*
X112136788Y-103906809D01*
X112120577Y-103861643D01*
X112111474Y-103790420D01*
X112110849Y-103782114D01*
X112109296Y-103653037D01*
X112125535Y-103557172D01*
X112159348Y-103495107D01*
X112210516Y-103467432D01*
X112228780Y-103465923D01*
X112276740Y-103473513D01*
X112309547Y-103499808D01*
X112329605Y-103550095D01*
X112339322Y-103629664D01*
X112341269Y-103713182D01*
X112536606Y-103713182D01*
X112535926Y-103619249D01*
X112532871Y-103548906D01*
X112526178Y-103500163D01*
X112514540Y-103464288D01*
X112496647Y-103432548D01*
X112492692Y-103426648D01*
X112426233Y-103347104D01*
X112353815Y-103300929D01*
X112265651Y-103282599D01*
X112235713Y-103281703D01*
X112123614Y-103298256D01*
G36*
X109868836Y-103306089D02*
G01*
X109806133Y-103342358D01*
X109762539Y-103378358D01*
X109730655Y-103416075D01*
X109708690Y-103462199D01*
X109694851Y-103523421D01*
X109687347Y-103606431D01*
X109684383Y-103717919D01*
X109684039Y-103798062D01*
X109684039Y-104093065D01*
X109850115Y-104167515D01*
X109859885Y-103844402D01*
X109863921Y-103723729D01*
X109868156Y-103636141D01*
X109873403Y-103575650D01*
X109880475Y-103536268D01*
X109890189Y-103512007D01*
X109903356Y-103496880D01*
X109907581Y-103493606D01*
X109971591Y-103468034D01*
X110036292Y-103478153D01*
X110074808Y-103505000D01*
X110090475Y-103524024D01*
X110101320Y-103548988D01*
X110108212Y-103586834D01*
X110112021Y-103644502D01*
X110113617Y-103728935D01*
X110113885Y-103816928D01*
X110113937Y-103927323D01*
X110115828Y-104005463D01*
X110122155Y-104058165D01*
X110135517Y-104092242D01*
X110158515Y-104114511D01*
X110193746Y-104131787D01*
X110240803Y-104149738D01*
X110292197Y-104169278D01*
X110286079Y-103822485D01*
X110283616Y-103697468D01*
X110280733Y-103605082D01*
X110276602Y-103538881D01*
X110270393Y-103492420D01*
X110261274Y-103459256D01*
X110248417Y-103432944D01*
X110232916Y-103409729D01*
X110158129Y-103335569D01*
X110066872Y-103292684D01*
X109967617Y-103282412D01*
X109868836Y-103306089D01*
G37*
X109868836Y-103306089D02*
X109806133Y-103342358D01*
X109762539Y-103378358D01*
X109730655Y-103416075D01*
X109708690Y-103462199D01*
X109694851Y-103523421D01*
X109687347Y-103606431D01*
X109684383Y-103717919D01*
X109684039Y-103798062D01*
X109684039Y-104093065D01*
X109850115Y-104167515D01*
X109859885Y-103844402D01*
X109863921Y-103723729D01*
X109868156Y-103636141D01*
X109873403Y-103575650D01*
X109880475Y-103536268D01*
X109890189Y-103512007D01*
X109903356Y-103496880D01*
X109907581Y-103493606D01*
X109971591Y-103468034D01*
X110036292Y-103478153D01*
X110074808Y-103505000D01*
X110090475Y-103524024D01*
X110101320Y-103548988D01*
X110108212Y-103586834D01*
X110112021Y-103644502D01*
X110113617Y-103728935D01*
X110113885Y-103816928D01*
X110113937Y-103927323D01*
X110115828Y-104005463D01*
X110122155Y-104058165D01*
X110135517Y-104092242D01*
X110158515Y-104114511D01*
X110193746Y-104131787D01*
X110240803Y-104149738D01*
X110292197Y-104169278D01*
X110286079Y-103822485D01*
X110283616Y-103697468D01*
X110280733Y-103605082D01*
X110276602Y-103538881D01*
X110270393Y-103492420D01*
X110261274Y-103459256D01*
X110248417Y-103432944D01*
X110232916Y-103409729D01*
X110158129Y-103335569D01*
X110066872Y-103292684D01*
X109967617Y-103282412D01*
X109868836Y-103306089D01*
G36*
X111371614Y-103295505D02*
G01*
X111296961Y-103332727D01*
X111231069Y-103401261D01*
X111212923Y-103426648D01*
X111193155Y-103459866D01*
X111180328Y-103495945D01*
X111172990Y-103544098D01*
X111169687Y-103613536D01*
X111168962Y-103705206D01*
X111172237Y-103830830D01*
X111183623Y-103925154D01*
X111205459Y-103995523D01*
X111240081Y-104049286D01*
X111289830Y-104093788D01*
X111293486Y-104096423D01*
X111342515Y-104123377D01*
X111401555Y-104136712D01*
X111476641Y-104140000D01*
X111598705Y-104140000D01*
X111598756Y-104258497D01*
X111599892Y-104324492D01*
X111606814Y-104363202D01*
X111624902Y-104386419D01*
X111659538Y-104405933D01*
X111667855Y-104409920D01*
X111706780Y-104428603D01*
X111736917Y-104440403D01*
X111759326Y-104441422D01*
X111775067Y-104427761D01*
X111785198Y-104395522D01*
X111790777Y-104340804D01*
X111792865Y-104259711D01*
X111792519Y-104148344D01*
X111790800Y-104002802D01*
X111790263Y-103959269D01*
X111788328Y-103809205D01*
X111786596Y-103711042D01*
X111598808Y-103711042D01*
X111597752Y-103794364D01*
X111593062Y-103848880D01*
X111582449Y-103884837D01*
X111563628Y-103912482D01*
X111550850Y-103925965D01*
X111498610Y-103965417D01*
X111452358Y-103968628D01*
X111404633Y-103936049D01*
X111403423Y-103934846D01*
X111384006Y-103909668D01*
X111372193Y-103875447D01*
X111366235Y-103822748D01*
X111364380Y-103742131D01*
X111364346Y-103724271D01*
X111368830Y-103613175D01*
X111383426Y-103536161D01*
X111409850Y-103489147D01*
X111449817Y-103468050D01*
X111472916Y-103465923D01*
X111527738Y-103475900D01*
X111565342Y-103508752D01*
X111587977Y-103568857D01*
X111597894Y-103660598D01*
X111598808Y-103711042D01*
X111786596Y-103711042D01*
X111786278Y-103693060D01*
X111783627Y-103605679D01*
X111779894Y-103541905D01*
X111774593Y-103496582D01*
X111767242Y-103464555D01*
X111757357Y-103440668D01*
X111744454Y-103419764D01*
X111738921Y-103411898D01*
X111665531Y-103337595D01*
X111572740Y-103295467D01*
X111465404Y-103283722D01*
X111371614Y-103295505D01*
G37*
X111371614Y-103295505D02*
X111296961Y-103332727D01*
X111231069Y-103401261D01*
X111212923Y-103426648D01*
X111193155Y-103459866D01*
X111180328Y-103495945D01*
X111172990Y-103544098D01*
X111169687Y-103613536D01*
X111168962Y-103705206D01*
X111172237Y-103830830D01*
X111183623Y-103925154D01*
X111205459Y-103995523D01*
X111240081Y-104049286D01*
X111289830Y-104093788D01*
X111293486Y-104096423D01*
X111342515Y-104123377D01*
X111401555Y-104136712D01*
X111476641Y-104140000D01*
X111598705Y-104140000D01*
X111598756Y-104258497D01*
X111599892Y-104324492D01*
X111606814Y-104363202D01*
X111624902Y-104386419D01*
X111659538Y-104405933D01*
X111667855Y-104409920D01*
X111706780Y-104428603D01*
X111736917Y-104440403D01*
X111759326Y-104441422D01*
X111775067Y-104427761D01*
X111785198Y-104395522D01*
X111790777Y-104340804D01*
X111792865Y-104259711D01*
X111792519Y-104148344D01*
X111790800Y-104002802D01*
X111790263Y-103959269D01*
X111788328Y-103809205D01*
X111786596Y-103711042D01*
X111598808Y-103711042D01*
X111597752Y-103794364D01*
X111593062Y-103848880D01*
X111582449Y-103884837D01*
X111563628Y-103912482D01*
X111550850Y-103925965D01*
X111498610Y-103965417D01*
X111452358Y-103968628D01*
X111404633Y-103936049D01*
X111403423Y-103934846D01*
X111384006Y-103909668D01*
X111372193Y-103875447D01*
X111366235Y-103822748D01*
X111364380Y-103742131D01*
X111364346Y-103724271D01*
X111368830Y-103613175D01*
X111383426Y-103536161D01*
X111409850Y-103489147D01*
X111449817Y-103468050D01*
X111472916Y-103465923D01*
X111527738Y-103475900D01*
X111565342Y-103508752D01*
X111587977Y-103568857D01*
X111597894Y-103660598D01*
X111598808Y-103711042D01*
X111786596Y-103711042D01*
X111786278Y-103693060D01*
X111783627Y-103605679D01*
X111779894Y-103541905D01*
X111774593Y-103496582D01*
X111767242Y-103464555D01*
X111757357Y-103440668D01*
X111744454Y-103419764D01*
X111738921Y-103411898D01*
X111665531Y-103337595D01*
X111572740Y-103295467D01*
X111465404Y-103283722D01*
X111371614Y-103295505D01*
%TO.C,G\u002A\u002A\u002A*%
G36*
X108281776Y-78668893D02*
G01*
X108180717Y-78697577D01*
X108112691Y-78741305D01*
X108078164Y-78776865D01*
X108051583Y-78818909D01*
X108031973Y-78872746D01*
X108018359Y-78943685D01*
X108009767Y-79037037D01*
X108005221Y-79158111D01*
X108003748Y-79312217D01*
X108003731Y-79334806D01*
X108003731Y-79697385D01*
X108277269Y-79697385D01*
X108277269Y-79358377D01*
X108278429Y-79242813D01*
X108281641Y-79137054D01*
X108286503Y-79048912D01*
X108292613Y-78986201D01*
X108297742Y-78960640D01*
X108336121Y-78900140D01*
X108393561Y-78867039D01*
X108461044Y-78861565D01*
X108529547Y-78883944D01*
X108590051Y-78934405D01*
X108603881Y-78952928D01*
X108620094Y-78979166D01*
X108631823Y-79006622D01*
X108639792Y-79041855D01*
X108644721Y-79091423D01*
X108647334Y-79161884D01*
X108648350Y-79259796D01*
X108648500Y-79358351D01*
X108648500Y-79697385D01*
X108922038Y-79697385D01*
X108922038Y-78681385D01*
X108668038Y-78681385D01*
X108668038Y-78803253D01*
X108601510Y-78752510D01*
X108501742Y-78696579D01*
X108391974Y-78668634D01*
X108281776Y-78668893D01*
G37*
X108281776Y-78668893D02*
X108180717Y-78697577D01*
X108112691Y-78741305D01*
X108078164Y-78776865D01*
X108051583Y-78818909D01*
X108031973Y-78872746D01*
X108018359Y-78943685D01*
X108009767Y-79037037D01*
X108005221Y-79158111D01*
X108003748Y-79312217D01*
X108003731Y-79334806D01*
X108003731Y-79697385D01*
X108277269Y-79697385D01*
X108277269Y-79358377D01*
X108278429Y-79242813D01*
X108281641Y-79137054D01*
X108286503Y-79048912D01*
X108292613Y-78986201D01*
X108297742Y-78960640D01*
X108336121Y-78900140D01*
X108393561Y-78867039D01*
X108461044Y-78861565D01*
X108529547Y-78883944D01*
X108590051Y-78934405D01*
X108603881Y-78952928D01*
X108620094Y-78979166D01*
X108631823Y-79006622D01*
X108639792Y-79041855D01*
X108644721Y-79091423D01*
X108647334Y-79161884D01*
X108648350Y-79259796D01*
X108648500Y-79358351D01*
X108648500Y-79697385D01*
X108922038Y-79697385D01*
X108922038Y-78681385D01*
X108668038Y-78681385D01*
X108668038Y-78803253D01*
X108601510Y-78752510D01*
X108501742Y-78696579D01*
X108391974Y-78668634D01*
X108281776Y-78668893D01*
G36*
X109619673Y-78319923D02*
G01*
X109349009Y-78992564D01*
X109287658Y-79145472D01*
X109231179Y-79287088D01*
X109181187Y-79413298D01*
X109139295Y-79519988D01*
X109107119Y-79603046D01*
X109086274Y-79658357D01*
X109078373Y-79681809D01*
X109078346Y-79682117D01*
X109096267Y-79689463D01*
X109143716Y-79693604D01*
X109211224Y-79693821D01*
X109226543Y-79693322D01*
X109374739Y-79687615D01*
X109433139Y-79536192D01*
X109491540Y-79384769D01*
X110046170Y-79384769D01*
X110157246Y-79697385D01*
X110301642Y-79697385D01*
X110371119Y-79695747D01*
X110422296Y-79691422D01*
X110445551Y-79685286D01*
X110446038Y-79684202D01*
X110439141Y-79663637D01*
X110419497Y-79610792D01*
X110388673Y-79529746D01*
X110348240Y-79424579D01*
X110299766Y-79299369D01*
X110244820Y-79158197D01*
X110241736Y-79150308D01*
X109956875Y-79150308D01*
X109771611Y-79150308D01*
X109691930Y-79149611D01*
X109629428Y-79147740D01*
X109592597Y-79145019D01*
X109586346Y-79143188D01*
X109592935Y-79121709D01*
X109610486Y-79072589D01*
X109635675Y-79004561D01*
X109665180Y-78926356D01*
X109695676Y-78846705D01*
X109723842Y-78774341D01*
X109746352Y-78717994D01*
X109759884Y-78686398D01*
X109761118Y-78683999D01*
X109775417Y-78674439D01*
X109791510Y-78699772D01*
X109796689Y-78713158D01*
X109812082Y-78755276D01*
X109836934Y-78823158D01*
X109867245Y-78905883D01*
X109887016Y-78959808D01*
X109956875Y-79150308D01*
X110241736Y-79150308D01*
X110184971Y-79005142D01*
X110178967Y-78989824D01*
X109911895Y-78308629D01*
X109619673Y-78319923D01*
G37*
X109619673Y-78319923D02*
X109349009Y-78992564D01*
X109287658Y-79145472D01*
X109231179Y-79287088D01*
X109181187Y-79413298D01*
X109139295Y-79519988D01*
X109107119Y-79603046D01*
X109086274Y-79658357D01*
X109078373Y-79681809D01*
X109078346Y-79682117D01*
X109096267Y-79689463D01*
X109143716Y-79693604D01*
X109211224Y-79693821D01*
X109226543Y-79693322D01*
X109374739Y-79687615D01*
X109433139Y-79536192D01*
X109491540Y-79384769D01*
X110046170Y-79384769D01*
X110157246Y-79697385D01*
X110301642Y-79697385D01*
X110371119Y-79695747D01*
X110422296Y-79691422D01*
X110445551Y-79685286D01*
X110446038Y-79684202D01*
X110439141Y-79663637D01*
X110419497Y-79610792D01*
X110388673Y-79529746D01*
X110348240Y-79424579D01*
X110299766Y-79299369D01*
X110244820Y-79158197D01*
X110241736Y-79150308D01*
X109956875Y-79150308D01*
X109771611Y-79150308D01*
X109691930Y-79149611D01*
X109629428Y-79147740D01*
X109592597Y-79145019D01*
X109586346Y-79143188D01*
X109592935Y-79121709D01*
X109610486Y-79072589D01*
X109635675Y-79004561D01*
X109665180Y-78926356D01*
X109695676Y-78846705D01*
X109723842Y-78774341D01*
X109746352Y-78717994D01*
X109759884Y-78686398D01*
X109761118Y-78683999D01*
X109775417Y-78674439D01*
X109791510Y-78699772D01*
X109796689Y-78713158D01*
X109812082Y-78755276D01*
X109836934Y-78823158D01*
X109867245Y-78905883D01*
X109887016Y-78959808D01*
X109956875Y-79150308D01*
X110241736Y-79150308D01*
X110184971Y-79005142D01*
X110178967Y-78989824D01*
X109911895Y-78308629D01*
X109619673Y-78319923D01*
G36*
X106193087Y-78667541D02*
G01*
X106072905Y-78684885D01*
X105984046Y-78717931D01*
X105920960Y-78769434D01*
X105888723Y-78818818D01*
X105875102Y-78852416D01*
X105865521Y-78894991D01*
X105859338Y-78953496D01*
X105855913Y-79034885D01*
X105854606Y-79146109D01*
X105854530Y-79190011D01*
X105852338Y-79338595D01*
X105846027Y-79462220D01*
X105835945Y-79555532D01*
X105828054Y-79595434D01*
X105801609Y-79697385D01*
X105926230Y-79697385D01*
X105994765Y-79696084D01*
X106034592Y-79689829D01*
X106056054Y-79675093D01*
X106069423Y-79648538D01*
X106094171Y-79607884D01*
X106121365Y-79603071D01*
X106139065Y-79621265D01*
X106173457Y-79650382D01*
X106233450Y-79678943D01*
X106305800Y-79702146D01*
X106377263Y-79715186D01*
X106401577Y-79716478D01*
X106486289Y-79705549D01*
X106570046Y-79676994D01*
X106573401Y-79675362D01*
X106653402Y-79616375D01*
X106705572Y-79537778D01*
X106729385Y-79447915D01*
X106726493Y-79394989D01*
X106460192Y-79394989D01*
X106443667Y-79455638D01*
X106399930Y-79497780D01*
X106337739Y-79518175D01*
X106265854Y-79513583D01*
X106205987Y-79489002D01*
X106144696Y-79432812D01*
X106113391Y-79353245D01*
X106108500Y-79294610D01*
X106111919Y-79249098D01*
X106125499Y-79233802D01*
X106142692Y-79236197D01*
X106181299Y-79246327D01*
X106240882Y-79260386D01*
X106274577Y-79267904D01*
X106371146Y-79296248D01*
X106431556Y-79331974D01*
X106458314Y-79376800D01*
X106460192Y-79394989D01*
X106726493Y-79394989D01*
X106724314Y-79355131D01*
X106689834Y-79267771D01*
X106625420Y-79194178D01*
X106604692Y-79178985D01*
X106559341Y-79157189D01*
X106487460Y-79131969D01*
X106400899Y-79107239D01*
X106350692Y-79095121D01*
X106248999Y-79071671D01*
X106179939Y-79052881D01*
X106137898Y-79035399D01*
X106117263Y-79015873D01*
X106112419Y-78990951D01*
X106117752Y-78957282D01*
X106117990Y-78956192D01*
X106146924Y-78902393D01*
X106199028Y-78869396D01*
X106264643Y-78856805D01*
X106334114Y-78864225D01*
X106397782Y-78891257D01*
X106445990Y-78937507D01*
X106462191Y-78970319D01*
X106480581Y-78982850D01*
X106526844Y-78983029D01*
X106572940Y-78976948D01*
X106632909Y-78965689D01*
X106675624Y-78954412D01*
X106687916Y-78948635D01*
X106690668Y-78921057D01*
X106673391Y-78874793D01*
X106641620Y-78820708D01*
X106600891Y-78769672D01*
X106592318Y-78760943D01*
X106508428Y-78705554D01*
X106394752Y-78673270D01*
X106253369Y-78664578D01*
X106193087Y-78667541D01*
G37*
X106193087Y-78667541D02*
X106072905Y-78684885D01*
X105984046Y-78717931D01*
X105920960Y-78769434D01*
X105888723Y-78818818D01*
X105875102Y-78852416D01*
X105865521Y-78894991D01*
X105859338Y-78953496D01*
X105855913Y-79034885D01*
X105854606Y-79146109D01*
X105854530Y-79190011D01*
X105852338Y-79338595D01*
X105846027Y-79462220D01*
X105835945Y-79555532D01*
X105828054Y-79595434D01*
X105801609Y-79697385D01*
X105926230Y-79697385D01*
X105994765Y-79696084D01*
X106034592Y-79689829D01*
X106056054Y-79675093D01*
X106069423Y-79648538D01*
X106094171Y-79607884D01*
X106121365Y-79603071D01*
X106139065Y-79621265D01*
X106173457Y-79650382D01*
X106233450Y-79678943D01*
X106305800Y-79702146D01*
X106377263Y-79715186D01*
X106401577Y-79716478D01*
X106486289Y-79705549D01*
X106570046Y-79676994D01*
X106573401Y-79675362D01*
X106653402Y-79616375D01*
X106705572Y-79537778D01*
X106729385Y-79447915D01*
X106726493Y-79394989D01*
X106460192Y-79394989D01*
X106443667Y-79455638D01*
X106399930Y-79497780D01*
X106337739Y-79518175D01*
X106265854Y-79513583D01*
X106205987Y-79489002D01*
X106144696Y-79432812D01*
X106113391Y-79353245D01*
X106108500Y-79294610D01*
X106111919Y-79249098D01*
X106125499Y-79233802D01*
X106142692Y-79236197D01*
X106181299Y-79246327D01*
X106240882Y-79260386D01*
X106274577Y-79267904D01*
X106371146Y-79296248D01*
X106431556Y-79331974D01*
X106458314Y-79376800D01*
X106460192Y-79394989D01*
X106726493Y-79394989D01*
X106724314Y-79355131D01*
X106689834Y-79267771D01*
X106625420Y-79194178D01*
X106604692Y-79178985D01*
X106559341Y-79157189D01*
X106487460Y-79131969D01*
X106400899Y-79107239D01*
X106350692Y-79095121D01*
X106248999Y-79071671D01*
X106179939Y-79052881D01*
X106137898Y-79035399D01*
X106117263Y-79015873D01*
X106112419Y-78990951D01*
X106117752Y-78957282D01*
X106117990Y-78956192D01*
X106146924Y-78902393D01*
X106199028Y-78869396D01*
X106264643Y-78856805D01*
X106334114Y-78864225D01*
X106397782Y-78891257D01*
X106445990Y-78937507D01*
X106462191Y-78970319D01*
X106480581Y-78982850D01*
X106526844Y-78983029D01*
X106572940Y-78976948D01*
X106632909Y-78965689D01*
X106675624Y-78954412D01*
X106687916Y-78948635D01*
X106690668Y-78921057D01*
X106673391Y-78874793D01*
X106641620Y-78820708D01*
X106600891Y-78769672D01*
X106592318Y-78760943D01*
X106508428Y-78705554D01*
X106394752Y-78673270D01*
X106253369Y-78664578D01*
X106193087Y-78667541D01*
G36*
X107185467Y-78671418D02*
G01*
X107069999Y-78713956D01*
X106988631Y-78770819D01*
X106941962Y-78820471D01*
X106903048Y-78874979D01*
X106877638Y-78924476D01*
X106871480Y-78959096D01*
X106874973Y-78965909D01*
X106898052Y-78974019D01*
X106947951Y-78985106D01*
X106999719Y-78994382D01*
X107068560Y-79003356D01*
X107107059Y-79001884D01*
X107122614Y-78989647D01*
X107122809Y-78989095D01*
X107141123Y-78960404D01*
X107176105Y-78920055D01*
X107184806Y-78911149D01*
X107253791Y-78865564D01*
X107328949Y-78857474D01*
X107405641Y-78886824D01*
X107441692Y-78914243D01*
X107505500Y-78971256D01*
X107505500Y-79176580D01*
X107501862Y-79295297D01*
X107489069Y-79381529D01*
X107464301Y-79441347D01*
X107424735Y-79480827D01*
X107367553Y-79506041D01*
X107350293Y-79510797D01*
X107267536Y-79515157D01*
X107198834Y-79483150D01*
X107144981Y-79415171D01*
X107140864Y-79407250D01*
X107117662Y-79362971D01*
X107102084Y-79336651D01*
X107100584Y-79334802D01*
X107078938Y-79333659D01*
X107032143Y-79338257D01*
X106973348Y-79346574D01*
X106915701Y-79356587D01*
X106872352Y-79366271D01*
X106856920Y-79372298D01*
X106856753Y-79397083D01*
X106874183Y-79442711D01*
X106903650Y-79498547D01*
X106939596Y-79553958D01*
X106973534Y-79595343D01*
X107054098Y-79653647D01*
X107159348Y-79693744D01*
X107278416Y-79713637D01*
X107400432Y-79711329D01*
X107495731Y-79691258D01*
X107572979Y-79650882D01*
X107650108Y-79584077D01*
X107716714Y-79502116D01*
X107762394Y-79416269D01*
X107769626Y-79394473D01*
X107797196Y-79240735D01*
X107792774Y-79093651D01*
X107757528Y-78959181D01*
X107692627Y-78843287D01*
X107652494Y-78797210D01*
X107551928Y-78722044D01*
X107434914Y-78675799D01*
X107309933Y-78658811D01*
X107185467Y-78671418D01*
G37*
X107185467Y-78671418D02*
X107069999Y-78713956D01*
X106988631Y-78770819D01*
X106941962Y-78820471D01*
X106903048Y-78874979D01*
X106877638Y-78924476D01*
X106871480Y-78959096D01*
X106874973Y-78965909D01*
X106898052Y-78974019D01*
X106947951Y-78985106D01*
X106999719Y-78994382D01*
X107068560Y-79003356D01*
X107107059Y-79001884D01*
X107122614Y-78989647D01*
X107122809Y-78989095D01*
X107141123Y-78960404D01*
X107176105Y-78920055D01*
X107184806Y-78911149D01*
X107253791Y-78865564D01*
X107328949Y-78857474D01*
X107405641Y-78886824D01*
X107441692Y-78914243D01*
X107505500Y-78971256D01*
X107505500Y-79176580D01*
X107501862Y-79295297D01*
X107489069Y-79381529D01*
X107464301Y-79441347D01*
X107424735Y-79480827D01*
X107367553Y-79506041D01*
X107350293Y-79510797D01*
X107267536Y-79515157D01*
X107198834Y-79483150D01*
X107144981Y-79415171D01*
X107140864Y-79407250D01*
X107117662Y-79362971D01*
X107102084Y-79336651D01*
X107100584Y-79334802D01*
X107078938Y-79333659D01*
X107032143Y-79338257D01*
X106973348Y-79346574D01*
X106915701Y-79356587D01*
X106872352Y-79366271D01*
X106856920Y-79372298D01*
X106856753Y-79397083D01*
X106874183Y-79442711D01*
X106903650Y-79498547D01*
X106939596Y-79553958D01*
X106973534Y-79595343D01*
X107054098Y-79653647D01*
X107159348Y-79693744D01*
X107278416Y-79713637D01*
X107400432Y-79711329D01*
X107495731Y-79691258D01*
X107572979Y-79650882D01*
X107650108Y-79584077D01*
X107716714Y-79502116D01*
X107762394Y-79416269D01*
X107769626Y-79394473D01*
X107797196Y-79240735D01*
X107792774Y-79093651D01*
X107757528Y-78959181D01*
X107692627Y-78843287D01*
X107652494Y-78797210D01*
X107551928Y-78722044D01*
X107434914Y-78675799D01*
X107309933Y-78658811D01*
X107185467Y-78671418D01*
G36*
X105943107Y-76170977D02*
G01*
X105743544Y-76199328D01*
X105537600Y-76243683D01*
X105338538Y-76301505D01*
X105277083Y-76322939D01*
X105067315Y-76417709D01*
X104862297Y-76544732D01*
X104670565Y-76697369D01*
X104500655Y-76868980D01*
X104385565Y-77016353D01*
X104261836Y-77228374D01*
X104166324Y-77462885D01*
X104100668Y-77713731D01*
X104066506Y-77974756D01*
X104064489Y-78222231D01*
X104084034Y-78444303D01*
X104120377Y-78656783D01*
X104175905Y-78868082D01*
X104253003Y-79086613D01*
X104354056Y-79320788D01*
X104408032Y-79433615D01*
X104593744Y-79776448D01*
X104817817Y-80126599D01*
X105080229Y-80484046D01*
X105380961Y-80848763D01*
X105719993Y-81220726D01*
X106097304Y-81599910D01*
X106512873Y-81986292D01*
X106606731Y-82069873D01*
X106715956Y-82165078D01*
X106836770Y-82268035D01*
X106965565Y-82375879D01*
X107098735Y-82485740D01*
X107232672Y-82594754D01*
X107363769Y-82700050D01*
X107488419Y-82798764D01*
X107603015Y-82888027D01*
X107703949Y-82964971D01*
X107787614Y-83026731D01*
X107850404Y-83070437D01*
X107888710Y-83093224D01*
X107897476Y-83095882D01*
X107923935Y-83090017D01*
X107977090Y-83075609D01*
X108046277Y-83055570D01*
X108058505Y-83051921D01*
X108096635Y-83040414D01*
X108130064Y-83029210D01*
X108162145Y-83015881D01*
X108196235Y-82998000D01*
X108228307Y-82977790D01*
X108162274Y-82977790D01*
X108039041Y-83016067D01*
X107973981Y-83035900D01*
X107924219Y-83050375D01*
X107901390Y-83056172D01*
X107881878Y-83045423D01*
X107836987Y-83014508D01*
X107772117Y-82967334D01*
X107692669Y-82907810D01*
X107627851Y-82858251D01*
X107122907Y-82457158D01*
X106656425Y-82061994D01*
X106228265Y-81672608D01*
X105838286Y-81288846D01*
X105486350Y-80910557D01*
X105172317Y-80537590D01*
X104896047Y-80169791D01*
X104657400Y-79807010D01*
X104456238Y-79449094D01*
X104409399Y-79355461D01*
X104292418Y-79092181D01*
X104205456Y-78841373D01*
X104146038Y-78593801D01*
X104111692Y-78340227D01*
X104103330Y-78212461D01*
X104106561Y-77939409D01*
X104142316Y-77684962D01*
X104211642Y-77444570D01*
X104315586Y-77213680D01*
X104345738Y-77159284D01*
X104482342Y-76953325D01*
X104641758Y-76773860D01*
X104829188Y-76615650D01*
X104994305Y-76505960D01*
X105167068Y-76416468D01*
X105365028Y-76338462D01*
X105576445Y-76275145D01*
X105789584Y-76229721D01*
X105992705Y-76205392D01*
X106107032Y-76202284D01*
X106255038Y-76204568D01*
X106147577Y-76221516D01*
X105867143Y-76283364D01*
X105604835Y-76376699D01*
X105363045Y-76499801D01*
X105144166Y-76650947D01*
X104950592Y-76828416D01*
X104784716Y-77030485D01*
X104648929Y-77255434D01*
X104616088Y-77323461D01*
X104543552Y-77518020D01*
X104490469Y-77736913D01*
X104457990Y-77969947D01*
X104447270Y-78206929D01*
X104459460Y-78437665D01*
X104476405Y-78558538D01*
X104541742Y-78844264D01*
X104638482Y-79133742D01*
X104767314Y-79428040D01*
X104928923Y-79728228D01*
X105124000Y-80035374D01*
X105353230Y-80350546D01*
X105617302Y-80674813D01*
X105916903Y-81009243D01*
X106252721Y-81354906D01*
X106316275Y-81417623D01*
X106804764Y-81876536D01*
X107319350Y-82320057D01*
X107866194Y-82753482D01*
X107903318Y-82781671D01*
X108162274Y-82977790D01*
X108228307Y-82977790D01*
X108235689Y-82973139D01*
X108283861Y-82938870D01*
X108344107Y-82892766D01*
X108419783Y-82832397D01*
X108514243Y-82755338D01*
X108630843Y-82659160D01*
X108772938Y-82541435D01*
X108834115Y-82490712D01*
X109251926Y-82138006D01*
X109635447Y-81800836D01*
X109985679Y-81477958D01*
X110303625Y-81168129D01*
X110590286Y-80870106D01*
X110846664Y-80582647D01*
X111073760Y-80304509D01*
X111272577Y-80034448D01*
X111444115Y-79771221D01*
X111589378Y-79513587D01*
X111709365Y-79260301D01*
X111805079Y-79010122D01*
X111877522Y-78761805D01*
X111893212Y-78694964D01*
X111936380Y-78420832D01*
X111945279Y-78146169D01*
X111942647Y-78116730D01*
X111906542Y-78116730D01*
X111905288Y-78306806D01*
X111875220Y-78576768D01*
X111815342Y-78848457D01*
X111724880Y-79123201D01*
X111603056Y-79402332D01*
X111449096Y-79687178D01*
X111262223Y-79979070D01*
X111041662Y-80279337D01*
X110786636Y-80589310D01*
X110496371Y-80910318D01*
X110222129Y-81192077D01*
X110105628Y-81307750D01*
X109997153Y-81414232D01*
X109893575Y-81514280D01*
X109791764Y-81610653D01*
X109688590Y-81706109D01*
X109580925Y-81803408D01*
X109465640Y-81905306D01*
X109339604Y-82014563D01*
X109199688Y-82133937D01*
X109042764Y-82266187D01*
X108865702Y-82414071D01*
X108665372Y-82580348D01*
X108438646Y-82767776D01*
X108374961Y-82820333D01*
X108307698Y-82875603D01*
X108252562Y-82920481D01*
X108215859Y-82949860D01*
X108203874Y-82958831D01*
X108187514Y-82948080D01*
X108145966Y-82917529D01*
X108084861Y-82871404D01*
X108009831Y-82813929D01*
X107979182Y-82790257D01*
X107596599Y-82489490D01*
X107246482Y-82204446D01*
X106926501Y-81933064D01*
X106634324Y-81673283D01*
X106367623Y-81423043D01*
X106124066Y-81180283D01*
X105947852Y-80993919D01*
X105640943Y-80645921D01*
X105370915Y-80309155D01*
X105137428Y-79982962D01*
X104940139Y-79666685D01*
X104778706Y-79359667D01*
X104652786Y-79061250D01*
X104562039Y-78770775D01*
X104506122Y-78487587D01*
X104484692Y-78211026D01*
X104484424Y-78180365D01*
X104488168Y-78012225D01*
X104501608Y-77866145D01*
X104527107Y-77725802D01*
X104567026Y-77574875D01*
X104576678Y-77542865D01*
X104669571Y-77304229D01*
X104794698Y-77085165D01*
X104949549Y-76887360D01*
X105131612Y-76712504D01*
X105338376Y-76562283D01*
X105567332Y-76438387D01*
X105815969Y-76342504D01*
X106081775Y-76276320D01*
X106362241Y-76241526D01*
X106519738Y-76236382D01*
X106785888Y-76252262D01*
X107032392Y-76301229D01*
X107261973Y-76384323D01*
X107477353Y-76502589D01*
X107681254Y-76657069D01*
X107728719Y-76699588D01*
X107818844Y-76791023D01*
X107913568Y-76901044D01*
X108004100Y-77018327D01*
X108081647Y-77131551D01*
X108132728Y-77219942D01*
X108162313Y-77272175D01*
X108187570Y-77306209D01*
X108198488Y-77313692D01*
X108216334Y-77297867D01*
X108246250Y-77256189D01*
X108282049Y-77197359D01*
X108285317Y-77191577D01*
X108435177Y-76962838D01*
X108610929Y-76762846D01*
X108810665Y-76592913D01*
X109032476Y-76454351D01*
X109274452Y-76348474D01*
X109534685Y-76276594D01*
X109643376Y-76257668D01*
X109785009Y-76244343D01*
X109947826Y-76240964D01*
X110118431Y-76246908D01*
X110283424Y-76261551D01*
X110429406Y-76284267D01*
X110485115Y-76296902D01*
X110642108Y-76346688D01*
X110810005Y-76416055D01*
X110973044Y-76497698D01*
X111115462Y-76584315D01*
X111135387Y-76598221D01*
X111316954Y-76750957D01*
X111478498Y-76933472D01*
X111617751Y-77140738D01*
X111732448Y-77367726D01*
X111820323Y-77609407D01*
X111879110Y-77860751D01*
X111906542Y-78116730D01*
X111942647Y-78116730D01*
X111921053Y-77875278D01*
X111864847Y-77612459D01*
X111777804Y-77362015D01*
X111661069Y-77128248D01*
X111515785Y-76915458D01*
X111379380Y-76762833D01*
X111170062Y-76581555D01*
X110943454Y-76435186D01*
X110700552Y-76324186D01*
X110442353Y-76249014D01*
X110182269Y-76211082D01*
X110110495Y-76205185D01*
X109648409Y-76205185D01*
X109644133Y-76209653D01*
X109625423Y-76213431D01*
X109426090Y-76257850D01*
X109225706Y-76323282D01*
X109035845Y-76405091D01*
X108868081Y-76498645D01*
X108804448Y-76542187D01*
X108726217Y-76606827D01*
X108635147Y-76693386D01*
X108539299Y-76793044D01*
X108446734Y-76896983D01*
X108365513Y-76996386D01*
X108303697Y-77082434D01*
X108289348Y-77105679D01*
X108251300Y-77167381D01*
X108219216Y-77213199D01*
X108199001Y-77234841D01*
X108196869Y-77235538D01*
X108179397Y-77219597D01*
X108152350Y-77178648D01*
X108132618Y-77142731D01*
X108099552Y-77081615D01*
X108068588Y-77029748D01*
X108056073Y-77011342D01*
X108041429Y-76985878D01*
X108043104Y-76959981D01*
X108064111Y-76922169D01*
X108088707Y-76886952D01*
X108159421Y-76801301D01*
X108252795Y-76706445D01*
X108357671Y-76612756D01*
X108462890Y-76530609D01*
X108498319Y-76506115D01*
X108712509Y-76386730D01*
X108951065Y-76296014D01*
X109210556Y-76235172D01*
X109312295Y-76220337D01*
X109378002Y-76213553D01*
X109448735Y-76208276D01*
X109517818Y-76204653D01*
X109578576Y-76202832D01*
X109624332Y-76202960D01*
X109648409Y-76205185D01*
X110110495Y-76205185D01*
X110096266Y-76204016D01*
X109987214Y-76194759D01*
X109870978Y-76184667D01*
X109790963Y-76177577D01*
X109502196Y-76168164D01*
X109226142Y-76192167D01*
X108965390Y-76248907D01*
X108722528Y-76337704D01*
X108500147Y-76457880D01*
X108370212Y-76550592D01*
X108247474Y-76654820D01*
X108139697Y-76760296D01*
X108055503Y-76858406D01*
X108037980Y-76882446D01*
X108004939Y-76929893D01*
X107885824Y-76799900D01*
X107716928Y-76637643D01*
X107527103Y-76493999D01*
X107325029Y-76374427D01*
X107119383Y-76284384D01*
X107012658Y-76250703D01*
X106945914Y-76236756D01*
X106848856Y-76221840D01*
X106730204Y-76206834D01*
X106598676Y-76192615D01*
X106462992Y-76180061D01*
X106331872Y-76170050D01*
X106214034Y-76163458D01*
X106123025Y-76161164D01*
X105943107Y-76170977D01*
G37*
X105943107Y-76170977D02*
X105743544Y-76199328D01*
X105537600Y-76243683D01*
X105338538Y-76301505D01*
X105277083Y-76322939D01*
X105067315Y-76417709D01*
X104862297Y-76544732D01*
X104670565Y-76697369D01*
X104500655Y-76868980D01*
X104385565Y-77016353D01*
X104261836Y-77228374D01*
X104166324Y-77462885D01*
X104100668Y-77713731D01*
X104066506Y-77974756D01*
X104064489Y-78222231D01*
X104084034Y-78444303D01*
X104120377Y-78656783D01*
X104175905Y-78868082D01*
X104253003Y-79086613D01*
X104354056Y-79320788D01*
X104408032Y-79433615D01*
X104593744Y-79776448D01*
X104817817Y-80126599D01*
X105080229Y-80484046D01*
X105380961Y-80848763D01*
X105719993Y-81220726D01*
X106097304Y-81599910D01*
X106512873Y-81986292D01*
X106606731Y-82069873D01*
X106715956Y-82165078D01*
X106836770Y-82268035D01*
X106965565Y-82375879D01*
X107098735Y-82485740D01*
X107232672Y-82594754D01*
X107363769Y-82700050D01*
X107488419Y-82798764D01*
X107603015Y-82888027D01*
X107703949Y-82964971D01*
X107787614Y-83026731D01*
X107850404Y-83070437D01*
X107888710Y-83093224D01*
X107897476Y-83095882D01*
X107923935Y-83090017D01*
X107977090Y-83075609D01*
X108046277Y-83055570D01*
X108058505Y-83051921D01*
X108096635Y-83040414D01*
X108130064Y-83029210D01*
X108162145Y-83015881D01*
X108196235Y-82998000D01*
X108228307Y-82977790D01*
X108162274Y-82977790D01*
X108039041Y-83016067D01*
X107973981Y-83035900D01*
X107924219Y-83050375D01*
X107901390Y-83056172D01*
X107881878Y-83045423D01*
X107836987Y-83014508D01*
X107772117Y-82967334D01*
X107692669Y-82907810D01*
X107627851Y-82858251D01*
X107122907Y-82457158D01*
X106656425Y-82061994D01*
X106228265Y-81672608D01*
X105838286Y-81288846D01*
X105486350Y-80910557D01*
X105172317Y-80537590D01*
X104896047Y-80169791D01*
X104657400Y-79807010D01*
X104456238Y-79449094D01*
X104409399Y-79355461D01*
X104292418Y-79092181D01*
X104205456Y-78841373D01*
X104146038Y-78593801D01*
X104111692Y-78340227D01*
X104103330Y-78212461D01*
X104106561Y-77939409D01*
X104142316Y-77684962D01*
X104211642Y-77444570D01*
X104315586Y-77213680D01*
X104345738Y-77159284D01*
X104482342Y-76953325D01*
X104641758Y-76773860D01*
X104829188Y-76615650D01*
X104994305Y-76505960D01*
X105167068Y-76416468D01*
X105365028Y-76338462D01*
X105576445Y-76275145D01*
X105789584Y-76229721D01*
X105992705Y-76205392D01*
X106107032Y-76202284D01*
X106255038Y-76204568D01*
X106147577Y-76221516D01*
X105867143Y-76283364D01*
X105604835Y-76376699D01*
X105363045Y-76499801D01*
X105144166Y-76650947D01*
X104950592Y-76828416D01*
X104784716Y-77030485D01*
X104648929Y-77255434D01*
X104616088Y-77323461D01*
X104543552Y-77518020D01*
X104490469Y-77736913D01*
X104457990Y-77969947D01*
X104447270Y-78206929D01*
X104459460Y-78437665D01*
X104476405Y-78558538D01*
X104541742Y-78844264D01*
X104638482Y-79133742D01*
X104767314Y-79428040D01*
X104928923Y-79728228D01*
X105124000Y-80035374D01*
X105353230Y-80350546D01*
X105617302Y-80674813D01*
X105916903Y-81009243D01*
X106252721Y-81354906D01*
X106316275Y-81417623D01*
X106804764Y-81876536D01*
X107319350Y-82320057D01*
X107866194Y-82753482D01*
X107903318Y-82781671D01*
X108162274Y-82977790D01*
X108228307Y-82977790D01*
X108235689Y-82973139D01*
X108283861Y-82938870D01*
X108344107Y-82892766D01*
X108419783Y-82832397D01*
X108514243Y-82755338D01*
X108630843Y-82659160D01*
X108772938Y-82541435D01*
X108834115Y-82490712D01*
X109251926Y-82138006D01*
X109635447Y-81800836D01*
X109985679Y-81477958D01*
X110303625Y-81168129D01*
X110590286Y-80870106D01*
X110846664Y-80582647D01*
X111073760Y-80304509D01*
X111272577Y-80034448D01*
X111444115Y-79771221D01*
X111589378Y-79513587D01*
X111709365Y-79260301D01*
X111805079Y-79010122D01*
X111877522Y-78761805D01*
X111893212Y-78694964D01*
X111936380Y-78420832D01*
X111945279Y-78146169D01*
X111942647Y-78116730D01*
X111906542Y-78116730D01*
X111905288Y-78306806D01*
X111875220Y-78576768D01*
X111815342Y-78848457D01*
X111724880Y-79123201D01*
X111603056Y-79402332D01*
X111449096Y-79687178D01*
X111262223Y-79979070D01*
X111041662Y-80279337D01*
X110786636Y-80589310D01*
X110496371Y-80910318D01*
X110222129Y-81192077D01*
X110105628Y-81307750D01*
X109997153Y-81414232D01*
X109893575Y-81514280D01*
X109791764Y-81610653D01*
X109688590Y-81706109D01*
X109580925Y-81803408D01*
X109465640Y-81905306D01*
X109339604Y-82014563D01*
X109199688Y-82133937D01*
X109042764Y-82266187D01*
X108865702Y-82414071D01*
X108665372Y-82580348D01*
X108438646Y-82767776D01*
X108374961Y-82820333D01*
X108307698Y-82875603D01*
X108252562Y-82920481D01*
X108215859Y-82949860D01*
X108203874Y-82958831D01*
X108187514Y-82948080D01*
X108145966Y-82917529D01*
X108084861Y-82871404D01*
X108009831Y-82813929D01*
X107979182Y-82790257D01*
X107596599Y-82489490D01*
X107246482Y-82204446D01*
X106926501Y-81933064D01*
X106634324Y-81673283D01*
X106367623Y-81423043D01*
X106124066Y-81180283D01*
X105947852Y-80993919D01*
X105640943Y-80645921D01*
X105370915Y-80309155D01*
X105137428Y-79982962D01*
X104940139Y-79666685D01*
X104778706Y-79359667D01*
X104652786Y-79061250D01*
X104562039Y-78770775D01*
X104506122Y-78487587D01*
X104484692Y-78211026D01*
X104484424Y-78180365D01*
X104488168Y-78012225D01*
X104501608Y-77866145D01*
X104527107Y-77725802D01*
X104567026Y-77574875D01*
X104576678Y-77542865D01*
X104669571Y-77304229D01*
X104794698Y-77085165D01*
X104949549Y-76887360D01*
X105131612Y-76712504D01*
X105338376Y-76562283D01*
X105567332Y-76438387D01*
X105815969Y-76342504D01*
X106081775Y-76276320D01*
X106362241Y-76241526D01*
X106519738Y-76236382D01*
X106785888Y-76252262D01*
X107032392Y-76301229D01*
X107261973Y-76384323D01*
X107477353Y-76502589D01*
X107681254Y-76657069D01*
X107728719Y-76699588D01*
X107818844Y-76791023D01*
X107913568Y-76901044D01*
X108004100Y-77018327D01*
X108081647Y-77131551D01*
X108132728Y-77219942D01*
X108162313Y-77272175D01*
X108187570Y-77306209D01*
X108198488Y-77313692D01*
X108216334Y-77297867D01*
X108246250Y-77256189D01*
X108282049Y-77197359D01*
X108285317Y-77191577D01*
X108435177Y-76962838D01*
X108610929Y-76762846D01*
X108810665Y-76592913D01*
X109032476Y-76454351D01*
X109274452Y-76348474D01*
X109534685Y-76276594D01*
X109643376Y-76257668D01*
X109785009Y-76244343D01*
X109947826Y-76240964D01*
X110118431Y-76246908D01*
X110283424Y-76261551D01*
X110429406Y-76284267D01*
X110485115Y-76296902D01*
X110642108Y-76346688D01*
X110810005Y-76416055D01*
X110973044Y-76497698D01*
X111115462Y-76584315D01*
X111135387Y-76598221D01*
X111316954Y-76750957D01*
X111478498Y-76933472D01*
X111617751Y-77140738D01*
X111732448Y-77367726D01*
X111820323Y-77609407D01*
X111879110Y-77860751D01*
X111906542Y-78116730D01*
X111942647Y-78116730D01*
X111921053Y-77875278D01*
X111864847Y-77612459D01*
X111777804Y-77362015D01*
X111661069Y-77128248D01*
X111515785Y-76915458D01*
X111379380Y-76762833D01*
X111170062Y-76581555D01*
X110943454Y-76435186D01*
X110700552Y-76324186D01*
X110442353Y-76249014D01*
X110182269Y-76211082D01*
X110110495Y-76205185D01*
X109648409Y-76205185D01*
X109644133Y-76209653D01*
X109625423Y-76213431D01*
X109426090Y-76257850D01*
X109225706Y-76323282D01*
X109035845Y-76405091D01*
X108868081Y-76498645D01*
X108804448Y-76542187D01*
X108726217Y-76606827D01*
X108635147Y-76693386D01*
X108539299Y-76793044D01*
X108446734Y-76896983D01*
X108365513Y-76996386D01*
X108303697Y-77082434D01*
X108289348Y-77105679D01*
X108251300Y-77167381D01*
X108219216Y-77213199D01*
X108199001Y-77234841D01*
X108196869Y-77235538D01*
X108179397Y-77219597D01*
X108152350Y-77178648D01*
X108132618Y-77142731D01*
X108099552Y-77081615D01*
X108068588Y-77029748D01*
X108056073Y-77011342D01*
X108041429Y-76985878D01*
X108043104Y-76959981D01*
X108064111Y-76922169D01*
X108088707Y-76886952D01*
X108159421Y-76801301D01*
X108252795Y-76706445D01*
X108357671Y-76612756D01*
X108462890Y-76530609D01*
X108498319Y-76506115D01*
X108712509Y-76386730D01*
X108951065Y-76296014D01*
X109210556Y-76235172D01*
X109312295Y-76220337D01*
X109378002Y-76213553D01*
X109448735Y-76208276D01*
X109517818Y-76204653D01*
X109578576Y-76202832D01*
X109624332Y-76202960D01*
X109648409Y-76205185D01*
X110110495Y-76205185D01*
X110096266Y-76204016D01*
X109987214Y-76194759D01*
X109870978Y-76184667D01*
X109790963Y-76177577D01*
X109502196Y-76168164D01*
X109226142Y-76192167D01*
X108965390Y-76248907D01*
X108722528Y-76337704D01*
X108500147Y-76457880D01*
X108370212Y-76550592D01*
X108247474Y-76654820D01*
X108139697Y-76760296D01*
X108055503Y-76858406D01*
X108037980Y-76882446D01*
X108004939Y-76929893D01*
X107885824Y-76799900D01*
X107716928Y-76637643D01*
X107527103Y-76493999D01*
X107325029Y-76374427D01*
X107119383Y-76284384D01*
X107012658Y-76250703D01*
X106945914Y-76236756D01*
X106848856Y-76221840D01*
X106730204Y-76206834D01*
X106598676Y-76192615D01*
X106462992Y-76180061D01*
X106331872Y-76170050D01*
X106214034Y-76163458D01*
X106123025Y-76161164D01*
X105943107Y-76170977D01*
D12*
%TO.C,U1*%
X183064000Y-98278201D02*
X183445000Y-98278201D01*
X183064000Y-98024201D02*
X183064000Y-98278201D01*
X183445000Y-98024201D02*
X183064000Y-98024201D01*
X183445000Y-98278201D02*
X183445000Y-98024201D01*
X176954701Y-103587499D02*
X176700701Y-103587499D01*
X176954701Y-103968499D02*
X176954701Y-103587499D01*
X176700701Y-103968499D02*
X176954701Y-103968499D01*
X176700701Y-103587499D02*
X176700701Y-103968499D01*
X183864001Y-108477799D02*
X184245001Y-108477799D01*
X183864001Y-108731799D02*
X183864001Y-108477799D01*
X184245001Y-108731799D02*
X183864001Y-108731799D01*
X184245001Y-108477799D02*
X184245001Y-108731799D01*
X185440839Y-99745800D02*
X185686700Y-99745800D01*
X178422300Y-99991661D02*
X178422300Y-99745800D01*
X178668161Y-107010200D02*
X178422300Y-107010200D01*
X185686700Y-106764339D02*
X185686700Y-107010200D01*
X185686700Y-99745800D02*
X185686700Y-99991661D01*
X178422300Y-99745800D02*
X178668161Y-99745800D01*
X178422300Y-107010200D02*
X178422300Y-106764339D01*
X185686700Y-107010200D02*
X185440839Y-107010200D01*
D13*
%TO.C,U2*%
X155193500Y-81865500D02*
X155193500Y-81515500D01*
X159893500Y-81865500D02*
X155193500Y-81865500D01*
X159893500Y-81515500D02*
X159893500Y-81865500D01*
X159893500Y-77615500D02*
X161143500Y-77615500D01*
X155193500Y-77265500D02*
X155193500Y-77615500D01*
X159893500Y-77265500D02*
X155193500Y-77265500D01*
X159893500Y-77615500D02*
X159893500Y-77265500D01*
X159893500Y-80185500D02*
X159893500Y-78945500D01*
X155193500Y-80185500D02*
X155193500Y-78945500D01*
D14*
%TO.C,U3*%
X177374500Y-78515500D02*
X176574500Y-78515500D01*
X175324500Y-78765500D02*
X175324500Y-80365500D01*
X178624500Y-78765500D02*
X178624500Y-80365500D01*
D15*
%TO.C,D21*%
G36*
X192722500Y-103555800D02*
G01*
X191960500Y-103555800D01*
X191960500Y-103428800D01*
X192722500Y-103428800D01*
X192722500Y-103555800D01*
G37*
G36*
X192341500Y-103555800D02*
G01*
X192595500Y-103873300D01*
X192087500Y-103873300D01*
X192341500Y-103555800D01*
G37*
D12*
%TO.C,D20*%
X171196000Y-80065500D02*
X171596000Y-79065500D01*
X171596000Y-79065500D02*
X170796000Y-79065500D01*
X170796000Y-79065500D02*
X171196000Y-80065500D01*
D16*
X172021000Y-80915500D02*
X172021000Y-78215500D01*
X172021000Y-78215500D02*
X170371000Y-78215500D01*
X170371000Y-78215500D02*
X170371000Y-80915500D01*
X170371000Y-80915500D02*
X172021000Y-80915500D01*
D15*
G36*
X170496000Y-80265500D02*
G01*
X170496000Y-80065500D01*
X171896000Y-80065500D01*
X171896000Y-80265500D01*
X170496000Y-80265500D01*
G37*
D17*
%TO.C,C1*%
X174307500Y-79565500D02*
X173291500Y-79565500D01*
%TO.C,C2*%
X179641500Y-79565500D02*
X180657500Y-79565500D01*
D13*
%TO.C,J1*%
X161604000Y-102192000D02*
X151324000Y-102192000D01*
X151324000Y-102192000D02*
X151324000Y-99532000D01*
X151324000Y-99532000D02*
X161604000Y-99532000D01*
X161604000Y-99532000D02*
X161604000Y-102192000D01*
X160654000Y-99532000D02*
X160654000Y-93532000D01*
X160654000Y-93532000D02*
X159894000Y-93532000D01*
X159894000Y-93532000D02*
X159894000Y-99532000D01*
X160594000Y-99532000D02*
X160594000Y-93532000D01*
X160474000Y-99532000D02*
X160474000Y-93532000D01*
X160354000Y-99532000D02*
X160354000Y-93532000D01*
X160234000Y-99532000D02*
X160234000Y-93532000D01*
X160114000Y-99532000D02*
X160114000Y-93532000D01*
X159994000Y-99532000D02*
X159994000Y-93532000D01*
X160654000Y-102522000D02*
X160654000Y-102192000D01*
X159894000Y-102522000D02*
X159894000Y-102192000D01*
X159004000Y-102192000D02*
X159004000Y-99532000D01*
X158114000Y-99532000D02*
X158114000Y-93532000D01*
X158114000Y-93532000D02*
X157354000Y-93532000D01*
X157354000Y-93532000D02*
X157354000Y-99532000D01*
X158114000Y-102589071D02*
X158114000Y-102192000D01*
X157354000Y-102589071D02*
X157354000Y-102192000D01*
X156464000Y-102192000D02*
X156464000Y-99532000D01*
X155574000Y-99532000D02*
X155574000Y-93532000D01*
X155574000Y-93532000D02*
X154814000Y-93532000D01*
X154814000Y-93532000D02*
X154814000Y-99532000D01*
X155574000Y-102589071D02*
X155574000Y-102192000D01*
X154814000Y-102589071D02*
X154814000Y-102192000D01*
X153924000Y-102192000D02*
X153924000Y-99532000D01*
X153034000Y-99532000D02*
X153034000Y-93532000D01*
X153034000Y-93532000D02*
X152274000Y-93532000D01*
X152274000Y-93532000D02*
X152274000Y-99532000D01*
X153034000Y-102589071D02*
X153034000Y-102192000D01*
X152274000Y-102589071D02*
X152274000Y-102192000D01*
X160274000Y-104902000D02*
X161544000Y-104902000D01*
X161544000Y-104902000D02*
X161544000Y-103632000D01*
D17*
%TO.C,R1*%
X199072500Y-106699000D02*
X199072500Y-105899000D01*
%TO.C,R2*%
X163176000Y-79565500D02*
X163976000Y-79565500D01*
D14*
%TO.C,RESET*%
X196972500Y-104776400D02*
X201172500Y-104776400D01*
X201172500Y-101725600D02*
X196972500Y-101725600D01*
D18*
%TO.C,J2*%
X134951500Y-102003000D02*
G75*
G03*
X134951500Y-102003000I-100000J0D01*
G01*
X131251500Y-103383000D02*
X129451500Y-103383000D01*
X135851500Y-103383000D02*
X134051500Y-103383000D01*
X128851500Y-100833000D02*
X128851500Y-100903000D01*
X136451500Y-100833000D02*
X128851500Y-100833000D01*
X136451500Y-100903000D02*
X136451500Y-100833000D01*
D12*
%TO.C,D22*%
X168021000Y-80065500D02*
X168421000Y-79065500D01*
X168421000Y-79065500D02*
X167621000Y-79065500D01*
X167621000Y-79065500D02*
X168021000Y-80065500D01*
D16*
X168846000Y-80915500D02*
X168846000Y-78215500D01*
X168846000Y-78215500D02*
X167196000Y-78215500D01*
X167196000Y-78215500D02*
X167196000Y-80915500D01*
X167196000Y-80915500D02*
X168846000Y-80915500D01*
D15*
G36*
X167321000Y-80265500D02*
G01*
X167321000Y-80065500D01*
X168721000Y-80065500D01*
X168721000Y-80265500D01*
X167321000Y-80265500D01*
G37*
D17*
%TO.C,C3*%
X174371000Y-98215500D02*
X174371000Y-99015500D01*
%TO.C,C4*%
X174669500Y-105727500D02*
X175469500Y-105727500D01*
%TO.C,C5*%
X189205500Y-97491500D02*
X189205500Y-96691500D01*
%TO.C,C6*%
X190436500Y-106026000D02*
X190436500Y-106826000D01*
%TO.C,C7*%
X190836500Y-103910500D02*
X190036500Y-103910500D01*
%TO.C,U1*%
D10*
X182752904Y-96607380D02*
X182752904Y-97416904D01*
X182705285Y-97512142D01*
X182657666Y-97559761D01*
X182562428Y-97607380D01*
X182371952Y-97607380D01*
X182276714Y-97559761D01*
X182229095Y-97512142D01*
X182181476Y-97416904D01*
X182181476Y-96607380D01*
X181181476Y-97607380D02*
X181752904Y-97607380D01*
X181467190Y-97607380D02*
X181467190Y-96607380D01*
X181562428Y-96750238D01*
X181657666Y-96845476D01*
X181752904Y-96893095D01*
X186372500Y-98956880D02*
X186372500Y-99194976D01*
X186610595Y-99099738D02*
X186372500Y-99194976D01*
X186134404Y-99099738D01*
X186515357Y-99385452D02*
X186372500Y-99194976D01*
X186229642Y-99385452D01*
%TO.C,U2*%
X158305404Y-75517880D02*
X158305404Y-76327404D01*
X158257785Y-76422642D01*
X158210166Y-76470261D01*
X158114928Y-76517880D01*
X157924452Y-76517880D01*
X157829214Y-76470261D01*
X157781595Y-76422642D01*
X157733976Y-76327404D01*
X157733976Y-75517880D01*
X157305404Y-75613119D02*
X157257785Y-75565500D01*
X157162547Y-75517880D01*
X156924452Y-75517880D01*
X156829214Y-75565500D01*
X156781595Y-75613119D01*
X156733976Y-75708357D01*
X156733976Y-75803595D01*
X156781595Y-75946452D01*
X157353023Y-76517880D01*
X156733976Y-76517880D01*
%TO.C,U3*%
D19*
X177663314Y-82132230D02*
X177663314Y-82757312D01*
X177626545Y-82830851D01*
X177589775Y-82867620D01*
X177516236Y-82904390D01*
X177369158Y-82904390D01*
X177295619Y-82867620D01*
X177258849Y-82830851D01*
X177222080Y-82757312D01*
X177222080Y-82132230D01*
X176927924Y-82132230D02*
X176449920Y-82132230D01*
X176707306Y-82426386D01*
X176596998Y-82426386D01*
X176523459Y-82463156D01*
X176486689Y-82499925D01*
X176449920Y-82573464D01*
X176449920Y-82757312D01*
X176486689Y-82830851D01*
X176523459Y-82867620D01*
X176596998Y-82904390D01*
X176817615Y-82904390D01*
X176891154Y-82867620D01*
X176927924Y-82830851D01*
%TO.C,D21*%
D10*
X194436880Y-102481214D02*
X193436880Y-102481214D01*
X193436880Y-102719309D01*
X193484500Y-102862166D01*
X193579738Y-102957404D01*
X193674976Y-103005023D01*
X193865452Y-103052642D01*
X194008309Y-103052642D01*
X194198785Y-103005023D01*
X194294023Y-102957404D01*
X194389261Y-102862166D01*
X194436880Y-102719309D01*
X194436880Y-102481214D01*
X193532119Y-103433595D02*
X193484500Y-103481214D01*
X193436880Y-103576452D01*
X193436880Y-103814547D01*
X193484500Y-103909785D01*
X193532119Y-103957404D01*
X193627357Y-104005023D01*
X193722595Y-104005023D01*
X193865452Y-103957404D01*
X194436880Y-103385976D01*
X194436880Y-104005023D01*
X194436880Y-104957404D02*
X194436880Y-104385976D01*
X194436880Y-104671690D02*
X193436880Y-104671690D01*
X193579738Y-104576452D01*
X193674976Y-104481214D01*
X193722595Y-104385976D01*
%TO.C,D20*%
X170116380Y-78287714D02*
X169116380Y-78287714D01*
X169116380Y-78525809D01*
X169164000Y-78668666D01*
X169259238Y-78763904D01*
X169354476Y-78811523D01*
X169544952Y-78859142D01*
X169687809Y-78859142D01*
X169878285Y-78811523D01*
X169973523Y-78763904D01*
X170068761Y-78668666D01*
X170116380Y-78525809D01*
X170116380Y-78287714D01*
X169211619Y-79240095D02*
X169164000Y-79287714D01*
X169116380Y-79382952D01*
X169116380Y-79621047D01*
X169164000Y-79716285D01*
X169211619Y-79763904D01*
X169306857Y-79811523D01*
X169402095Y-79811523D01*
X169544952Y-79763904D01*
X170116380Y-79192476D01*
X170116380Y-79811523D01*
X169116380Y-80430571D02*
X169116380Y-80525809D01*
X169164000Y-80621047D01*
X169211619Y-80668666D01*
X169306857Y-80716285D01*
X169497333Y-80763904D01*
X169735428Y-80763904D01*
X169925904Y-80716285D01*
X170021142Y-80668666D01*
X170068761Y-80621047D01*
X170116380Y-80525809D01*
X170116380Y-80430571D01*
X170068761Y-80335333D01*
X170021142Y-80287714D01*
X169925904Y-80240095D01*
X169735428Y-80192476D01*
X169497333Y-80192476D01*
X169306857Y-80240095D01*
X169211619Y-80287714D01*
X169164000Y-80335333D01*
X169116380Y-80430571D01*
%TO.C,C1*%
D19*
X174010310Y-77433351D02*
X174047080Y-77470120D01*
X174157388Y-77506890D01*
X174230927Y-77506890D01*
X174341236Y-77470120D01*
X174414775Y-77396581D01*
X174451545Y-77323042D01*
X174488314Y-77175964D01*
X174488314Y-77065656D01*
X174451545Y-76918578D01*
X174414775Y-76845039D01*
X174341236Y-76771500D01*
X174230927Y-76734730D01*
X174157388Y-76734730D01*
X174047080Y-76771500D01*
X174010310Y-76808269D01*
X173274920Y-77506890D02*
X173716154Y-77506890D01*
X173495537Y-77506890D02*
X173495537Y-76734730D01*
X173569076Y-76845039D01*
X173642615Y-76918578D01*
X173716154Y-76955347D01*
%TO.C,C2*%
X180360310Y-77433351D02*
X180397080Y-77470120D01*
X180507388Y-77506890D01*
X180580927Y-77506890D01*
X180691236Y-77470120D01*
X180764775Y-77396581D01*
X180801545Y-77323042D01*
X180838314Y-77175964D01*
X180838314Y-77065656D01*
X180801545Y-76918578D01*
X180764775Y-76845039D01*
X180691236Y-76771500D01*
X180580927Y-76734730D01*
X180507388Y-76734730D01*
X180397080Y-76771500D01*
X180360310Y-76808269D01*
X180066154Y-76808269D02*
X180029385Y-76771500D01*
X179955846Y-76734730D01*
X179771998Y-76734730D01*
X179698459Y-76771500D01*
X179661689Y-76808269D01*
X179624920Y-76881808D01*
X179624920Y-76955347D01*
X179661689Y-77065656D01*
X180102924Y-77506890D01*
X179624920Y-77506890D01*
%TO.C,J1*%
D10*
X162877333Y-98699380D02*
X162877333Y-99413666D01*
X162924952Y-99556523D01*
X163020190Y-99651761D01*
X163163047Y-99699380D01*
X163258285Y-99699380D01*
X161877333Y-99699380D02*
X162448761Y-99699380D01*
X162163047Y-99699380D02*
X162163047Y-98699380D01*
X162258285Y-98842238D01*
X162353523Y-98937476D01*
X162448761Y-98985095D01*
%TO.C,R1*%
D19*
X199094575Y-108103730D02*
X199351962Y-107736035D01*
X199535810Y-108103730D02*
X199535810Y-107331570D01*
X199241653Y-107331570D01*
X199168114Y-107368340D01*
X199131345Y-107405109D01*
X199094575Y-107478648D01*
X199094575Y-107588957D01*
X199131345Y-107662496D01*
X199168114Y-107699265D01*
X199241653Y-107736035D01*
X199535810Y-107736035D01*
X198359185Y-108103730D02*
X198800419Y-108103730D01*
X198579802Y-108103730D02*
X198579802Y-107331570D01*
X198653341Y-107441879D01*
X198726880Y-107515418D01*
X198800419Y-107552187D01*
%TO.C,R2*%
X163786810Y-77687230D02*
X164044197Y-77319535D01*
X164228045Y-77687230D02*
X164228045Y-76915070D01*
X163933888Y-76915070D01*
X163860349Y-76951840D01*
X163823580Y-76988609D01*
X163786810Y-77062148D01*
X163786810Y-77172457D01*
X163823580Y-77245996D01*
X163860349Y-77282765D01*
X163933888Y-77319535D01*
X164228045Y-77319535D01*
X163492654Y-76988609D02*
X163455885Y-76951840D01*
X163382346Y-76915070D01*
X163198498Y-76915070D01*
X163124959Y-76951840D01*
X163088189Y-76988609D01*
X163051420Y-77062148D01*
X163051420Y-77135687D01*
X163088189Y-77245996D01*
X163529424Y-77687230D01*
X163051420Y-77687230D01*
%TO.C,RESET*%
X200189365Y-101182230D02*
X200446751Y-100814535D01*
X200630599Y-101182230D02*
X200630599Y-100410070D01*
X200336443Y-100410070D01*
X200262904Y-100446840D01*
X200226134Y-100483609D01*
X200189365Y-100557148D01*
X200189365Y-100667457D01*
X200226134Y-100740996D01*
X200262904Y-100777765D01*
X200336443Y-100814535D01*
X200630599Y-100814535D01*
X199858439Y-100777765D02*
X199601052Y-100777765D01*
X199490744Y-101182230D02*
X199858439Y-101182230D01*
X199858439Y-100410070D01*
X199490744Y-100410070D01*
X199196587Y-101145460D02*
X199086279Y-101182230D01*
X198902431Y-101182230D01*
X198828892Y-101145460D01*
X198792123Y-101108691D01*
X198755353Y-101035152D01*
X198755353Y-100961613D01*
X198792123Y-100888074D01*
X198828892Y-100851304D01*
X198902431Y-100814535D01*
X199049509Y-100777765D01*
X199123048Y-100740996D01*
X199159818Y-100704226D01*
X199196587Y-100630687D01*
X199196587Y-100557148D01*
X199159818Y-100483609D01*
X199123048Y-100446840D01*
X199049509Y-100410070D01*
X198865662Y-100410070D01*
X198755353Y-100446840D01*
X198424427Y-100777765D02*
X198167041Y-100777765D01*
X198056732Y-101182230D02*
X198424427Y-101182230D01*
X198424427Y-100410070D01*
X198056732Y-100410070D01*
X197836115Y-100410070D02*
X197394881Y-100410070D01*
X197615498Y-101182230D02*
X197615498Y-100410070D01*
%TO.C,J2*%
D10*
X132984833Y-98956880D02*
X132984833Y-99671166D01*
X133032452Y-99814023D01*
X133127690Y-99909261D01*
X133270547Y-99956880D01*
X133365785Y-99956880D01*
X132556261Y-99052119D02*
X132508642Y-99004500D01*
X132413404Y-98956880D01*
X132175309Y-98956880D01*
X132080071Y-99004500D01*
X132032452Y-99052119D01*
X131984833Y-99147357D01*
X131984833Y-99242595D01*
X132032452Y-99385452D01*
X132603880Y-99956880D01*
X131984833Y-99956880D01*
%TO.C,D22*%
X166814380Y-78377095D02*
X165814380Y-78377095D01*
X165814380Y-78615190D01*
X165862000Y-78758047D01*
X165957238Y-78853285D01*
X166052476Y-78900904D01*
X166242952Y-78948523D01*
X166385809Y-78948523D01*
X166576285Y-78900904D01*
X166671523Y-78853285D01*
X166766761Y-78758047D01*
X166814380Y-78615190D01*
X166814380Y-78377095D01*
X165909619Y-79329476D02*
X165862000Y-79377095D01*
X165814380Y-79472333D01*
X165814380Y-79710428D01*
X165862000Y-79805666D01*
X165909619Y-79853285D01*
X166004857Y-79900904D01*
X166100095Y-79900904D01*
X166242952Y-79853285D01*
X166814380Y-79281857D01*
X166814380Y-79900904D01*
X165909619Y-80281857D02*
X165862000Y-80329476D01*
X165814380Y-80424714D01*
X165814380Y-80662809D01*
X165862000Y-80758047D01*
X165909619Y-80805666D01*
X166004857Y-80853285D01*
X166100095Y-80853285D01*
X166242952Y-80805666D01*
X166814380Y-80234238D01*
X166814380Y-80853285D01*
%TO.C,C3*%
D19*
X174481075Y-97425691D02*
X174517845Y-97462460D01*
X174628153Y-97499230D01*
X174701693Y-97499230D01*
X174812001Y-97462460D01*
X174885540Y-97388921D01*
X174922310Y-97315382D01*
X174959079Y-97168304D01*
X174959079Y-97057996D01*
X174922310Y-96910918D01*
X174885540Y-96837379D01*
X174812001Y-96763840D01*
X174701693Y-96727070D01*
X174628153Y-96727070D01*
X174517845Y-96763840D01*
X174481075Y-96800609D01*
X174223689Y-96727070D02*
X173745685Y-96727070D01*
X174003072Y-97021226D01*
X173892763Y-97021226D01*
X173819224Y-97057996D01*
X173782454Y-97094765D01*
X173745685Y-97168304D01*
X173745685Y-97352152D01*
X173782454Y-97425691D01*
X173819224Y-97462460D01*
X173892763Y-97499230D01*
X174113380Y-97499230D01*
X174186919Y-97462460D01*
X174223689Y-97425691D01*
%TO.C,C4*%
X173943191Y-105553924D02*
X173979960Y-105517154D01*
X174016730Y-105406846D01*
X174016730Y-105333306D01*
X173979960Y-105222998D01*
X173906421Y-105149459D01*
X173832882Y-105112689D01*
X173685804Y-105075920D01*
X173575496Y-105075920D01*
X173428418Y-105112689D01*
X173354879Y-105149459D01*
X173281340Y-105222998D01*
X173244570Y-105333306D01*
X173244570Y-105406846D01*
X173281340Y-105517154D01*
X173318109Y-105553924D01*
X173501957Y-106215775D02*
X174016730Y-106215775D01*
X173207800Y-106031927D02*
X173759343Y-105848080D01*
X173759343Y-106326084D01*
%TO.C,C5*%
X189377310Y-95965191D02*
X189414080Y-96001960D01*
X189524388Y-96038730D01*
X189597927Y-96038730D01*
X189708236Y-96001960D01*
X189781775Y-95928421D01*
X189818545Y-95854882D01*
X189855314Y-95707804D01*
X189855314Y-95597496D01*
X189818545Y-95450418D01*
X189781775Y-95376879D01*
X189708236Y-95303340D01*
X189597927Y-95266570D01*
X189524388Y-95266570D01*
X189414080Y-95303340D01*
X189377310Y-95340109D01*
X188678689Y-95266570D02*
X189046385Y-95266570D01*
X189083154Y-95634265D01*
X189046385Y-95597496D01*
X188972846Y-95560726D01*
X188788998Y-95560726D01*
X188715459Y-95597496D01*
X188678689Y-95634265D01*
X188641920Y-95707804D01*
X188641920Y-95891652D01*
X188678689Y-95965191D01*
X188715459Y-96001960D01*
X188788998Y-96038730D01*
X188972846Y-96038730D01*
X189046385Y-96001960D01*
X189083154Y-95965191D01*
%TO.C,C6*%
X190546575Y-108093691D02*
X190583345Y-108130460D01*
X190693653Y-108167230D01*
X190767193Y-108167230D01*
X190877501Y-108130460D01*
X190951040Y-108056921D01*
X190987810Y-107983382D01*
X191024579Y-107836304D01*
X191024579Y-107725996D01*
X190987810Y-107578918D01*
X190951040Y-107505379D01*
X190877501Y-107431840D01*
X190767193Y-107395070D01*
X190693653Y-107395070D01*
X190583345Y-107431840D01*
X190546575Y-107468609D01*
X189884724Y-107395070D02*
X190031802Y-107395070D01*
X190105341Y-107431840D01*
X190142111Y-107468609D01*
X190215650Y-107578918D01*
X190252419Y-107725996D01*
X190252419Y-108020152D01*
X190215650Y-108093691D01*
X190178880Y-108130460D01*
X190105341Y-108167230D01*
X189958263Y-108167230D01*
X189884724Y-108130460D01*
X189847954Y-108093691D01*
X189811185Y-108020152D01*
X189811185Y-107836304D01*
X189847954Y-107762765D01*
X189884724Y-107725996D01*
X189958263Y-107689226D01*
X190105341Y-107689226D01*
X190178880Y-107725996D01*
X190215650Y-107762765D01*
X190252419Y-107836304D01*
%TO.C,C7*%
X189437191Y-103421189D02*
X189473960Y-103384419D01*
X189510730Y-103274111D01*
X189510730Y-103200572D01*
X189473960Y-103090263D01*
X189400421Y-103016724D01*
X189326882Y-102979954D01*
X189179804Y-102943185D01*
X189069496Y-102943185D01*
X188922418Y-102979954D01*
X188848879Y-103016724D01*
X188775340Y-103090263D01*
X188738570Y-103200572D01*
X188738570Y-103274111D01*
X188775340Y-103384419D01*
X188812109Y-103421189D01*
X188738570Y-103678575D02*
X188738570Y-104193349D01*
X189510730Y-103862423D01*
%TD*%
M02*
