%TF.GenerationSoftware,KiCad,Pcbnew,(5.1.9)-1*%
%TF.CreationDate,2021-03-17T19:25:06-04:00*%
%TF.ProjectId,DSKY_keyboard,44534b59-5f6b-4657-9962-6f6172642e6b,1.0*%
%TF.SameCoordinates,Original*%
%TF.FileFunction,Legend,Top*%
%TF.FilePolarity,Positive*%
%FSLAX46Y46*%
G04 Gerber Fmt 4.6, Leading zero omitted, Abs format (unit mm)*
G04 Created by KiCad (PCBNEW (5.1.9)-1) date 2021-03-17 19:25:06*
%MOMM*%
%LPD*%
G01*
G04 APERTURE LIST*
%ADD10C,0.150000*%
%ADD11C,0.406400*%
%ADD12C,0.010000*%
%ADD13C,0.100000*%
%ADD14C,0.142240*%
G04 APERTURE END LIST*
D10*
X146679285Y-106146642D02*
X146679285Y-105246642D01*
X146893571Y-105246642D01*
X147022142Y-105289500D01*
X147107857Y-105375214D01*
X147150714Y-105460928D01*
X147193571Y-105632357D01*
X147193571Y-105760928D01*
X147150714Y-105932357D01*
X147107857Y-106018071D01*
X147022142Y-106103785D01*
X146893571Y-106146642D01*
X146679285Y-106146642D01*
X147536428Y-106103785D02*
X147665000Y-106146642D01*
X147879285Y-106146642D01*
X147965000Y-106103785D01*
X148007857Y-106060928D01*
X148050714Y-105975214D01*
X148050714Y-105889500D01*
X148007857Y-105803785D01*
X147965000Y-105760928D01*
X147879285Y-105718071D01*
X147707857Y-105675214D01*
X147622142Y-105632357D01*
X147579285Y-105589500D01*
X147536428Y-105503785D01*
X147536428Y-105418071D01*
X147579285Y-105332357D01*
X147622142Y-105289500D01*
X147707857Y-105246642D01*
X147922142Y-105246642D01*
X148050714Y-105289500D01*
X148436428Y-106146642D02*
X148436428Y-105246642D01*
X148950714Y-106146642D02*
X148565000Y-105632357D01*
X148950714Y-105246642D02*
X148436428Y-105760928D01*
X149507857Y-105718071D02*
X149507857Y-106146642D01*
X149207857Y-105246642D02*
X149507857Y-105718071D01*
X149807857Y-105246642D01*
X150793571Y-106146642D02*
X150793571Y-105246642D01*
X151307857Y-106146642D02*
X150922142Y-105632357D01*
X151307857Y-105246642D02*
X150793571Y-105760928D01*
X152036428Y-106103785D02*
X151950714Y-106146642D01*
X151779285Y-106146642D01*
X151693571Y-106103785D01*
X151650714Y-106018071D01*
X151650714Y-105675214D01*
X151693571Y-105589500D01*
X151779285Y-105546642D01*
X151950714Y-105546642D01*
X152036428Y-105589500D01*
X152079285Y-105675214D01*
X152079285Y-105760928D01*
X151650714Y-105846642D01*
X152379285Y-105546642D02*
X152593571Y-106146642D01*
X152807857Y-105546642D02*
X152593571Y-106146642D01*
X152507857Y-106360928D01*
X152465000Y-106403785D01*
X152379285Y-106446642D01*
X153150714Y-106146642D02*
X153150714Y-105246642D01*
X153150714Y-105589500D02*
X153236428Y-105546642D01*
X153407857Y-105546642D01*
X153493571Y-105589500D01*
X153536428Y-105632357D01*
X153579285Y-105718071D01*
X153579285Y-105975214D01*
X153536428Y-106060928D01*
X153493571Y-106103785D01*
X153407857Y-106146642D01*
X153236428Y-106146642D01*
X153150714Y-106103785D01*
X154093571Y-106146642D02*
X154007857Y-106103785D01*
X153965000Y-106060928D01*
X153922142Y-105975214D01*
X153922142Y-105718071D01*
X153965000Y-105632357D01*
X154007857Y-105589500D01*
X154093571Y-105546642D01*
X154222142Y-105546642D01*
X154307857Y-105589500D01*
X154350714Y-105632357D01*
X154393571Y-105718071D01*
X154393571Y-105975214D01*
X154350714Y-106060928D01*
X154307857Y-106103785D01*
X154222142Y-106146642D01*
X154093571Y-106146642D01*
X155165000Y-106146642D02*
X155165000Y-105675214D01*
X155122142Y-105589500D01*
X155036428Y-105546642D01*
X154865000Y-105546642D01*
X154779285Y-105589500D01*
X155165000Y-106103785D02*
X155079285Y-106146642D01*
X154865000Y-106146642D01*
X154779285Y-106103785D01*
X154736428Y-106018071D01*
X154736428Y-105932357D01*
X154779285Y-105846642D01*
X154865000Y-105803785D01*
X155079285Y-105803785D01*
X155165000Y-105760928D01*
X155593571Y-106146642D02*
X155593571Y-105546642D01*
X155593571Y-105718071D02*
X155636428Y-105632357D01*
X155679285Y-105589500D01*
X155765000Y-105546642D01*
X155850714Y-105546642D01*
X156536428Y-106146642D02*
X156536428Y-105246642D01*
X156536428Y-106103785D02*
X156450714Y-106146642D01*
X156279285Y-106146642D01*
X156193571Y-106103785D01*
X156150714Y-106060928D01*
X156107857Y-105975214D01*
X156107857Y-105718071D01*
X156150714Y-105632357D01*
X156193571Y-105589500D01*
X156279285Y-105546642D01*
X156450714Y-105546642D01*
X156536428Y-105589500D01*
X157907857Y-106489500D02*
X157865000Y-106446642D01*
X157779285Y-106318071D01*
X157736428Y-106232357D01*
X157693571Y-106103785D01*
X157650714Y-105889500D01*
X157650714Y-105718071D01*
X157693571Y-105503785D01*
X157736428Y-105375214D01*
X157779285Y-105289500D01*
X157865000Y-105160928D01*
X157907857Y-105118071D01*
X158765000Y-106060928D02*
X158722142Y-106103785D01*
X158593571Y-106146642D01*
X158507857Y-106146642D01*
X158379285Y-106103785D01*
X158293571Y-106018071D01*
X158250714Y-105932357D01*
X158207857Y-105760928D01*
X158207857Y-105632357D01*
X158250714Y-105460928D01*
X158293571Y-105375214D01*
X158379285Y-105289500D01*
X158507857Y-105246642D01*
X158593571Y-105246642D01*
X158722142Y-105289500D01*
X158765000Y-105332357D01*
X159150714Y-106146642D02*
X159150714Y-105246642D01*
X159536428Y-106146642D02*
X159536428Y-105675214D01*
X159493571Y-105589500D01*
X159407857Y-105546642D01*
X159279285Y-105546642D01*
X159193571Y-105589500D01*
X159150714Y-105632357D01*
X160307857Y-106103785D02*
X160222142Y-106146642D01*
X160050714Y-106146642D01*
X159965000Y-106103785D01*
X159922142Y-106018071D01*
X159922142Y-105675214D01*
X159965000Y-105589500D01*
X160050714Y-105546642D01*
X160222142Y-105546642D01*
X160307857Y-105589500D01*
X160350714Y-105675214D01*
X160350714Y-105760928D01*
X159922142Y-105846642D01*
X160736428Y-106146642D02*
X160736428Y-105546642D01*
X160736428Y-105718071D02*
X160779285Y-105632357D01*
X160822142Y-105589500D01*
X160907857Y-105546642D01*
X160993571Y-105546642D01*
X161293571Y-106146642D02*
X161293571Y-105546642D01*
X161293571Y-105718071D02*
X161336428Y-105632357D01*
X161379285Y-105589500D01*
X161465000Y-105546642D01*
X161550714Y-105546642D01*
X161765000Y-105546642D02*
X161979285Y-106146642D01*
X162193571Y-105546642D02*
X161979285Y-106146642D01*
X161893571Y-106360928D01*
X161850714Y-106403785D01*
X161765000Y-106446642D01*
X163222142Y-106146642D02*
X163222142Y-105246642D01*
X163522142Y-105889500D01*
X163822142Y-105246642D01*
X163822142Y-106146642D01*
X164165000Y-105246642D02*
X164765000Y-106146642D01*
X164765000Y-105246642D02*
X164165000Y-106146642D01*
X165022142Y-106489500D02*
X165065000Y-106446642D01*
X165150714Y-106318071D01*
X165193571Y-106232357D01*
X165236428Y-106103785D01*
X165279285Y-105889500D01*
X165279285Y-105718071D01*
X165236428Y-105503785D01*
X165193571Y-105375214D01*
X165150714Y-105289500D01*
X165065000Y-105160928D01*
X165022142Y-105118071D01*
X166265000Y-105246642D02*
X166565000Y-106146642D01*
X166865000Y-105246642D01*
X167636428Y-106146642D02*
X167122142Y-106146642D01*
X167379285Y-106146642D02*
X167379285Y-105246642D01*
X167293571Y-105375214D01*
X167207857Y-105460928D01*
X167122142Y-105503785D01*
X146679285Y-107646642D02*
X146679285Y-106746642D01*
X146893571Y-106746642D01*
X147022142Y-106789500D01*
X147107857Y-106875214D01*
X147150714Y-106960928D01*
X147193571Y-107132357D01*
X147193571Y-107260928D01*
X147150714Y-107432357D01*
X147107857Y-107518071D01*
X147022142Y-107603785D01*
X146893571Y-107646642D01*
X146679285Y-107646642D01*
X147922142Y-107603785D02*
X147836428Y-107646642D01*
X147665000Y-107646642D01*
X147579285Y-107603785D01*
X147536428Y-107518071D01*
X147536428Y-107175214D01*
X147579285Y-107089500D01*
X147665000Y-107046642D01*
X147836428Y-107046642D01*
X147922142Y-107089500D01*
X147965000Y-107175214D01*
X147965000Y-107260928D01*
X147536428Y-107346642D01*
X148307857Y-107603785D02*
X148393571Y-107646642D01*
X148565000Y-107646642D01*
X148650714Y-107603785D01*
X148693571Y-107518071D01*
X148693571Y-107475214D01*
X148650714Y-107389500D01*
X148565000Y-107346642D01*
X148436428Y-107346642D01*
X148350714Y-107303785D01*
X148307857Y-107218071D01*
X148307857Y-107175214D01*
X148350714Y-107089500D01*
X148436428Y-107046642D01*
X148565000Y-107046642D01*
X148650714Y-107089500D01*
X149079285Y-107646642D02*
X149079285Y-107046642D01*
X149079285Y-106746642D02*
X149036428Y-106789500D01*
X149079285Y-106832357D01*
X149122142Y-106789500D01*
X149079285Y-106746642D01*
X149079285Y-106832357D01*
X149893571Y-107046642D02*
X149893571Y-107775214D01*
X149850714Y-107860928D01*
X149807857Y-107903785D01*
X149722142Y-107946642D01*
X149593571Y-107946642D01*
X149507857Y-107903785D01*
X149893571Y-107603785D02*
X149807857Y-107646642D01*
X149636428Y-107646642D01*
X149550714Y-107603785D01*
X149507857Y-107560928D01*
X149465000Y-107475214D01*
X149465000Y-107218071D01*
X149507857Y-107132357D01*
X149550714Y-107089500D01*
X149636428Y-107046642D01*
X149807857Y-107046642D01*
X149893571Y-107089500D01*
X150322142Y-107046642D02*
X150322142Y-107646642D01*
X150322142Y-107132357D02*
X150365000Y-107089500D01*
X150450714Y-107046642D01*
X150579285Y-107046642D01*
X150665000Y-107089500D01*
X150707857Y-107175214D01*
X150707857Y-107646642D01*
X151479285Y-107603785D02*
X151393571Y-107646642D01*
X151222142Y-107646642D01*
X151136428Y-107603785D01*
X151093571Y-107518071D01*
X151093571Y-107175214D01*
X151136428Y-107089500D01*
X151222142Y-107046642D01*
X151393571Y-107046642D01*
X151479285Y-107089500D01*
X151522142Y-107175214D01*
X151522142Y-107260928D01*
X151093571Y-107346642D01*
X152293571Y-107646642D02*
X152293571Y-106746642D01*
X152293571Y-107603785D02*
X152207857Y-107646642D01*
X152036428Y-107646642D01*
X151950714Y-107603785D01*
X151907857Y-107560928D01*
X151865000Y-107475214D01*
X151865000Y-107218071D01*
X151907857Y-107132357D01*
X151950714Y-107089500D01*
X152036428Y-107046642D01*
X152207857Y-107046642D01*
X152293571Y-107089500D01*
X153407857Y-107646642D02*
X153407857Y-106746642D01*
X153407857Y-107089500D02*
X153493571Y-107046642D01*
X153665000Y-107046642D01*
X153750714Y-107089500D01*
X153793571Y-107132357D01*
X153836428Y-107218071D01*
X153836428Y-107475214D01*
X153793571Y-107560928D01*
X153750714Y-107603785D01*
X153665000Y-107646642D01*
X153493571Y-107646642D01*
X153407857Y-107603785D01*
X154136428Y-107046642D02*
X154350714Y-107646642D01*
X154565000Y-107046642D02*
X154350714Y-107646642D01*
X154265000Y-107860928D01*
X154222142Y-107903785D01*
X154136428Y-107946642D01*
X155465000Y-106746642D02*
X155765000Y-107646642D01*
X156065000Y-106746642D01*
X156493571Y-107646642D02*
X156407857Y-107603785D01*
X156365000Y-107518071D01*
X156365000Y-106746642D01*
X157222142Y-107646642D02*
X157222142Y-107175214D01*
X157179285Y-107089500D01*
X157093571Y-107046642D01*
X156922142Y-107046642D01*
X156836428Y-107089500D01*
X157222142Y-107603785D02*
X157136428Y-107646642D01*
X156922142Y-107646642D01*
X156836428Y-107603785D01*
X156793571Y-107518071D01*
X156793571Y-107432357D01*
X156836428Y-107346642D01*
X156922142Y-107303785D01*
X157136428Y-107303785D01*
X157222142Y-107260928D01*
X158036428Y-107646642D02*
X158036428Y-106746642D01*
X158036428Y-107603785D02*
X157950714Y-107646642D01*
X157779285Y-107646642D01*
X157693571Y-107603785D01*
X157650714Y-107560928D01*
X157607857Y-107475214D01*
X157607857Y-107218071D01*
X157650714Y-107132357D01*
X157693571Y-107089500D01*
X157779285Y-107046642D01*
X157950714Y-107046642D01*
X158036428Y-107089500D01*
X159150714Y-107646642D02*
X159150714Y-106746642D01*
X159450714Y-107389500D01*
X159750714Y-106746642D01*
X159750714Y-107646642D01*
X160179285Y-107646642D02*
X160179285Y-107046642D01*
X160179285Y-106746642D02*
X160136428Y-106789500D01*
X160179285Y-106832357D01*
X160222142Y-106789500D01*
X160179285Y-106746642D01*
X160179285Y-106832357D01*
X160607857Y-107646642D02*
X160607857Y-106746642D01*
X160993571Y-107646642D02*
X160993571Y-107175214D01*
X160950714Y-107089500D01*
X160865000Y-107046642D01*
X160736428Y-107046642D01*
X160650714Y-107089500D01*
X160607857Y-107132357D01*
X161807857Y-107646642D02*
X161807857Y-107175214D01*
X161765000Y-107089500D01*
X161679285Y-107046642D01*
X161507857Y-107046642D01*
X161422142Y-107089500D01*
X161807857Y-107603785D02*
X161722142Y-107646642D01*
X161507857Y-107646642D01*
X161422142Y-107603785D01*
X161379285Y-107518071D01*
X161379285Y-107432357D01*
X161422142Y-107346642D01*
X161507857Y-107303785D01*
X161722142Y-107303785D01*
X161807857Y-107260928D01*
X162236428Y-107646642D02*
X162236428Y-107046642D01*
X162236428Y-106746642D02*
X162193571Y-106789500D01*
X162236428Y-106832357D01*
X162279285Y-106789500D01*
X162236428Y-106746642D01*
X162236428Y-106832357D01*
X162793571Y-107646642D02*
X162707857Y-107603785D01*
X162665000Y-107518071D01*
X162665000Y-106746642D01*
X163479285Y-107603785D02*
X163393571Y-107646642D01*
X163222142Y-107646642D01*
X163136428Y-107603785D01*
X163093571Y-107518071D01*
X163093571Y-107175214D01*
X163136428Y-107089500D01*
X163222142Y-107046642D01*
X163393571Y-107046642D01*
X163479285Y-107089500D01*
X163522142Y-107175214D01*
X163522142Y-107260928D01*
X163093571Y-107346642D01*
X163865000Y-107603785D02*
X163950714Y-107646642D01*
X164122142Y-107646642D01*
X164207857Y-107603785D01*
X164250714Y-107518071D01*
X164250714Y-107475214D01*
X164207857Y-107389500D01*
X164122142Y-107346642D01*
X163993571Y-107346642D01*
X163907857Y-107303785D01*
X163865000Y-107218071D01*
X163865000Y-107175214D01*
X163907857Y-107089500D01*
X163993571Y-107046642D01*
X164122142Y-107046642D01*
X164207857Y-107089500D01*
X165022142Y-107603785D02*
X164936428Y-107646642D01*
X164765000Y-107646642D01*
X164679285Y-107603785D01*
X164636428Y-107560928D01*
X164593571Y-107475214D01*
X164593571Y-107218071D01*
X164636428Y-107132357D01*
X164679285Y-107089500D01*
X164765000Y-107046642D01*
X164936428Y-107046642D01*
X165022142Y-107089500D01*
X165793571Y-107046642D02*
X165793571Y-107646642D01*
X165407857Y-107046642D02*
X165407857Y-107518071D01*
X165450714Y-107603785D01*
X165536428Y-107646642D01*
X165665000Y-107646642D01*
X165750714Y-107603785D01*
X165793571Y-107560928D01*
D11*
%TO.C,SW2*%
X103510300Y-59576000D02*
X88016300Y-59576000D01*
X103510300Y-75070000D02*
X103510300Y-59576000D01*
X88016300Y-75070000D02*
X103510300Y-75070000D01*
X88016300Y-59576000D02*
X88016300Y-75070000D01*
D12*
%TO.C,REF1*%
G36*
X157556378Y-94649276D02*
G01*
X157662112Y-94649855D01*
X157738632Y-94651422D01*
X157790872Y-94654472D01*
X157823763Y-94659496D01*
X157842237Y-94666989D01*
X157851227Y-94677444D01*
X157855663Y-94691353D01*
X157856094Y-94693154D01*
X157862833Y-94725645D01*
X157875308Y-94789752D01*
X157892219Y-94878651D01*
X157912271Y-94985519D01*
X157934164Y-95103533D01*
X157934929Y-95107678D01*
X157956859Y-95223331D01*
X157977377Y-95325514D01*
X157995159Y-95408098D01*
X158008881Y-95464956D01*
X158017218Y-95489958D01*
X158017616Y-95490401D01*
X158042177Y-95502610D01*
X158092815Y-95522956D01*
X158158595Y-95547045D01*
X158158961Y-95547174D01*
X158241817Y-95578318D01*
X158339500Y-95617991D01*
X158431577Y-95657881D01*
X158435934Y-95659853D01*
X158585907Y-95727920D01*
X158917998Y-95501139D01*
X159019874Y-95432004D01*
X159112157Y-95370197D01*
X159189503Y-95319233D01*
X159246564Y-95282627D01*
X159277995Y-95263894D01*
X159280979Y-95262504D01*
X159303821Y-95268690D01*
X159346482Y-95298535D01*
X159410628Y-95353447D01*
X159497921Y-95434834D01*
X159587035Y-95521422D01*
X159672941Y-95606747D01*
X159749827Y-95684608D01*
X159813064Y-95750197D01*
X159858023Y-95798705D01*
X159880076Y-95825325D01*
X159880896Y-95826695D01*
X159883334Y-95844963D01*
X159874150Y-95874795D01*
X159851074Y-95920221D01*
X159811837Y-95985270D01*
X159754170Y-96073970D01*
X159677295Y-96188157D01*
X159609070Y-96288662D01*
X159548082Y-96378803D01*
X159497856Y-96453349D01*
X159461916Y-96507065D01*
X159443787Y-96534718D01*
X159442646Y-96536595D01*
X159444859Y-96563090D01*
X159461638Y-96614586D01*
X159489642Y-96681351D01*
X159499622Y-96702672D01*
X159543172Y-96797659D01*
X159589634Y-96905437D01*
X159627377Y-96998692D01*
X159654573Y-97067906D01*
X159676175Y-97120506D01*
X159688658Y-97147997D01*
X159690209Y-97150116D01*
X159713168Y-97153624D01*
X159767286Y-97163238D01*
X159845368Y-97177589D01*
X159940219Y-97195307D01*
X160044643Y-97215025D01*
X160151444Y-97235374D01*
X160253426Y-97254986D01*
X160343394Y-97272491D01*
X160414153Y-97286522D01*
X160458506Y-97295709D01*
X160469385Y-97298307D01*
X160480622Y-97304718D01*
X160489105Y-97319197D01*
X160495214Y-97346633D01*
X160499332Y-97391911D01*
X160501841Y-97459920D01*
X160503121Y-97555547D01*
X160503554Y-97683680D01*
X160503577Y-97736201D01*
X160503577Y-98163345D01*
X160401000Y-98183591D01*
X160343931Y-98194570D01*
X160258769Y-98210595D01*
X160155872Y-98229733D01*
X160045596Y-98250051D01*
X160015115Y-98255632D01*
X159913355Y-98275417D01*
X159824705Y-98294873D01*
X159756608Y-98312197D01*
X159716504Y-98325588D01*
X159709823Y-98329579D01*
X159693419Y-98357842D01*
X159669899Y-98412609D01*
X159643816Y-98483088D01*
X159638642Y-98498269D01*
X159604456Y-98592396D01*
X159562023Y-98698601D01*
X159520497Y-98793973D01*
X159520292Y-98794416D01*
X159451140Y-98944025D01*
X159906012Y-99613117D01*
X159614000Y-99905616D01*
X159525680Y-99992670D01*
X159445125Y-100069409D01*
X159376860Y-100131737D01*
X159325408Y-100175556D01*
X159295294Y-100196770D01*
X159290974Y-100198116D01*
X159265611Y-100187516D01*
X159213858Y-100158047D01*
X159141368Y-100113205D01*
X159053794Y-100056484D01*
X158959112Y-99992962D01*
X158863016Y-99928168D01*
X158777337Y-99871787D01*
X158707516Y-99827288D01*
X158658994Y-99798139D01*
X158637282Y-99787808D01*
X158610793Y-99796550D01*
X158560562Y-99819587D01*
X158496951Y-99852131D01*
X158490208Y-99855749D01*
X158404546Y-99898710D01*
X158345806Y-99919779D01*
X158309272Y-99920003D01*
X158290231Y-99900428D01*
X158290120Y-99900154D01*
X158280602Y-99876972D01*
X158257903Y-99821941D01*
X158223782Y-99739322D01*
X158180000Y-99633372D01*
X158128316Y-99508352D01*
X158070492Y-99368520D01*
X158014491Y-99233137D01*
X157952947Y-99083734D01*
X157896439Y-98945332D01*
X157846661Y-98822173D01*
X157805306Y-98718502D01*
X157774068Y-98638559D01*
X157754641Y-98586588D01*
X157748654Y-98567192D01*
X157763668Y-98544943D01*
X157802939Y-98509482D01*
X157855307Y-98470387D01*
X158004441Y-98346745D01*
X158121011Y-98205022D01*
X158203618Y-98048204D01*
X158250866Y-97879275D01*
X158261357Y-97701222D01*
X158253731Y-97619039D01*
X158212182Y-97448531D01*
X158140623Y-97297959D01*
X158043495Y-97168809D01*
X157925234Y-97062564D01*
X157790280Y-96980710D01*
X157643071Y-96924732D01*
X157488044Y-96896115D01*
X157329639Y-96896344D01*
X157172294Y-96926905D01*
X157020446Y-96989282D01*
X156878535Y-97084960D01*
X156819303Y-97139072D01*
X156705703Y-97278020D01*
X156626606Y-97429861D01*
X156581486Y-97590167D01*
X156569816Y-97754512D01*
X156591069Y-97918471D01*
X156644720Y-98077618D01*
X156730240Y-98227525D01*
X156847105Y-98363767D01*
X156977693Y-98470387D01*
X157032088Y-98511142D01*
X157070514Y-98546218D01*
X157084346Y-98567226D01*
X157077103Y-98590135D01*
X157056505Y-98644865D01*
X157024246Y-98727172D01*
X156982021Y-98832815D01*
X156931523Y-98957550D01*
X156874448Y-99097136D01*
X156818354Y-99233170D01*
X156756467Y-99382701D01*
X156699144Y-99521267D01*
X156648144Y-99644607D01*
X156605227Y-99748464D01*
X156572153Y-99828580D01*
X156550681Y-99880695D01*
X156542725Y-99900154D01*
X156523929Y-99919923D01*
X156487574Y-99919865D01*
X156428979Y-99898941D01*
X156343468Y-99856113D01*
X156342792Y-99855749D01*
X156278407Y-99822512D01*
X156226361Y-99798302D01*
X156197012Y-99787904D01*
X156195717Y-99787808D01*
X156173624Y-99798355D01*
X156124848Y-99827684D01*
X156054831Y-99872327D01*
X155969014Y-99928814D01*
X155873888Y-99992962D01*
X155777040Y-100057911D01*
X155689753Y-100114396D01*
X155617681Y-100158921D01*
X155566477Y-100187990D01*
X155542026Y-100198116D01*
X155519510Y-100184807D01*
X155474242Y-100147612D01*
X155410744Y-100090628D01*
X155333539Y-100017949D01*
X155247151Y-99933671D01*
X155218899Y-99905516D01*
X154926787Y-99612916D01*
X155149131Y-99286604D01*
X155216702Y-99186397D01*
X155276007Y-99096463D01*
X155323717Y-99022010D01*
X155356507Y-98968251D01*
X155371048Y-98940394D01*
X155371474Y-98938412D01*
X155363808Y-98912155D01*
X155343189Y-98859337D01*
X155313185Y-98788810D01*
X155292125Y-98741593D01*
X155252748Y-98651194D01*
X155215665Y-98559866D01*
X155186915Y-98482700D01*
X155179105Y-98459192D01*
X155156917Y-98396416D01*
X155135227Y-98347911D01*
X155123313Y-98329579D01*
X155097023Y-98318359D01*
X155039642Y-98302454D01*
X154958618Y-98283667D01*
X154861395Y-98263799D01*
X154817885Y-98255632D01*
X154707396Y-98235329D01*
X154601416Y-98215670D01*
X154510301Y-98198588D01*
X154444408Y-98186018D01*
X154432000Y-98183591D01*
X154329423Y-98163345D01*
X154329423Y-97736201D01*
X154329653Y-97595746D01*
X154330599Y-97489479D01*
X154332641Y-97412513D01*
X154336162Y-97359960D01*
X154341543Y-97326933D01*
X154349166Y-97308545D01*
X154359412Y-97299908D01*
X154363615Y-97298307D01*
X154388970Y-97292627D01*
X154444984Y-97281295D01*
X154524464Y-97265679D01*
X154620212Y-97247147D01*
X154725033Y-97227069D01*
X154831732Y-97206812D01*
X154933113Y-97187746D01*
X155021979Y-97171239D01*
X155091137Y-97158659D01*
X155133389Y-97151375D01*
X155142790Y-97150116D01*
X155151307Y-97133263D01*
X155170160Y-97088370D01*
X155195824Y-97023930D01*
X155205623Y-96998692D01*
X155245148Y-96901186D01*
X155291692Y-96793459D01*
X155333377Y-96702672D01*
X155364050Y-96633253D01*
X155384456Y-96576210D01*
X155391268Y-96541277D01*
X155390182Y-96536595D01*
X155375785Y-96514491D01*
X155342912Y-96465331D01*
X155295090Y-96394348D01*
X155235848Y-96306778D01*
X155168715Y-96207857D01*
X155155441Y-96188330D01*
X155077546Y-96072640D01*
X155020287Y-95984544D01*
X154981381Y-95919986D01*
X154958544Y-95874911D01*
X154949494Y-95845263D01*
X154951948Y-95826985D01*
X154952011Y-95826869D01*
X154971327Y-95802861D01*
X155014051Y-95756447D01*
X155075551Y-95692437D01*
X155151198Y-95615645D01*
X155236361Y-95530882D01*
X155245965Y-95521422D01*
X155353290Y-95417489D01*
X155436115Y-95341175D01*
X155496105Y-95291071D01*
X155534923Y-95265770D01*
X155552020Y-95262504D01*
X155576973Y-95276750D01*
X155628755Y-95309656D01*
X155702020Y-95357708D01*
X155791420Y-95417390D01*
X155891611Y-95485188D01*
X155915001Y-95501139D01*
X156247093Y-95727920D01*
X156397065Y-95659853D01*
X156488270Y-95620185D01*
X156586169Y-95580291D01*
X156670331Y-95548483D01*
X156674038Y-95547174D01*
X156739869Y-95523076D01*
X156790616Y-95502700D01*
X156815342Y-95490436D01*
X156815384Y-95490401D01*
X156823229Y-95468234D01*
X156836566Y-95413717D01*
X156854070Y-95332980D01*
X156874417Y-95232150D01*
X156896282Y-95117356D01*
X156898071Y-95107678D01*
X156920004Y-94989404D01*
X156940140Y-94882042D01*
X156957180Y-94792417D01*
X156969828Y-94727351D01*
X156976784Y-94693668D01*
X156976906Y-94693154D01*
X156981139Y-94678825D01*
X156989371Y-94668007D01*
X157006533Y-94660206D01*
X157037558Y-94654929D01*
X157087378Y-94651682D01*
X157160924Y-94649972D01*
X157263129Y-94649307D01*
X157398925Y-94649193D01*
X157416500Y-94649192D01*
X157556378Y-94649276D01*
G37*
X157556378Y-94649276D02*
X157662112Y-94649855D01*
X157738632Y-94651422D01*
X157790872Y-94654472D01*
X157823763Y-94659496D01*
X157842237Y-94666989D01*
X157851227Y-94677444D01*
X157855663Y-94691353D01*
X157856094Y-94693154D01*
X157862833Y-94725645D01*
X157875308Y-94789752D01*
X157892219Y-94878651D01*
X157912271Y-94985519D01*
X157934164Y-95103533D01*
X157934929Y-95107678D01*
X157956859Y-95223331D01*
X157977377Y-95325514D01*
X157995159Y-95408098D01*
X158008881Y-95464956D01*
X158017218Y-95489958D01*
X158017616Y-95490401D01*
X158042177Y-95502610D01*
X158092815Y-95522956D01*
X158158595Y-95547045D01*
X158158961Y-95547174D01*
X158241817Y-95578318D01*
X158339500Y-95617991D01*
X158431577Y-95657881D01*
X158435934Y-95659853D01*
X158585907Y-95727920D01*
X158917998Y-95501139D01*
X159019874Y-95432004D01*
X159112157Y-95370197D01*
X159189503Y-95319233D01*
X159246564Y-95282627D01*
X159277995Y-95263894D01*
X159280979Y-95262504D01*
X159303821Y-95268690D01*
X159346482Y-95298535D01*
X159410628Y-95353447D01*
X159497921Y-95434834D01*
X159587035Y-95521422D01*
X159672941Y-95606747D01*
X159749827Y-95684608D01*
X159813064Y-95750197D01*
X159858023Y-95798705D01*
X159880076Y-95825325D01*
X159880896Y-95826695D01*
X159883334Y-95844963D01*
X159874150Y-95874795D01*
X159851074Y-95920221D01*
X159811837Y-95985270D01*
X159754170Y-96073970D01*
X159677295Y-96188157D01*
X159609070Y-96288662D01*
X159548082Y-96378803D01*
X159497856Y-96453349D01*
X159461916Y-96507065D01*
X159443787Y-96534718D01*
X159442646Y-96536595D01*
X159444859Y-96563090D01*
X159461638Y-96614586D01*
X159489642Y-96681351D01*
X159499622Y-96702672D01*
X159543172Y-96797659D01*
X159589634Y-96905437D01*
X159627377Y-96998692D01*
X159654573Y-97067906D01*
X159676175Y-97120506D01*
X159688658Y-97147997D01*
X159690209Y-97150116D01*
X159713168Y-97153624D01*
X159767286Y-97163238D01*
X159845368Y-97177589D01*
X159940219Y-97195307D01*
X160044643Y-97215025D01*
X160151444Y-97235374D01*
X160253426Y-97254986D01*
X160343394Y-97272491D01*
X160414153Y-97286522D01*
X160458506Y-97295709D01*
X160469385Y-97298307D01*
X160480622Y-97304718D01*
X160489105Y-97319197D01*
X160495214Y-97346633D01*
X160499332Y-97391911D01*
X160501841Y-97459920D01*
X160503121Y-97555547D01*
X160503554Y-97683680D01*
X160503577Y-97736201D01*
X160503577Y-98163345D01*
X160401000Y-98183591D01*
X160343931Y-98194570D01*
X160258769Y-98210595D01*
X160155872Y-98229733D01*
X160045596Y-98250051D01*
X160015115Y-98255632D01*
X159913355Y-98275417D01*
X159824705Y-98294873D01*
X159756608Y-98312197D01*
X159716504Y-98325588D01*
X159709823Y-98329579D01*
X159693419Y-98357842D01*
X159669899Y-98412609D01*
X159643816Y-98483088D01*
X159638642Y-98498269D01*
X159604456Y-98592396D01*
X159562023Y-98698601D01*
X159520497Y-98793973D01*
X159520292Y-98794416D01*
X159451140Y-98944025D01*
X159906012Y-99613117D01*
X159614000Y-99905616D01*
X159525680Y-99992670D01*
X159445125Y-100069409D01*
X159376860Y-100131737D01*
X159325408Y-100175556D01*
X159295294Y-100196770D01*
X159290974Y-100198116D01*
X159265611Y-100187516D01*
X159213858Y-100158047D01*
X159141368Y-100113205D01*
X159053794Y-100056484D01*
X158959112Y-99992962D01*
X158863016Y-99928168D01*
X158777337Y-99871787D01*
X158707516Y-99827288D01*
X158658994Y-99798139D01*
X158637282Y-99787808D01*
X158610793Y-99796550D01*
X158560562Y-99819587D01*
X158496951Y-99852131D01*
X158490208Y-99855749D01*
X158404546Y-99898710D01*
X158345806Y-99919779D01*
X158309272Y-99920003D01*
X158290231Y-99900428D01*
X158290120Y-99900154D01*
X158280602Y-99876972D01*
X158257903Y-99821941D01*
X158223782Y-99739322D01*
X158180000Y-99633372D01*
X158128316Y-99508352D01*
X158070492Y-99368520D01*
X158014491Y-99233137D01*
X157952947Y-99083734D01*
X157896439Y-98945332D01*
X157846661Y-98822173D01*
X157805306Y-98718502D01*
X157774068Y-98638559D01*
X157754641Y-98586588D01*
X157748654Y-98567192D01*
X157763668Y-98544943D01*
X157802939Y-98509482D01*
X157855307Y-98470387D01*
X158004441Y-98346745D01*
X158121011Y-98205022D01*
X158203618Y-98048204D01*
X158250866Y-97879275D01*
X158261357Y-97701222D01*
X158253731Y-97619039D01*
X158212182Y-97448531D01*
X158140623Y-97297959D01*
X158043495Y-97168809D01*
X157925234Y-97062564D01*
X157790280Y-96980710D01*
X157643071Y-96924732D01*
X157488044Y-96896115D01*
X157329639Y-96896344D01*
X157172294Y-96926905D01*
X157020446Y-96989282D01*
X156878535Y-97084960D01*
X156819303Y-97139072D01*
X156705703Y-97278020D01*
X156626606Y-97429861D01*
X156581486Y-97590167D01*
X156569816Y-97754512D01*
X156591069Y-97918471D01*
X156644720Y-98077618D01*
X156730240Y-98227525D01*
X156847105Y-98363767D01*
X156977693Y-98470387D01*
X157032088Y-98511142D01*
X157070514Y-98546218D01*
X157084346Y-98567226D01*
X157077103Y-98590135D01*
X157056505Y-98644865D01*
X157024246Y-98727172D01*
X156982021Y-98832815D01*
X156931523Y-98957550D01*
X156874448Y-99097136D01*
X156818354Y-99233170D01*
X156756467Y-99382701D01*
X156699144Y-99521267D01*
X156648144Y-99644607D01*
X156605227Y-99748464D01*
X156572153Y-99828580D01*
X156550681Y-99880695D01*
X156542725Y-99900154D01*
X156523929Y-99919923D01*
X156487574Y-99919865D01*
X156428979Y-99898941D01*
X156343468Y-99856113D01*
X156342792Y-99855749D01*
X156278407Y-99822512D01*
X156226361Y-99798302D01*
X156197012Y-99787904D01*
X156195717Y-99787808D01*
X156173624Y-99798355D01*
X156124848Y-99827684D01*
X156054831Y-99872327D01*
X155969014Y-99928814D01*
X155873888Y-99992962D01*
X155777040Y-100057911D01*
X155689753Y-100114396D01*
X155617681Y-100158921D01*
X155566477Y-100187990D01*
X155542026Y-100198116D01*
X155519510Y-100184807D01*
X155474242Y-100147612D01*
X155410744Y-100090628D01*
X155333539Y-100017949D01*
X155247151Y-99933671D01*
X155218899Y-99905516D01*
X154926787Y-99612916D01*
X155149131Y-99286604D01*
X155216702Y-99186397D01*
X155276007Y-99096463D01*
X155323717Y-99022010D01*
X155356507Y-98968251D01*
X155371048Y-98940394D01*
X155371474Y-98938412D01*
X155363808Y-98912155D01*
X155343189Y-98859337D01*
X155313185Y-98788810D01*
X155292125Y-98741593D01*
X155252748Y-98651194D01*
X155215665Y-98559866D01*
X155186915Y-98482700D01*
X155179105Y-98459192D01*
X155156917Y-98396416D01*
X155135227Y-98347911D01*
X155123313Y-98329579D01*
X155097023Y-98318359D01*
X155039642Y-98302454D01*
X154958618Y-98283667D01*
X154861395Y-98263799D01*
X154817885Y-98255632D01*
X154707396Y-98235329D01*
X154601416Y-98215670D01*
X154510301Y-98198588D01*
X154444408Y-98186018D01*
X154432000Y-98183591D01*
X154329423Y-98163345D01*
X154329423Y-97736201D01*
X154329653Y-97595746D01*
X154330599Y-97489479D01*
X154332641Y-97412513D01*
X154336162Y-97359960D01*
X154341543Y-97326933D01*
X154349166Y-97308545D01*
X154359412Y-97299908D01*
X154363615Y-97298307D01*
X154388970Y-97292627D01*
X154444984Y-97281295D01*
X154524464Y-97265679D01*
X154620212Y-97247147D01*
X154725033Y-97227069D01*
X154831732Y-97206812D01*
X154933113Y-97187746D01*
X155021979Y-97171239D01*
X155091137Y-97158659D01*
X155133389Y-97151375D01*
X155142790Y-97150116D01*
X155151307Y-97133263D01*
X155170160Y-97088370D01*
X155195824Y-97023930D01*
X155205623Y-96998692D01*
X155245148Y-96901186D01*
X155291692Y-96793459D01*
X155333377Y-96702672D01*
X155364050Y-96633253D01*
X155384456Y-96576210D01*
X155391268Y-96541277D01*
X155390182Y-96536595D01*
X155375785Y-96514491D01*
X155342912Y-96465331D01*
X155295090Y-96394348D01*
X155235848Y-96306778D01*
X155168715Y-96207857D01*
X155155441Y-96188330D01*
X155077546Y-96072640D01*
X155020287Y-95984544D01*
X154981381Y-95919986D01*
X154958544Y-95874911D01*
X154949494Y-95845263D01*
X154951948Y-95826985D01*
X154952011Y-95826869D01*
X154971327Y-95802861D01*
X155014051Y-95756447D01*
X155075551Y-95692437D01*
X155151198Y-95615645D01*
X155236361Y-95530882D01*
X155245965Y-95521422D01*
X155353290Y-95417489D01*
X155436115Y-95341175D01*
X155496105Y-95291071D01*
X155534923Y-95265770D01*
X155552020Y-95262504D01*
X155576973Y-95276750D01*
X155628755Y-95309656D01*
X155702020Y-95357708D01*
X155791420Y-95417390D01*
X155891611Y-95485188D01*
X155915001Y-95501139D01*
X156247093Y-95727920D01*
X156397065Y-95659853D01*
X156488270Y-95620185D01*
X156586169Y-95580291D01*
X156670331Y-95548483D01*
X156674038Y-95547174D01*
X156739869Y-95523076D01*
X156790616Y-95502700D01*
X156815342Y-95490436D01*
X156815384Y-95490401D01*
X156823229Y-95468234D01*
X156836566Y-95413717D01*
X156854070Y-95332980D01*
X156874417Y-95232150D01*
X156896282Y-95117356D01*
X156898071Y-95107678D01*
X156920004Y-94989404D01*
X156940140Y-94882042D01*
X156957180Y-94792417D01*
X156969828Y-94727351D01*
X156976784Y-94693668D01*
X156976906Y-94693154D01*
X156981139Y-94678825D01*
X156989371Y-94668007D01*
X157006533Y-94660206D01*
X157037558Y-94654929D01*
X157087378Y-94651682D01*
X157160924Y-94649972D01*
X157263129Y-94649307D01*
X157398925Y-94649193D01*
X157416500Y-94649192D01*
X157556378Y-94649276D01*
G36*
X161661724Y-101009338D02*
G01*
X161739028Y-101059861D01*
X161776314Y-101105090D01*
X161805853Y-101187163D01*
X161808199Y-101252107D01*
X161802885Y-101338945D01*
X161602615Y-101426603D01*
X161505239Y-101471387D01*
X161441613Y-101507413D01*
X161408529Y-101538617D01*
X161402780Y-101568936D01*
X161421158Y-101602305D01*
X161441423Y-101624423D01*
X161500389Y-101659893D01*
X161564524Y-101662379D01*
X161623426Y-101634735D01*
X161666697Y-101579820D01*
X161674436Y-101560428D01*
X161711506Y-101499864D01*
X161754154Y-101474052D01*
X161812654Y-101451971D01*
X161812654Y-101535684D01*
X161807482Y-101592650D01*
X161787223Y-101640689D01*
X161744762Y-101695846D01*
X161738451Y-101703014D01*
X161691220Y-101752085D01*
X161650621Y-101778420D01*
X161599828Y-101790535D01*
X161557720Y-101794503D01*
X161482402Y-101795491D01*
X161428786Y-101782966D01*
X161395338Y-101764369D01*
X161342768Y-101723475D01*
X161306379Y-101679248D01*
X161283350Y-101623626D01*
X161270859Y-101548547D01*
X161266087Y-101445949D01*
X161265706Y-101393876D01*
X161267001Y-101331448D01*
X161384971Y-101331448D01*
X161386339Y-101364938D01*
X161389749Y-101370423D01*
X161412253Y-101362972D01*
X161460682Y-101343253D01*
X161525408Y-101315218D01*
X161538943Y-101309192D01*
X161620744Y-101267596D01*
X161665812Y-101231038D01*
X161675717Y-101196796D01*
X161652026Y-101162148D01*
X161632460Y-101146839D01*
X161561860Y-101116221D01*
X161495780Y-101121280D01*
X161440459Y-101158651D01*
X161402136Y-101224973D01*
X161389849Y-101277616D01*
X161384971Y-101331448D01*
X161267001Y-101331448D01*
X161268230Y-101272220D01*
X161277532Y-101182210D01*
X161295960Y-101116667D01*
X161325860Y-101068412D01*
X161369580Y-101030267D01*
X161388641Y-101017940D01*
X161475226Y-100985836D01*
X161570022Y-100983816D01*
X161661724Y-101009338D01*
G37*
X161661724Y-101009338D02*
X161739028Y-101059861D01*
X161776314Y-101105090D01*
X161805853Y-101187163D01*
X161808199Y-101252107D01*
X161802885Y-101338945D01*
X161602615Y-101426603D01*
X161505239Y-101471387D01*
X161441613Y-101507413D01*
X161408529Y-101538617D01*
X161402780Y-101568936D01*
X161421158Y-101602305D01*
X161441423Y-101624423D01*
X161500389Y-101659893D01*
X161564524Y-101662379D01*
X161623426Y-101634735D01*
X161666697Y-101579820D01*
X161674436Y-101560428D01*
X161711506Y-101499864D01*
X161754154Y-101474052D01*
X161812654Y-101451971D01*
X161812654Y-101535684D01*
X161807482Y-101592650D01*
X161787223Y-101640689D01*
X161744762Y-101695846D01*
X161738451Y-101703014D01*
X161691220Y-101752085D01*
X161650621Y-101778420D01*
X161599828Y-101790535D01*
X161557720Y-101794503D01*
X161482402Y-101795491D01*
X161428786Y-101782966D01*
X161395338Y-101764369D01*
X161342768Y-101723475D01*
X161306379Y-101679248D01*
X161283350Y-101623626D01*
X161270859Y-101548547D01*
X161266087Y-101445949D01*
X161265706Y-101393876D01*
X161267001Y-101331448D01*
X161384971Y-101331448D01*
X161386339Y-101364938D01*
X161389749Y-101370423D01*
X161412253Y-101362972D01*
X161460682Y-101343253D01*
X161525408Y-101315218D01*
X161538943Y-101309192D01*
X161620744Y-101267596D01*
X161665812Y-101231038D01*
X161675717Y-101196796D01*
X161652026Y-101162148D01*
X161632460Y-101146839D01*
X161561860Y-101116221D01*
X161495780Y-101121280D01*
X161440459Y-101158651D01*
X161402136Y-101224973D01*
X161389849Y-101277616D01*
X161384971Y-101331448D01*
X161267001Y-101331448D01*
X161268230Y-101272220D01*
X161277532Y-101182210D01*
X161295960Y-101116667D01*
X161325860Y-101068412D01*
X161369580Y-101030267D01*
X161388641Y-101017940D01*
X161475226Y-100985836D01*
X161570022Y-100983816D01*
X161661724Y-101009338D01*
G36*
X160987307Y-100998282D02*
G01*
X161010661Y-101008488D01*
X161066402Y-101052634D01*
X161114069Y-101116467D01*
X161143548Y-101184587D01*
X161148346Y-101218170D01*
X161132260Y-101265056D01*
X161096975Y-101289865D01*
X161059144Y-101304887D01*
X161041821Y-101307655D01*
X161033386Y-101287566D01*
X161016730Y-101243851D01*
X161009423Y-101224098D01*
X160968448Y-101155771D01*
X160909122Y-101121691D01*
X160833052Y-101122739D01*
X160827418Y-101124081D01*
X160786805Y-101143336D01*
X160756948Y-101180875D01*
X160736555Y-101241309D01*
X160724336Y-101329251D01*
X160719000Y-101449313D01*
X160718500Y-101513198D01*
X160718252Y-101613903D01*
X160716626Y-101682554D01*
X160712301Y-101726173D01*
X160703954Y-101751782D01*
X160690265Y-101766403D01*
X160669911Y-101777058D01*
X160668734Y-101777595D01*
X160629538Y-101794167D01*
X160610119Y-101800269D01*
X160607135Y-101781819D01*
X160604581Y-101730823D01*
X160602640Y-101653808D01*
X160601497Y-101557305D01*
X160601269Y-101486684D01*
X160602432Y-101350025D01*
X160606979Y-101246351D01*
X160616499Y-101169608D01*
X160632581Y-101113746D01*
X160656813Y-101072712D01*
X160690786Y-101040454D01*
X160724333Y-101017940D01*
X160804999Y-100987976D01*
X160898881Y-100981218D01*
X160987307Y-100998282D01*
G37*
X160987307Y-100998282D02*
X161010661Y-101008488D01*
X161066402Y-101052634D01*
X161114069Y-101116467D01*
X161143548Y-101184587D01*
X161148346Y-101218170D01*
X161132260Y-101265056D01*
X161096975Y-101289865D01*
X161059144Y-101304887D01*
X161041821Y-101307655D01*
X161033386Y-101287566D01*
X161016730Y-101243851D01*
X161009423Y-101224098D01*
X160968448Y-101155771D01*
X160909122Y-101121691D01*
X160833052Y-101122739D01*
X160827418Y-101124081D01*
X160786805Y-101143336D01*
X160756948Y-101180875D01*
X160736555Y-101241309D01*
X160724336Y-101329251D01*
X160719000Y-101449313D01*
X160718500Y-101513198D01*
X160718252Y-101613903D01*
X160716626Y-101682554D01*
X160712301Y-101726173D01*
X160703954Y-101751782D01*
X160690265Y-101766403D01*
X160669911Y-101777058D01*
X160668734Y-101777595D01*
X160629538Y-101794167D01*
X160610119Y-101800269D01*
X160607135Y-101781819D01*
X160604581Y-101730823D01*
X160602640Y-101653808D01*
X160601497Y-101557305D01*
X160601269Y-101486684D01*
X160602432Y-101350025D01*
X160606979Y-101246351D01*
X160616499Y-101169608D01*
X160632581Y-101113746D01*
X160656813Y-101072712D01*
X160690786Y-101040454D01*
X160724333Y-101017940D01*
X160804999Y-100987976D01*
X160898881Y-100981218D01*
X160987307Y-100998282D01*
G36*
X160303833Y-100995028D02*
G01*
X160360090Y-101020617D01*
X160404247Y-101051624D01*
X160436601Y-101086295D01*
X160458938Y-101131020D01*
X160473046Y-101192192D01*
X160480711Y-101276201D01*
X160483720Y-101389440D01*
X160484038Y-101464009D01*
X160484038Y-101754920D01*
X160434273Y-101777595D01*
X160395076Y-101794167D01*
X160375657Y-101800269D01*
X160371942Y-101782110D01*
X160368995Y-101733148D01*
X160367191Y-101661653D01*
X160366808Y-101604885D01*
X160365161Y-101522871D01*
X160360722Y-101457809D01*
X160354240Y-101417967D01*
X160349090Y-101409500D01*
X160314477Y-101418146D01*
X160260140Y-101440323D01*
X160197222Y-101470386D01*
X160136868Y-101502692D01*
X160090221Y-101531598D01*
X160068426Y-101551461D01*
X160068339Y-101551675D01*
X160070214Y-101588435D01*
X160087025Y-101623526D01*
X160116539Y-101652028D01*
X160159616Y-101661561D01*
X160196432Y-101660450D01*
X160248574Y-101659633D01*
X160275944Y-101671849D01*
X160292382Y-101704124D01*
X160294455Y-101710210D01*
X160301581Y-101756239D01*
X160282524Y-101784187D01*
X160232853Y-101797507D01*
X160179197Y-101799970D01*
X160082642Y-101781710D01*
X160032659Y-101755631D01*
X159970929Y-101694368D01*
X159938190Y-101619170D01*
X159935253Y-101539711D01*
X159962924Y-101465667D01*
X160004547Y-101419269D01*
X160046104Y-101393293D01*
X160111422Y-101360407D01*
X160187538Y-101327057D01*
X160200226Y-101321961D01*
X160283833Y-101285065D01*
X160332030Y-101252546D01*
X160347530Y-101220218D01*
X160333050Y-101183894D01*
X160308192Y-101155500D01*
X160249439Y-101120539D01*
X160184793Y-101117917D01*
X160125508Y-101144858D01*
X160082839Y-101198588D01*
X160077239Y-101212450D01*
X160044633Y-101263436D01*
X159997030Y-101301287D01*
X159936961Y-101332350D01*
X159936961Y-101244268D01*
X159940497Y-101190451D01*
X159955656Y-101148034D01*
X159989268Y-101102779D01*
X160021535Y-101067920D01*
X160071709Y-101018562D01*
X160110693Y-100992047D01*
X160152564Y-100981411D01*
X160199960Y-100979654D01*
X160303833Y-100995028D01*
G37*
X160303833Y-100995028D02*
X160360090Y-101020617D01*
X160404247Y-101051624D01*
X160436601Y-101086295D01*
X160458938Y-101131020D01*
X160473046Y-101192192D01*
X160480711Y-101276201D01*
X160483720Y-101389440D01*
X160484038Y-101464009D01*
X160484038Y-101754920D01*
X160434273Y-101777595D01*
X160395076Y-101794167D01*
X160375657Y-101800269D01*
X160371942Y-101782110D01*
X160368995Y-101733148D01*
X160367191Y-101661653D01*
X160366808Y-101604885D01*
X160365161Y-101522871D01*
X160360722Y-101457809D01*
X160354240Y-101417967D01*
X160349090Y-101409500D01*
X160314477Y-101418146D01*
X160260140Y-101440323D01*
X160197222Y-101470386D01*
X160136868Y-101502692D01*
X160090221Y-101531598D01*
X160068426Y-101551461D01*
X160068339Y-101551675D01*
X160070214Y-101588435D01*
X160087025Y-101623526D01*
X160116539Y-101652028D01*
X160159616Y-101661561D01*
X160196432Y-101660450D01*
X160248574Y-101659633D01*
X160275944Y-101671849D01*
X160292382Y-101704124D01*
X160294455Y-101710210D01*
X160301581Y-101756239D01*
X160282524Y-101784187D01*
X160232853Y-101797507D01*
X160179197Y-101799970D01*
X160082642Y-101781710D01*
X160032659Y-101755631D01*
X159970929Y-101694368D01*
X159938190Y-101619170D01*
X159935253Y-101539711D01*
X159962924Y-101465667D01*
X160004547Y-101419269D01*
X160046104Y-101393293D01*
X160111422Y-101360407D01*
X160187538Y-101327057D01*
X160200226Y-101321961D01*
X160283833Y-101285065D01*
X160332030Y-101252546D01*
X160347530Y-101220218D01*
X160333050Y-101183894D01*
X160308192Y-101155500D01*
X160249439Y-101120539D01*
X160184793Y-101117917D01*
X160125508Y-101144858D01*
X160082839Y-101198588D01*
X160077239Y-101212450D01*
X160044633Y-101263436D01*
X159997030Y-101301287D01*
X159936961Y-101332350D01*
X159936961Y-101244268D01*
X159940497Y-101190451D01*
X159955656Y-101148034D01*
X159989268Y-101102779D01*
X160021535Y-101067920D01*
X160071709Y-101018562D01*
X160110693Y-100992047D01*
X160152564Y-100981411D01*
X160199960Y-100979654D01*
X160303833Y-100995028D01*
G36*
X159812429Y-100998162D02*
G01*
X159815411Y-101049568D01*
X159817747Y-101127692D01*
X159819249Y-101226357D01*
X159819731Y-101329843D01*
X159819731Y-101680033D01*
X159757901Y-101741863D01*
X159715293Y-101779962D01*
X159677890Y-101795395D01*
X159626770Y-101794418D01*
X159606478Y-101791933D01*
X159543054Y-101784700D01*
X159490595Y-101780555D01*
X159477808Y-101780172D01*
X159434699Y-101782676D01*
X159373044Y-101788962D01*
X159349138Y-101791933D01*
X159290422Y-101796528D01*
X159250964Y-101786546D01*
X159211838Y-101755728D01*
X159197715Y-101741863D01*
X159135885Y-101680033D01*
X159135885Y-101025003D01*
X159185650Y-101002329D01*
X159228502Y-100985534D01*
X159253573Y-100979654D01*
X159260001Y-100998236D01*
X159266009Y-101050155D01*
X159271197Y-101129672D01*
X159275164Y-101231046D01*
X159277077Y-101316692D01*
X159282423Y-101653731D01*
X159329060Y-101660325D01*
X159371476Y-101655714D01*
X159392260Y-101640787D01*
X159398070Y-101612877D01*
X159403030Y-101553425D01*
X159406746Y-101469966D01*
X159408824Y-101370032D01*
X159409124Y-101318604D01*
X159409423Y-101022554D01*
X159470954Y-101001104D01*
X159514504Y-100986520D01*
X159538194Y-100979719D01*
X159538877Y-100979654D01*
X159541254Y-100998142D01*
X159543866Y-101049406D01*
X159546495Y-101127149D01*
X159548921Y-101225074D01*
X159550615Y-101316692D01*
X159555961Y-101653731D01*
X159673192Y-101653731D01*
X159678572Y-101346246D01*
X159683951Y-101038761D01*
X159741101Y-101009207D01*
X159783297Y-100988913D01*
X159808270Y-100979704D01*
X159808991Y-100979654D01*
X159812429Y-100998162D01*
G37*
X159812429Y-100998162D02*
X159815411Y-101049568D01*
X159817747Y-101127692D01*
X159819249Y-101226357D01*
X159819731Y-101329843D01*
X159819731Y-101680033D01*
X159757901Y-101741863D01*
X159715293Y-101779962D01*
X159677890Y-101795395D01*
X159626770Y-101794418D01*
X159606478Y-101791933D01*
X159543054Y-101784700D01*
X159490595Y-101780555D01*
X159477808Y-101780172D01*
X159434699Y-101782676D01*
X159373044Y-101788962D01*
X159349138Y-101791933D01*
X159290422Y-101796528D01*
X159250964Y-101786546D01*
X159211838Y-101755728D01*
X159197715Y-101741863D01*
X159135885Y-101680033D01*
X159135885Y-101025003D01*
X159185650Y-101002329D01*
X159228502Y-100985534D01*
X159253573Y-100979654D01*
X159260001Y-100998236D01*
X159266009Y-101050155D01*
X159271197Y-101129672D01*
X159275164Y-101231046D01*
X159277077Y-101316692D01*
X159282423Y-101653731D01*
X159329060Y-101660325D01*
X159371476Y-101655714D01*
X159392260Y-101640787D01*
X159398070Y-101612877D01*
X159403030Y-101553425D01*
X159406746Y-101469966D01*
X159408824Y-101370032D01*
X159409124Y-101318604D01*
X159409423Y-101022554D01*
X159470954Y-101001104D01*
X159514504Y-100986520D01*
X159538194Y-100979719D01*
X159538877Y-100979654D01*
X159541254Y-100998142D01*
X159543866Y-101049406D01*
X159546495Y-101127149D01*
X159548921Y-101225074D01*
X159550615Y-101316692D01*
X159555961Y-101653731D01*
X159673192Y-101653731D01*
X159678572Y-101346246D01*
X159683951Y-101038761D01*
X159741101Y-101009207D01*
X159783297Y-100988913D01*
X159808270Y-100979704D01*
X159808991Y-100979654D01*
X159812429Y-100998162D01*
G36*
X159018581Y-101141789D02*
G01*
X159018333Y-101287820D01*
X159017372Y-101400155D01*
X159015294Y-101484178D01*
X159011693Y-101545269D01*
X159006165Y-101588809D01*
X158998304Y-101620179D01*
X158987707Y-101644762D01*
X158979682Y-101658794D01*
X158913228Y-101734888D01*
X158828970Y-101782584D01*
X158735749Y-101799699D01*
X158642400Y-101784046D01*
X158586812Y-101755918D01*
X158528457Y-101707260D01*
X158488686Y-101647833D01*
X158464690Y-101570007D01*
X158453661Y-101466152D01*
X158452099Y-101389962D01*
X158452309Y-101384486D01*
X158588808Y-101384486D01*
X158589641Y-101471855D01*
X158593461Y-101529692D01*
X158602246Y-101567529D01*
X158617974Y-101594898D01*
X158636766Y-101615542D01*
X158699875Y-101655390D01*
X158767637Y-101658795D01*
X158831679Y-101625525D01*
X158836664Y-101621017D01*
X158857939Y-101597567D01*
X158871279Y-101569666D01*
X158878501Y-101528141D01*
X158881423Y-101463816D01*
X158881885Y-101392700D01*
X158880883Y-101303358D01*
X158876738Y-101243758D01*
X158867736Y-101204589D01*
X158852167Y-101176540D01*
X158839402Y-101161644D01*
X158780100Y-101124075D01*
X158711801Y-101119557D01*
X158646610Y-101148253D01*
X158634028Y-101158906D01*
X158612611Y-101182563D01*
X158599244Y-101210751D01*
X158592066Y-101252745D01*
X158589219Y-101317819D01*
X158588808Y-101384486D01*
X158452309Y-101384486D01*
X158456822Y-101267265D01*
X158472862Y-101175077D01*
X158503028Y-101105769D01*
X158550129Y-101051711D01*
X158586812Y-101024005D01*
X158653490Y-100994072D01*
X158730772Y-100980178D01*
X158802610Y-100983897D01*
X158842808Y-100998900D01*
X158858582Y-101003170D01*
X158869050Y-100987250D01*
X158876356Y-100944589D01*
X158881885Y-100879606D01*
X158887937Y-100807232D01*
X158896344Y-100763687D01*
X158911641Y-100738787D01*
X158938364Y-100722345D01*
X158955154Y-100715064D01*
X159018654Y-100688463D01*
X159018581Y-101141789D01*
G37*
X159018581Y-101141789D02*
X159018333Y-101287820D01*
X159017372Y-101400155D01*
X159015294Y-101484178D01*
X159011693Y-101545269D01*
X159006165Y-101588809D01*
X158998304Y-101620179D01*
X158987707Y-101644762D01*
X158979682Y-101658794D01*
X158913228Y-101734888D01*
X158828970Y-101782584D01*
X158735749Y-101799699D01*
X158642400Y-101784046D01*
X158586812Y-101755918D01*
X158528457Y-101707260D01*
X158488686Y-101647833D01*
X158464690Y-101570007D01*
X158453661Y-101466152D01*
X158452099Y-101389962D01*
X158452309Y-101384486D01*
X158588808Y-101384486D01*
X158589641Y-101471855D01*
X158593461Y-101529692D01*
X158602246Y-101567529D01*
X158617974Y-101594898D01*
X158636766Y-101615542D01*
X158699875Y-101655390D01*
X158767637Y-101658795D01*
X158831679Y-101625525D01*
X158836664Y-101621017D01*
X158857939Y-101597567D01*
X158871279Y-101569666D01*
X158878501Y-101528141D01*
X158881423Y-101463816D01*
X158881885Y-101392700D01*
X158880883Y-101303358D01*
X158876738Y-101243758D01*
X158867736Y-101204589D01*
X158852167Y-101176540D01*
X158839402Y-101161644D01*
X158780100Y-101124075D01*
X158711801Y-101119557D01*
X158646610Y-101148253D01*
X158634028Y-101158906D01*
X158612611Y-101182563D01*
X158599244Y-101210751D01*
X158592066Y-101252745D01*
X158589219Y-101317819D01*
X158588808Y-101384486D01*
X158452309Y-101384486D01*
X158456822Y-101267265D01*
X158472862Y-101175077D01*
X158503028Y-101105769D01*
X158550129Y-101051711D01*
X158586812Y-101024005D01*
X158653490Y-100994072D01*
X158730772Y-100980178D01*
X158802610Y-100983897D01*
X158842808Y-100998900D01*
X158858582Y-101003170D01*
X158869050Y-100987250D01*
X158876356Y-100944589D01*
X158881885Y-100879606D01*
X158887937Y-100807232D01*
X158896344Y-100763687D01*
X158911641Y-100738787D01*
X158938364Y-100722345D01*
X158955154Y-100715064D01*
X159018654Y-100688463D01*
X159018581Y-101141789D01*
G36*
X158129862Y-100986170D02*
G01*
X158218617Y-101018921D01*
X158290522Y-101076850D01*
X158318644Y-101117628D01*
X158349302Y-101192454D01*
X158348665Y-101246558D01*
X158316487Y-101282946D01*
X158304581Y-101289133D01*
X158253175Y-101308425D01*
X158226922Y-101303482D01*
X158218030Y-101271087D01*
X158217577Y-101253192D01*
X158201297Y-101187359D01*
X158158865Y-101141307D01*
X158099888Y-101119064D01*
X158033975Y-101124661D01*
X157980395Y-101153729D01*
X157962298Y-101170310D01*
X157949471Y-101190425D01*
X157940806Y-101220832D01*
X157935196Y-101268288D01*
X157931535Y-101339550D01*
X157928715Y-101441375D01*
X157927984Y-101473615D01*
X157925320Y-101583910D01*
X157922292Y-101661536D01*
X157917750Y-101712896D01*
X157910546Y-101744390D01*
X157899533Y-101762420D01*
X157883560Y-101773388D01*
X157873334Y-101778233D01*
X157829906Y-101794801D01*
X157804342Y-101800269D01*
X157795895Y-101782007D01*
X157790739Y-101726796D01*
X157788846Y-101633999D01*
X157790189Y-101502978D01*
X157790607Y-101482769D01*
X157793558Y-101363233D01*
X157797048Y-101275949D01*
X157802014Y-101214091D01*
X157809393Y-101170836D01*
X157820124Y-101139360D01*
X157835145Y-101112839D01*
X157843002Y-101101475D01*
X157888053Y-101051192D01*
X157938440Y-101012081D01*
X157944608Y-101008667D01*
X158034958Y-100981712D01*
X158129862Y-100986170D01*
G37*
X158129862Y-100986170D02*
X158218617Y-101018921D01*
X158290522Y-101076850D01*
X158318644Y-101117628D01*
X158349302Y-101192454D01*
X158348665Y-101246558D01*
X158316487Y-101282946D01*
X158304581Y-101289133D01*
X158253175Y-101308425D01*
X158226922Y-101303482D01*
X158218030Y-101271087D01*
X158217577Y-101253192D01*
X158201297Y-101187359D01*
X158158865Y-101141307D01*
X158099888Y-101119064D01*
X158033975Y-101124661D01*
X157980395Y-101153729D01*
X157962298Y-101170310D01*
X157949471Y-101190425D01*
X157940806Y-101220832D01*
X157935196Y-101268288D01*
X157931535Y-101339550D01*
X157928715Y-101441375D01*
X157927984Y-101473615D01*
X157925320Y-101583910D01*
X157922292Y-101661536D01*
X157917750Y-101712896D01*
X157910546Y-101744390D01*
X157899533Y-101762420D01*
X157883560Y-101773388D01*
X157873334Y-101778233D01*
X157829906Y-101794801D01*
X157804342Y-101800269D01*
X157795895Y-101782007D01*
X157790739Y-101726796D01*
X157788846Y-101633999D01*
X157790189Y-101502978D01*
X157790607Y-101482769D01*
X157793558Y-101363233D01*
X157797048Y-101275949D01*
X157802014Y-101214091D01*
X157809393Y-101170836D01*
X157820124Y-101139360D01*
X157835145Y-101112839D01*
X157843002Y-101101475D01*
X157888053Y-101051192D01*
X157938440Y-101012081D01*
X157944608Y-101008667D01*
X158034958Y-100981712D01*
X158129862Y-100986170D01*
G36*
X157470001Y-100987803D02*
G01*
X157546560Y-101016233D01*
X157547436Y-101016779D01*
X157594785Y-101051627D01*
X157629741Y-101092352D01*
X157654325Y-101145425D01*
X157670562Y-101217314D01*
X157680475Y-101314492D01*
X157686086Y-101443428D01*
X157686577Y-101461798D01*
X157693641Y-101738787D01*
X157634195Y-101769528D01*
X157591181Y-101790302D01*
X157565210Y-101800146D01*
X157564009Y-101800269D01*
X157559514Y-101782106D01*
X157555944Y-101733112D01*
X157553748Y-101661531D01*
X157553269Y-101603568D01*
X157553258Y-101509670D01*
X157548966Y-101450703D01*
X157534003Y-101422579D01*
X157501982Y-101421206D01*
X157446514Y-101442498D01*
X157362769Y-101481636D01*
X157301189Y-101514143D01*
X157269517Y-101542345D01*
X157260206Y-101573082D01*
X157260192Y-101574604D01*
X157275557Y-101627554D01*
X157321047Y-101656160D01*
X157390666Y-101660303D01*
X157440813Y-101659584D01*
X157467254Y-101674027D01*
X157483743Y-101708718D01*
X157493233Y-101752916D01*
X157479557Y-101777993D01*
X157474407Y-101781582D01*
X157425925Y-101795996D01*
X157358031Y-101798037D01*
X157288112Y-101788483D01*
X157238568Y-101771022D01*
X157170070Y-101712864D01*
X157131134Y-101631908D01*
X157123423Y-101568660D01*
X157129307Y-101511611D01*
X157150601Y-101465042D01*
X157192765Y-101423681D01*
X157261259Y-101382255D01*
X157361544Y-101335493D01*
X157367654Y-101332850D01*
X157457990Y-101291117D01*
X157513735Y-101256891D01*
X157537629Y-101226135D01*
X157532413Y-101194811D01*
X157500828Y-101158883D01*
X157491383Y-101150616D01*
X157428117Y-101118558D01*
X157362564Y-101119907D01*
X157305472Y-101151338D01*
X157267593Y-101209524D01*
X157264074Y-101220946D01*
X157229800Y-101276337D01*
X157186309Y-101303018D01*
X157123423Y-101329460D01*
X157123423Y-101261048D01*
X157142552Y-101161610D01*
X157199331Y-101070402D01*
X157228878Y-101039889D01*
X157296042Y-101000728D01*
X157381456Y-100983000D01*
X157470001Y-100987803D01*
G37*
X157470001Y-100987803D02*
X157546560Y-101016233D01*
X157547436Y-101016779D01*
X157594785Y-101051627D01*
X157629741Y-101092352D01*
X157654325Y-101145425D01*
X157670562Y-101217314D01*
X157680475Y-101314492D01*
X157686086Y-101443428D01*
X157686577Y-101461798D01*
X157693641Y-101738787D01*
X157634195Y-101769528D01*
X157591181Y-101790302D01*
X157565210Y-101800146D01*
X157564009Y-101800269D01*
X157559514Y-101782106D01*
X157555944Y-101733112D01*
X157553748Y-101661531D01*
X157553269Y-101603568D01*
X157553258Y-101509670D01*
X157548966Y-101450703D01*
X157534003Y-101422579D01*
X157501982Y-101421206D01*
X157446514Y-101442498D01*
X157362769Y-101481636D01*
X157301189Y-101514143D01*
X157269517Y-101542345D01*
X157260206Y-101573082D01*
X157260192Y-101574604D01*
X157275557Y-101627554D01*
X157321047Y-101656160D01*
X157390666Y-101660303D01*
X157440813Y-101659584D01*
X157467254Y-101674027D01*
X157483743Y-101708718D01*
X157493233Y-101752916D01*
X157479557Y-101777993D01*
X157474407Y-101781582D01*
X157425925Y-101795996D01*
X157358031Y-101798037D01*
X157288112Y-101788483D01*
X157238568Y-101771022D01*
X157170070Y-101712864D01*
X157131134Y-101631908D01*
X157123423Y-101568660D01*
X157129307Y-101511611D01*
X157150601Y-101465042D01*
X157192765Y-101423681D01*
X157261259Y-101382255D01*
X157361544Y-101335493D01*
X157367654Y-101332850D01*
X157457990Y-101291117D01*
X157513735Y-101256891D01*
X157537629Y-101226135D01*
X157532413Y-101194811D01*
X157500828Y-101158883D01*
X157491383Y-101150616D01*
X157428117Y-101118558D01*
X157362564Y-101119907D01*
X157305472Y-101151338D01*
X157267593Y-101209524D01*
X157264074Y-101220946D01*
X157229800Y-101276337D01*
X157186309Y-101303018D01*
X157123423Y-101329460D01*
X157123423Y-101261048D01*
X157142552Y-101161610D01*
X157199331Y-101070402D01*
X157228878Y-101039889D01*
X157296042Y-101000728D01*
X157381456Y-100983000D01*
X157470001Y-100987803D01*
G36*
X156576346Y-100853620D02*
G01*
X156582072Y-100933480D01*
X156588649Y-100980539D01*
X156597762Y-101001066D01*
X156611098Y-101001329D01*
X156615423Y-100998878D01*
X156672944Y-100981136D01*
X156747768Y-100982172D01*
X156823839Y-101000410D01*
X156871418Y-101024005D01*
X156920202Y-101061698D01*
X156955864Y-101104355D01*
X156980345Y-101158557D01*
X156995587Y-101230884D01*
X157003530Y-101327919D01*
X157006116Y-101456242D01*
X157006162Y-101480858D01*
X157006192Y-101757370D01*
X156944661Y-101778820D01*
X156900959Y-101793412D01*
X156876982Y-101800206D01*
X156876277Y-101800269D01*
X156873915Y-101781845D01*
X156871906Y-101731026D01*
X156870401Y-101654493D01*
X156869553Y-101558930D01*
X156869423Y-101500829D01*
X156869151Y-101386271D01*
X156867752Y-101304167D01*
X156864349Y-101247893D01*
X156858067Y-101210826D01*
X156848029Y-101186344D01*
X156833361Y-101167825D01*
X156824202Y-101158906D01*
X156761289Y-101122966D01*
X156692636Y-101120275D01*
X156630348Y-101150670D01*
X156618829Y-101161644D01*
X156601933Y-101182279D01*
X156590214Y-101206756D01*
X156582733Y-101242147D01*
X156578554Y-101295526D01*
X156576737Y-101373966D01*
X156576346Y-101482117D01*
X156576346Y-101757370D01*
X156514815Y-101778820D01*
X156471113Y-101793412D01*
X156447136Y-101800206D01*
X156446430Y-101800269D01*
X156444626Y-101781569D01*
X156443000Y-101728822D01*
X156441617Y-101647057D01*
X156440542Y-101541305D01*
X156439840Y-101416594D01*
X156439577Y-101277955D01*
X156439577Y-100743306D01*
X156566577Y-100689736D01*
X156576346Y-100853620D01*
G37*
X156576346Y-100853620D02*
X156582072Y-100933480D01*
X156588649Y-100980539D01*
X156597762Y-101001066D01*
X156611098Y-101001329D01*
X156615423Y-100998878D01*
X156672944Y-100981136D01*
X156747768Y-100982172D01*
X156823839Y-101000410D01*
X156871418Y-101024005D01*
X156920202Y-101061698D01*
X156955864Y-101104355D01*
X156980345Y-101158557D01*
X156995587Y-101230884D01*
X157003530Y-101327919D01*
X157006116Y-101456242D01*
X157006162Y-101480858D01*
X157006192Y-101757370D01*
X156944661Y-101778820D01*
X156900959Y-101793412D01*
X156876982Y-101800206D01*
X156876277Y-101800269D01*
X156873915Y-101781845D01*
X156871906Y-101731026D01*
X156870401Y-101654493D01*
X156869553Y-101558930D01*
X156869423Y-101500829D01*
X156869151Y-101386271D01*
X156867752Y-101304167D01*
X156864349Y-101247893D01*
X156858067Y-101210826D01*
X156848029Y-101186344D01*
X156833361Y-101167825D01*
X156824202Y-101158906D01*
X156761289Y-101122966D01*
X156692636Y-101120275D01*
X156630348Y-101150670D01*
X156618829Y-101161644D01*
X156601933Y-101182279D01*
X156590214Y-101206756D01*
X156582733Y-101242147D01*
X156578554Y-101295526D01*
X156576737Y-101373966D01*
X156576346Y-101482117D01*
X156576346Y-101757370D01*
X156514815Y-101778820D01*
X156471113Y-101793412D01*
X156447136Y-101800206D01*
X156446430Y-101800269D01*
X156444626Y-101781569D01*
X156443000Y-101728822D01*
X156441617Y-101647057D01*
X156440542Y-101541305D01*
X156439840Y-101416594D01*
X156439577Y-101277955D01*
X156439577Y-100743306D01*
X156566577Y-100689736D01*
X156576346Y-100853620D01*
G36*
X154950754Y-100961245D02*
G01*
X155027786Y-101013067D01*
X155087316Y-101087912D01*
X155122878Y-101183154D01*
X155130071Y-101253256D01*
X155129254Y-101282509D01*
X155122414Y-101304907D01*
X155103612Y-101324974D01*
X155066908Y-101347233D01*
X155006362Y-101376209D01*
X154916034Y-101416427D01*
X154915577Y-101416629D01*
X154832433Y-101454710D01*
X154764253Y-101488525D01*
X154718005Y-101514433D01*
X154700658Y-101528795D01*
X154700654Y-101528911D01*
X154715943Y-101560185D01*
X154751696Y-101594657D01*
X154792742Y-101619490D01*
X154813537Y-101624423D01*
X154870270Y-101607362D01*
X154919127Y-101564633D01*
X154942965Y-101517655D01*
X154965897Y-101483022D01*
X155010818Y-101443581D01*
X155063623Y-101409509D01*
X155110210Y-101390980D01*
X155119952Y-101389962D01*
X155130918Y-101406715D01*
X155131579Y-101449539D01*
X155123520Y-101507281D01*
X155108327Y-101568789D01*
X155087586Y-101622909D01*
X155086538Y-101625010D01*
X155024121Y-101712160D01*
X154943226Y-101771439D01*
X154851356Y-101800534D01*
X154756013Y-101797134D01*
X154664698Y-101758928D01*
X154660638Y-101756241D01*
X154588806Y-101691142D01*
X154541573Y-101606205D01*
X154515434Y-101494521D01*
X154511926Y-101463143D01*
X154505713Y-101315036D01*
X154513161Y-101245968D01*
X154700654Y-101245968D01*
X154703090Y-101289052D01*
X154716414Y-101301626D01*
X154749632Y-101292219D01*
X154801994Y-101269983D01*
X154860524Y-101242110D01*
X154861979Y-101241372D01*
X154911589Y-101215277D01*
X154931500Y-101197863D01*
X154926590Y-101179607D01*
X154905916Y-101155620D01*
X154853319Y-101120906D01*
X154796677Y-101118356D01*
X154745869Y-101143619D01*
X154710776Y-101192347D01*
X154700654Y-101245968D01*
X154513161Y-101245968D01*
X154518492Y-101196536D01*
X154551278Y-101102555D01*
X154596921Y-101036715D01*
X154679302Y-100970181D01*
X154770046Y-100937176D01*
X154862685Y-100935073D01*
X154950754Y-100961245D01*
G37*
X154950754Y-100961245D02*
X155027786Y-101013067D01*
X155087316Y-101087912D01*
X155122878Y-101183154D01*
X155130071Y-101253256D01*
X155129254Y-101282509D01*
X155122414Y-101304907D01*
X155103612Y-101324974D01*
X155066908Y-101347233D01*
X155006362Y-101376209D01*
X154916034Y-101416427D01*
X154915577Y-101416629D01*
X154832433Y-101454710D01*
X154764253Y-101488525D01*
X154718005Y-101514433D01*
X154700658Y-101528795D01*
X154700654Y-101528911D01*
X154715943Y-101560185D01*
X154751696Y-101594657D01*
X154792742Y-101619490D01*
X154813537Y-101624423D01*
X154870270Y-101607362D01*
X154919127Y-101564633D01*
X154942965Y-101517655D01*
X154965897Y-101483022D01*
X155010818Y-101443581D01*
X155063623Y-101409509D01*
X155110210Y-101390980D01*
X155119952Y-101389962D01*
X155130918Y-101406715D01*
X155131579Y-101449539D01*
X155123520Y-101507281D01*
X155108327Y-101568789D01*
X155087586Y-101622909D01*
X155086538Y-101625010D01*
X155024121Y-101712160D01*
X154943226Y-101771439D01*
X154851356Y-101800534D01*
X154756013Y-101797134D01*
X154664698Y-101758928D01*
X154660638Y-101756241D01*
X154588806Y-101691142D01*
X154541573Y-101606205D01*
X154515434Y-101494521D01*
X154511926Y-101463143D01*
X154505713Y-101315036D01*
X154513161Y-101245968D01*
X154700654Y-101245968D01*
X154703090Y-101289052D01*
X154716414Y-101301626D01*
X154749632Y-101292219D01*
X154801994Y-101269983D01*
X154860524Y-101242110D01*
X154861979Y-101241372D01*
X154911589Y-101215277D01*
X154931500Y-101197863D01*
X154926590Y-101179607D01*
X154905916Y-101155620D01*
X154853319Y-101120906D01*
X154796677Y-101118356D01*
X154745869Y-101143619D01*
X154710776Y-101192347D01*
X154700654Y-101245968D01*
X154513161Y-101245968D01*
X154518492Y-101196536D01*
X154551278Y-101102555D01*
X154596921Y-101036715D01*
X154679302Y-100970181D01*
X154770046Y-100937176D01*
X154862685Y-100935073D01*
X154950754Y-100961245D01*
G36*
X153433386Y-100948756D02*
G01*
X153524964Y-100996909D01*
X153592549Y-101074405D01*
X153616557Y-101124227D01*
X153635238Y-101199033D01*
X153644801Y-101293552D01*
X153645708Y-101396710D01*
X153638421Y-101497435D01*
X153623403Y-101584653D01*
X153601115Y-101647291D01*
X153594265Y-101658079D01*
X153513132Y-101738605D01*
X153416766Y-101786836D01*
X153312201Y-101800950D01*
X153206468Y-101779129D01*
X153177043Y-101766047D01*
X153119741Y-101725731D01*
X153069450Y-101672275D01*
X153064697Y-101665495D01*
X153045378Y-101632821D01*
X153032608Y-101597894D01*
X153025064Y-101551914D01*
X153021424Y-101486084D01*
X153020365Y-101391605D01*
X153020346Y-101370423D01*
X153020394Y-101363682D01*
X153215731Y-101363682D01*
X153216868Y-101452849D01*
X153221341Y-101512020D01*
X153230746Y-101550241D01*
X153246676Y-101576553D01*
X153254808Y-101585346D01*
X153301558Y-101618761D01*
X153346947Y-101617237D01*
X153392840Y-101588252D01*
X153420212Y-101557309D01*
X153436423Y-101512143D01*
X153445526Y-101440920D01*
X153446151Y-101432614D01*
X153447704Y-101303537D01*
X153431465Y-101207672D01*
X153397652Y-101145607D01*
X153346484Y-101117932D01*
X153328220Y-101116423D01*
X153280260Y-101124013D01*
X153247453Y-101150308D01*
X153227395Y-101200595D01*
X153217678Y-101280164D01*
X153215731Y-101363682D01*
X153020394Y-101363682D01*
X153021074Y-101269749D01*
X153024129Y-101199406D01*
X153030822Y-101150663D01*
X153042460Y-101114788D01*
X153060353Y-101083048D01*
X153064308Y-101077148D01*
X153130767Y-100997604D01*
X153203185Y-100951429D01*
X153291349Y-100933099D01*
X153321287Y-100932203D01*
X153433386Y-100948756D01*
G37*
X153433386Y-100948756D02*
X153524964Y-100996909D01*
X153592549Y-101074405D01*
X153616557Y-101124227D01*
X153635238Y-101199033D01*
X153644801Y-101293552D01*
X153645708Y-101396710D01*
X153638421Y-101497435D01*
X153623403Y-101584653D01*
X153601115Y-101647291D01*
X153594265Y-101658079D01*
X153513132Y-101738605D01*
X153416766Y-101786836D01*
X153312201Y-101800950D01*
X153206468Y-101779129D01*
X153177043Y-101766047D01*
X153119741Y-101725731D01*
X153069450Y-101672275D01*
X153064697Y-101665495D01*
X153045378Y-101632821D01*
X153032608Y-101597894D01*
X153025064Y-101551914D01*
X153021424Y-101486084D01*
X153020365Y-101391605D01*
X153020346Y-101370423D01*
X153020394Y-101363682D01*
X153215731Y-101363682D01*
X153216868Y-101452849D01*
X153221341Y-101512020D01*
X153230746Y-101550241D01*
X153246676Y-101576553D01*
X153254808Y-101585346D01*
X153301558Y-101618761D01*
X153346947Y-101617237D01*
X153392840Y-101588252D01*
X153420212Y-101557309D01*
X153436423Y-101512143D01*
X153445526Y-101440920D01*
X153446151Y-101432614D01*
X153447704Y-101303537D01*
X153431465Y-101207672D01*
X153397652Y-101145607D01*
X153346484Y-101117932D01*
X153328220Y-101116423D01*
X153280260Y-101124013D01*
X153247453Y-101150308D01*
X153227395Y-101200595D01*
X153217678Y-101280164D01*
X153215731Y-101363682D01*
X153020394Y-101363682D01*
X153021074Y-101269749D01*
X153024129Y-101199406D01*
X153030822Y-101150663D01*
X153042460Y-101114788D01*
X153060353Y-101083048D01*
X153064308Y-101077148D01*
X153130767Y-100997604D01*
X153203185Y-100951429D01*
X153291349Y-100933099D01*
X153321287Y-100932203D01*
X153433386Y-100948756D01*
G36*
X155688164Y-100956589D02*
G01*
X155750867Y-100992858D01*
X155794461Y-101028858D01*
X155826345Y-101066575D01*
X155848310Y-101112699D01*
X155862149Y-101173921D01*
X155869653Y-101256931D01*
X155872617Y-101368419D01*
X155872961Y-101448562D01*
X155872961Y-101743565D01*
X155706885Y-101818015D01*
X155697115Y-101494902D01*
X155693079Y-101374229D01*
X155688844Y-101286641D01*
X155683597Y-101226150D01*
X155676525Y-101186768D01*
X155666811Y-101162507D01*
X155653644Y-101147380D01*
X155649419Y-101144106D01*
X155585409Y-101118534D01*
X155520708Y-101128653D01*
X155482192Y-101155500D01*
X155466525Y-101174524D01*
X155455680Y-101199488D01*
X155448788Y-101237334D01*
X155444979Y-101295002D01*
X155443383Y-101379435D01*
X155443115Y-101467428D01*
X155443063Y-101577823D01*
X155441172Y-101655963D01*
X155434845Y-101708665D01*
X155421483Y-101742742D01*
X155398485Y-101765011D01*
X155363254Y-101782287D01*
X155316197Y-101800238D01*
X155264803Y-101819778D01*
X155270921Y-101472985D01*
X155273384Y-101347968D01*
X155276267Y-101255582D01*
X155280398Y-101189381D01*
X155286607Y-101142920D01*
X155295726Y-101109756D01*
X155308583Y-101083444D01*
X155324084Y-101060229D01*
X155398871Y-100986069D01*
X155490128Y-100943184D01*
X155589383Y-100932912D01*
X155688164Y-100956589D01*
G37*
X155688164Y-100956589D02*
X155750867Y-100992858D01*
X155794461Y-101028858D01*
X155826345Y-101066575D01*
X155848310Y-101112699D01*
X155862149Y-101173921D01*
X155869653Y-101256931D01*
X155872617Y-101368419D01*
X155872961Y-101448562D01*
X155872961Y-101743565D01*
X155706885Y-101818015D01*
X155697115Y-101494902D01*
X155693079Y-101374229D01*
X155688844Y-101286641D01*
X155683597Y-101226150D01*
X155676525Y-101186768D01*
X155666811Y-101162507D01*
X155653644Y-101147380D01*
X155649419Y-101144106D01*
X155585409Y-101118534D01*
X155520708Y-101128653D01*
X155482192Y-101155500D01*
X155466525Y-101174524D01*
X155455680Y-101199488D01*
X155448788Y-101237334D01*
X155444979Y-101295002D01*
X155443383Y-101379435D01*
X155443115Y-101467428D01*
X155443063Y-101577823D01*
X155441172Y-101655963D01*
X155434845Y-101708665D01*
X155421483Y-101742742D01*
X155398485Y-101765011D01*
X155363254Y-101782287D01*
X155316197Y-101800238D01*
X155264803Y-101819778D01*
X155270921Y-101472985D01*
X155273384Y-101347968D01*
X155276267Y-101255582D01*
X155280398Y-101189381D01*
X155286607Y-101142920D01*
X155295726Y-101109756D01*
X155308583Y-101083444D01*
X155324084Y-101060229D01*
X155398871Y-100986069D01*
X155490128Y-100943184D01*
X155589383Y-100932912D01*
X155688164Y-100956589D01*
G36*
X154185386Y-100946005D02*
G01*
X154260039Y-100983227D01*
X154325931Y-101051761D01*
X154344077Y-101077148D01*
X154363845Y-101110366D01*
X154376672Y-101146445D01*
X154384010Y-101194598D01*
X154387313Y-101264036D01*
X154388038Y-101355706D01*
X154384763Y-101481330D01*
X154373377Y-101575654D01*
X154351541Y-101646023D01*
X154316919Y-101699786D01*
X154267170Y-101744288D01*
X154263514Y-101746923D01*
X154214485Y-101773877D01*
X154155445Y-101787212D01*
X154080359Y-101790500D01*
X153958295Y-101790500D01*
X153958244Y-101908997D01*
X153957108Y-101974992D01*
X153950186Y-102013702D01*
X153932098Y-102036919D01*
X153897462Y-102056433D01*
X153889145Y-102060420D01*
X153850220Y-102079103D01*
X153820083Y-102090903D01*
X153797674Y-102091922D01*
X153781933Y-102078261D01*
X153771802Y-102046022D01*
X153766223Y-101991304D01*
X153764135Y-101910211D01*
X153764481Y-101798844D01*
X153766200Y-101653302D01*
X153766737Y-101609769D01*
X153768672Y-101459705D01*
X153770404Y-101361542D01*
X153958192Y-101361542D01*
X153959248Y-101444864D01*
X153963938Y-101499380D01*
X153974551Y-101535337D01*
X153993372Y-101562982D01*
X154006150Y-101576465D01*
X154058390Y-101615917D01*
X154104642Y-101619128D01*
X154152367Y-101586549D01*
X154153577Y-101585346D01*
X154172994Y-101560168D01*
X154184807Y-101525947D01*
X154190765Y-101473248D01*
X154192620Y-101392631D01*
X154192654Y-101374771D01*
X154188170Y-101263675D01*
X154173574Y-101186661D01*
X154147150Y-101139647D01*
X154107183Y-101118550D01*
X154084084Y-101116423D01*
X154029262Y-101126400D01*
X153991658Y-101159252D01*
X153969023Y-101219357D01*
X153959106Y-101311098D01*
X153958192Y-101361542D01*
X153770404Y-101361542D01*
X153770722Y-101343560D01*
X153773373Y-101256179D01*
X153777106Y-101192405D01*
X153782407Y-101147082D01*
X153789758Y-101115055D01*
X153799643Y-101091168D01*
X153812546Y-101070264D01*
X153818079Y-101062398D01*
X153891469Y-100988095D01*
X153984260Y-100945967D01*
X154091596Y-100934222D01*
X154185386Y-100946005D01*
G37*
X154185386Y-100946005D02*
X154260039Y-100983227D01*
X154325931Y-101051761D01*
X154344077Y-101077148D01*
X154363845Y-101110366D01*
X154376672Y-101146445D01*
X154384010Y-101194598D01*
X154387313Y-101264036D01*
X154388038Y-101355706D01*
X154384763Y-101481330D01*
X154373377Y-101575654D01*
X154351541Y-101646023D01*
X154316919Y-101699786D01*
X154267170Y-101744288D01*
X154263514Y-101746923D01*
X154214485Y-101773877D01*
X154155445Y-101787212D01*
X154080359Y-101790500D01*
X153958295Y-101790500D01*
X153958244Y-101908997D01*
X153957108Y-101974992D01*
X153950186Y-102013702D01*
X153932098Y-102036919D01*
X153897462Y-102056433D01*
X153889145Y-102060420D01*
X153850220Y-102079103D01*
X153820083Y-102090903D01*
X153797674Y-102091922D01*
X153781933Y-102078261D01*
X153771802Y-102046022D01*
X153766223Y-101991304D01*
X153764135Y-101910211D01*
X153764481Y-101798844D01*
X153766200Y-101653302D01*
X153766737Y-101609769D01*
X153768672Y-101459705D01*
X153770404Y-101361542D01*
X153958192Y-101361542D01*
X153959248Y-101444864D01*
X153963938Y-101499380D01*
X153974551Y-101535337D01*
X153993372Y-101562982D01*
X154006150Y-101576465D01*
X154058390Y-101615917D01*
X154104642Y-101619128D01*
X154152367Y-101586549D01*
X154153577Y-101585346D01*
X154172994Y-101560168D01*
X154184807Y-101525947D01*
X154190765Y-101473248D01*
X154192620Y-101392631D01*
X154192654Y-101374771D01*
X154188170Y-101263675D01*
X154173574Y-101186661D01*
X154147150Y-101139647D01*
X154107183Y-101118550D01*
X154084084Y-101116423D01*
X154029262Y-101126400D01*
X153991658Y-101159252D01*
X153969023Y-101219357D01*
X153959106Y-101311098D01*
X153958192Y-101361542D01*
X153770404Y-101361542D01*
X153770722Y-101343560D01*
X153773373Y-101256179D01*
X153777106Y-101192405D01*
X153782407Y-101147082D01*
X153789758Y-101115055D01*
X153799643Y-101091168D01*
X153812546Y-101070264D01*
X153818079Y-101062398D01*
X153891469Y-100988095D01*
X153984260Y-100945967D01*
X154091596Y-100934222D01*
X154185386Y-100946005D01*
D11*
%TO.C,SW8*%
X78846500Y-95730000D02*
X63352500Y-95730000D01*
X78846500Y-111224000D02*
X78846500Y-95730000D01*
X63352500Y-111224000D02*
X78846500Y-111224000D01*
X63352500Y-95730000D02*
X63352500Y-111224000D01*
%TO.C,SW1*%
X78846500Y-72692000D02*
X63352500Y-72692000D01*
X78846500Y-88186000D02*
X78846500Y-72692000D01*
X63352500Y-88186000D02*
X78846500Y-88186000D01*
X63352500Y-72692000D02*
X63352500Y-88186000D01*
%TO.C,SW19*%
X202165500Y-108846000D02*
X186671500Y-108846000D01*
X202165500Y-124340000D02*
X202165500Y-108846000D01*
X186671500Y-124340000D02*
X202165500Y-124340000D01*
X186671500Y-108846000D02*
X186671500Y-124340000D01*
%TO.C,SW18*%
X177501700Y-108846000D02*
X162007700Y-108846000D01*
X177501700Y-124340000D02*
X177501700Y-108846000D01*
X162007700Y-124340000D02*
X177501700Y-124340000D01*
X162007700Y-108846000D02*
X162007700Y-124340000D01*
%TO.C,SW17*%
X152837900Y-108846000D02*
X137343900Y-108846000D01*
X152837900Y-124340000D02*
X152837900Y-108846000D01*
X137343900Y-124340000D02*
X152837900Y-124340000D01*
X137343900Y-108846000D02*
X137343900Y-124340000D01*
%TO.C,SW16*%
X128174100Y-108846000D02*
X112680100Y-108846000D01*
X128174100Y-124340000D02*
X128174100Y-108846000D01*
X112680100Y-124340000D02*
X128174100Y-124340000D01*
X112680100Y-108846000D02*
X112680100Y-124340000D01*
%TO.C,SW15*%
X103510300Y-108846000D02*
X88016300Y-108846000D01*
X103510300Y-124340000D02*
X103510300Y-108846000D01*
X88016300Y-124340000D02*
X103510300Y-124340000D01*
X88016300Y-108846000D02*
X88016300Y-124340000D01*
%TO.C,SW14*%
X226829500Y-95730000D02*
X211335500Y-95730000D01*
X226829500Y-111224000D02*
X226829500Y-95730000D01*
X211335500Y-111224000D02*
X226829500Y-111224000D01*
X211335500Y-95730000D02*
X211335500Y-111224000D01*
%TO.C,SW13*%
X202165500Y-84211000D02*
X186671500Y-84211000D01*
X202165500Y-99705000D02*
X202165500Y-84211000D01*
X186671500Y-99705000D02*
X202165500Y-99705000D01*
X186671500Y-84211000D02*
X186671500Y-99705000D01*
%TO.C,SW12*%
X177501700Y-84211000D02*
X162007700Y-84211000D01*
X177501700Y-99705000D02*
X177501700Y-84211000D01*
X162007700Y-99705000D02*
X177501700Y-99705000D01*
X162007700Y-84211000D02*
X162007700Y-99705000D01*
%TO.C,SW11*%
X152837900Y-84211000D02*
X137343900Y-84211000D01*
X152837900Y-99705000D02*
X152837900Y-84211000D01*
X137343900Y-99705000D02*
X152837900Y-99705000D01*
X137343900Y-84211000D02*
X137343900Y-99705000D01*
%TO.C,SW10*%
X128174100Y-84211000D02*
X112680100Y-84211000D01*
X128174100Y-99705000D02*
X128174100Y-84211000D01*
X112680100Y-99705000D02*
X128174100Y-99705000D01*
X112680100Y-84211000D02*
X112680100Y-99705000D01*
%TO.C,SW9*%
X103510300Y-84211000D02*
X88016300Y-84211000D01*
X103510300Y-99705000D02*
X103510300Y-84211000D01*
X88016300Y-99705000D02*
X103510300Y-99705000D01*
X88016300Y-84211000D02*
X88016300Y-99705000D01*
%TO.C,SW7*%
X226829500Y-72692000D02*
X211335500Y-72692000D01*
X226829500Y-88186000D02*
X226829500Y-72692000D01*
X211335500Y-88186000D02*
X226829500Y-88186000D01*
X211335500Y-72692000D02*
X211335500Y-88186000D01*
%TO.C,SW6*%
X202165500Y-59576000D02*
X186671500Y-59576000D01*
X202165500Y-75070000D02*
X202165500Y-59576000D01*
X186671500Y-75070000D02*
X202165500Y-75070000D01*
X186671500Y-59576000D02*
X186671500Y-75070000D01*
%TO.C,SW5*%
X177501700Y-59576000D02*
X162007700Y-59576000D01*
X177501700Y-75070000D02*
X177501700Y-59576000D01*
X162007700Y-75070000D02*
X177501700Y-75070000D01*
X162007700Y-59576000D02*
X162007700Y-75070000D01*
%TO.C,SW4*%
X152837900Y-59576000D02*
X137343900Y-59576000D01*
X152837900Y-75070000D02*
X152837900Y-59576000D01*
X137343900Y-75070000D02*
X152837900Y-75070000D01*
X137343900Y-59576000D02*
X137343900Y-75070000D01*
%TO.C,SW3*%
X128174100Y-59576000D02*
X112680100Y-59576000D01*
X128174100Y-75070000D02*
X128174100Y-59576000D01*
X112680100Y-75070000D02*
X128174100Y-75070000D01*
X112680100Y-59576000D02*
X112680100Y-75070000D01*
D13*
%TO.C,D16*%
X133903500Y-112481000D02*
X133903500Y-110531000D01*
X134003500Y-112481000D02*
X134003500Y-110531000D01*
X131453500Y-112481000D02*
X131453500Y-112256000D01*
X131753500Y-112481000D02*
X131453500Y-112481000D01*
X131453500Y-110531000D02*
X131703500Y-110531000D01*
X131453500Y-110781000D02*
X131453500Y-110531000D01*
X134103500Y-112481000D02*
X134103500Y-110531000D01*
X133753500Y-112481000D02*
X134103500Y-112481000D01*
X133753500Y-110531000D02*
X134103500Y-110531000D01*
%TO.C,D8*%
X65232500Y-93132000D02*
X65232500Y-95082000D01*
X65132500Y-93132000D02*
X65132500Y-95082000D01*
X67682500Y-93132000D02*
X67682500Y-93357000D01*
X67382500Y-93132000D02*
X67682500Y-93132000D01*
X67682500Y-95082000D02*
X67432500Y-95082000D01*
X67682500Y-94832000D02*
X67682500Y-95082000D01*
X65032500Y-93132000D02*
X65032500Y-95082000D01*
X65382500Y-93132000D02*
X65032500Y-93132000D01*
X65382500Y-95082000D02*
X65032500Y-95082000D01*
%TO.C,D1*%
X65382500Y-72095000D02*
X65032500Y-72095000D01*
X65382500Y-70145000D02*
X65032500Y-70145000D01*
X65032500Y-70145000D02*
X65032500Y-72095000D01*
X67682500Y-71845000D02*
X67682500Y-72095000D01*
X67682500Y-72095000D02*
X67432500Y-72095000D01*
X67382500Y-70145000D02*
X67682500Y-70145000D01*
X67682500Y-70145000D02*
X67682500Y-70370000D01*
X65132500Y-70145000D02*
X65132500Y-72095000D01*
X65232500Y-70145000D02*
X65232500Y-72095000D01*
%TO.C,D2*%
X109265500Y-63205000D02*
X109265500Y-61255000D01*
X109365500Y-63205000D02*
X109365500Y-61255000D01*
X106815500Y-63205000D02*
X106815500Y-62980000D01*
X107115500Y-63205000D02*
X106815500Y-63205000D01*
X106815500Y-61255000D02*
X107065500Y-61255000D01*
X106815500Y-61505000D02*
X106815500Y-61255000D01*
X109465500Y-63205000D02*
X109465500Y-61255000D01*
X109115500Y-63205000D02*
X109465500Y-63205000D01*
X109115500Y-61255000D02*
X109465500Y-61255000D01*
%TO.C,D3*%
X133626500Y-61255000D02*
X133976500Y-61255000D01*
X133626500Y-63205000D02*
X133976500Y-63205000D01*
X133976500Y-63205000D02*
X133976500Y-61255000D01*
X131326500Y-61505000D02*
X131326500Y-61255000D01*
X131326500Y-61255000D02*
X131576500Y-61255000D01*
X131626500Y-63205000D02*
X131326500Y-63205000D01*
X131326500Y-63205000D02*
X131326500Y-62980000D01*
X133876500Y-63205000D02*
X133876500Y-61255000D01*
X133776500Y-63205000D02*
X133776500Y-61255000D01*
%TO.C,D4*%
X158541500Y-63205000D02*
X158541500Y-61255000D01*
X158641500Y-63205000D02*
X158641500Y-61255000D01*
X156091500Y-63205000D02*
X156091500Y-62980000D01*
X156391500Y-63205000D02*
X156091500Y-63205000D01*
X156091500Y-61255000D02*
X156341500Y-61255000D01*
X156091500Y-61505000D02*
X156091500Y-61255000D01*
X158741500Y-63205000D02*
X158741500Y-61255000D01*
X158391500Y-63205000D02*
X158741500Y-63205000D01*
X158391500Y-61255000D02*
X158741500Y-61255000D01*
%TO.C,D5*%
X183029500Y-61255000D02*
X183379500Y-61255000D01*
X183029500Y-63205000D02*
X183379500Y-63205000D01*
X183379500Y-63205000D02*
X183379500Y-61255000D01*
X180729500Y-61505000D02*
X180729500Y-61255000D01*
X180729500Y-61255000D02*
X180979500Y-61255000D01*
X181029500Y-63205000D02*
X180729500Y-63205000D01*
X180729500Y-63205000D02*
X180729500Y-62980000D01*
X183279500Y-63205000D02*
X183279500Y-61255000D01*
X183179500Y-63205000D02*
X183179500Y-61255000D01*
%TO.C,D6*%
X204746500Y-75016000D02*
X204746500Y-75366000D01*
X202796500Y-75016000D02*
X202796500Y-75366000D01*
X202796500Y-75366000D02*
X204746500Y-75366000D01*
X204496500Y-72716000D02*
X204746500Y-72716000D01*
X204746500Y-72716000D02*
X204746500Y-72966000D01*
X202796500Y-73016000D02*
X202796500Y-72716000D01*
X202796500Y-72716000D02*
X203021500Y-72716000D01*
X202796500Y-75266000D02*
X204746500Y-75266000D01*
X202796500Y-75166000D02*
X204746500Y-75166000D01*
%TO.C,D7*%
X225343500Y-72095000D02*
X225343500Y-70145000D01*
X225443500Y-72095000D02*
X225443500Y-70145000D01*
X222893500Y-72095000D02*
X222893500Y-71870000D01*
X223193500Y-72095000D02*
X222893500Y-72095000D01*
X222893500Y-70145000D02*
X223143500Y-70145000D01*
X222893500Y-70395000D02*
X222893500Y-70145000D01*
X225543500Y-72095000D02*
X225543500Y-70145000D01*
X225193500Y-72095000D02*
X225543500Y-72095000D01*
X225193500Y-70145000D02*
X225543500Y-70145000D01*
%TO.C,D9*%
X109115500Y-85893000D02*
X109465500Y-85893000D01*
X109115500Y-87843000D02*
X109465500Y-87843000D01*
X109465500Y-87843000D02*
X109465500Y-85893000D01*
X106815500Y-86143000D02*
X106815500Y-85893000D01*
X106815500Y-85893000D02*
X107065500Y-85893000D01*
X107115500Y-87843000D02*
X106815500Y-87843000D01*
X106815500Y-87843000D02*
X106815500Y-87618000D01*
X109365500Y-87843000D02*
X109365500Y-85893000D01*
X109265500Y-87843000D02*
X109265500Y-85893000D01*
%TO.C,D10*%
X133903500Y-87843000D02*
X133903500Y-85893000D01*
X134003500Y-87843000D02*
X134003500Y-85893000D01*
X131453500Y-87843000D02*
X131453500Y-87618000D01*
X131753500Y-87843000D02*
X131453500Y-87843000D01*
X131453500Y-85893000D02*
X131703500Y-85893000D01*
X131453500Y-86143000D02*
X131453500Y-85893000D01*
X134103500Y-87843000D02*
X134103500Y-85893000D01*
X133753500Y-87843000D02*
X134103500Y-87843000D01*
X133753500Y-85893000D02*
X134103500Y-85893000D01*
%TO.C,D11*%
X158391500Y-85893000D02*
X158741500Y-85893000D01*
X158391500Y-87843000D02*
X158741500Y-87843000D01*
X158741500Y-87843000D02*
X158741500Y-85893000D01*
X156091500Y-86143000D02*
X156091500Y-85893000D01*
X156091500Y-85893000D02*
X156341500Y-85893000D01*
X156391500Y-87843000D02*
X156091500Y-87843000D01*
X156091500Y-87843000D02*
X156091500Y-87618000D01*
X158641500Y-87843000D02*
X158641500Y-85893000D01*
X158541500Y-87843000D02*
X158541500Y-85893000D01*
%TO.C,D12*%
X183179500Y-87843000D02*
X183179500Y-85893000D01*
X183279500Y-87843000D02*
X183279500Y-85893000D01*
X180729500Y-87843000D02*
X180729500Y-87618000D01*
X181029500Y-87843000D02*
X180729500Y-87843000D01*
X180729500Y-85893000D02*
X180979500Y-85893000D01*
X180729500Y-86143000D02*
X180729500Y-85893000D01*
X183379500Y-87843000D02*
X183379500Y-85893000D01*
X183029500Y-87843000D02*
X183379500Y-87843000D01*
X183029500Y-85893000D02*
X183379500Y-85893000D01*
%TO.C,D13*%
X202796500Y-84369000D02*
X202796500Y-84019000D01*
X204746500Y-84369000D02*
X204746500Y-84019000D01*
X204746500Y-84019000D02*
X202796500Y-84019000D01*
X203046500Y-86669000D02*
X202796500Y-86669000D01*
X202796500Y-86669000D02*
X202796500Y-86419000D01*
X204746500Y-86369000D02*
X204746500Y-86669000D01*
X204746500Y-86669000D02*
X204521500Y-86669000D01*
X204746500Y-84119000D02*
X202796500Y-84119000D01*
X204746500Y-84219000D02*
X202796500Y-84219000D01*
%TO.C,D14*%
X226717500Y-90823000D02*
X224767500Y-90823000D01*
X226717500Y-90723000D02*
X224767500Y-90723000D01*
X226717500Y-93273000D02*
X226492500Y-93273000D01*
X226717500Y-92973000D02*
X226717500Y-93273000D01*
X224767500Y-93273000D02*
X224767500Y-93023000D01*
X225017500Y-93273000D02*
X224767500Y-93273000D01*
X226717500Y-90623000D02*
X224767500Y-90623000D01*
X226717500Y-90973000D02*
X226717500Y-90623000D01*
X224767500Y-90973000D02*
X224767500Y-90623000D01*
%TO.C,D15*%
X109265500Y-112481000D02*
X109265500Y-110531000D01*
X109365500Y-112481000D02*
X109365500Y-110531000D01*
X106815500Y-112481000D02*
X106815500Y-112256000D01*
X107115500Y-112481000D02*
X106815500Y-112481000D01*
X106815500Y-110531000D02*
X107065500Y-110531000D01*
X106815500Y-110781000D02*
X106815500Y-110531000D01*
X109465500Y-112481000D02*
X109465500Y-110531000D01*
X109115500Y-112481000D02*
X109465500Y-112481000D01*
X109115500Y-110531000D02*
X109465500Y-110531000D01*
%TO.C,D17*%
X158391500Y-110531000D02*
X158741500Y-110531000D01*
X158391500Y-112481000D02*
X158741500Y-112481000D01*
X158741500Y-112481000D02*
X158741500Y-110531000D01*
X156091500Y-110781000D02*
X156091500Y-110531000D01*
X156091500Y-110531000D02*
X156341500Y-110531000D01*
X156391500Y-112481000D02*
X156091500Y-112481000D01*
X156091500Y-112481000D02*
X156091500Y-112256000D01*
X158641500Y-112481000D02*
X158641500Y-110531000D01*
X158541500Y-112481000D02*
X158541500Y-110531000D01*
%TO.C,D18*%
X183029500Y-110531000D02*
X183379500Y-110531000D01*
X183029500Y-112481000D02*
X183379500Y-112481000D01*
X183379500Y-112481000D02*
X183379500Y-110531000D01*
X180729500Y-110781000D02*
X180729500Y-110531000D01*
X180729500Y-110531000D02*
X180979500Y-110531000D01*
X181029500Y-112481000D02*
X180729500Y-112481000D01*
X180729500Y-112481000D02*
X180729500Y-112256000D01*
X183279500Y-112481000D02*
X183279500Y-110531000D01*
X183179500Y-112481000D02*
X183179500Y-110531000D01*
%TO.C,D19*%
X202923500Y-109007000D02*
X202923500Y-108657000D01*
X204873500Y-109007000D02*
X204873500Y-108657000D01*
X204873500Y-108657000D02*
X202923500Y-108657000D01*
X203173500Y-111307000D02*
X202923500Y-111307000D01*
X202923500Y-111307000D02*
X202923500Y-111057000D01*
X204873500Y-111007000D02*
X204873500Y-111307000D01*
X204873500Y-111307000D02*
X204648500Y-111307000D01*
X204873500Y-108757000D02*
X202923500Y-108757000D01*
X204873500Y-108857000D02*
X202923500Y-108857000D01*
%TO.C,SW2*%
D10*
X94069966Y-58870547D02*
X94251395Y-58931023D01*
X94553776Y-58931023D01*
X94674728Y-58870547D01*
X94735204Y-58810071D01*
X94795680Y-58689119D01*
X94795680Y-58568166D01*
X94735204Y-58447214D01*
X94674728Y-58386738D01*
X94553776Y-58326261D01*
X94311871Y-58265785D01*
X94190919Y-58205309D01*
X94130442Y-58144833D01*
X94069966Y-58023880D01*
X94069966Y-57902928D01*
X94130442Y-57781976D01*
X94190919Y-57721500D01*
X94311871Y-57661023D01*
X94614252Y-57661023D01*
X94795680Y-57721500D01*
X95219014Y-57661023D02*
X95521395Y-58931023D01*
X95763300Y-58023880D01*
X96005204Y-58931023D01*
X96307585Y-57661023D01*
X96730919Y-57781976D02*
X96791395Y-57721500D01*
X96912347Y-57661023D01*
X97214728Y-57661023D01*
X97335680Y-57721500D01*
X97396157Y-57781976D01*
X97456633Y-57902928D01*
X97456633Y-58023880D01*
X97396157Y-58205309D01*
X96670442Y-58931023D01*
X97456633Y-58931023D01*
D14*
X93908422Y-76378100D02*
X95195356Y-76378100D01*
X94551889Y-77021566D02*
X94551889Y-75734633D01*
X96448422Y-76378100D02*
X97735356Y-76378100D01*
%TO.C,SW8*%
D10*
X75268666Y-95002047D02*
X75450095Y-95062523D01*
X75752476Y-95062523D01*
X75873428Y-95002047D01*
X75933904Y-94941571D01*
X75994380Y-94820619D01*
X75994380Y-94699666D01*
X75933904Y-94578714D01*
X75873428Y-94518238D01*
X75752476Y-94457761D01*
X75510571Y-94397285D01*
X75389619Y-94336809D01*
X75329142Y-94276333D01*
X75268666Y-94155380D01*
X75268666Y-94034428D01*
X75329142Y-93913476D01*
X75389619Y-93853000D01*
X75510571Y-93792523D01*
X75812952Y-93792523D01*
X75994380Y-93853000D01*
X76417714Y-93792523D02*
X76720095Y-95062523D01*
X76962000Y-94155380D01*
X77203904Y-95062523D01*
X77506285Y-93792523D01*
X78171523Y-94336809D02*
X78050571Y-94276333D01*
X77990095Y-94215857D01*
X77929619Y-94094904D01*
X77929619Y-94034428D01*
X77990095Y-93913476D01*
X78050571Y-93853000D01*
X78171523Y-93792523D01*
X78413428Y-93792523D01*
X78534380Y-93853000D01*
X78594857Y-93913476D01*
X78655333Y-94034428D01*
X78655333Y-94094904D01*
X78594857Y-94215857D01*
X78534380Y-94276333D01*
X78413428Y-94336809D01*
X78171523Y-94336809D01*
X78050571Y-94397285D01*
X77990095Y-94457761D01*
X77929619Y-94578714D01*
X77929619Y-94820619D01*
X77990095Y-94941571D01*
X78050571Y-95002047D01*
X78171523Y-95062523D01*
X78413428Y-95062523D01*
X78534380Y-95002047D01*
X78594857Y-94941571D01*
X78655333Y-94820619D01*
X78655333Y-94578714D01*
X78594857Y-94457761D01*
X78534380Y-94397285D01*
X78413428Y-94336809D01*
D14*
X69244622Y-112532100D02*
X70531556Y-112532100D01*
X69888089Y-113175566D02*
X69888089Y-111888633D01*
X71784622Y-112532100D02*
X73071556Y-112532100D01*
%TO.C,SW1*%
D10*
X75205166Y-71761047D02*
X75386595Y-71821523D01*
X75688976Y-71821523D01*
X75809928Y-71761047D01*
X75870404Y-71700571D01*
X75930880Y-71579619D01*
X75930880Y-71458666D01*
X75870404Y-71337714D01*
X75809928Y-71277238D01*
X75688976Y-71216761D01*
X75447071Y-71156285D01*
X75326119Y-71095809D01*
X75265642Y-71035333D01*
X75205166Y-70914380D01*
X75205166Y-70793428D01*
X75265642Y-70672476D01*
X75326119Y-70612000D01*
X75447071Y-70551523D01*
X75749452Y-70551523D01*
X75930880Y-70612000D01*
X76354214Y-70551523D02*
X76656595Y-71821523D01*
X76898500Y-70914380D01*
X77140404Y-71821523D01*
X77442785Y-70551523D01*
X78591833Y-71821523D02*
X77866119Y-71821523D01*
X78228976Y-71821523D02*
X78228976Y-70551523D01*
X78108023Y-70732952D01*
X77987071Y-70853904D01*
X77866119Y-70914380D01*
D14*
X69244622Y-89494100D02*
X70531556Y-89494100D01*
X69888089Y-90137566D02*
X69888089Y-88850633D01*
X71784622Y-89494100D02*
X73071556Y-89494100D01*
%TO.C,SW19*%
D10*
X192011904Y-125990047D02*
X192193333Y-126050523D01*
X192495714Y-126050523D01*
X192616666Y-125990047D01*
X192677142Y-125929571D01*
X192737619Y-125808619D01*
X192737619Y-125687666D01*
X192677142Y-125566714D01*
X192616666Y-125506238D01*
X192495714Y-125445761D01*
X192253809Y-125385285D01*
X192132857Y-125324809D01*
X192072380Y-125264333D01*
X192011904Y-125143380D01*
X192011904Y-125022428D01*
X192072380Y-124901476D01*
X192132857Y-124841000D01*
X192253809Y-124780523D01*
X192556190Y-124780523D01*
X192737619Y-124841000D01*
X193160952Y-124780523D02*
X193463333Y-126050523D01*
X193705238Y-125143380D01*
X193947142Y-126050523D01*
X194249523Y-124780523D01*
X195398571Y-126050523D02*
X194672857Y-126050523D01*
X195035714Y-126050523D02*
X195035714Y-124780523D01*
X194914761Y-124961952D01*
X194793809Y-125082904D01*
X194672857Y-125143380D01*
X196003333Y-126050523D02*
X196245238Y-126050523D01*
X196366190Y-125990047D01*
X196426666Y-125929571D01*
X196547619Y-125748142D01*
X196608095Y-125506238D01*
X196608095Y-125022428D01*
X196547619Y-124901476D01*
X196487142Y-124841000D01*
X196366190Y-124780523D01*
X196124285Y-124780523D01*
X196003333Y-124841000D01*
X195942857Y-124901476D01*
X195882380Y-125022428D01*
X195882380Y-125324809D01*
X195942857Y-125445761D01*
X196003333Y-125506238D01*
X196124285Y-125566714D01*
X196366190Y-125566714D01*
X196487142Y-125506238D01*
X196547619Y-125445761D01*
X196608095Y-125324809D01*
D14*
X190214122Y-125584600D02*
X191501056Y-125584600D01*
X190857589Y-126228066D02*
X190857589Y-124941133D01*
X197262622Y-125521100D02*
X198549556Y-125521100D01*
%TO.C,SW18*%
D10*
X167373904Y-126117047D02*
X167555333Y-126177523D01*
X167857714Y-126177523D01*
X167978666Y-126117047D01*
X168039142Y-126056571D01*
X168099619Y-125935619D01*
X168099619Y-125814666D01*
X168039142Y-125693714D01*
X167978666Y-125633238D01*
X167857714Y-125572761D01*
X167615809Y-125512285D01*
X167494857Y-125451809D01*
X167434380Y-125391333D01*
X167373904Y-125270380D01*
X167373904Y-125149428D01*
X167434380Y-125028476D01*
X167494857Y-124968000D01*
X167615809Y-124907523D01*
X167918190Y-124907523D01*
X168099619Y-124968000D01*
X168522952Y-124907523D02*
X168825333Y-126177523D01*
X169067238Y-125270380D01*
X169309142Y-126177523D01*
X169611523Y-124907523D01*
X170760571Y-126177523D02*
X170034857Y-126177523D01*
X170397714Y-126177523D02*
X170397714Y-124907523D01*
X170276761Y-125088952D01*
X170155809Y-125209904D01*
X170034857Y-125270380D01*
X171486285Y-125451809D02*
X171365333Y-125391333D01*
X171304857Y-125330857D01*
X171244380Y-125209904D01*
X171244380Y-125149428D01*
X171304857Y-125028476D01*
X171365333Y-124968000D01*
X171486285Y-124907523D01*
X171728190Y-124907523D01*
X171849142Y-124968000D01*
X171909619Y-125028476D01*
X171970095Y-125149428D01*
X171970095Y-125209904D01*
X171909619Y-125330857D01*
X171849142Y-125391333D01*
X171728190Y-125451809D01*
X171486285Y-125451809D01*
X171365333Y-125512285D01*
X171304857Y-125572761D01*
X171244380Y-125693714D01*
X171244380Y-125935619D01*
X171304857Y-126056571D01*
X171365333Y-126117047D01*
X171486285Y-126177523D01*
X171728190Y-126177523D01*
X171849142Y-126117047D01*
X171909619Y-126056571D01*
X171970095Y-125935619D01*
X171970095Y-125693714D01*
X171909619Y-125572761D01*
X171849142Y-125512285D01*
X171728190Y-125451809D01*
D14*
X165550322Y-125584600D02*
X166837256Y-125584600D01*
X166193789Y-126228066D02*
X166193789Y-124941133D01*
X172598822Y-125521100D02*
X173885756Y-125521100D01*
%TO.C,SW17*%
D10*
X142735904Y-126053547D02*
X142917333Y-126114023D01*
X143219714Y-126114023D01*
X143340666Y-126053547D01*
X143401142Y-125993071D01*
X143461619Y-125872119D01*
X143461619Y-125751166D01*
X143401142Y-125630214D01*
X143340666Y-125569738D01*
X143219714Y-125509261D01*
X142977809Y-125448785D01*
X142856857Y-125388309D01*
X142796380Y-125327833D01*
X142735904Y-125206880D01*
X142735904Y-125085928D01*
X142796380Y-124964976D01*
X142856857Y-124904500D01*
X142977809Y-124844023D01*
X143280190Y-124844023D01*
X143461619Y-124904500D01*
X143884952Y-124844023D02*
X144187333Y-126114023D01*
X144429238Y-125206880D01*
X144671142Y-126114023D01*
X144973523Y-124844023D01*
X146122571Y-126114023D02*
X145396857Y-126114023D01*
X145759714Y-126114023D02*
X145759714Y-124844023D01*
X145638761Y-125025452D01*
X145517809Y-125146404D01*
X145396857Y-125206880D01*
X146545904Y-124844023D02*
X147392571Y-124844023D01*
X146848285Y-126114023D01*
D14*
X140886522Y-125584600D02*
X142173456Y-125584600D01*
X141529989Y-126228066D02*
X141529989Y-124941133D01*
X147935022Y-125521100D02*
X149221956Y-125521100D01*
%TO.C,SW16*%
D10*
X118097904Y-126053547D02*
X118279333Y-126114023D01*
X118581714Y-126114023D01*
X118702666Y-126053547D01*
X118763142Y-125993071D01*
X118823619Y-125872119D01*
X118823619Y-125751166D01*
X118763142Y-125630214D01*
X118702666Y-125569738D01*
X118581714Y-125509261D01*
X118339809Y-125448785D01*
X118218857Y-125388309D01*
X118158380Y-125327833D01*
X118097904Y-125206880D01*
X118097904Y-125085928D01*
X118158380Y-124964976D01*
X118218857Y-124904500D01*
X118339809Y-124844023D01*
X118642190Y-124844023D01*
X118823619Y-124904500D01*
X119246952Y-124844023D02*
X119549333Y-126114023D01*
X119791238Y-125206880D01*
X120033142Y-126114023D01*
X120335523Y-124844023D01*
X121484571Y-126114023D02*
X120758857Y-126114023D01*
X121121714Y-126114023D02*
X121121714Y-124844023D01*
X121000761Y-125025452D01*
X120879809Y-125146404D01*
X120758857Y-125206880D01*
X122573142Y-124844023D02*
X122331238Y-124844023D01*
X122210285Y-124904500D01*
X122149809Y-124964976D01*
X122028857Y-125146404D01*
X121968380Y-125388309D01*
X121968380Y-125872119D01*
X122028857Y-125993071D01*
X122089333Y-126053547D01*
X122210285Y-126114023D01*
X122452190Y-126114023D01*
X122573142Y-126053547D01*
X122633619Y-125993071D01*
X122694095Y-125872119D01*
X122694095Y-125569738D01*
X122633619Y-125448785D01*
X122573142Y-125388309D01*
X122452190Y-125327833D01*
X122210285Y-125327833D01*
X122089333Y-125388309D01*
X122028857Y-125448785D01*
X121968380Y-125569738D01*
D14*
X116222722Y-125584600D02*
X117509656Y-125584600D01*
X116866189Y-126228066D02*
X116866189Y-124941133D01*
X123271222Y-125521100D02*
X124558156Y-125521100D01*
%TO.C,SW15*%
D10*
X93332904Y-126117047D02*
X93514333Y-126177523D01*
X93816714Y-126177523D01*
X93937666Y-126117047D01*
X93998142Y-126056571D01*
X94058619Y-125935619D01*
X94058619Y-125814666D01*
X93998142Y-125693714D01*
X93937666Y-125633238D01*
X93816714Y-125572761D01*
X93574809Y-125512285D01*
X93453857Y-125451809D01*
X93393380Y-125391333D01*
X93332904Y-125270380D01*
X93332904Y-125149428D01*
X93393380Y-125028476D01*
X93453857Y-124968000D01*
X93574809Y-124907523D01*
X93877190Y-124907523D01*
X94058619Y-124968000D01*
X94481952Y-124907523D02*
X94784333Y-126177523D01*
X95026238Y-125270380D01*
X95268142Y-126177523D01*
X95570523Y-124907523D01*
X96719571Y-126177523D02*
X95993857Y-126177523D01*
X96356714Y-126177523D02*
X96356714Y-124907523D01*
X96235761Y-125088952D01*
X96114809Y-125209904D01*
X95993857Y-125270380D01*
X97868619Y-124907523D02*
X97263857Y-124907523D01*
X97203380Y-125512285D01*
X97263857Y-125451809D01*
X97384809Y-125391333D01*
X97687190Y-125391333D01*
X97808142Y-125451809D01*
X97868619Y-125512285D01*
X97929095Y-125633238D01*
X97929095Y-125935619D01*
X97868619Y-126056571D01*
X97808142Y-126117047D01*
X97687190Y-126177523D01*
X97384809Y-126177523D01*
X97263857Y-126117047D01*
X97203380Y-126056571D01*
D14*
X91553622Y-125577600D02*
X92840556Y-125577600D01*
X92197089Y-126221066D02*
X92197089Y-124934133D01*
X98792622Y-125641100D02*
X100079556Y-125641100D01*
%TO.C,SW14*%
D10*
X216586404Y-95129047D02*
X216767833Y-95189523D01*
X217070214Y-95189523D01*
X217191166Y-95129047D01*
X217251642Y-95068571D01*
X217312119Y-94947619D01*
X217312119Y-94826666D01*
X217251642Y-94705714D01*
X217191166Y-94645238D01*
X217070214Y-94584761D01*
X216828309Y-94524285D01*
X216707357Y-94463809D01*
X216646880Y-94403333D01*
X216586404Y-94282380D01*
X216586404Y-94161428D01*
X216646880Y-94040476D01*
X216707357Y-93980000D01*
X216828309Y-93919523D01*
X217130690Y-93919523D01*
X217312119Y-93980000D01*
X217735452Y-93919523D02*
X218037833Y-95189523D01*
X218279738Y-94282380D01*
X218521642Y-95189523D01*
X218824023Y-93919523D01*
X219973071Y-95189523D02*
X219247357Y-95189523D01*
X219610214Y-95189523D02*
X219610214Y-93919523D01*
X219489261Y-94100952D01*
X219368309Y-94221904D01*
X219247357Y-94282380D01*
X221061642Y-94342857D02*
X221061642Y-95189523D01*
X220759261Y-93859047D02*
X220456880Y-94766190D01*
X221243071Y-94766190D01*
D14*
X217227622Y-112532100D02*
X218514556Y-112532100D01*
X217871089Y-113175566D02*
X217871089Y-111888633D01*
X219767622Y-112532100D02*
X221054556Y-112532100D01*
%TO.C,SW13*%
D10*
X192011904Y-83635547D02*
X192193333Y-83696023D01*
X192495714Y-83696023D01*
X192616666Y-83635547D01*
X192677142Y-83575071D01*
X192737619Y-83454119D01*
X192737619Y-83333166D01*
X192677142Y-83212214D01*
X192616666Y-83151738D01*
X192495714Y-83091261D01*
X192253809Y-83030785D01*
X192132857Y-82970309D01*
X192072380Y-82909833D01*
X192011904Y-82788880D01*
X192011904Y-82667928D01*
X192072380Y-82546976D01*
X192132857Y-82486500D01*
X192253809Y-82426023D01*
X192556190Y-82426023D01*
X192737619Y-82486500D01*
X193160952Y-82426023D02*
X193463333Y-83696023D01*
X193705238Y-82788880D01*
X193947142Y-83696023D01*
X194249523Y-82426023D01*
X195398571Y-83696023D02*
X194672857Y-83696023D01*
X195035714Y-83696023D02*
X195035714Y-82426023D01*
X194914761Y-82607452D01*
X194793809Y-82728404D01*
X194672857Y-82788880D01*
X195821904Y-82426023D02*
X196608095Y-82426023D01*
X196184761Y-82909833D01*
X196366190Y-82909833D01*
X196487142Y-82970309D01*
X196547619Y-83030785D01*
X196608095Y-83151738D01*
X196608095Y-83454119D01*
X196547619Y-83575071D01*
X196487142Y-83635547D01*
X196366190Y-83696023D01*
X196003333Y-83696023D01*
X195882380Y-83635547D01*
X195821904Y-83575071D01*
D14*
X192563622Y-101013100D02*
X193850556Y-101013100D01*
X193207089Y-101656566D02*
X193207089Y-100369633D01*
X195103622Y-101013100D02*
X196390556Y-101013100D01*
%TO.C,SW12*%
D10*
X167246904Y-83445047D02*
X167428333Y-83505523D01*
X167730714Y-83505523D01*
X167851666Y-83445047D01*
X167912142Y-83384571D01*
X167972619Y-83263619D01*
X167972619Y-83142666D01*
X167912142Y-83021714D01*
X167851666Y-82961238D01*
X167730714Y-82900761D01*
X167488809Y-82840285D01*
X167367857Y-82779809D01*
X167307380Y-82719333D01*
X167246904Y-82598380D01*
X167246904Y-82477428D01*
X167307380Y-82356476D01*
X167367857Y-82296000D01*
X167488809Y-82235523D01*
X167791190Y-82235523D01*
X167972619Y-82296000D01*
X168395952Y-82235523D02*
X168698333Y-83505523D01*
X168940238Y-82598380D01*
X169182142Y-83505523D01*
X169484523Y-82235523D01*
X170633571Y-83505523D02*
X169907857Y-83505523D01*
X170270714Y-83505523D02*
X170270714Y-82235523D01*
X170149761Y-82416952D01*
X170028809Y-82537904D01*
X169907857Y-82598380D01*
X171117380Y-82356476D02*
X171177857Y-82296000D01*
X171298809Y-82235523D01*
X171601190Y-82235523D01*
X171722142Y-82296000D01*
X171782619Y-82356476D01*
X171843095Y-82477428D01*
X171843095Y-82598380D01*
X171782619Y-82779809D01*
X171056904Y-83505523D01*
X171843095Y-83505523D01*
D14*
X167899822Y-101013100D02*
X169186756Y-101013100D01*
X168543289Y-101656566D02*
X168543289Y-100369633D01*
X170439822Y-101013100D02*
X171726756Y-101013100D01*
%TO.C,SW11*%
D10*
X142735904Y-83445047D02*
X142917333Y-83505523D01*
X143219714Y-83505523D01*
X143340666Y-83445047D01*
X143401142Y-83384571D01*
X143461619Y-83263619D01*
X143461619Y-83142666D01*
X143401142Y-83021714D01*
X143340666Y-82961238D01*
X143219714Y-82900761D01*
X142977809Y-82840285D01*
X142856857Y-82779809D01*
X142796380Y-82719333D01*
X142735904Y-82598380D01*
X142735904Y-82477428D01*
X142796380Y-82356476D01*
X142856857Y-82296000D01*
X142977809Y-82235523D01*
X143280190Y-82235523D01*
X143461619Y-82296000D01*
X143884952Y-82235523D02*
X144187333Y-83505523D01*
X144429238Y-82598380D01*
X144671142Y-83505523D01*
X144973523Y-82235523D01*
X146122571Y-83505523D02*
X145396857Y-83505523D01*
X145759714Y-83505523D02*
X145759714Y-82235523D01*
X145638761Y-82416952D01*
X145517809Y-82537904D01*
X145396857Y-82598380D01*
X147332095Y-83505523D02*
X146606380Y-83505523D01*
X146969238Y-83505523D02*
X146969238Y-82235523D01*
X146848285Y-82416952D01*
X146727333Y-82537904D01*
X146606380Y-82598380D01*
D14*
X143236022Y-101013100D02*
X144522956Y-101013100D01*
X143879489Y-101656566D02*
X143879489Y-100369633D01*
X145776022Y-101013100D02*
X147062956Y-101013100D01*
%TO.C,SW10*%
D10*
X118097904Y-83381547D02*
X118279333Y-83442023D01*
X118581714Y-83442023D01*
X118702666Y-83381547D01*
X118763142Y-83321071D01*
X118823619Y-83200119D01*
X118823619Y-83079166D01*
X118763142Y-82958214D01*
X118702666Y-82897738D01*
X118581714Y-82837261D01*
X118339809Y-82776785D01*
X118218857Y-82716309D01*
X118158380Y-82655833D01*
X118097904Y-82534880D01*
X118097904Y-82413928D01*
X118158380Y-82292976D01*
X118218857Y-82232500D01*
X118339809Y-82172023D01*
X118642190Y-82172023D01*
X118823619Y-82232500D01*
X119246952Y-82172023D02*
X119549333Y-83442023D01*
X119791238Y-82534880D01*
X120033142Y-83442023D01*
X120335523Y-82172023D01*
X121484571Y-83442023D02*
X120758857Y-83442023D01*
X121121714Y-83442023D02*
X121121714Y-82172023D01*
X121000761Y-82353452D01*
X120879809Y-82474404D01*
X120758857Y-82534880D01*
X122270761Y-82172023D02*
X122391714Y-82172023D01*
X122512666Y-82232500D01*
X122573142Y-82292976D01*
X122633619Y-82413928D01*
X122694095Y-82655833D01*
X122694095Y-82958214D01*
X122633619Y-83200119D01*
X122573142Y-83321071D01*
X122512666Y-83381547D01*
X122391714Y-83442023D01*
X122270761Y-83442023D01*
X122149809Y-83381547D01*
X122089333Y-83321071D01*
X122028857Y-83200119D01*
X121968380Y-82958214D01*
X121968380Y-82655833D01*
X122028857Y-82413928D01*
X122089333Y-82292976D01*
X122149809Y-82232500D01*
X122270761Y-82172023D01*
D14*
X118572222Y-101013100D02*
X119859156Y-101013100D01*
X119215689Y-101656566D02*
X119215689Y-100369633D01*
X121112222Y-101013100D02*
X122399156Y-101013100D01*
%TO.C,SW9*%
D10*
X100224166Y-83762547D02*
X100405595Y-83823023D01*
X100707976Y-83823023D01*
X100828928Y-83762547D01*
X100889404Y-83702071D01*
X100949880Y-83581119D01*
X100949880Y-83460166D01*
X100889404Y-83339214D01*
X100828928Y-83278738D01*
X100707976Y-83218261D01*
X100466071Y-83157785D01*
X100345119Y-83097309D01*
X100284642Y-83036833D01*
X100224166Y-82915880D01*
X100224166Y-82794928D01*
X100284642Y-82673976D01*
X100345119Y-82613500D01*
X100466071Y-82553023D01*
X100768452Y-82553023D01*
X100949880Y-82613500D01*
X101373214Y-82553023D02*
X101675595Y-83823023D01*
X101917500Y-82915880D01*
X102159404Y-83823023D01*
X102461785Y-82553023D01*
X103006071Y-83823023D02*
X103247976Y-83823023D01*
X103368928Y-83762547D01*
X103429404Y-83702071D01*
X103550357Y-83520642D01*
X103610833Y-83278738D01*
X103610833Y-82794928D01*
X103550357Y-82673976D01*
X103489880Y-82613500D01*
X103368928Y-82553023D01*
X103127023Y-82553023D01*
X103006071Y-82613500D01*
X102945595Y-82673976D01*
X102885119Y-82794928D01*
X102885119Y-83097309D01*
X102945595Y-83218261D01*
X103006071Y-83278738D01*
X103127023Y-83339214D01*
X103368928Y-83339214D01*
X103489880Y-83278738D01*
X103550357Y-83218261D01*
X103610833Y-83097309D01*
D14*
X93908422Y-101013100D02*
X95195356Y-101013100D01*
X94551889Y-101656566D02*
X94551889Y-100369633D01*
X96448422Y-101013100D02*
X97735356Y-101013100D01*
%TO.C,SW7*%
D10*
X211539666Y-71951547D02*
X211721095Y-72012023D01*
X212023476Y-72012023D01*
X212144428Y-71951547D01*
X212204904Y-71891071D01*
X212265380Y-71770119D01*
X212265380Y-71649166D01*
X212204904Y-71528214D01*
X212144428Y-71467738D01*
X212023476Y-71407261D01*
X211781571Y-71346785D01*
X211660619Y-71286309D01*
X211600142Y-71225833D01*
X211539666Y-71104880D01*
X211539666Y-70983928D01*
X211600142Y-70862976D01*
X211660619Y-70802500D01*
X211781571Y-70742023D01*
X212083952Y-70742023D01*
X212265380Y-70802500D01*
X212688714Y-70742023D02*
X212991095Y-72012023D01*
X213233000Y-71104880D01*
X213474904Y-72012023D01*
X213777285Y-70742023D01*
X214140142Y-70742023D02*
X214986809Y-70742023D01*
X214442523Y-72012023D01*
D14*
X217227622Y-89494100D02*
X218514556Y-89494100D01*
X217871089Y-90137566D02*
X217871089Y-88850633D01*
X219767622Y-89494100D02*
X221054556Y-89494100D01*
%TO.C,SW6*%
D10*
X192743666Y-58807047D02*
X192925095Y-58867523D01*
X193227476Y-58867523D01*
X193348428Y-58807047D01*
X193408904Y-58746571D01*
X193469380Y-58625619D01*
X193469380Y-58504666D01*
X193408904Y-58383714D01*
X193348428Y-58323238D01*
X193227476Y-58262761D01*
X192985571Y-58202285D01*
X192864619Y-58141809D01*
X192804142Y-58081333D01*
X192743666Y-57960380D01*
X192743666Y-57839428D01*
X192804142Y-57718476D01*
X192864619Y-57658000D01*
X192985571Y-57597523D01*
X193287952Y-57597523D01*
X193469380Y-57658000D01*
X193892714Y-57597523D02*
X194195095Y-58867523D01*
X194437000Y-57960380D01*
X194678904Y-58867523D01*
X194981285Y-57597523D01*
X196009380Y-57597523D02*
X195767476Y-57597523D01*
X195646523Y-57658000D01*
X195586047Y-57718476D01*
X195465095Y-57899904D01*
X195404619Y-58141809D01*
X195404619Y-58625619D01*
X195465095Y-58746571D01*
X195525571Y-58807047D01*
X195646523Y-58867523D01*
X195888428Y-58867523D01*
X196009380Y-58807047D01*
X196069857Y-58746571D01*
X196130333Y-58625619D01*
X196130333Y-58323238D01*
X196069857Y-58202285D01*
X196009380Y-58141809D01*
X195888428Y-58081333D01*
X195646523Y-58081333D01*
X195525571Y-58141809D01*
X195465095Y-58202285D01*
X195404619Y-58323238D01*
D14*
X192563622Y-76378100D02*
X193850556Y-76378100D01*
X193207089Y-77021566D02*
X193207089Y-75734633D01*
X195103622Y-76378100D02*
X196390556Y-76378100D01*
%TO.C,SW5*%
D10*
X167978666Y-58743547D02*
X168160095Y-58804023D01*
X168462476Y-58804023D01*
X168583428Y-58743547D01*
X168643904Y-58683071D01*
X168704380Y-58562119D01*
X168704380Y-58441166D01*
X168643904Y-58320214D01*
X168583428Y-58259738D01*
X168462476Y-58199261D01*
X168220571Y-58138785D01*
X168099619Y-58078309D01*
X168039142Y-58017833D01*
X167978666Y-57896880D01*
X167978666Y-57775928D01*
X168039142Y-57654976D01*
X168099619Y-57594500D01*
X168220571Y-57534023D01*
X168522952Y-57534023D01*
X168704380Y-57594500D01*
X169127714Y-57534023D02*
X169430095Y-58804023D01*
X169672000Y-57896880D01*
X169913904Y-58804023D01*
X170216285Y-57534023D01*
X171304857Y-57534023D02*
X170700095Y-57534023D01*
X170639619Y-58138785D01*
X170700095Y-58078309D01*
X170821047Y-58017833D01*
X171123428Y-58017833D01*
X171244380Y-58078309D01*
X171304857Y-58138785D01*
X171365333Y-58259738D01*
X171365333Y-58562119D01*
X171304857Y-58683071D01*
X171244380Y-58743547D01*
X171123428Y-58804023D01*
X170821047Y-58804023D01*
X170700095Y-58743547D01*
X170639619Y-58683071D01*
D14*
X167899822Y-76378100D02*
X169186756Y-76378100D01*
X168543289Y-77021566D02*
X168543289Y-75734633D01*
X170439822Y-76378100D02*
X171726756Y-76378100D01*
%TO.C,SW4*%
D10*
X143277166Y-58743547D02*
X143458595Y-58804023D01*
X143760976Y-58804023D01*
X143881928Y-58743547D01*
X143942404Y-58683071D01*
X144002880Y-58562119D01*
X144002880Y-58441166D01*
X143942404Y-58320214D01*
X143881928Y-58259738D01*
X143760976Y-58199261D01*
X143519071Y-58138785D01*
X143398119Y-58078309D01*
X143337642Y-58017833D01*
X143277166Y-57896880D01*
X143277166Y-57775928D01*
X143337642Y-57654976D01*
X143398119Y-57594500D01*
X143519071Y-57534023D01*
X143821452Y-57534023D01*
X144002880Y-57594500D01*
X144426214Y-57534023D02*
X144728595Y-58804023D01*
X144970500Y-57896880D01*
X145212404Y-58804023D01*
X145514785Y-57534023D01*
X146542880Y-57957357D02*
X146542880Y-58804023D01*
X146240500Y-57473547D02*
X145938119Y-58380690D01*
X146724309Y-58380690D01*
D14*
X143236022Y-76378100D02*
X144522956Y-76378100D01*
X143879489Y-77021566D02*
X143879489Y-75734633D01*
X145776022Y-76378100D02*
X147062956Y-76378100D01*
%TO.C,SW3*%
D10*
X118702666Y-58870547D02*
X118884095Y-58931023D01*
X119186476Y-58931023D01*
X119307428Y-58870547D01*
X119367904Y-58810071D01*
X119428380Y-58689119D01*
X119428380Y-58568166D01*
X119367904Y-58447214D01*
X119307428Y-58386738D01*
X119186476Y-58326261D01*
X118944571Y-58265785D01*
X118823619Y-58205309D01*
X118763142Y-58144833D01*
X118702666Y-58023880D01*
X118702666Y-57902928D01*
X118763142Y-57781976D01*
X118823619Y-57721500D01*
X118944571Y-57661023D01*
X119246952Y-57661023D01*
X119428380Y-57721500D01*
X119851714Y-57661023D02*
X120154095Y-58931023D01*
X120396000Y-58023880D01*
X120637904Y-58931023D01*
X120940285Y-57661023D01*
X121303142Y-57661023D02*
X122089333Y-57661023D01*
X121666000Y-58144833D01*
X121847428Y-58144833D01*
X121968380Y-58205309D01*
X122028857Y-58265785D01*
X122089333Y-58386738D01*
X122089333Y-58689119D01*
X122028857Y-58810071D01*
X121968380Y-58870547D01*
X121847428Y-58931023D01*
X121484571Y-58931023D01*
X121363619Y-58870547D01*
X121303142Y-58810071D01*
D14*
X118572222Y-76378100D02*
X119859156Y-76378100D01*
X119215689Y-77021566D02*
X119215689Y-75734633D01*
X121112222Y-76378100D02*
X122399156Y-76378100D01*
%TO.C,D16*%
D10*
X131574214Y-113848380D02*
X131574214Y-112848380D01*
X131812309Y-112848380D01*
X131955166Y-112896000D01*
X132050404Y-112991238D01*
X132098023Y-113086476D01*
X132145642Y-113276952D01*
X132145642Y-113419809D01*
X132098023Y-113610285D01*
X132050404Y-113705523D01*
X131955166Y-113800761D01*
X131812309Y-113848380D01*
X131574214Y-113848380D01*
X133098023Y-113848380D02*
X132526595Y-113848380D01*
X132812309Y-113848380D02*
X132812309Y-112848380D01*
X132717071Y-112991238D01*
X132621833Y-113086476D01*
X132526595Y-113134095D01*
X133955166Y-112848380D02*
X133764690Y-112848380D01*
X133669452Y-112896000D01*
X133621833Y-112943619D01*
X133526595Y-113086476D01*
X133478976Y-113276952D01*
X133478976Y-113657904D01*
X133526595Y-113753142D01*
X133574214Y-113800761D01*
X133669452Y-113848380D01*
X133859928Y-113848380D01*
X133955166Y-113800761D01*
X134002785Y-113753142D01*
X134050404Y-113657904D01*
X134050404Y-113419809D01*
X134002785Y-113324571D01*
X133955166Y-113276952D01*
X133859928Y-113229333D01*
X133669452Y-113229333D01*
X133574214Y-113276952D01*
X133526595Y-113324571D01*
X133478976Y-113419809D01*
%TO.C,D8*%
X65609404Y-92669380D02*
X65609404Y-91669380D01*
X65847500Y-91669380D01*
X65990357Y-91717000D01*
X66085595Y-91812238D01*
X66133214Y-91907476D01*
X66180833Y-92097952D01*
X66180833Y-92240809D01*
X66133214Y-92431285D01*
X66085595Y-92526523D01*
X65990357Y-92621761D01*
X65847500Y-92669380D01*
X65609404Y-92669380D01*
X66752261Y-92097952D02*
X66657023Y-92050333D01*
X66609404Y-92002714D01*
X66561785Y-91907476D01*
X66561785Y-91859857D01*
X66609404Y-91764619D01*
X66657023Y-91717000D01*
X66752261Y-91669380D01*
X66942738Y-91669380D01*
X67037976Y-91717000D01*
X67085595Y-91764619D01*
X67133214Y-91859857D01*
X67133214Y-91907476D01*
X67085595Y-92002714D01*
X67037976Y-92050333D01*
X66942738Y-92097952D01*
X66752261Y-92097952D01*
X66657023Y-92145571D01*
X66609404Y-92193190D01*
X66561785Y-92288428D01*
X66561785Y-92478904D01*
X66609404Y-92574142D01*
X66657023Y-92621761D01*
X66752261Y-92669380D01*
X66942738Y-92669380D01*
X67037976Y-92621761D01*
X67085595Y-92574142D01*
X67133214Y-92478904D01*
X67133214Y-92288428D01*
X67085595Y-92193190D01*
X67037976Y-92145571D01*
X66942738Y-92097952D01*
%TO.C,D1*%
X65873404Y-74112380D02*
X65873404Y-73112380D01*
X66111500Y-73112380D01*
X66254357Y-73160000D01*
X66349595Y-73255238D01*
X66397214Y-73350476D01*
X66444833Y-73540952D01*
X66444833Y-73683809D01*
X66397214Y-73874285D01*
X66349595Y-73969523D01*
X66254357Y-74064761D01*
X66111500Y-74112380D01*
X65873404Y-74112380D01*
X67397214Y-74112380D02*
X66825785Y-74112380D01*
X67111500Y-74112380D02*
X67111500Y-73112380D01*
X67016261Y-73255238D01*
X66921023Y-73350476D01*
X66825785Y-73398095D01*
%TO.C,D2*%
X107412404Y-64572380D02*
X107412404Y-63572380D01*
X107650500Y-63572380D01*
X107793357Y-63620000D01*
X107888595Y-63715238D01*
X107936214Y-63810476D01*
X107983833Y-64000952D01*
X107983833Y-64143809D01*
X107936214Y-64334285D01*
X107888595Y-64429523D01*
X107793357Y-64524761D01*
X107650500Y-64572380D01*
X107412404Y-64572380D01*
X108364785Y-63667619D02*
X108412404Y-63620000D01*
X108507642Y-63572380D01*
X108745738Y-63572380D01*
X108840976Y-63620000D01*
X108888595Y-63667619D01*
X108936214Y-63762857D01*
X108936214Y-63858095D01*
X108888595Y-64000952D01*
X108317166Y-64572380D01*
X108936214Y-64572380D01*
%TO.C,D3*%
X131923404Y-64572380D02*
X131923404Y-63572380D01*
X132161500Y-63572380D01*
X132304357Y-63620000D01*
X132399595Y-63715238D01*
X132447214Y-63810476D01*
X132494833Y-64000952D01*
X132494833Y-64143809D01*
X132447214Y-64334285D01*
X132399595Y-64429523D01*
X132304357Y-64524761D01*
X132161500Y-64572380D01*
X131923404Y-64572380D01*
X132828166Y-63572380D02*
X133447214Y-63572380D01*
X133113880Y-63953333D01*
X133256738Y-63953333D01*
X133351976Y-64000952D01*
X133399595Y-64048571D01*
X133447214Y-64143809D01*
X133447214Y-64381904D01*
X133399595Y-64477142D01*
X133351976Y-64524761D01*
X133256738Y-64572380D01*
X132971023Y-64572380D01*
X132875785Y-64524761D01*
X132828166Y-64477142D01*
%TO.C,D4*%
X156688404Y-64572380D02*
X156688404Y-63572380D01*
X156926500Y-63572380D01*
X157069357Y-63620000D01*
X157164595Y-63715238D01*
X157212214Y-63810476D01*
X157259833Y-64000952D01*
X157259833Y-64143809D01*
X157212214Y-64334285D01*
X157164595Y-64429523D01*
X157069357Y-64524761D01*
X156926500Y-64572380D01*
X156688404Y-64572380D01*
X158116976Y-63905714D02*
X158116976Y-64572380D01*
X157878880Y-63524761D02*
X157640785Y-64239047D01*
X158259833Y-64239047D01*
%TO.C,D5*%
X181326404Y-64572380D02*
X181326404Y-63572380D01*
X181564500Y-63572380D01*
X181707357Y-63620000D01*
X181802595Y-63715238D01*
X181850214Y-63810476D01*
X181897833Y-64000952D01*
X181897833Y-64143809D01*
X181850214Y-64334285D01*
X181802595Y-64429523D01*
X181707357Y-64524761D01*
X181564500Y-64572380D01*
X181326404Y-64572380D01*
X182802595Y-63572380D02*
X182326404Y-63572380D01*
X182278785Y-64048571D01*
X182326404Y-64000952D01*
X182421642Y-63953333D01*
X182659738Y-63953333D01*
X182754976Y-64000952D01*
X182802595Y-64048571D01*
X182850214Y-64143809D01*
X182850214Y-64381904D01*
X182802595Y-64477142D01*
X182754976Y-64524761D01*
X182659738Y-64572380D01*
X182421642Y-64572380D01*
X182326404Y-64524761D01*
X182278785Y-64477142D01*
%TO.C,D6*%
X206382880Y-74715595D02*
X205382880Y-74715595D01*
X205382880Y-74477500D01*
X205430500Y-74334642D01*
X205525738Y-74239404D01*
X205620976Y-74191785D01*
X205811452Y-74144166D01*
X205954309Y-74144166D01*
X206144785Y-74191785D01*
X206240023Y-74239404D01*
X206335261Y-74334642D01*
X206382880Y-74477500D01*
X206382880Y-74715595D01*
X205382880Y-73287023D02*
X205382880Y-73477500D01*
X205430500Y-73572738D01*
X205478119Y-73620357D01*
X205620976Y-73715595D01*
X205811452Y-73763214D01*
X206192404Y-73763214D01*
X206287642Y-73715595D01*
X206335261Y-73667976D01*
X206382880Y-73572738D01*
X206382880Y-73382261D01*
X206335261Y-73287023D01*
X206287642Y-73239404D01*
X206192404Y-73191785D01*
X205954309Y-73191785D01*
X205859071Y-73239404D01*
X205811452Y-73287023D01*
X205763833Y-73382261D01*
X205763833Y-73572738D01*
X205811452Y-73667976D01*
X205859071Y-73715595D01*
X205954309Y-73763214D01*
%TO.C,D7*%
X223490404Y-74175880D02*
X223490404Y-73175880D01*
X223728500Y-73175880D01*
X223871357Y-73223500D01*
X223966595Y-73318738D01*
X224014214Y-73413976D01*
X224061833Y-73604452D01*
X224061833Y-73747309D01*
X224014214Y-73937785D01*
X223966595Y-74033023D01*
X223871357Y-74128261D01*
X223728500Y-74175880D01*
X223490404Y-74175880D01*
X224395166Y-73175880D02*
X225061833Y-73175880D01*
X224633261Y-74175880D01*
%TO.C,D9*%
X107412404Y-89210380D02*
X107412404Y-88210380D01*
X107650500Y-88210380D01*
X107793357Y-88258000D01*
X107888595Y-88353238D01*
X107936214Y-88448476D01*
X107983833Y-88638952D01*
X107983833Y-88781809D01*
X107936214Y-88972285D01*
X107888595Y-89067523D01*
X107793357Y-89162761D01*
X107650500Y-89210380D01*
X107412404Y-89210380D01*
X108460023Y-89210380D02*
X108650500Y-89210380D01*
X108745738Y-89162761D01*
X108793357Y-89115142D01*
X108888595Y-88972285D01*
X108936214Y-88781809D01*
X108936214Y-88400857D01*
X108888595Y-88305619D01*
X108840976Y-88258000D01*
X108745738Y-88210380D01*
X108555261Y-88210380D01*
X108460023Y-88258000D01*
X108412404Y-88305619D01*
X108364785Y-88400857D01*
X108364785Y-88638952D01*
X108412404Y-88734190D01*
X108460023Y-88781809D01*
X108555261Y-88829428D01*
X108745738Y-88829428D01*
X108840976Y-88781809D01*
X108888595Y-88734190D01*
X108936214Y-88638952D01*
%TO.C,D10*%
X131574214Y-89210380D02*
X131574214Y-88210380D01*
X131812309Y-88210380D01*
X131955166Y-88258000D01*
X132050404Y-88353238D01*
X132098023Y-88448476D01*
X132145642Y-88638952D01*
X132145642Y-88781809D01*
X132098023Y-88972285D01*
X132050404Y-89067523D01*
X131955166Y-89162761D01*
X131812309Y-89210380D01*
X131574214Y-89210380D01*
X133098023Y-89210380D02*
X132526595Y-89210380D01*
X132812309Y-89210380D02*
X132812309Y-88210380D01*
X132717071Y-88353238D01*
X132621833Y-88448476D01*
X132526595Y-88496095D01*
X133717071Y-88210380D02*
X133812309Y-88210380D01*
X133907547Y-88258000D01*
X133955166Y-88305619D01*
X134002785Y-88400857D01*
X134050404Y-88591333D01*
X134050404Y-88829428D01*
X134002785Y-89019904D01*
X133955166Y-89115142D01*
X133907547Y-89162761D01*
X133812309Y-89210380D01*
X133717071Y-89210380D01*
X133621833Y-89162761D01*
X133574214Y-89115142D01*
X133526595Y-89019904D01*
X133478976Y-88829428D01*
X133478976Y-88591333D01*
X133526595Y-88400857D01*
X133574214Y-88305619D01*
X133621833Y-88258000D01*
X133717071Y-88210380D01*
%TO.C,D11*%
X156212214Y-89210380D02*
X156212214Y-88210380D01*
X156450309Y-88210380D01*
X156593166Y-88258000D01*
X156688404Y-88353238D01*
X156736023Y-88448476D01*
X156783642Y-88638952D01*
X156783642Y-88781809D01*
X156736023Y-88972285D01*
X156688404Y-89067523D01*
X156593166Y-89162761D01*
X156450309Y-89210380D01*
X156212214Y-89210380D01*
X157736023Y-89210380D02*
X157164595Y-89210380D01*
X157450309Y-89210380D02*
X157450309Y-88210380D01*
X157355071Y-88353238D01*
X157259833Y-88448476D01*
X157164595Y-88496095D01*
X158688404Y-89210380D02*
X158116976Y-89210380D01*
X158402690Y-89210380D02*
X158402690Y-88210380D01*
X158307452Y-88353238D01*
X158212214Y-88448476D01*
X158116976Y-88496095D01*
%TO.C,D12*%
X180713214Y-89210380D02*
X180713214Y-88210380D01*
X180951309Y-88210380D01*
X181094166Y-88258000D01*
X181189404Y-88353238D01*
X181237023Y-88448476D01*
X181284642Y-88638952D01*
X181284642Y-88781809D01*
X181237023Y-88972285D01*
X181189404Y-89067523D01*
X181094166Y-89162761D01*
X180951309Y-89210380D01*
X180713214Y-89210380D01*
X182237023Y-89210380D02*
X181665595Y-89210380D01*
X181951309Y-89210380D02*
X181951309Y-88210380D01*
X181856071Y-88353238D01*
X181760833Y-88448476D01*
X181665595Y-88496095D01*
X182617976Y-88305619D02*
X182665595Y-88258000D01*
X182760833Y-88210380D01*
X182998928Y-88210380D01*
X183094166Y-88258000D01*
X183141785Y-88305619D01*
X183189404Y-88400857D01*
X183189404Y-88496095D01*
X183141785Y-88638952D01*
X182570357Y-89210380D01*
X183189404Y-89210380D01*
%TO.C,D13*%
X206113880Y-86548285D02*
X205113880Y-86548285D01*
X205113880Y-86310190D01*
X205161500Y-86167333D01*
X205256738Y-86072095D01*
X205351976Y-86024476D01*
X205542452Y-85976857D01*
X205685309Y-85976857D01*
X205875785Y-86024476D01*
X205971023Y-86072095D01*
X206066261Y-86167333D01*
X206113880Y-86310190D01*
X206113880Y-86548285D01*
X206113880Y-85024476D02*
X206113880Y-85595904D01*
X206113880Y-85310190D02*
X205113880Y-85310190D01*
X205256738Y-85405428D01*
X205351976Y-85500666D01*
X205399595Y-85595904D01*
X205113880Y-84691142D02*
X205113880Y-84072095D01*
X205494833Y-84405428D01*
X205494833Y-84262571D01*
X205542452Y-84167333D01*
X205590071Y-84119714D01*
X205685309Y-84072095D01*
X205923404Y-84072095D01*
X206018642Y-84119714D01*
X206066261Y-84167333D01*
X206113880Y-84262571D01*
X206113880Y-84548285D01*
X206066261Y-84643523D01*
X206018642Y-84691142D01*
%TO.C,D14*%
X228084880Y-93152285D02*
X227084880Y-93152285D01*
X227084880Y-92914190D01*
X227132500Y-92771333D01*
X227227738Y-92676095D01*
X227322976Y-92628476D01*
X227513452Y-92580857D01*
X227656309Y-92580857D01*
X227846785Y-92628476D01*
X227942023Y-92676095D01*
X228037261Y-92771333D01*
X228084880Y-92914190D01*
X228084880Y-93152285D01*
X228084880Y-91628476D02*
X228084880Y-92199904D01*
X228084880Y-91914190D02*
X227084880Y-91914190D01*
X227227738Y-92009428D01*
X227322976Y-92104666D01*
X227370595Y-92199904D01*
X227418214Y-90771333D02*
X228084880Y-90771333D01*
X227037261Y-91009428D02*
X227751547Y-91247523D01*
X227751547Y-90628476D01*
%TO.C,D15*%
X106936214Y-113848380D02*
X106936214Y-112848380D01*
X107174309Y-112848380D01*
X107317166Y-112896000D01*
X107412404Y-112991238D01*
X107460023Y-113086476D01*
X107507642Y-113276952D01*
X107507642Y-113419809D01*
X107460023Y-113610285D01*
X107412404Y-113705523D01*
X107317166Y-113800761D01*
X107174309Y-113848380D01*
X106936214Y-113848380D01*
X108460023Y-113848380D02*
X107888595Y-113848380D01*
X108174309Y-113848380D02*
X108174309Y-112848380D01*
X108079071Y-112991238D01*
X107983833Y-113086476D01*
X107888595Y-113134095D01*
X109364785Y-112848380D02*
X108888595Y-112848380D01*
X108840976Y-113324571D01*
X108888595Y-113276952D01*
X108983833Y-113229333D01*
X109221928Y-113229333D01*
X109317166Y-113276952D01*
X109364785Y-113324571D01*
X109412404Y-113419809D01*
X109412404Y-113657904D01*
X109364785Y-113753142D01*
X109317166Y-113800761D01*
X109221928Y-113848380D01*
X108983833Y-113848380D01*
X108888595Y-113800761D01*
X108840976Y-113753142D01*
%TO.C,D17*%
X156212214Y-113848380D02*
X156212214Y-112848380D01*
X156450309Y-112848380D01*
X156593166Y-112896000D01*
X156688404Y-112991238D01*
X156736023Y-113086476D01*
X156783642Y-113276952D01*
X156783642Y-113419809D01*
X156736023Y-113610285D01*
X156688404Y-113705523D01*
X156593166Y-113800761D01*
X156450309Y-113848380D01*
X156212214Y-113848380D01*
X157736023Y-113848380D02*
X157164595Y-113848380D01*
X157450309Y-113848380D02*
X157450309Y-112848380D01*
X157355071Y-112991238D01*
X157259833Y-113086476D01*
X157164595Y-113134095D01*
X158069357Y-112848380D02*
X158736023Y-112848380D01*
X158307452Y-113848380D01*
%TO.C,D18*%
X180850214Y-113848380D02*
X180850214Y-112848380D01*
X181088309Y-112848380D01*
X181231166Y-112896000D01*
X181326404Y-112991238D01*
X181374023Y-113086476D01*
X181421642Y-113276952D01*
X181421642Y-113419809D01*
X181374023Y-113610285D01*
X181326404Y-113705523D01*
X181231166Y-113800761D01*
X181088309Y-113848380D01*
X180850214Y-113848380D01*
X182374023Y-113848380D02*
X181802595Y-113848380D01*
X182088309Y-113848380D02*
X182088309Y-112848380D01*
X181993071Y-112991238D01*
X181897833Y-113086476D01*
X181802595Y-113134095D01*
X182945452Y-113276952D02*
X182850214Y-113229333D01*
X182802595Y-113181714D01*
X182754976Y-113086476D01*
X182754976Y-113038857D01*
X182802595Y-112943619D01*
X182850214Y-112896000D01*
X182945452Y-112848380D01*
X183135928Y-112848380D01*
X183231166Y-112896000D01*
X183278785Y-112943619D01*
X183326404Y-113038857D01*
X183326404Y-113086476D01*
X183278785Y-113181714D01*
X183231166Y-113229333D01*
X183135928Y-113276952D01*
X182945452Y-113276952D01*
X182850214Y-113324571D01*
X182802595Y-113372190D01*
X182754976Y-113467428D01*
X182754976Y-113657904D01*
X182802595Y-113753142D01*
X182850214Y-113800761D01*
X182945452Y-113848380D01*
X183135928Y-113848380D01*
X183231166Y-113800761D01*
X183278785Y-113753142D01*
X183326404Y-113657904D01*
X183326404Y-113467428D01*
X183278785Y-113372190D01*
X183231166Y-113324571D01*
X183135928Y-113276952D01*
%TO.C,D19*%
X206240880Y-111186285D02*
X205240880Y-111186285D01*
X205240880Y-110948190D01*
X205288500Y-110805333D01*
X205383738Y-110710095D01*
X205478976Y-110662476D01*
X205669452Y-110614857D01*
X205812309Y-110614857D01*
X206002785Y-110662476D01*
X206098023Y-110710095D01*
X206193261Y-110805333D01*
X206240880Y-110948190D01*
X206240880Y-111186285D01*
X206240880Y-109662476D02*
X206240880Y-110233904D01*
X206240880Y-109948190D02*
X205240880Y-109948190D01*
X205383738Y-110043428D01*
X205478976Y-110138666D01*
X205526595Y-110233904D01*
X206240880Y-109186285D02*
X206240880Y-108995809D01*
X206193261Y-108900571D01*
X206145642Y-108852952D01*
X206002785Y-108757714D01*
X205812309Y-108710095D01*
X205431357Y-108710095D01*
X205336119Y-108757714D01*
X205288500Y-108805333D01*
X205240880Y-108900571D01*
X205240880Y-109091047D01*
X205288500Y-109186285D01*
X205336119Y-109233904D01*
X205431357Y-109281523D01*
X205669452Y-109281523D01*
X205764690Y-109233904D01*
X205812309Y-109186285D01*
X205859928Y-109091047D01*
X205859928Y-108900571D01*
X205812309Y-108805333D01*
X205764690Y-108757714D01*
X205669452Y-108710095D01*
%TD*%
M02*
