%TF.GenerationSoftware,KiCad,Pcbnew,(5.1.9)-1*%
%TF.CreationDate,2021-03-22T18:36:52-04:00*%
%TF.ProjectId,DSKY_keyboard,44534b59-5f6b-4657-9962-6f6172642e6b,1.0*%
%TF.SameCoordinates,Original*%
%TF.FileFunction,Legend,Bot*%
%TF.FilePolarity,Positive*%
%FSLAX46Y46*%
G04 Gerber Fmt 4.6, Leading zero omitted, Abs format (unit mm)*
G04 Created by KiCad (PCBNEW (5.1.9)-1) date 2021-03-22 18:36:52*
%MOMM*%
%LPD*%
G01*
G04 APERTURE LIST*
%ADD10C,0.150000*%
%ADD11C,0.010000*%
%ADD12C,0.152400*%
%ADD13C,0.120000*%
%ADD14C,0.203200*%
%ADD15C,0.100000*%
%ADD16C,0.127000*%
%ADD17C,0.304800*%
%ADD18C,0.200000*%
%ADD19C,0.138988*%
G04 APERTURE END LIST*
D10*
X117988714Y-106210142D02*
X117988714Y-105310142D01*
X117774428Y-105310142D01*
X117645857Y-105353000D01*
X117560142Y-105438714D01*
X117517285Y-105524428D01*
X117474428Y-105695857D01*
X117474428Y-105824428D01*
X117517285Y-105995857D01*
X117560142Y-106081571D01*
X117645857Y-106167285D01*
X117774428Y-106210142D01*
X117988714Y-106210142D01*
X117131571Y-106167285D02*
X117003000Y-106210142D01*
X116788714Y-106210142D01*
X116703000Y-106167285D01*
X116660142Y-106124428D01*
X116617285Y-106038714D01*
X116617285Y-105953000D01*
X116660142Y-105867285D01*
X116703000Y-105824428D01*
X116788714Y-105781571D01*
X116960142Y-105738714D01*
X117045857Y-105695857D01*
X117088714Y-105653000D01*
X117131571Y-105567285D01*
X117131571Y-105481571D01*
X117088714Y-105395857D01*
X117045857Y-105353000D01*
X116960142Y-105310142D01*
X116745857Y-105310142D01*
X116617285Y-105353000D01*
X116231571Y-106210142D02*
X116231571Y-105310142D01*
X115717285Y-106210142D02*
X116103000Y-105695857D01*
X115717285Y-105310142D02*
X116231571Y-105824428D01*
X115160142Y-105781571D02*
X115160142Y-106210142D01*
X115460142Y-105310142D02*
X115160142Y-105781571D01*
X114860142Y-105310142D01*
X113874428Y-106210142D02*
X113874428Y-105310142D01*
X113360142Y-106210142D02*
X113745857Y-105695857D01*
X113360142Y-105310142D02*
X113874428Y-105824428D01*
X112631571Y-106167285D02*
X112717285Y-106210142D01*
X112888714Y-106210142D01*
X112974428Y-106167285D01*
X113017285Y-106081571D01*
X113017285Y-105738714D01*
X112974428Y-105653000D01*
X112888714Y-105610142D01*
X112717285Y-105610142D01*
X112631571Y-105653000D01*
X112588714Y-105738714D01*
X112588714Y-105824428D01*
X113017285Y-105910142D01*
X112288714Y-105610142D02*
X112074428Y-106210142D01*
X111860142Y-105610142D02*
X112074428Y-106210142D01*
X112160142Y-106424428D01*
X112203000Y-106467285D01*
X112288714Y-106510142D01*
X111517285Y-106210142D02*
X111517285Y-105310142D01*
X111517285Y-105653000D02*
X111431571Y-105610142D01*
X111260142Y-105610142D01*
X111174428Y-105653000D01*
X111131571Y-105695857D01*
X111088714Y-105781571D01*
X111088714Y-106038714D01*
X111131571Y-106124428D01*
X111174428Y-106167285D01*
X111260142Y-106210142D01*
X111431571Y-106210142D01*
X111517285Y-106167285D01*
X110574428Y-106210142D02*
X110660142Y-106167285D01*
X110703000Y-106124428D01*
X110745857Y-106038714D01*
X110745857Y-105781571D01*
X110703000Y-105695857D01*
X110660142Y-105653000D01*
X110574428Y-105610142D01*
X110445857Y-105610142D01*
X110360142Y-105653000D01*
X110317285Y-105695857D01*
X110274428Y-105781571D01*
X110274428Y-106038714D01*
X110317285Y-106124428D01*
X110360142Y-106167285D01*
X110445857Y-106210142D01*
X110574428Y-106210142D01*
X109503000Y-106210142D02*
X109503000Y-105738714D01*
X109545857Y-105653000D01*
X109631571Y-105610142D01*
X109803000Y-105610142D01*
X109888714Y-105653000D01*
X109503000Y-106167285D02*
X109588714Y-106210142D01*
X109803000Y-106210142D01*
X109888714Y-106167285D01*
X109931571Y-106081571D01*
X109931571Y-105995857D01*
X109888714Y-105910142D01*
X109803000Y-105867285D01*
X109588714Y-105867285D01*
X109503000Y-105824428D01*
X109074428Y-106210142D02*
X109074428Y-105610142D01*
X109074428Y-105781571D02*
X109031571Y-105695857D01*
X108988714Y-105653000D01*
X108903000Y-105610142D01*
X108817285Y-105610142D01*
X108131571Y-106210142D02*
X108131571Y-105310142D01*
X108131571Y-106167285D02*
X108217285Y-106210142D01*
X108388714Y-106210142D01*
X108474428Y-106167285D01*
X108517285Y-106124428D01*
X108560142Y-106038714D01*
X108560142Y-105781571D01*
X108517285Y-105695857D01*
X108474428Y-105653000D01*
X108388714Y-105610142D01*
X108217285Y-105610142D01*
X108131571Y-105653000D01*
X106760142Y-106553000D02*
X106803000Y-106510142D01*
X106888714Y-106381571D01*
X106931571Y-106295857D01*
X106974428Y-106167285D01*
X107017285Y-105953000D01*
X107017285Y-105781571D01*
X106974428Y-105567285D01*
X106931571Y-105438714D01*
X106888714Y-105353000D01*
X106803000Y-105224428D01*
X106760142Y-105181571D01*
X105903000Y-106124428D02*
X105945857Y-106167285D01*
X106074428Y-106210142D01*
X106160142Y-106210142D01*
X106288714Y-106167285D01*
X106374428Y-106081571D01*
X106417285Y-105995857D01*
X106460142Y-105824428D01*
X106460142Y-105695857D01*
X106417285Y-105524428D01*
X106374428Y-105438714D01*
X106288714Y-105353000D01*
X106160142Y-105310142D01*
X106074428Y-105310142D01*
X105945857Y-105353000D01*
X105903000Y-105395857D01*
X105517285Y-106210142D02*
X105517285Y-105310142D01*
X105131571Y-106210142D02*
X105131571Y-105738714D01*
X105174428Y-105653000D01*
X105260142Y-105610142D01*
X105388714Y-105610142D01*
X105474428Y-105653000D01*
X105517285Y-105695857D01*
X104360142Y-106167285D02*
X104445857Y-106210142D01*
X104617285Y-106210142D01*
X104703000Y-106167285D01*
X104745857Y-106081571D01*
X104745857Y-105738714D01*
X104703000Y-105653000D01*
X104617285Y-105610142D01*
X104445857Y-105610142D01*
X104360142Y-105653000D01*
X104317285Y-105738714D01*
X104317285Y-105824428D01*
X104745857Y-105910142D01*
X103931571Y-106210142D02*
X103931571Y-105610142D01*
X103931571Y-105781571D02*
X103888714Y-105695857D01*
X103845857Y-105653000D01*
X103760142Y-105610142D01*
X103674428Y-105610142D01*
X103374428Y-106210142D02*
X103374428Y-105610142D01*
X103374428Y-105781571D02*
X103331571Y-105695857D01*
X103288714Y-105653000D01*
X103203000Y-105610142D01*
X103117285Y-105610142D01*
X102903000Y-105610142D02*
X102688714Y-106210142D01*
X102474428Y-105610142D02*
X102688714Y-106210142D01*
X102774428Y-106424428D01*
X102817285Y-106467285D01*
X102903000Y-106510142D01*
X101445857Y-106210142D02*
X101445857Y-105310142D01*
X101145857Y-105953000D01*
X100845857Y-105310142D01*
X100845857Y-106210142D01*
X100503000Y-105310142D02*
X99903000Y-106210142D01*
X99903000Y-105310142D02*
X100503000Y-106210142D01*
X99645857Y-106553000D02*
X99603000Y-106510142D01*
X99517285Y-106381571D01*
X99474428Y-106295857D01*
X99431571Y-106167285D01*
X99388714Y-105953000D01*
X99388714Y-105781571D01*
X99431571Y-105567285D01*
X99474428Y-105438714D01*
X99517285Y-105353000D01*
X99603000Y-105224428D01*
X99645857Y-105181571D01*
X98403000Y-105310142D02*
X98103000Y-106210142D01*
X97803000Y-105310142D01*
X97031571Y-106210142D02*
X97545857Y-106210142D01*
X97288714Y-106210142D02*
X97288714Y-105310142D01*
X97374428Y-105438714D01*
X97460142Y-105524428D01*
X97545857Y-105567285D01*
X117988714Y-107710142D02*
X117988714Y-106810142D01*
X117774428Y-106810142D01*
X117645857Y-106853000D01*
X117560142Y-106938714D01*
X117517285Y-107024428D01*
X117474428Y-107195857D01*
X117474428Y-107324428D01*
X117517285Y-107495857D01*
X117560142Y-107581571D01*
X117645857Y-107667285D01*
X117774428Y-107710142D01*
X117988714Y-107710142D01*
X116745857Y-107667285D02*
X116831571Y-107710142D01*
X117003000Y-107710142D01*
X117088714Y-107667285D01*
X117131571Y-107581571D01*
X117131571Y-107238714D01*
X117088714Y-107153000D01*
X117003000Y-107110142D01*
X116831571Y-107110142D01*
X116745857Y-107153000D01*
X116703000Y-107238714D01*
X116703000Y-107324428D01*
X117131571Y-107410142D01*
X116360142Y-107667285D02*
X116274428Y-107710142D01*
X116103000Y-107710142D01*
X116017285Y-107667285D01*
X115974428Y-107581571D01*
X115974428Y-107538714D01*
X116017285Y-107453000D01*
X116103000Y-107410142D01*
X116231571Y-107410142D01*
X116317285Y-107367285D01*
X116360142Y-107281571D01*
X116360142Y-107238714D01*
X116317285Y-107153000D01*
X116231571Y-107110142D01*
X116103000Y-107110142D01*
X116017285Y-107153000D01*
X115588714Y-107710142D02*
X115588714Y-107110142D01*
X115588714Y-106810142D02*
X115631571Y-106853000D01*
X115588714Y-106895857D01*
X115545857Y-106853000D01*
X115588714Y-106810142D01*
X115588714Y-106895857D01*
X114774428Y-107110142D02*
X114774428Y-107838714D01*
X114817285Y-107924428D01*
X114860142Y-107967285D01*
X114945857Y-108010142D01*
X115074428Y-108010142D01*
X115160142Y-107967285D01*
X114774428Y-107667285D02*
X114860142Y-107710142D01*
X115031571Y-107710142D01*
X115117285Y-107667285D01*
X115160142Y-107624428D01*
X115203000Y-107538714D01*
X115203000Y-107281571D01*
X115160142Y-107195857D01*
X115117285Y-107153000D01*
X115031571Y-107110142D01*
X114860142Y-107110142D01*
X114774428Y-107153000D01*
X114345857Y-107110142D02*
X114345857Y-107710142D01*
X114345857Y-107195857D02*
X114303000Y-107153000D01*
X114217285Y-107110142D01*
X114088714Y-107110142D01*
X114003000Y-107153000D01*
X113960142Y-107238714D01*
X113960142Y-107710142D01*
X113188714Y-107667285D02*
X113274428Y-107710142D01*
X113445857Y-107710142D01*
X113531571Y-107667285D01*
X113574428Y-107581571D01*
X113574428Y-107238714D01*
X113531571Y-107153000D01*
X113445857Y-107110142D01*
X113274428Y-107110142D01*
X113188714Y-107153000D01*
X113145857Y-107238714D01*
X113145857Y-107324428D01*
X113574428Y-107410142D01*
X112374428Y-107710142D02*
X112374428Y-106810142D01*
X112374428Y-107667285D02*
X112460142Y-107710142D01*
X112631571Y-107710142D01*
X112717285Y-107667285D01*
X112760142Y-107624428D01*
X112803000Y-107538714D01*
X112803000Y-107281571D01*
X112760142Y-107195857D01*
X112717285Y-107153000D01*
X112631571Y-107110142D01*
X112460142Y-107110142D01*
X112374428Y-107153000D01*
X111260142Y-107710142D02*
X111260142Y-106810142D01*
X111260142Y-107153000D02*
X111174428Y-107110142D01*
X111003000Y-107110142D01*
X110917285Y-107153000D01*
X110874428Y-107195857D01*
X110831571Y-107281571D01*
X110831571Y-107538714D01*
X110874428Y-107624428D01*
X110917285Y-107667285D01*
X111003000Y-107710142D01*
X111174428Y-107710142D01*
X111260142Y-107667285D01*
X110531571Y-107110142D02*
X110317285Y-107710142D01*
X110103000Y-107110142D02*
X110317285Y-107710142D01*
X110403000Y-107924428D01*
X110445857Y-107967285D01*
X110531571Y-108010142D01*
X109203000Y-106810142D02*
X108903000Y-107710142D01*
X108603000Y-106810142D01*
X108174428Y-107710142D02*
X108260142Y-107667285D01*
X108303000Y-107581571D01*
X108303000Y-106810142D01*
X107445857Y-107710142D02*
X107445857Y-107238714D01*
X107488714Y-107153000D01*
X107574428Y-107110142D01*
X107745857Y-107110142D01*
X107831571Y-107153000D01*
X107445857Y-107667285D02*
X107531571Y-107710142D01*
X107745857Y-107710142D01*
X107831571Y-107667285D01*
X107874428Y-107581571D01*
X107874428Y-107495857D01*
X107831571Y-107410142D01*
X107745857Y-107367285D01*
X107531571Y-107367285D01*
X107445857Y-107324428D01*
X106631571Y-107710142D02*
X106631571Y-106810142D01*
X106631571Y-107667285D02*
X106717285Y-107710142D01*
X106888714Y-107710142D01*
X106974428Y-107667285D01*
X107017285Y-107624428D01*
X107060142Y-107538714D01*
X107060142Y-107281571D01*
X107017285Y-107195857D01*
X106974428Y-107153000D01*
X106888714Y-107110142D01*
X106717285Y-107110142D01*
X106631571Y-107153000D01*
X105517285Y-107710142D02*
X105517285Y-106810142D01*
X105217285Y-107453000D01*
X104917285Y-106810142D01*
X104917285Y-107710142D01*
X104488714Y-107710142D02*
X104488714Y-107110142D01*
X104488714Y-106810142D02*
X104531571Y-106853000D01*
X104488714Y-106895857D01*
X104445857Y-106853000D01*
X104488714Y-106810142D01*
X104488714Y-106895857D01*
X104060142Y-107710142D02*
X104060142Y-106810142D01*
X103674428Y-107710142D02*
X103674428Y-107238714D01*
X103717285Y-107153000D01*
X103803000Y-107110142D01*
X103931571Y-107110142D01*
X104017285Y-107153000D01*
X104060142Y-107195857D01*
X102860142Y-107710142D02*
X102860142Y-107238714D01*
X102903000Y-107153000D01*
X102988714Y-107110142D01*
X103160142Y-107110142D01*
X103245857Y-107153000D01*
X102860142Y-107667285D02*
X102945857Y-107710142D01*
X103160142Y-107710142D01*
X103245857Y-107667285D01*
X103288714Y-107581571D01*
X103288714Y-107495857D01*
X103245857Y-107410142D01*
X103160142Y-107367285D01*
X102945857Y-107367285D01*
X102860142Y-107324428D01*
X102431571Y-107710142D02*
X102431571Y-107110142D01*
X102431571Y-106810142D02*
X102474428Y-106853000D01*
X102431571Y-106895857D01*
X102388714Y-106853000D01*
X102431571Y-106810142D01*
X102431571Y-106895857D01*
X101874428Y-107710142D02*
X101960142Y-107667285D01*
X102003000Y-107581571D01*
X102003000Y-106810142D01*
X101188714Y-107667285D02*
X101274428Y-107710142D01*
X101445857Y-107710142D01*
X101531571Y-107667285D01*
X101574428Y-107581571D01*
X101574428Y-107238714D01*
X101531571Y-107153000D01*
X101445857Y-107110142D01*
X101274428Y-107110142D01*
X101188714Y-107153000D01*
X101145857Y-107238714D01*
X101145857Y-107324428D01*
X101574428Y-107410142D01*
X100803000Y-107667285D02*
X100717285Y-107710142D01*
X100545857Y-107710142D01*
X100460142Y-107667285D01*
X100417285Y-107581571D01*
X100417285Y-107538714D01*
X100460142Y-107453000D01*
X100545857Y-107410142D01*
X100674428Y-107410142D01*
X100760142Y-107367285D01*
X100803000Y-107281571D01*
X100803000Y-107238714D01*
X100760142Y-107153000D01*
X100674428Y-107110142D01*
X100545857Y-107110142D01*
X100460142Y-107153000D01*
X99645857Y-107667285D02*
X99731571Y-107710142D01*
X99903000Y-107710142D01*
X99988714Y-107667285D01*
X100031571Y-107624428D01*
X100074428Y-107538714D01*
X100074428Y-107281571D01*
X100031571Y-107195857D01*
X99988714Y-107153000D01*
X99903000Y-107110142D01*
X99731571Y-107110142D01*
X99645857Y-107153000D01*
X98874428Y-107110142D02*
X98874428Y-107710142D01*
X99260142Y-107110142D02*
X99260142Y-107581571D01*
X99217285Y-107667285D01*
X99131571Y-107710142D01*
X99003000Y-107710142D01*
X98917285Y-107667285D01*
X98874428Y-107624428D01*
X156104714Y-105904071D02*
X155997571Y-105939785D01*
X155819000Y-105939785D01*
X155747571Y-105904071D01*
X155711857Y-105868357D01*
X155676142Y-105796928D01*
X155676142Y-105725500D01*
X155711857Y-105654071D01*
X155747571Y-105618357D01*
X155819000Y-105582642D01*
X155961857Y-105546928D01*
X156033285Y-105511214D01*
X156069000Y-105475500D01*
X156104714Y-105404071D01*
X156104714Y-105332642D01*
X156069000Y-105261214D01*
X156033285Y-105225500D01*
X155961857Y-105189785D01*
X155783285Y-105189785D01*
X155676142Y-105225500D01*
X155354714Y-105939785D02*
X155354714Y-105189785D01*
X155176142Y-105189785D01*
X155069000Y-105225500D01*
X154997571Y-105296928D01*
X154961857Y-105368357D01*
X154926142Y-105511214D01*
X154926142Y-105618357D01*
X154961857Y-105761214D01*
X154997571Y-105832642D01*
X155069000Y-105904071D01*
X155176142Y-105939785D01*
X155354714Y-105939785D01*
X154640428Y-105725500D02*
X154283285Y-105725500D01*
X154711857Y-105939785D02*
X154461857Y-105189785D01*
X154211857Y-105939785D01*
X153483357Y-105904071D02*
X153376214Y-105939785D01*
X153197642Y-105939785D01*
X153126214Y-105904071D01*
X153090500Y-105868357D01*
X153054785Y-105796928D01*
X153054785Y-105725500D01*
X153090500Y-105654071D01*
X153126214Y-105618357D01*
X153197642Y-105582642D01*
X153340500Y-105546928D01*
X153411928Y-105511214D01*
X153447642Y-105475500D01*
X153483357Y-105404071D01*
X153483357Y-105332642D01*
X153447642Y-105261214D01*
X153411928Y-105225500D01*
X153340500Y-105189785D01*
X153161928Y-105189785D01*
X153054785Y-105225500D01*
X152304785Y-105868357D02*
X152340500Y-105904071D01*
X152447642Y-105939785D01*
X152519071Y-105939785D01*
X152626214Y-105904071D01*
X152697642Y-105832642D01*
X152733357Y-105761214D01*
X152769071Y-105618357D01*
X152769071Y-105511214D01*
X152733357Y-105368357D01*
X152697642Y-105296928D01*
X152626214Y-105225500D01*
X152519071Y-105189785D01*
X152447642Y-105189785D01*
X152340500Y-105225500D01*
X152304785Y-105261214D01*
X151626214Y-105939785D02*
X151983357Y-105939785D01*
X151983357Y-105189785D01*
X158305428Y-105225500D02*
X158376857Y-105189785D01*
X158484000Y-105189785D01*
X158591142Y-105225500D01*
X158662571Y-105296928D01*
X158698285Y-105368357D01*
X158734000Y-105511214D01*
X158734000Y-105618357D01*
X158698285Y-105761214D01*
X158662571Y-105832642D01*
X158591142Y-105904071D01*
X158484000Y-105939785D01*
X158412571Y-105939785D01*
X158305428Y-105904071D01*
X158269714Y-105868357D01*
X158269714Y-105618357D01*
X158412571Y-105618357D01*
X157948285Y-105939785D02*
X157948285Y-105189785D01*
X157519714Y-105939785D01*
X157519714Y-105189785D01*
X157162571Y-105939785D02*
X157162571Y-105189785D01*
X156984000Y-105189785D01*
X156876857Y-105225500D01*
X156805428Y-105296928D01*
X156769714Y-105368357D01*
X156734000Y-105511214D01*
X156734000Y-105618357D01*
X156769714Y-105761214D01*
X156805428Y-105832642D01*
X156876857Y-105904071D01*
X156984000Y-105939785D01*
X157162571Y-105939785D01*
X161135142Y-105654071D02*
X160563714Y-105654071D01*
X160849428Y-105939785D02*
X160849428Y-105368357D01*
X160313714Y-105189785D02*
X160063714Y-105939785D01*
X159813714Y-105189785D01*
D11*
%TO.C,REF\u002A\u002A*%
G36*
X107937122Y-96808276D02*
G01*
X107831388Y-96808855D01*
X107754868Y-96810422D01*
X107702628Y-96813472D01*
X107669737Y-96818496D01*
X107651263Y-96825989D01*
X107642273Y-96836444D01*
X107637837Y-96850353D01*
X107637406Y-96852154D01*
X107630667Y-96884645D01*
X107618192Y-96948752D01*
X107601281Y-97037651D01*
X107581229Y-97144519D01*
X107559336Y-97262533D01*
X107558571Y-97266678D01*
X107536641Y-97382331D01*
X107516123Y-97484514D01*
X107498341Y-97567098D01*
X107484619Y-97623956D01*
X107476282Y-97648958D01*
X107475884Y-97649401D01*
X107451323Y-97661610D01*
X107400685Y-97681956D01*
X107334905Y-97706045D01*
X107334539Y-97706174D01*
X107251683Y-97737318D01*
X107154000Y-97776991D01*
X107061923Y-97816881D01*
X107057566Y-97818853D01*
X106907593Y-97886920D01*
X106575502Y-97660139D01*
X106473626Y-97591004D01*
X106381343Y-97529197D01*
X106303997Y-97478233D01*
X106246936Y-97441627D01*
X106215505Y-97422894D01*
X106212521Y-97421504D01*
X106189679Y-97427690D01*
X106147018Y-97457535D01*
X106082872Y-97512447D01*
X105995579Y-97593834D01*
X105906465Y-97680422D01*
X105820559Y-97765747D01*
X105743673Y-97843608D01*
X105680436Y-97909197D01*
X105635477Y-97957705D01*
X105613424Y-97984325D01*
X105612604Y-97985695D01*
X105610166Y-98003963D01*
X105619350Y-98033795D01*
X105642426Y-98079221D01*
X105681663Y-98144270D01*
X105739330Y-98232970D01*
X105816205Y-98347157D01*
X105884430Y-98447662D01*
X105945418Y-98537803D01*
X105995644Y-98612349D01*
X106031584Y-98666065D01*
X106049713Y-98693718D01*
X106050854Y-98695595D01*
X106048641Y-98722090D01*
X106031862Y-98773586D01*
X106003858Y-98840351D01*
X105993878Y-98861672D01*
X105950328Y-98956659D01*
X105903866Y-99064437D01*
X105866123Y-99157692D01*
X105838927Y-99226906D01*
X105817325Y-99279506D01*
X105804842Y-99306997D01*
X105803291Y-99309116D01*
X105780332Y-99312624D01*
X105726214Y-99322238D01*
X105648132Y-99336589D01*
X105553281Y-99354307D01*
X105448857Y-99374025D01*
X105342056Y-99394374D01*
X105240074Y-99413986D01*
X105150106Y-99431491D01*
X105079347Y-99445522D01*
X105034994Y-99454709D01*
X105024115Y-99457307D01*
X105012878Y-99463718D01*
X105004395Y-99478197D01*
X104998286Y-99505633D01*
X104994168Y-99550911D01*
X104991659Y-99618920D01*
X104990379Y-99714547D01*
X104989946Y-99842680D01*
X104989923Y-99895201D01*
X104989923Y-100322345D01*
X105092500Y-100342591D01*
X105149569Y-100353570D01*
X105234731Y-100369595D01*
X105337628Y-100388733D01*
X105447904Y-100409051D01*
X105478385Y-100414632D01*
X105580145Y-100434417D01*
X105668795Y-100453873D01*
X105736892Y-100471197D01*
X105776996Y-100484588D01*
X105783677Y-100488579D01*
X105800081Y-100516842D01*
X105823601Y-100571609D01*
X105849684Y-100642088D01*
X105854858Y-100657269D01*
X105889044Y-100751396D01*
X105931477Y-100857601D01*
X105973003Y-100952973D01*
X105973208Y-100953416D01*
X106042360Y-101103025D01*
X105587488Y-101772117D01*
X105879500Y-102064616D01*
X105967820Y-102151670D01*
X106048375Y-102228409D01*
X106116640Y-102290737D01*
X106168092Y-102334556D01*
X106198206Y-102355770D01*
X106202526Y-102357116D01*
X106227889Y-102346516D01*
X106279642Y-102317047D01*
X106352132Y-102272205D01*
X106439706Y-102215484D01*
X106534388Y-102151962D01*
X106630484Y-102087168D01*
X106716163Y-102030787D01*
X106785984Y-101986288D01*
X106834506Y-101957139D01*
X106856218Y-101946808D01*
X106882707Y-101955550D01*
X106932938Y-101978587D01*
X106996549Y-102011131D01*
X107003292Y-102014749D01*
X107088954Y-102057710D01*
X107147694Y-102078779D01*
X107184228Y-102079003D01*
X107203269Y-102059428D01*
X107203380Y-102059154D01*
X107212898Y-102035972D01*
X107235597Y-101980941D01*
X107269718Y-101898322D01*
X107313500Y-101792372D01*
X107365184Y-101667352D01*
X107423008Y-101527520D01*
X107479009Y-101392137D01*
X107540553Y-101242734D01*
X107597061Y-101104332D01*
X107646839Y-100981173D01*
X107688194Y-100877502D01*
X107719432Y-100797559D01*
X107738859Y-100745588D01*
X107744846Y-100726192D01*
X107729832Y-100703943D01*
X107690561Y-100668482D01*
X107638193Y-100629387D01*
X107489059Y-100505745D01*
X107372489Y-100364022D01*
X107289882Y-100207204D01*
X107242634Y-100038275D01*
X107232143Y-99860222D01*
X107239769Y-99778039D01*
X107281318Y-99607531D01*
X107352877Y-99456959D01*
X107450005Y-99327809D01*
X107568266Y-99221564D01*
X107703220Y-99139710D01*
X107850429Y-99083732D01*
X108005456Y-99055115D01*
X108163861Y-99055344D01*
X108321206Y-99085905D01*
X108473054Y-99148282D01*
X108614965Y-99243960D01*
X108674197Y-99298072D01*
X108787797Y-99437020D01*
X108866894Y-99588861D01*
X108912014Y-99749167D01*
X108923684Y-99913512D01*
X108902431Y-100077471D01*
X108848780Y-100236618D01*
X108763260Y-100386525D01*
X108646395Y-100522767D01*
X108515807Y-100629387D01*
X108461412Y-100670142D01*
X108422986Y-100705218D01*
X108409154Y-100726226D01*
X108416397Y-100749135D01*
X108436995Y-100803865D01*
X108469254Y-100886172D01*
X108511479Y-100991815D01*
X108561977Y-101116550D01*
X108619052Y-101256136D01*
X108675146Y-101392170D01*
X108737033Y-101541701D01*
X108794356Y-101680267D01*
X108845356Y-101803607D01*
X108888273Y-101907464D01*
X108921347Y-101987580D01*
X108942819Y-102039695D01*
X108950775Y-102059154D01*
X108969571Y-102078923D01*
X109005926Y-102078865D01*
X109064521Y-102057941D01*
X109150032Y-102015113D01*
X109150708Y-102014749D01*
X109215093Y-101981512D01*
X109267139Y-101957302D01*
X109296488Y-101946904D01*
X109297783Y-101946808D01*
X109319876Y-101957355D01*
X109368652Y-101986684D01*
X109438669Y-102031327D01*
X109524486Y-102087814D01*
X109619612Y-102151962D01*
X109716460Y-102216911D01*
X109803747Y-102273396D01*
X109875819Y-102317921D01*
X109927023Y-102346990D01*
X109951474Y-102357116D01*
X109973990Y-102343807D01*
X110019258Y-102306612D01*
X110082756Y-102249628D01*
X110159961Y-102176949D01*
X110246349Y-102092671D01*
X110274601Y-102064516D01*
X110566713Y-101771916D01*
X110344369Y-101445604D01*
X110276798Y-101345397D01*
X110217493Y-101255463D01*
X110169783Y-101181010D01*
X110136993Y-101127251D01*
X110122452Y-101099394D01*
X110122026Y-101097412D01*
X110129692Y-101071155D01*
X110150311Y-101018337D01*
X110180315Y-100947810D01*
X110201375Y-100900593D01*
X110240752Y-100810194D01*
X110277835Y-100718866D01*
X110306585Y-100641700D01*
X110314395Y-100618192D01*
X110336583Y-100555416D01*
X110358273Y-100506911D01*
X110370187Y-100488579D01*
X110396477Y-100477359D01*
X110453858Y-100461454D01*
X110534882Y-100442667D01*
X110632105Y-100422799D01*
X110675615Y-100414632D01*
X110786104Y-100394329D01*
X110892084Y-100374670D01*
X110983199Y-100357588D01*
X111049092Y-100345018D01*
X111061500Y-100342591D01*
X111164077Y-100322345D01*
X111164077Y-99895201D01*
X111163847Y-99754746D01*
X111162901Y-99648479D01*
X111160859Y-99571513D01*
X111157338Y-99518960D01*
X111151957Y-99485933D01*
X111144334Y-99467545D01*
X111134088Y-99458908D01*
X111129885Y-99457307D01*
X111104530Y-99451627D01*
X111048516Y-99440295D01*
X110969036Y-99424679D01*
X110873288Y-99406147D01*
X110768467Y-99386069D01*
X110661768Y-99365812D01*
X110560387Y-99346746D01*
X110471521Y-99330239D01*
X110402363Y-99317659D01*
X110360111Y-99310375D01*
X110350710Y-99309116D01*
X110342193Y-99292263D01*
X110323340Y-99247370D01*
X110297676Y-99182930D01*
X110287877Y-99157692D01*
X110248352Y-99060186D01*
X110201808Y-98952459D01*
X110160123Y-98861672D01*
X110129450Y-98792253D01*
X110109044Y-98735210D01*
X110102232Y-98700277D01*
X110103318Y-98695595D01*
X110117715Y-98673491D01*
X110150588Y-98624331D01*
X110198410Y-98553348D01*
X110257652Y-98465778D01*
X110324785Y-98366857D01*
X110338059Y-98347330D01*
X110415954Y-98231640D01*
X110473213Y-98143544D01*
X110512119Y-98078986D01*
X110534956Y-98033911D01*
X110544006Y-98004263D01*
X110541552Y-97985985D01*
X110541489Y-97985869D01*
X110522173Y-97961861D01*
X110479449Y-97915447D01*
X110417949Y-97851437D01*
X110342302Y-97774645D01*
X110257139Y-97689882D01*
X110247535Y-97680422D01*
X110140210Y-97576489D01*
X110057385Y-97500175D01*
X109997395Y-97450071D01*
X109958577Y-97424770D01*
X109941480Y-97421504D01*
X109916527Y-97435750D01*
X109864745Y-97468656D01*
X109791480Y-97516708D01*
X109702080Y-97576390D01*
X109601889Y-97644188D01*
X109578499Y-97660139D01*
X109246407Y-97886920D01*
X109096435Y-97818853D01*
X109005230Y-97779185D01*
X108907331Y-97739291D01*
X108823169Y-97707483D01*
X108819462Y-97706174D01*
X108753631Y-97682076D01*
X108702884Y-97661700D01*
X108678158Y-97649436D01*
X108678116Y-97649401D01*
X108670271Y-97627234D01*
X108656934Y-97572717D01*
X108639430Y-97491980D01*
X108619083Y-97391150D01*
X108597218Y-97276356D01*
X108595429Y-97266678D01*
X108573496Y-97148404D01*
X108553360Y-97041042D01*
X108536320Y-96951417D01*
X108523672Y-96886351D01*
X108516716Y-96852668D01*
X108516594Y-96852154D01*
X108512361Y-96837825D01*
X108504129Y-96827007D01*
X108486967Y-96819206D01*
X108455942Y-96813929D01*
X108406122Y-96810682D01*
X108332576Y-96808972D01*
X108230371Y-96808307D01*
X108094575Y-96808193D01*
X108077000Y-96808192D01*
X107937122Y-96808276D01*
G37*
X107937122Y-96808276D02*
X107831388Y-96808855D01*
X107754868Y-96810422D01*
X107702628Y-96813472D01*
X107669737Y-96818496D01*
X107651263Y-96825989D01*
X107642273Y-96836444D01*
X107637837Y-96850353D01*
X107637406Y-96852154D01*
X107630667Y-96884645D01*
X107618192Y-96948752D01*
X107601281Y-97037651D01*
X107581229Y-97144519D01*
X107559336Y-97262533D01*
X107558571Y-97266678D01*
X107536641Y-97382331D01*
X107516123Y-97484514D01*
X107498341Y-97567098D01*
X107484619Y-97623956D01*
X107476282Y-97648958D01*
X107475884Y-97649401D01*
X107451323Y-97661610D01*
X107400685Y-97681956D01*
X107334905Y-97706045D01*
X107334539Y-97706174D01*
X107251683Y-97737318D01*
X107154000Y-97776991D01*
X107061923Y-97816881D01*
X107057566Y-97818853D01*
X106907593Y-97886920D01*
X106575502Y-97660139D01*
X106473626Y-97591004D01*
X106381343Y-97529197D01*
X106303997Y-97478233D01*
X106246936Y-97441627D01*
X106215505Y-97422894D01*
X106212521Y-97421504D01*
X106189679Y-97427690D01*
X106147018Y-97457535D01*
X106082872Y-97512447D01*
X105995579Y-97593834D01*
X105906465Y-97680422D01*
X105820559Y-97765747D01*
X105743673Y-97843608D01*
X105680436Y-97909197D01*
X105635477Y-97957705D01*
X105613424Y-97984325D01*
X105612604Y-97985695D01*
X105610166Y-98003963D01*
X105619350Y-98033795D01*
X105642426Y-98079221D01*
X105681663Y-98144270D01*
X105739330Y-98232970D01*
X105816205Y-98347157D01*
X105884430Y-98447662D01*
X105945418Y-98537803D01*
X105995644Y-98612349D01*
X106031584Y-98666065D01*
X106049713Y-98693718D01*
X106050854Y-98695595D01*
X106048641Y-98722090D01*
X106031862Y-98773586D01*
X106003858Y-98840351D01*
X105993878Y-98861672D01*
X105950328Y-98956659D01*
X105903866Y-99064437D01*
X105866123Y-99157692D01*
X105838927Y-99226906D01*
X105817325Y-99279506D01*
X105804842Y-99306997D01*
X105803291Y-99309116D01*
X105780332Y-99312624D01*
X105726214Y-99322238D01*
X105648132Y-99336589D01*
X105553281Y-99354307D01*
X105448857Y-99374025D01*
X105342056Y-99394374D01*
X105240074Y-99413986D01*
X105150106Y-99431491D01*
X105079347Y-99445522D01*
X105034994Y-99454709D01*
X105024115Y-99457307D01*
X105012878Y-99463718D01*
X105004395Y-99478197D01*
X104998286Y-99505633D01*
X104994168Y-99550911D01*
X104991659Y-99618920D01*
X104990379Y-99714547D01*
X104989946Y-99842680D01*
X104989923Y-99895201D01*
X104989923Y-100322345D01*
X105092500Y-100342591D01*
X105149569Y-100353570D01*
X105234731Y-100369595D01*
X105337628Y-100388733D01*
X105447904Y-100409051D01*
X105478385Y-100414632D01*
X105580145Y-100434417D01*
X105668795Y-100453873D01*
X105736892Y-100471197D01*
X105776996Y-100484588D01*
X105783677Y-100488579D01*
X105800081Y-100516842D01*
X105823601Y-100571609D01*
X105849684Y-100642088D01*
X105854858Y-100657269D01*
X105889044Y-100751396D01*
X105931477Y-100857601D01*
X105973003Y-100952973D01*
X105973208Y-100953416D01*
X106042360Y-101103025D01*
X105587488Y-101772117D01*
X105879500Y-102064616D01*
X105967820Y-102151670D01*
X106048375Y-102228409D01*
X106116640Y-102290737D01*
X106168092Y-102334556D01*
X106198206Y-102355770D01*
X106202526Y-102357116D01*
X106227889Y-102346516D01*
X106279642Y-102317047D01*
X106352132Y-102272205D01*
X106439706Y-102215484D01*
X106534388Y-102151962D01*
X106630484Y-102087168D01*
X106716163Y-102030787D01*
X106785984Y-101986288D01*
X106834506Y-101957139D01*
X106856218Y-101946808D01*
X106882707Y-101955550D01*
X106932938Y-101978587D01*
X106996549Y-102011131D01*
X107003292Y-102014749D01*
X107088954Y-102057710D01*
X107147694Y-102078779D01*
X107184228Y-102079003D01*
X107203269Y-102059428D01*
X107203380Y-102059154D01*
X107212898Y-102035972D01*
X107235597Y-101980941D01*
X107269718Y-101898322D01*
X107313500Y-101792372D01*
X107365184Y-101667352D01*
X107423008Y-101527520D01*
X107479009Y-101392137D01*
X107540553Y-101242734D01*
X107597061Y-101104332D01*
X107646839Y-100981173D01*
X107688194Y-100877502D01*
X107719432Y-100797559D01*
X107738859Y-100745588D01*
X107744846Y-100726192D01*
X107729832Y-100703943D01*
X107690561Y-100668482D01*
X107638193Y-100629387D01*
X107489059Y-100505745D01*
X107372489Y-100364022D01*
X107289882Y-100207204D01*
X107242634Y-100038275D01*
X107232143Y-99860222D01*
X107239769Y-99778039D01*
X107281318Y-99607531D01*
X107352877Y-99456959D01*
X107450005Y-99327809D01*
X107568266Y-99221564D01*
X107703220Y-99139710D01*
X107850429Y-99083732D01*
X108005456Y-99055115D01*
X108163861Y-99055344D01*
X108321206Y-99085905D01*
X108473054Y-99148282D01*
X108614965Y-99243960D01*
X108674197Y-99298072D01*
X108787797Y-99437020D01*
X108866894Y-99588861D01*
X108912014Y-99749167D01*
X108923684Y-99913512D01*
X108902431Y-100077471D01*
X108848780Y-100236618D01*
X108763260Y-100386525D01*
X108646395Y-100522767D01*
X108515807Y-100629387D01*
X108461412Y-100670142D01*
X108422986Y-100705218D01*
X108409154Y-100726226D01*
X108416397Y-100749135D01*
X108436995Y-100803865D01*
X108469254Y-100886172D01*
X108511479Y-100991815D01*
X108561977Y-101116550D01*
X108619052Y-101256136D01*
X108675146Y-101392170D01*
X108737033Y-101541701D01*
X108794356Y-101680267D01*
X108845356Y-101803607D01*
X108888273Y-101907464D01*
X108921347Y-101987580D01*
X108942819Y-102039695D01*
X108950775Y-102059154D01*
X108969571Y-102078923D01*
X109005926Y-102078865D01*
X109064521Y-102057941D01*
X109150032Y-102015113D01*
X109150708Y-102014749D01*
X109215093Y-101981512D01*
X109267139Y-101957302D01*
X109296488Y-101946904D01*
X109297783Y-101946808D01*
X109319876Y-101957355D01*
X109368652Y-101986684D01*
X109438669Y-102031327D01*
X109524486Y-102087814D01*
X109619612Y-102151962D01*
X109716460Y-102216911D01*
X109803747Y-102273396D01*
X109875819Y-102317921D01*
X109927023Y-102346990D01*
X109951474Y-102357116D01*
X109973990Y-102343807D01*
X110019258Y-102306612D01*
X110082756Y-102249628D01*
X110159961Y-102176949D01*
X110246349Y-102092671D01*
X110274601Y-102064516D01*
X110566713Y-101771916D01*
X110344369Y-101445604D01*
X110276798Y-101345397D01*
X110217493Y-101255463D01*
X110169783Y-101181010D01*
X110136993Y-101127251D01*
X110122452Y-101099394D01*
X110122026Y-101097412D01*
X110129692Y-101071155D01*
X110150311Y-101018337D01*
X110180315Y-100947810D01*
X110201375Y-100900593D01*
X110240752Y-100810194D01*
X110277835Y-100718866D01*
X110306585Y-100641700D01*
X110314395Y-100618192D01*
X110336583Y-100555416D01*
X110358273Y-100506911D01*
X110370187Y-100488579D01*
X110396477Y-100477359D01*
X110453858Y-100461454D01*
X110534882Y-100442667D01*
X110632105Y-100422799D01*
X110675615Y-100414632D01*
X110786104Y-100394329D01*
X110892084Y-100374670D01*
X110983199Y-100357588D01*
X111049092Y-100345018D01*
X111061500Y-100342591D01*
X111164077Y-100322345D01*
X111164077Y-99895201D01*
X111163847Y-99754746D01*
X111162901Y-99648479D01*
X111160859Y-99571513D01*
X111157338Y-99518960D01*
X111151957Y-99485933D01*
X111144334Y-99467545D01*
X111134088Y-99458908D01*
X111129885Y-99457307D01*
X111104530Y-99451627D01*
X111048516Y-99440295D01*
X110969036Y-99424679D01*
X110873288Y-99406147D01*
X110768467Y-99386069D01*
X110661768Y-99365812D01*
X110560387Y-99346746D01*
X110471521Y-99330239D01*
X110402363Y-99317659D01*
X110360111Y-99310375D01*
X110350710Y-99309116D01*
X110342193Y-99292263D01*
X110323340Y-99247370D01*
X110297676Y-99182930D01*
X110287877Y-99157692D01*
X110248352Y-99060186D01*
X110201808Y-98952459D01*
X110160123Y-98861672D01*
X110129450Y-98792253D01*
X110109044Y-98735210D01*
X110102232Y-98700277D01*
X110103318Y-98695595D01*
X110117715Y-98673491D01*
X110150588Y-98624331D01*
X110198410Y-98553348D01*
X110257652Y-98465778D01*
X110324785Y-98366857D01*
X110338059Y-98347330D01*
X110415954Y-98231640D01*
X110473213Y-98143544D01*
X110512119Y-98078986D01*
X110534956Y-98033911D01*
X110544006Y-98004263D01*
X110541552Y-97985985D01*
X110541489Y-97985869D01*
X110522173Y-97961861D01*
X110479449Y-97915447D01*
X110417949Y-97851437D01*
X110342302Y-97774645D01*
X110257139Y-97689882D01*
X110247535Y-97680422D01*
X110140210Y-97576489D01*
X110057385Y-97500175D01*
X109997395Y-97450071D01*
X109958577Y-97424770D01*
X109941480Y-97421504D01*
X109916527Y-97435750D01*
X109864745Y-97468656D01*
X109791480Y-97516708D01*
X109702080Y-97576390D01*
X109601889Y-97644188D01*
X109578499Y-97660139D01*
X109246407Y-97886920D01*
X109096435Y-97818853D01*
X109005230Y-97779185D01*
X108907331Y-97739291D01*
X108823169Y-97707483D01*
X108819462Y-97706174D01*
X108753631Y-97682076D01*
X108702884Y-97661700D01*
X108678158Y-97649436D01*
X108678116Y-97649401D01*
X108670271Y-97627234D01*
X108656934Y-97572717D01*
X108639430Y-97491980D01*
X108619083Y-97391150D01*
X108597218Y-97276356D01*
X108595429Y-97266678D01*
X108573496Y-97148404D01*
X108553360Y-97041042D01*
X108536320Y-96951417D01*
X108523672Y-96886351D01*
X108516716Y-96852668D01*
X108516594Y-96852154D01*
X108512361Y-96837825D01*
X108504129Y-96827007D01*
X108486967Y-96819206D01*
X108455942Y-96813929D01*
X108406122Y-96810682D01*
X108332576Y-96808972D01*
X108230371Y-96808307D01*
X108094575Y-96808193D01*
X108077000Y-96808192D01*
X107937122Y-96808276D01*
G36*
X103831776Y-103168338D02*
G01*
X103754472Y-103218861D01*
X103717186Y-103264090D01*
X103687647Y-103346163D01*
X103685301Y-103411107D01*
X103690615Y-103497945D01*
X103890885Y-103585603D01*
X103988261Y-103630387D01*
X104051887Y-103666413D01*
X104084971Y-103697617D01*
X104090720Y-103727936D01*
X104072342Y-103761305D01*
X104052077Y-103783423D01*
X103993111Y-103818893D01*
X103928976Y-103821379D01*
X103870074Y-103793735D01*
X103826803Y-103738820D01*
X103819064Y-103719428D01*
X103781994Y-103658864D01*
X103739346Y-103633052D01*
X103680846Y-103610971D01*
X103680846Y-103694684D01*
X103686018Y-103751650D01*
X103706277Y-103799689D01*
X103748738Y-103854846D01*
X103755049Y-103862014D01*
X103802280Y-103911085D01*
X103842879Y-103937420D01*
X103893672Y-103949535D01*
X103935780Y-103953503D01*
X104011098Y-103954491D01*
X104064714Y-103941966D01*
X104098162Y-103923369D01*
X104150732Y-103882475D01*
X104187121Y-103838248D01*
X104210150Y-103782626D01*
X104222641Y-103707547D01*
X104227413Y-103604949D01*
X104227794Y-103552876D01*
X104226499Y-103490448D01*
X104108529Y-103490448D01*
X104107161Y-103523938D01*
X104103751Y-103529423D01*
X104081247Y-103521972D01*
X104032818Y-103502253D01*
X103968092Y-103474218D01*
X103954557Y-103468192D01*
X103872756Y-103426596D01*
X103827688Y-103390038D01*
X103817783Y-103355796D01*
X103841474Y-103321148D01*
X103861040Y-103305839D01*
X103931640Y-103275221D01*
X103997720Y-103280280D01*
X104053041Y-103317651D01*
X104091364Y-103383973D01*
X104103651Y-103436616D01*
X104108529Y-103490448D01*
X104226499Y-103490448D01*
X104225270Y-103431220D01*
X104215968Y-103341210D01*
X104197540Y-103275667D01*
X104167640Y-103227412D01*
X104123920Y-103189267D01*
X104104859Y-103176940D01*
X104018274Y-103144836D01*
X103923478Y-103142816D01*
X103831776Y-103168338D01*
G37*
X103831776Y-103168338D02*
X103754472Y-103218861D01*
X103717186Y-103264090D01*
X103687647Y-103346163D01*
X103685301Y-103411107D01*
X103690615Y-103497945D01*
X103890885Y-103585603D01*
X103988261Y-103630387D01*
X104051887Y-103666413D01*
X104084971Y-103697617D01*
X104090720Y-103727936D01*
X104072342Y-103761305D01*
X104052077Y-103783423D01*
X103993111Y-103818893D01*
X103928976Y-103821379D01*
X103870074Y-103793735D01*
X103826803Y-103738820D01*
X103819064Y-103719428D01*
X103781994Y-103658864D01*
X103739346Y-103633052D01*
X103680846Y-103610971D01*
X103680846Y-103694684D01*
X103686018Y-103751650D01*
X103706277Y-103799689D01*
X103748738Y-103854846D01*
X103755049Y-103862014D01*
X103802280Y-103911085D01*
X103842879Y-103937420D01*
X103893672Y-103949535D01*
X103935780Y-103953503D01*
X104011098Y-103954491D01*
X104064714Y-103941966D01*
X104098162Y-103923369D01*
X104150732Y-103882475D01*
X104187121Y-103838248D01*
X104210150Y-103782626D01*
X104222641Y-103707547D01*
X104227413Y-103604949D01*
X104227794Y-103552876D01*
X104226499Y-103490448D01*
X104108529Y-103490448D01*
X104107161Y-103523938D01*
X104103751Y-103529423D01*
X104081247Y-103521972D01*
X104032818Y-103502253D01*
X103968092Y-103474218D01*
X103954557Y-103468192D01*
X103872756Y-103426596D01*
X103827688Y-103390038D01*
X103817783Y-103355796D01*
X103841474Y-103321148D01*
X103861040Y-103305839D01*
X103931640Y-103275221D01*
X103997720Y-103280280D01*
X104053041Y-103317651D01*
X104091364Y-103383973D01*
X104103651Y-103436616D01*
X104108529Y-103490448D01*
X104226499Y-103490448D01*
X104225270Y-103431220D01*
X104215968Y-103341210D01*
X104197540Y-103275667D01*
X104167640Y-103227412D01*
X104123920Y-103189267D01*
X104104859Y-103176940D01*
X104018274Y-103144836D01*
X103923478Y-103142816D01*
X103831776Y-103168338D01*
G36*
X104506193Y-103157282D02*
G01*
X104482839Y-103167488D01*
X104427098Y-103211634D01*
X104379431Y-103275467D01*
X104349952Y-103343587D01*
X104345154Y-103377170D01*
X104361240Y-103424056D01*
X104396525Y-103448865D01*
X104434356Y-103463887D01*
X104451679Y-103466655D01*
X104460114Y-103446566D01*
X104476770Y-103402851D01*
X104484077Y-103383098D01*
X104525052Y-103314771D01*
X104584378Y-103280691D01*
X104660448Y-103281739D01*
X104666082Y-103283081D01*
X104706695Y-103302336D01*
X104736552Y-103339875D01*
X104756945Y-103400309D01*
X104769164Y-103488251D01*
X104774500Y-103608313D01*
X104775000Y-103672198D01*
X104775248Y-103772903D01*
X104776874Y-103841554D01*
X104781199Y-103885173D01*
X104789546Y-103910782D01*
X104803235Y-103925403D01*
X104823589Y-103936058D01*
X104824766Y-103936595D01*
X104863962Y-103953167D01*
X104883381Y-103959269D01*
X104886365Y-103940819D01*
X104888919Y-103889823D01*
X104890860Y-103812808D01*
X104892003Y-103716305D01*
X104892231Y-103645684D01*
X104891068Y-103509025D01*
X104886521Y-103405351D01*
X104877001Y-103328608D01*
X104860919Y-103272746D01*
X104836687Y-103231712D01*
X104802714Y-103199454D01*
X104769167Y-103176940D01*
X104688501Y-103146976D01*
X104594619Y-103140218D01*
X104506193Y-103157282D01*
G37*
X104506193Y-103157282D02*
X104482839Y-103167488D01*
X104427098Y-103211634D01*
X104379431Y-103275467D01*
X104349952Y-103343587D01*
X104345154Y-103377170D01*
X104361240Y-103424056D01*
X104396525Y-103448865D01*
X104434356Y-103463887D01*
X104451679Y-103466655D01*
X104460114Y-103446566D01*
X104476770Y-103402851D01*
X104484077Y-103383098D01*
X104525052Y-103314771D01*
X104584378Y-103280691D01*
X104660448Y-103281739D01*
X104666082Y-103283081D01*
X104706695Y-103302336D01*
X104736552Y-103339875D01*
X104756945Y-103400309D01*
X104769164Y-103488251D01*
X104774500Y-103608313D01*
X104775000Y-103672198D01*
X104775248Y-103772903D01*
X104776874Y-103841554D01*
X104781199Y-103885173D01*
X104789546Y-103910782D01*
X104803235Y-103925403D01*
X104823589Y-103936058D01*
X104824766Y-103936595D01*
X104863962Y-103953167D01*
X104883381Y-103959269D01*
X104886365Y-103940819D01*
X104888919Y-103889823D01*
X104890860Y-103812808D01*
X104892003Y-103716305D01*
X104892231Y-103645684D01*
X104891068Y-103509025D01*
X104886521Y-103405351D01*
X104877001Y-103328608D01*
X104860919Y-103272746D01*
X104836687Y-103231712D01*
X104802714Y-103199454D01*
X104769167Y-103176940D01*
X104688501Y-103146976D01*
X104594619Y-103140218D01*
X104506193Y-103157282D01*
G36*
X105189667Y-103154028D02*
G01*
X105133410Y-103179617D01*
X105089253Y-103210624D01*
X105056899Y-103245295D01*
X105034562Y-103290020D01*
X105020454Y-103351192D01*
X105012789Y-103435201D01*
X105009780Y-103548440D01*
X105009462Y-103623009D01*
X105009462Y-103913920D01*
X105059227Y-103936595D01*
X105098424Y-103953167D01*
X105117843Y-103959269D01*
X105121558Y-103941110D01*
X105124505Y-103892148D01*
X105126309Y-103820653D01*
X105126692Y-103763885D01*
X105128339Y-103681871D01*
X105132778Y-103616809D01*
X105139260Y-103576967D01*
X105144410Y-103568500D01*
X105179023Y-103577146D01*
X105233360Y-103599323D01*
X105296278Y-103629386D01*
X105356632Y-103661692D01*
X105403279Y-103690598D01*
X105425074Y-103710461D01*
X105425161Y-103710675D01*
X105423286Y-103747435D01*
X105406475Y-103782526D01*
X105376961Y-103811028D01*
X105333884Y-103820561D01*
X105297068Y-103819450D01*
X105244926Y-103818633D01*
X105217556Y-103830849D01*
X105201118Y-103863124D01*
X105199045Y-103869210D01*
X105191919Y-103915239D01*
X105210976Y-103943187D01*
X105260647Y-103956507D01*
X105314303Y-103958970D01*
X105410858Y-103940710D01*
X105460841Y-103914631D01*
X105522571Y-103853368D01*
X105555310Y-103778170D01*
X105558247Y-103698711D01*
X105530576Y-103624667D01*
X105488953Y-103578269D01*
X105447396Y-103552293D01*
X105382078Y-103519407D01*
X105305962Y-103486057D01*
X105293274Y-103480961D01*
X105209667Y-103444065D01*
X105161470Y-103411546D01*
X105145970Y-103379218D01*
X105160450Y-103342894D01*
X105185308Y-103314500D01*
X105244061Y-103279539D01*
X105308707Y-103276917D01*
X105367992Y-103303858D01*
X105410661Y-103357588D01*
X105416261Y-103371450D01*
X105448867Y-103422436D01*
X105496470Y-103460287D01*
X105556539Y-103491350D01*
X105556539Y-103403268D01*
X105553003Y-103349451D01*
X105537844Y-103307034D01*
X105504232Y-103261779D01*
X105471965Y-103226920D01*
X105421791Y-103177562D01*
X105382807Y-103151047D01*
X105340936Y-103140411D01*
X105293540Y-103138654D01*
X105189667Y-103154028D01*
G37*
X105189667Y-103154028D02*
X105133410Y-103179617D01*
X105089253Y-103210624D01*
X105056899Y-103245295D01*
X105034562Y-103290020D01*
X105020454Y-103351192D01*
X105012789Y-103435201D01*
X105009780Y-103548440D01*
X105009462Y-103623009D01*
X105009462Y-103913920D01*
X105059227Y-103936595D01*
X105098424Y-103953167D01*
X105117843Y-103959269D01*
X105121558Y-103941110D01*
X105124505Y-103892148D01*
X105126309Y-103820653D01*
X105126692Y-103763885D01*
X105128339Y-103681871D01*
X105132778Y-103616809D01*
X105139260Y-103576967D01*
X105144410Y-103568500D01*
X105179023Y-103577146D01*
X105233360Y-103599323D01*
X105296278Y-103629386D01*
X105356632Y-103661692D01*
X105403279Y-103690598D01*
X105425074Y-103710461D01*
X105425161Y-103710675D01*
X105423286Y-103747435D01*
X105406475Y-103782526D01*
X105376961Y-103811028D01*
X105333884Y-103820561D01*
X105297068Y-103819450D01*
X105244926Y-103818633D01*
X105217556Y-103830849D01*
X105201118Y-103863124D01*
X105199045Y-103869210D01*
X105191919Y-103915239D01*
X105210976Y-103943187D01*
X105260647Y-103956507D01*
X105314303Y-103958970D01*
X105410858Y-103940710D01*
X105460841Y-103914631D01*
X105522571Y-103853368D01*
X105555310Y-103778170D01*
X105558247Y-103698711D01*
X105530576Y-103624667D01*
X105488953Y-103578269D01*
X105447396Y-103552293D01*
X105382078Y-103519407D01*
X105305962Y-103486057D01*
X105293274Y-103480961D01*
X105209667Y-103444065D01*
X105161470Y-103411546D01*
X105145970Y-103379218D01*
X105160450Y-103342894D01*
X105185308Y-103314500D01*
X105244061Y-103279539D01*
X105308707Y-103276917D01*
X105367992Y-103303858D01*
X105410661Y-103357588D01*
X105416261Y-103371450D01*
X105448867Y-103422436D01*
X105496470Y-103460287D01*
X105556539Y-103491350D01*
X105556539Y-103403268D01*
X105553003Y-103349451D01*
X105537844Y-103307034D01*
X105504232Y-103261779D01*
X105471965Y-103226920D01*
X105421791Y-103177562D01*
X105382807Y-103151047D01*
X105340936Y-103140411D01*
X105293540Y-103138654D01*
X105189667Y-103154028D01*
G36*
X105681071Y-103157162D02*
G01*
X105678089Y-103208568D01*
X105675753Y-103286692D01*
X105674251Y-103385357D01*
X105673769Y-103488843D01*
X105673769Y-103839033D01*
X105735599Y-103900863D01*
X105778207Y-103938962D01*
X105815610Y-103954395D01*
X105866730Y-103953418D01*
X105887022Y-103950933D01*
X105950446Y-103943700D01*
X106002905Y-103939555D01*
X106015692Y-103939172D01*
X106058801Y-103941676D01*
X106120456Y-103947962D01*
X106144362Y-103950933D01*
X106203078Y-103955528D01*
X106242536Y-103945546D01*
X106281662Y-103914728D01*
X106295785Y-103900863D01*
X106357615Y-103839033D01*
X106357615Y-103184003D01*
X106307850Y-103161329D01*
X106264998Y-103144534D01*
X106239927Y-103138654D01*
X106233499Y-103157236D01*
X106227491Y-103209155D01*
X106222303Y-103288672D01*
X106218336Y-103390046D01*
X106216423Y-103475692D01*
X106211077Y-103812731D01*
X106164440Y-103819325D01*
X106122024Y-103814714D01*
X106101240Y-103799787D01*
X106095430Y-103771877D01*
X106090470Y-103712425D01*
X106086754Y-103628966D01*
X106084676Y-103529032D01*
X106084376Y-103477604D01*
X106084077Y-103181554D01*
X106022546Y-103160104D01*
X105978996Y-103145520D01*
X105955306Y-103138719D01*
X105954623Y-103138654D01*
X105952246Y-103157142D01*
X105949634Y-103208406D01*
X105947005Y-103286149D01*
X105944579Y-103384074D01*
X105942885Y-103475692D01*
X105937539Y-103812731D01*
X105820308Y-103812731D01*
X105814928Y-103505246D01*
X105809549Y-103197761D01*
X105752399Y-103168207D01*
X105710203Y-103147913D01*
X105685230Y-103138704D01*
X105684509Y-103138654D01*
X105681071Y-103157162D01*
G37*
X105681071Y-103157162D02*
X105678089Y-103208568D01*
X105675753Y-103286692D01*
X105674251Y-103385357D01*
X105673769Y-103488843D01*
X105673769Y-103839033D01*
X105735599Y-103900863D01*
X105778207Y-103938962D01*
X105815610Y-103954395D01*
X105866730Y-103953418D01*
X105887022Y-103950933D01*
X105950446Y-103943700D01*
X106002905Y-103939555D01*
X106015692Y-103939172D01*
X106058801Y-103941676D01*
X106120456Y-103947962D01*
X106144362Y-103950933D01*
X106203078Y-103955528D01*
X106242536Y-103945546D01*
X106281662Y-103914728D01*
X106295785Y-103900863D01*
X106357615Y-103839033D01*
X106357615Y-103184003D01*
X106307850Y-103161329D01*
X106264998Y-103144534D01*
X106239927Y-103138654D01*
X106233499Y-103157236D01*
X106227491Y-103209155D01*
X106222303Y-103288672D01*
X106218336Y-103390046D01*
X106216423Y-103475692D01*
X106211077Y-103812731D01*
X106164440Y-103819325D01*
X106122024Y-103814714D01*
X106101240Y-103799787D01*
X106095430Y-103771877D01*
X106090470Y-103712425D01*
X106086754Y-103628966D01*
X106084676Y-103529032D01*
X106084376Y-103477604D01*
X106084077Y-103181554D01*
X106022546Y-103160104D01*
X105978996Y-103145520D01*
X105955306Y-103138719D01*
X105954623Y-103138654D01*
X105952246Y-103157142D01*
X105949634Y-103208406D01*
X105947005Y-103286149D01*
X105944579Y-103384074D01*
X105942885Y-103475692D01*
X105937539Y-103812731D01*
X105820308Y-103812731D01*
X105814928Y-103505246D01*
X105809549Y-103197761D01*
X105752399Y-103168207D01*
X105710203Y-103147913D01*
X105685230Y-103138704D01*
X105684509Y-103138654D01*
X105681071Y-103157162D01*
G36*
X106474919Y-103300789D02*
G01*
X106475167Y-103446820D01*
X106476128Y-103559155D01*
X106478206Y-103643178D01*
X106481807Y-103704269D01*
X106487335Y-103747809D01*
X106495196Y-103779179D01*
X106505793Y-103803762D01*
X106513818Y-103817794D01*
X106580272Y-103893888D01*
X106664530Y-103941584D01*
X106757751Y-103958699D01*
X106851100Y-103943046D01*
X106906688Y-103914918D01*
X106965043Y-103866260D01*
X107004814Y-103806833D01*
X107028810Y-103729007D01*
X107039839Y-103625152D01*
X107041401Y-103548962D01*
X107041191Y-103543486D01*
X106904692Y-103543486D01*
X106903859Y-103630855D01*
X106900039Y-103688692D01*
X106891254Y-103726529D01*
X106875526Y-103753898D01*
X106856734Y-103774542D01*
X106793625Y-103814390D01*
X106725863Y-103817795D01*
X106661821Y-103784525D01*
X106656836Y-103780017D01*
X106635561Y-103756567D01*
X106622221Y-103728666D01*
X106614999Y-103687141D01*
X106612077Y-103622816D01*
X106611615Y-103551700D01*
X106612617Y-103462358D01*
X106616762Y-103402758D01*
X106625764Y-103363589D01*
X106641333Y-103335540D01*
X106654098Y-103320644D01*
X106713400Y-103283075D01*
X106781699Y-103278557D01*
X106846890Y-103307253D01*
X106859472Y-103317906D01*
X106880889Y-103341563D01*
X106894256Y-103369751D01*
X106901434Y-103411745D01*
X106904281Y-103476819D01*
X106904692Y-103543486D01*
X107041191Y-103543486D01*
X107036678Y-103426265D01*
X107020638Y-103334077D01*
X106990472Y-103264769D01*
X106943371Y-103210711D01*
X106906688Y-103183005D01*
X106840010Y-103153072D01*
X106762728Y-103139178D01*
X106690890Y-103142897D01*
X106650692Y-103157900D01*
X106634918Y-103162170D01*
X106624450Y-103146250D01*
X106617144Y-103103589D01*
X106611615Y-103038606D01*
X106605563Y-102966232D01*
X106597156Y-102922687D01*
X106581859Y-102897787D01*
X106555136Y-102881345D01*
X106538346Y-102874064D01*
X106474846Y-102847463D01*
X106474919Y-103300789D01*
G37*
X106474919Y-103300789D02*
X106475167Y-103446820D01*
X106476128Y-103559155D01*
X106478206Y-103643178D01*
X106481807Y-103704269D01*
X106487335Y-103747809D01*
X106495196Y-103779179D01*
X106505793Y-103803762D01*
X106513818Y-103817794D01*
X106580272Y-103893888D01*
X106664530Y-103941584D01*
X106757751Y-103958699D01*
X106851100Y-103943046D01*
X106906688Y-103914918D01*
X106965043Y-103866260D01*
X107004814Y-103806833D01*
X107028810Y-103729007D01*
X107039839Y-103625152D01*
X107041401Y-103548962D01*
X107041191Y-103543486D01*
X106904692Y-103543486D01*
X106903859Y-103630855D01*
X106900039Y-103688692D01*
X106891254Y-103726529D01*
X106875526Y-103753898D01*
X106856734Y-103774542D01*
X106793625Y-103814390D01*
X106725863Y-103817795D01*
X106661821Y-103784525D01*
X106656836Y-103780017D01*
X106635561Y-103756567D01*
X106622221Y-103728666D01*
X106614999Y-103687141D01*
X106612077Y-103622816D01*
X106611615Y-103551700D01*
X106612617Y-103462358D01*
X106616762Y-103402758D01*
X106625764Y-103363589D01*
X106641333Y-103335540D01*
X106654098Y-103320644D01*
X106713400Y-103283075D01*
X106781699Y-103278557D01*
X106846890Y-103307253D01*
X106859472Y-103317906D01*
X106880889Y-103341563D01*
X106894256Y-103369751D01*
X106901434Y-103411745D01*
X106904281Y-103476819D01*
X106904692Y-103543486D01*
X107041191Y-103543486D01*
X107036678Y-103426265D01*
X107020638Y-103334077D01*
X106990472Y-103264769D01*
X106943371Y-103210711D01*
X106906688Y-103183005D01*
X106840010Y-103153072D01*
X106762728Y-103139178D01*
X106690890Y-103142897D01*
X106650692Y-103157900D01*
X106634918Y-103162170D01*
X106624450Y-103146250D01*
X106617144Y-103103589D01*
X106611615Y-103038606D01*
X106605563Y-102966232D01*
X106597156Y-102922687D01*
X106581859Y-102897787D01*
X106555136Y-102881345D01*
X106538346Y-102874064D01*
X106474846Y-102847463D01*
X106474919Y-103300789D01*
G36*
X107363638Y-103145170D02*
G01*
X107274883Y-103177921D01*
X107202978Y-103235850D01*
X107174856Y-103276628D01*
X107144198Y-103351454D01*
X107144835Y-103405558D01*
X107177013Y-103441946D01*
X107188919Y-103448133D01*
X107240325Y-103467425D01*
X107266578Y-103462482D01*
X107275470Y-103430087D01*
X107275923Y-103412192D01*
X107292203Y-103346359D01*
X107334635Y-103300307D01*
X107393612Y-103278064D01*
X107459525Y-103283661D01*
X107513105Y-103312729D01*
X107531202Y-103329310D01*
X107544029Y-103349425D01*
X107552694Y-103379832D01*
X107558304Y-103427288D01*
X107561965Y-103498550D01*
X107564785Y-103600375D01*
X107565516Y-103632615D01*
X107568180Y-103742910D01*
X107571208Y-103820536D01*
X107575750Y-103871896D01*
X107582954Y-103903390D01*
X107593967Y-103921420D01*
X107609940Y-103932388D01*
X107620166Y-103937233D01*
X107663594Y-103953801D01*
X107689158Y-103959269D01*
X107697605Y-103941007D01*
X107702761Y-103885796D01*
X107704654Y-103792999D01*
X107703311Y-103661978D01*
X107702893Y-103641769D01*
X107699942Y-103522233D01*
X107696452Y-103434949D01*
X107691486Y-103373091D01*
X107684107Y-103329836D01*
X107673376Y-103298360D01*
X107658355Y-103271839D01*
X107650498Y-103260475D01*
X107605447Y-103210192D01*
X107555060Y-103171081D01*
X107548892Y-103167667D01*
X107458542Y-103140712D01*
X107363638Y-103145170D01*
G37*
X107363638Y-103145170D02*
X107274883Y-103177921D01*
X107202978Y-103235850D01*
X107174856Y-103276628D01*
X107144198Y-103351454D01*
X107144835Y-103405558D01*
X107177013Y-103441946D01*
X107188919Y-103448133D01*
X107240325Y-103467425D01*
X107266578Y-103462482D01*
X107275470Y-103430087D01*
X107275923Y-103412192D01*
X107292203Y-103346359D01*
X107334635Y-103300307D01*
X107393612Y-103278064D01*
X107459525Y-103283661D01*
X107513105Y-103312729D01*
X107531202Y-103329310D01*
X107544029Y-103349425D01*
X107552694Y-103379832D01*
X107558304Y-103427288D01*
X107561965Y-103498550D01*
X107564785Y-103600375D01*
X107565516Y-103632615D01*
X107568180Y-103742910D01*
X107571208Y-103820536D01*
X107575750Y-103871896D01*
X107582954Y-103903390D01*
X107593967Y-103921420D01*
X107609940Y-103932388D01*
X107620166Y-103937233D01*
X107663594Y-103953801D01*
X107689158Y-103959269D01*
X107697605Y-103941007D01*
X107702761Y-103885796D01*
X107704654Y-103792999D01*
X107703311Y-103661978D01*
X107702893Y-103641769D01*
X107699942Y-103522233D01*
X107696452Y-103434949D01*
X107691486Y-103373091D01*
X107684107Y-103329836D01*
X107673376Y-103298360D01*
X107658355Y-103271839D01*
X107650498Y-103260475D01*
X107605447Y-103210192D01*
X107555060Y-103171081D01*
X107548892Y-103167667D01*
X107458542Y-103140712D01*
X107363638Y-103145170D01*
G36*
X108023499Y-103146803D02*
G01*
X107946940Y-103175233D01*
X107946064Y-103175779D01*
X107898715Y-103210627D01*
X107863759Y-103251352D01*
X107839175Y-103304425D01*
X107822938Y-103376314D01*
X107813025Y-103473492D01*
X107807414Y-103602428D01*
X107806923Y-103620798D01*
X107799859Y-103897787D01*
X107859305Y-103928528D01*
X107902319Y-103949302D01*
X107928290Y-103959146D01*
X107929491Y-103959269D01*
X107933986Y-103941106D01*
X107937556Y-103892112D01*
X107939752Y-103820531D01*
X107940231Y-103762568D01*
X107940242Y-103668670D01*
X107944534Y-103609703D01*
X107959497Y-103581579D01*
X107991518Y-103580206D01*
X108046986Y-103601498D01*
X108130731Y-103640636D01*
X108192311Y-103673143D01*
X108223983Y-103701345D01*
X108233294Y-103732082D01*
X108233308Y-103733604D01*
X108217943Y-103786554D01*
X108172453Y-103815160D01*
X108102834Y-103819303D01*
X108052687Y-103818584D01*
X108026246Y-103833027D01*
X108009757Y-103867718D01*
X108000267Y-103911916D01*
X108013943Y-103936993D01*
X108019093Y-103940582D01*
X108067575Y-103954996D01*
X108135469Y-103957037D01*
X108205388Y-103947483D01*
X108254932Y-103930022D01*
X108323430Y-103871864D01*
X108362366Y-103790908D01*
X108370077Y-103727660D01*
X108364193Y-103670611D01*
X108342899Y-103624042D01*
X108300735Y-103582681D01*
X108232241Y-103541255D01*
X108131956Y-103494493D01*
X108125846Y-103491850D01*
X108035510Y-103450117D01*
X107979765Y-103415891D01*
X107955871Y-103385135D01*
X107961087Y-103353811D01*
X107992672Y-103317883D01*
X108002117Y-103309616D01*
X108065383Y-103277558D01*
X108130936Y-103278907D01*
X108188028Y-103310338D01*
X108225907Y-103368524D01*
X108229426Y-103379946D01*
X108263700Y-103435337D01*
X108307191Y-103462018D01*
X108370077Y-103488460D01*
X108370077Y-103420048D01*
X108350948Y-103320610D01*
X108294169Y-103229402D01*
X108264622Y-103198889D01*
X108197458Y-103159728D01*
X108112044Y-103142000D01*
X108023499Y-103146803D01*
G37*
X108023499Y-103146803D02*
X107946940Y-103175233D01*
X107946064Y-103175779D01*
X107898715Y-103210627D01*
X107863759Y-103251352D01*
X107839175Y-103304425D01*
X107822938Y-103376314D01*
X107813025Y-103473492D01*
X107807414Y-103602428D01*
X107806923Y-103620798D01*
X107799859Y-103897787D01*
X107859305Y-103928528D01*
X107902319Y-103949302D01*
X107928290Y-103959146D01*
X107929491Y-103959269D01*
X107933986Y-103941106D01*
X107937556Y-103892112D01*
X107939752Y-103820531D01*
X107940231Y-103762568D01*
X107940242Y-103668670D01*
X107944534Y-103609703D01*
X107959497Y-103581579D01*
X107991518Y-103580206D01*
X108046986Y-103601498D01*
X108130731Y-103640636D01*
X108192311Y-103673143D01*
X108223983Y-103701345D01*
X108233294Y-103732082D01*
X108233308Y-103733604D01*
X108217943Y-103786554D01*
X108172453Y-103815160D01*
X108102834Y-103819303D01*
X108052687Y-103818584D01*
X108026246Y-103833027D01*
X108009757Y-103867718D01*
X108000267Y-103911916D01*
X108013943Y-103936993D01*
X108019093Y-103940582D01*
X108067575Y-103954996D01*
X108135469Y-103957037D01*
X108205388Y-103947483D01*
X108254932Y-103930022D01*
X108323430Y-103871864D01*
X108362366Y-103790908D01*
X108370077Y-103727660D01*
X108364193Y-103670611D01*
X108342899Y-103624042D01*
X108300735Y-103582681D01*
X108232241Y-103541255D01*
X108131956Y-103494493D01*
X108125846Y-103491850D01*
X108035510Y-103450117D01*
X107979765Y-103415891D01*
X107955871Y-103385135D01*
X107961087Y-103353811D01*
X107992672Y-103317883D01*
X108002117Y-103309616D01*
X108065383Y-103277558D01*
X108130936Y-103278907D01*
X108188028Y-103310338D01*
X108225907Y-103368524D01*
X108229426Y-103379946D01*
X108263700Y-103435337D01*
X108307191Y-103462018D01*
X108370077Y-103488460D01*
X108370077Y-103420048D01*
X108350948Y-103320610D01*
X108294169Y-103229402D01*
X108264622Y-103198889D01*
X108197458Y-103159728D01*
X108112044Y-103142000D01*
X108023499Y-103146803D01*
G36*
X108917154Y-103012620D02*
G01*
X108911428Y-103092480D01*
X108904851Y-103139539D01*
X108895738Y-103160066D01*
X108882402Y-103160329D01*
X108878077Y-103157878D01*
X108820556Y-103140136D01*
X108745732Y-103141172D01*
X108669661Y-103159410D01*
X108622082Y-103183005D01*
X108573298Y-103220698D01*
X108537636Y-103263355D01*
X108513155Y-103317557D01*
X108497913Y-103389884D01*
X108489970Y-103486919D01*
X108487384Y-103615242D01*
X108487338Y-103639858D01*
X108487308Y-103916370D01*
X108548839Y-103937820D01*
X108592541Y-103952412D01*
X108616518Y-103959206D01*
X108617223Y-103959269D01*
X108619585Y-103940845D01*
X108621594Y-103890026D01*
X108623099Y-103813493D01*
X108623947Y-103717930D01*
X108624077Y-103659829D01*
X108624349Y-103545271D01*
X108625748Y-103463167D01*
X108629151Y-103406893D01*
X108635433Y-103369826D01*
X108645471Y-103345344D01*
X108660139Y-103326825D01*
X108669298Y-103317906D01*
X108732211Y-103281966D01*
X108800864Y-103279275D01*
X108863152Y-103309670D01*
X108874671Y-103320644D01*
X108891567Y-103341279D01*
X108903286Y-103365756D01*
X108910767Y-103401147D01*
X108914946Y-103454526D01*
X108916763Y-103532966D01*
X108917154Y-103641117D01*
X108917154Y-103916370D01*
X108978685Y-103937820D01*
X109022387Y-103952412D01*
X109046364Y-103959206D01*
X109047070Y-103959269D01*
X109048874Y-103940569D01*
X109050500Y-103887822D01*
X109051883Y-103806057D01*
X109052958Y-103700305D01*
X109053660Y-103575594D01*
X109053923Y-103436955D01*
X109053923Y-102902306D01*
X108926923Y-102848736D01*
X108917154Y-103012620D01*
G37*
X108917154Y-103012620D02*
X108911428Y-103092480D01*
X108904851Y-103139539D01*
X108895738Y-103160066D01*
X108882402Y-103160329D01*
X108878077Y-103157878D01*
X108820556Y-103140136D01*
X108745732Y-103141172D01*
X108669661Y-103159410D01*
X108622082Y-103183005D01*
X108573298Y-103220698D01*
X108537636Y-103263355D01*
X108513155Y-103317557D01*
X108497913Y-103389884D01*
X108489970Y-103486919D01*
X108487384Y-103615242D01*
X108487338Y-103639858D01*
X108487308Y-103916370D01*
X108548839Y-103937820D01*
X108592541Y-103952412D01*
X108616518Y-103959206D01*
X108617223Y-103959269D01*
X108619585Y-103940845D01*
X108621594Y-103890026D01*
X108623099Y-103813493D01*
X108623947Y-103717930D01*
X108624077Y-103659829D01*
X108624349Y-103545271D01*
X108625748Y-103463167D01*
X108629151Y-103406893D01*
X108635433Y-103369826D01*
X108645471Y-103345344D01*
X108660139Y-103326825D01*
X108669298Y-103317906D01*
X108732211Y-103281966D01*
X108800864Y-103279275D01*
X108863152Y-103309670D01*
X108874671Y-103320644D01*
X108891567Y-103341279D01*
X108903286Y-103365756D01*
X108910767Y-103401147D01*
X108914946Y-103454526D01*
X108916763Y-103532966D01*
X108917154Y-103641117D01*
X108917154Y-103916370D01*
X108978685Y-103937820D01*
X109022387Y-103952412D01*
X109046364Y-103959206D01*
X109047070Y-103959269D01*
X109048874Y-103940569D01*
X109050500Y-103887822D01*
X109051883Y-103806057D01*
X109052958Y-103700305D01*
X109053660Y-103575594D01*
X109053923Y-103436955D01*
X109053923Y-102902306D01*
X108926923Y-102848736D01*
X108917154Y-103012620D01*
G36*
X110542746Y-103120245D02*
G01*
X110465714Y-103172067D01*
X110406184Y-103246912D01*
X110370622Y-103342154D01*
X110363429Y-103412256D01*
X110364246Y-103441509D01*
X110371086Y-103463907D01*
X110389888Y-103483974D01*
X110426592Y-103506233D01*
X110487138Y-103535209D01*
X110577466Y-103575427D01*
X110577923Y-103575629D01*
X110661067Y-103613710D01*
X110729247Y-103647525D01*
X110775495Y-103673433D01*
X110792842Y-103687795D01*
X110792846Y-103687911D01*
X110777557Y-103719185D01*
X110741804Y-103753657D01*
X110700758Y-103778490D01*
X110679963Y-103783423D01*
X110623230Y-103766362D01*
X110574373Y-103723633D01*
X110550535Y-103676655D01*
X110527603Y-103642022D01*
X110482682Y-103602581D01*
X110429877Y-103568509D01*
X110383290Y-103549980D01*
X110373548Y-103548962D01*
X110362582Y-103565715D01*
X110361921Y-103608539D01*
X110369980Y-103666281D01*
X110385173Y-103727789D01*
X110405914Y-103781909D01*
X110406962Y-103784010D01*
X110469379Y-103871160D01*
X110550274Y-103930439D01*
X110642144Y-103959534D01*
X110737487Y-103956134D01*
X110828802Y-103917928D01*
X110832862Y-103915241D01*
X110904694Y-103850142D01*
X110951927Y-103765205D01*
X110978066Y-103653521D01*
X110981574Y-103622143D01*
X110987787Y-103474036D01*
X110980339Y-103404968D01*
X110792846Y-103404968D01*
X110790410Y-103448052D01*
X110777086Y-103460626D01*
X110743868Y-103451219D01*
X110691506Y-103428983D01*
X110632976Y-103401110D01*
X110631521Y-103400372D01*
X110581911Y-103374277D01*
X110562000Y-103356863D01*
X110566910Y-103338607D01*
X110587584Y-103314620D01*
X110640181Y-103279906D01*
X110696823Y-103277356D01*
X110747631Y-103302619D01*
X110782724Y-103351347D01*
X110792846Y-103404968D01*
X110980339Y-103404968D01*
X110975008Y-103355536D01*
X110942222Y-103261555D01*
X110896579Y-103195715D01*
X110814198Y-103129181D01*
X110723454Y-103096176D01*
X110630815Y-103094073D01*
X110542746Y-103120245D01*
G37*
X110542746Y-103120245D02*
X110465714Y-103172067D01*
X110406184Y-103246912D01*
X110370622Y-103342154D01*
X110363429Y-103412256D01*
X110364246Y-103441509D01*
X110371086Y-103463907D01*
X110389888Y-103483974D01*
X110426592Y-103506233D01*
X110487138Y-103535209D01*
X110577466Y-103575427D01*
X110577923Y-103575629D01*
X110661067Y-103613710D01*
X110729247Y-103647525D01*
X110775495Y-103673433D01*
X110792842Y-103687795D01*
X110792846Y-103687911D01*
X110777557Y-103719185D01*
X110741804Y-103753657D01*
X110700758Y-103778490D01*
X110679963Y-103783423D01*
X110623230Y-103766362D01*
X110574373Y-103723633D01*
X110550535Y-103676655D01*
X110527603Y-103642022D01*
X110482682Y-103602581D01*
X110429877Y-103568509D01*
X110383290Y-103549980D01*
X110373548Y-103548962D01*
X110362582Y-103565715D01*
X110361921Y-103608539D01*
X110369980Y-103666281D01*
X110385173Y-103727789D01*
X110405914Y-103781909D01*
X110406962Y-103784010D01*
X110469379Y-103871160D01*
X110550274Y-103930439D01*
X110642144Y-103959534D01*
X110737487Y-103956134D01*
X110828802Y-103917928D01*
X110832862Y-103915241D01*
X110904694Y-103850142D01*
X110951927Y-103765205D01*
X110978066Y-103653521D01*
X110981574Y-103622143D01*
X110987787Y-103474036D01*
X110980339Y-103404968D01*
X110792846Y-103404968D01*
X110790410Y-103448052D01*
X110777086Y-103460626D01*
X110743868Y-103451219D01*
X110691506Y-103428983D01*
X110632976Y-103401110D01*
X110631521Y-103400372D01*
X110581911Y-103374277D01*
X110562000Y-103356863D01*
X110566910Y-103338607D01*
X110587584Y-103314620D01*
X110640181Y-103279906D01*
X110696823Y-103277356D01*
X110747631Y-103302619D01*
X110782724Y-103351347D01*
X110792846Y-103404968D01*
X110980339Y-103404968D01*
X110975008Y-103355536D01*
X110942222Y-103261555D01*
X110896579Y-103195715D01*
X110814198Y-103129181D01*
X110723454Y-103096176D01*
X110630815Y-103094073D01*
X110542746Y-103120245D01*
G36*
X112060114Y-103107756D02*
G01*
X111968536Y-103155909D01*
X111900951Y-103233405D01*
X111876943Y-103283227D01*
X111858262Y-103358033D01*
X111848699Y-103452552D01*
X111847792Y-103555710D01*
X111855079Y-103656435D01*
X111870097Y-103743653D01*
X111892385Y-103806291D01*
X111899235Y-103817079D01*
X111980368Y-103897605D01*
X112076734Y-103945836D01*
X112181299Y-103959950D01*
X112287032Y-103938129D01*
X112316457Y-103925047D01*
X112373759Y-103884731D01*
X112424050Y-103831275D01*
X112428803Y-103824495D01*
X112448122Y-103791821D01*
X112460892Y-103756894D01*
X112468436Y-103710914D01*
X112472076Y-103645084D01*
X112473135Y-103550605D01*
X112473154Y-103529423D01*
X112473106Y-103522682D01*
X112277769Y-103522682D01*
X112276632Y-103611849D01*
X112272159Y-103671020D01*
X112262754Y-103709241D01*
X112246824Y-103735553D01*
X112238692Y-103744346D01*
X112191942Y-103777761D01*
X112146553Y-103776237D01*
X112100660Y-103747252D01*
X112073288Y-103716309D01*
X112057077Y-103671143D01*
X112047974Y-103599920D01*
X112047349Y-103591614D01*
X112045796Y-103462537D01*
X112062035Y-103366672D01*
X112095848Y-103304607D01*
X112147016Y-103276932D01*
X112165280Y-103275423D01*
X112213240Y-103283013D01*
X112246047Y-103309308D01*
X112266105Y-103359595D01*
X112275822Y-103439164D01*
X112277769Y-103522682D01*
X112473106Y-103522682D01*
X112472426Y-103428749D01*
X112469371Y-103358406D01*
X112462678Y-103309663D01*
X112451040Y-103273788D01*
X112433147Y-103242048D01*
X112429192Y-103236148D01*
X112362733Y-103156604D01*
X112290315Y-103110429D01*
X112202151Y-103092099D01*
X112172213Y-103091203D01*
X112060114Y-103107756D01*
G37*
X112060114Y-103107756D02*
X111968536Y-103155909D01*
X111900951Y-103233405D01*
X111876943Y-103283227D01*
X111858262Y-103358033D01*
X111848699Y-103452552D01*
X111847792Y-103555710D01*
X111855079Y-103656435D01*
X111870097Y-103743653D01*
X111892385Y-103806291D01*
X111899235Y-103817079D01*
X111980368Y-103897605D01*
X112076734Y-103945836D01*
X112181299Y-103959950D01*
X112287032Y-103938129D01*
X112316457Y-103925047D01*
X112373759Y-103884731D01*
X112424050Y-103831275D01*
X112428803Y-103824495D01*
X112448122Y-103791821D01*
X112460892Y-103756894D01*
X112468436Y-103710914D01*
X112472076Y-103645084D01*
X112473135Y-103550605D01*
X112473154Y-103529423D01*
X112473106Y-103522682D01*
X112277769Y-103522682D01*
X112276632Y-103611849D01*
X112272159Y-103671020D01*
X112262754Y-103709241D01*
X112246824Y-103735553D01*
X112238692Y-103744346D01*
X112191942Y-103777761D01*
X112146553Y-103776237D01*
X112100660Y-103747252D01*
X112073288Y-103716309D01*
X112057077Y-103671143D01*
X112047974Y-103599920D01*
X112047349Y-103591614D01*
X112045796Y-103462537D01*
X112062035Y-103366672D01*
X112095848Y-103304607D01*
X112147016Y-103276932D01*
X112165280Y-103275423D01*
X112213240Y-103283013D01*
X112246047Y-103309308D01*
X112266105Y-103359595D01*
X112275822Y-103439164D01*
X112277769Y-103522682D01*
X112473106Y-103522682D01*
X112472426Y-103428749D01*
X112469371Y-103358406D01*
X112462678Y-103309663D01*
X112451040Y-103273788D01*
X112433147Y-103242048D01*
X112429192Y-103236148D01*
X112362733Y-103156604D01*
X112290315Y-103110429D01*
X112202151Y-103092099D01*
X112172213Y-103091203D01*
X112060114Y-103107756D01*
G36*
X109805336Y-103115589D02*
G01*
X109742633Y-103151858D01*
X109699039Y-103187858D01*
X109667155Y-103225575D01*
X109645190Y-103271699D01*
X109631351Y-103332921D01*
X109623847Y-103415931D01*
X109620883Y-103527419D01*
X109620539Y-103607562D01*
X109620539Y-103902565D01*
X109786615Y-103977015D01*
X109796385Y-103653902D01*
X109800421Y-103533229D01*
X109804656Y-103445641D01*
X109809903Y-103385150D01*
X109816975Y-103345768D01*
X109826689Y-103321507D01*
X109839856Y-103306380D01*
X109844081Y-103303106D01*
X109908091Y-103277534D01*
X109972792Y-103287653D01*
X110011308Y-103314500D01*
X110026975Y-103333524D01*
X110037820Y-103358488D01*
X110044712Y-103396334D01*
X110048521Y-103454002D01*
X110050117Y-103538435D01*
X110050385Y-103626428D01*
X110050437Y-103736823D01*
X110052328Y-103814963D01*
X110058655Y-103867665D01*
X110072017Y-103901742D01*
X110095015Y-103924011D01*
X110130246Y-103941287D01*
X110177303Y-103959238D01*
X110228697Y-103978778D01*
X110222579Y-103631985D01*
X110220116Y-103506968D01*
X110217233Y-103414582D01*
X110213102Y-103348381D01*
X110206893Y-103301920D01*
X110197774Y-103268756D01*
X110184917Y-103242444D01*
X110169416Y-103219229D01*
X110094629Y-103145069D01*
X110003372Y-103102184D01*
X109904117Y-103091912D01*
X109805336Y-103115589D01*
G37*
X109805336Y-103115589D02*
X109742633Y-103151858D01*
X109699039Y-103187858D01*
X109667155Y-103225575D01*
X109645190Y-103271699D01*
X109631351Y-103332921D01*
X109623847Y-103415931D01*
X109620883Y-103527419D01*
X109620539Y-103607562D01*
X109620539Y-103902565D01*
X109786615Y-103977015D01*
X109796385Y-103653902D01*
X109800421Y-103533229D01*
X109804656Y-103445641D01*
X109809903Y-103385150D01*
X109816975Y-103345768D01*
X109826689Y-103321507D01*
X109839856Y-103306380D01*
X109844081Y-103303106D01*
X109908091Y-103277534D01*
X109972792Y-103287653D01*
X110011308Y-103314500D01*
X110026975Y-103333524D01*
X110037820Y-103358488D01*
X110044712Y-103396334D01*
X110048521Y-103454002D01*
X110050117Y-103538435D01*
X110050385Y-103626428D01*
X110050437Y-103736823D01*
X110052328Y-103814963D01*
X110058655Y-103867665D01*
X110072017Y-103901742D01*
X110095015Y-103924011D01*
X110130246Y-103941287D01*
X110177303Y-103959238D01*
X110228697Y-103978778D01*
X110222579Y-103631985D01*
X110220116Y-103506968D01*
X110217233Y-103414582D01*
X110213102Y-103348381D01*
X110206893Y-103301920D01*
X110197774Y-103268756D01*
X110184917Y-103242444D01*
X110169416Y-103219229D01*
X110094629Y-103145069D01*
X110003372Y-103102184D01*
X109904117Y-103091912D01*
X109805336Y-103115589D01*
G36*
X111308114Y-103105005D02*
G01*
X111233461Y-103142227D01*
X111167569Y-103210761D01*
X111149423Y-103236148D01*
X111129655Y-103269366D01*
X111116828Y-103305445D01*
X111109490Y-103353598D01*
X111106187Y-103423036D01*
X111105462Y-103514706D01*
X111108737Y-103640330D01*
X111120123Y-103734654D01*
X111141959Y-103805023D01*
X111176581Y-103858786D01*
X111226330Y-103903288D01*
X111229986Y-103905923D01*
X111279015Y-103932877D01*
X111338055Y-103946212D01*
X111413141Y-103949500D01*
X111535205Y-103949500D01*
X111535256Y-104067997D01*
X111536392Y-104133992D01*
X111543314Y-104172702D01*
X111561402Y-104195919D01*
X111596038Y-104215433D01*
X111604355Y-104219420D01*
X111643280Y-104238103D01*
X111673417Y-104249903D01*
X111695826Y-104250922D01*
X111711567Y-104237261D01*
X111721698Y-104205022D01*
X111727277Y-104150304D01*
X111729365Y-104069211D01*
X111729019Y-103957844D01*
X111727300Y-103812302D01*
X111726763Y-103768769D01*
X111724828Y-103618705D01*
X111723096Y-103520542D01*
X111535308Y-103520542D01*
X111534252Y-103603864D01*
X111529562Y-103658380D01*
X111518949Y-103694337D01*
X111500128Y-103721982D01*
X111487350Y-103735465D01*
X111435110Y-103774917D01*
X111388858Y-103778128D01*
X111341133Y-103745549D01*
X111339923Y-103744346D01*
X111320506Y-103719168D01*
X111308693Y-103684947D01*
X111302735Y-103632248D01*
X111300880Y-103551631D01*
X111300846Y-103533771D01*
X111305330Y-103422675D01*
X111319926Y-103345661D01*
X111346350Y-103298647D01*
X111386317Y-103277550D01*
X111409416Y-103275423D01*
X111464238Y-103285400D01*
X111501842Y-103318252D01*
X111524477Y-103378357D01*
X111534394Y-103470098D01*
X111535308Y-103520542D01*
X111723096Y-103520542D01*
X111722778Y-103502560D01*
X111720127Y-103415179D01*
X111716394Y-103351405D01*
X111711093Y-103306082D01*
X111703742Y-103274055D01*
X111693857Y-103250168D01*
X111680954Y-103229264D01*
X111675421Y-103221398D01*
X111602031Y-103147095D01*
X111509240Y-103104967D01*
X111401904Y-103093222D01*
X111308114Y-103105005D01*
G37*
X111308114Y-103105005D02*
X111233461Y-103142227D01*
X111167569Y-103210761D01*
X111149423Y-103236148D01*
X111129655Y-103269366D01*
X111116828Y-103305445D01*
X111109490Y-103353598D01*
X111106187Y-103423036D01*
X111105462Y-103514706D01*
X111108737Y-103640330D01*
X111120123Y-103734654D01*
X111141959Y-103805023D01*
X111176581Y-103858786D01*
X111226330Y-103903288D01*
X111229986Y-103905923D01*
X111279015Y-103932877D01*
X111338055Y-103946212D01*
X111413141Y-103949500D01*
X111535205Y-103949500D01*
X111535256Y-104067997D01*
X111536392Y-104133992D01*
X111543314Y-104172702D01*
X111561402Y-104195919D01*
X111596038Y-104215433D01*
X111604355Y-104219420D01*
X111643280Y-104238103D01*
X111673417Y-104249903D01*
X111695826Y-104250922D01*
X111711567Y-104237261D01*
X111721698Y-104205022D01*
X111727277Y-104150304D01*
X111729365Y-104069211D01*
X111729019Y-103957844D01*
X111727300Y-103812302D01*
X111726763Y-103768769D01*
X111724828Y-103618705D01*
X111723096Y-103520542D01*
X111535308Y-103520542D01*
X111534252Y-103603864D01*
X111529562Y-103658380D01*
X111518949Y-103694337D01*
X111500128Y-103721982D01*
X111487350Y-103735465D01*
X111435110Y-103774917D01*
X111388858Y-103778128D01*
X111341133Y-103745549D01*
X111339923Y-103744346D01*
X111320506Y-103719168D01*
X111308693Y-103684947D01*
X111302735Y-103632248D01*
X111300880Y-103551631D01*
X111300846Y-103533771D01*
X111305330Y-103422675D01*
X111319926Y-103345661D01*
X111346350Y-103298647D01*
X111386317Y-103277550D01*
X111409416Y-103275423D01*
X111464238Y-103285400D01*
X111501842Y-103318252D01*
X111524477Y-103378357D01*
X111534394Y-103470098D01*
X111535308Y-103520542D01*
X111723096Y-103520542D01*
X111722778Y-103502560D01*
X111720127Y-103415179D01*
X111716394Y-103351405D01*
X111711093Y-103306082D01*
X111703742Y-103274055D01*
X111693857Y-103250168D01*
X111680954Y-103229264D01*
X111675421Y-103221398D01*
X111602031Y-103147095D01*
X111509240Y-103104967D01*
X111401904Y-103093222D01*
X111308114Y-103105005D01*
D12*
%TO.C,U1*%
X185686700Y-107010200D02*
X185440839Y-107010200D01*
X178422300Y-107010200D02*
X178422300Y-106764339D01*
X178422300Y-99745800D02*
X178668161Y-99745800D01*
X185686700Y-99745800D02*
X185686700Y-99991661D01*
X185686700Y-106764339D02*
X185686700Y-107010200D01*
X178668161Y-107010200D02*
X178422300Y-107010200D01*
X178422300Y-99991661D02*
X178422300Y-99745800D01*
X185440839Y-99745800D02*
X185686700Y-99745800D01*
X184245001Y-108477799D02*
X184245001Y-108731799D01*
X184245001Y-108731799D02*
X183864001Y-108731799D01*
X183864001Y-108731799D02*
X183864001Y-108477799D01*
X183864001Y-108477799D02*
X184245001Y-108477799D01*
X176700701Y-103587499D02*
X176700701Y-103968499D01*
X176700701Y-103968499D02*
X176954701Y-103968499D01*
X176954701Y-103968499D02*
X176954701Y-103587499D01*
X176954701Y-103587499D02*
X176700701Y-103587499D01*
X183445000Y-98278201D02*
X183445000Y-98024201D01*
X183445000Y-98024201D02*
X183064000Y-98024201D01*
X183064000Y-98024201D02*
X183064000Y-98278201D01*
X183064000Y-98278201D02*
X183445000Y-98278201D01*
D13*
%TO.C,U2*%
X81152500Y-84821000D02*
X81152500Y-83581000D01*
X85852500Y-84821000D02*
X85852500Y-83581000D01*
X85852500Y-82251000D02*
X85852500Y-81901000D01*
X85852500Y-81901000D02*
X81152500Y-81901000D01*
X81152500Y-81901000D02*
X81152500Y-82251000D01*
X85852500Y-82251000D02*
X87102500Y-82251000D01*
X85852500Y-86151000D02*
X85852500Y-86501000D01*
X85852500Y-86501000D02*
X81152500Y-86501000D01*
X81152500Y-86501000D02*
X81152500Y-86151000D01*
D14*
%TO.C,U3*%
X101281500Y-78003500D02*
X101281500Y-79603500D01*
X97981500Y-78003500D02*
X97981500Y-79603500D01*
X100031500Y-77753500D02*
X99231500Y-77753500D01*
D15*
%TO.C,D21*%
G36*
X192341500Y-103555800D02*
G01*
X192595500Y-103873300D01*
X192087500Y-103873300D01*
X192341500Y-103555800D01*
G37*
G36*
X192722500Y-103555800D02*
G01*
X191960500Y-103555800D01*
X191960500Y-103428800D01*
X192722500Y-103428800D01*
X192722500Y-103555800D01*
G37*
%TO.C,D20*%
G36*
X161545500Y-81469000D02*
G01*
X161545500Y-81669000D01*
X160145500Y-81669000D01*
X160145500Y-81469000D01*
X161545500Y-81469000D01*
G37*
D16*
X161670500Y-80819000D02*
X160020500Y-80819000D01*
X161670500Y-83519000D02*
X161670500Y-80819000D01*
X160020500Y-83519000D02*
X161670500Y-83519000D01*
X160020500Y-80819000D02*
X160020500Y-83519000D01*
D12*
X161245500Y-82669000D02*
X160845500Y-81669000D01*
X160445500Y-82669000D02*
X161245500Y-82669000D01*
X160845500Y-81669000D02*
X160445500Y-82669000D01*
D17*
%TO.C,C1*%
X89090500Y-78613000D02*
X88074500Y-78613000D01*
%TO.C,C2*%
X90741500Y-78613000D02*
X91757500Y-78613000D01*
%TO.C,C3*%
X94723000Y-81978500D02*
X95523000Y-81978500D01*
D13*
%TO.C,J1*%
X161544000Y-104902000D02*
X161544000Y-103632000D01*
X160274000Y-104902000D02*
X161544000Y-104902000D01*
X152274000Y-102589071D02*
X152274000Y-102192000D01*
X153034000Y-102589071D02*
X153034000Y-102192000D01*
X152274000Y-93532000D02*
X152274000Y-99532000D01*
X153034000Y-93532000D02*
X152274000Y-93532000D01*
X153034000Y-99532000D02*
X153034000Y-93532000D01*
X153924000Y-102192000D02*
X153924000Y-99532000D01*
X154814000Y-102589071D02*
X154814000Y-102192000D01*
X155574000Y-102589071D02*
X155574000Y-102192000D01*
X154814000Y-93532000D02*
X154814000Y-99532000D01*
X155574000Y-93532000D02*
X154814000Y-93532000D01*
X155574000Y-99532000D02*
X155574000Y-93532000D01*
X156464000Y-102192000D02*
X156464000Y-99532000D01*
X157354000Y-102589071D02*
X157354000Y-102192000D01*
X158114000Y-102589071D02*
X158114000Y-102192000D01*
X157354000Y-93532000D02*
X157354000Y-99532000D01*
X158114000Y-93532000D02*
X157354000Y-93532000D01*
X158114000Y-99532000D02*
X158114000Y-93532000D01*
X159004000Y-102192000D02*
X159004000Y-99532000D01*
X159894000Y-102522000D02*
X159894000Y-102192000D01*
X160654000Y-102522000D02*
X160654000Y-102192000D01*
X159994000Y-99532000D02*
X159994000Y-93532000D01*
X160114000Y-99532000D02*
X160114000Y-93532000D01*
X160234000Y-99532000D02*
X160234000Y-93532000D01*
X160354000Y-99532000D02*
X160354000Y-93532000D01*
X160474000Y-99532000D02*
X160474000Y-93532000D01*
X160594000Y-99532000D02*
X160594000Y-93532000D01*
X159894000Y-93532000D02*
X159894000Y-99532000D01*
X160654000Y-93532000D02*
X159894000Y-93532000D01*
X160654000Y-99532000D02*
X160654000Y-93532000D01*
X161604000Y-99532000D02*
X161604000Y-102192000D01*
X151324000Y-99532000D02*
X161604000Y-99532000D01*
X151324000Y-102192000D02*
X151324000Y-99532000D01*
X161604000Y-102192000D02*
X151324000Y-102192000D01*
D17*
%TO.C,R1*%
X94723000Y-78002500D02*
X95523000Y-78002500D01*
%TO.C,R2*%
X83502500Y-87865000D02*
X83502500Y-88665000D01*
D14*
%TO.C,SW20*%
X188339600Y-94039000D02*
X188339600Y-98239000D01*
X191390400Y-98239000D02*
X191390400Y-94039000D01*
D18*
%TO.C,J2*%
X136451500Y-100903000D02*
X136451500Y-100833000D01*
X136451500Y-100833000D02*
X128851500Y-100833000D01*
X128851500Y-100833000D02*
X128851500Y-100903000D01*
X135851500Y-103383000D02*
X134051500Y-103383000D01*
X131251500Y-103383000D02*
X129451500Y-103383000D01*
X134951500Y-102003000D02*
G75*
G03*
X134951500Y-102003000I-100000J0D01*
G01*
D15*
%TO.C,D22*%
G36*
X107313500Y-81405500D02*
G01*
X107513500Y-81405500D01*
X107513500Y-82805500D01*
X107313500Y-82805500D01*
X107313500Y-81405500D01*
G37*
D16*
X106663500Y-81280500D02*
X106663500Y-82930500D01*
X109363500Y-81280500D02*
X106663500Y-81280500D01*
X109363500Y-82930500D02*
X109363500Y-81280500D01*
X106663500Y-82930500D02*
X109363500Y-82930500D01*
D12*
X108513500Y-81705500D02*
X107513500Y-82105500D01*
X108513500Y-82505500D02*
X108513500Y-81705500D01*
X107513500Y-82105500D02*
X108513500Y-82505500D01*
%TO.C,U1*%
D10*
X182752904Y-96607380D02*
X182752904Y-97416904D01*
X182705285Y-97512142D01*
X182657666Y-97559761D01*
X182562428Y-97607380D01*
X182371952Y-97607380D01*
X182276714Y-97559761D01*
X182229095Y-97512142D01*
X182181476Y-97416904D01*
X182181476Y-96607380D01*
X181181476Y-97607380D02*
X181752904Y-97607380D01*
X181467190Y-97607380D02*
X181467190Y-96607380D01*
X181562428Y-96750238D01*
X181657666Y-96845476D01*
X181752904Y-96893095D01*
X186372500Y-98956880D02*
X186372500Y-99194976D01*
X186610595Y-99099738D02*
X186372500Y-99194976D01*
X186134404Y-99099738D01*
X186515357Y-99385452D02*
X186372500Y-99194976D01*
X186229642Y-99385452D01*
%TO.C,U2*%
X84264404Y-80153380D02*
X84264404Y-80962904D01*
X84216785Y-81058142D01*
X84169166Y-81105761D01*
X84073928Y-81153380D01*
X83883452Y-81153380D01*
X83788214Y-81105761D01*
X83740595Y-81058142D01*
X83692976Y-80962904D01*
X83692976Y-80153380D01*
X83264404Y-80248619D02*
X83216785Y-80201000D01*
X83121547Y-80153380D01*
X82883452Y-80153380D01*
X82788214Y-80201000D01*
X82740595Y-80248619D01*
X82692976Y-80343857D01*
X82692976Y-80439095D01*
X82740595Y-80581952D01*
X83312023Y-81153380D01*
X82692976Y-81153380D01*
%TO.C,U3*%
D19*
X100320314Y-81370230D02*
X100320314Y-81995312D01*
X100283545Y-82068851D01*
X100246775Y-82105620D01*
X100173236Y-82142390D01*
X100026158Y-82142390D01*
X99952619Y-82105620D01*
X99915849Y-82068851D01*
X99879080Y-81995312D01*
X99879080Y-81370230D01*
X99584924Y-81370230D02*
X99106920Y-81370230D01*
X99364306Y-81664386D01*
X99253998Y-81664386D01*
X99180459Y-81701156D01*
X99143689Y-81737925D01*
X99106920Y-81811464D01*
X99106920Y-81995312D01*
X99143689Y-82068851D01*
X99180459Y-82105620D01*
X99253998Y-82142390D01*
X99474615Y-82142390D01*
X99548154Y-82105620D01*
X99584924Y-82068851D01*
%TO.C,D21*%
D10*
X194436880Y-102481214D02*
X193436880Y-102481214D01*
X193436880Y-102719309D01*
X193484500Y-102862166D01*
X193579738Y-102957404D01*
X193674976Y-103005023D01*
X193865452Y-103052642D01*
X194008309Y-103052642D01*
X194198785Y-103005023D01*
X194294023Y-102957404D01*
X194389261Y-102862166D01*
X194436880Y-102719309D01*
X194436880Y-102481214D01*
X193532119Y-103433595D02*
X193484500Y-103481214D01*
X193436880Y-103576452D01*
X193436880Y-103814547D01*
X193484500Y-103909785D01*
X193532119Y-103957404D01*
X193627357Y-104005023D01*
X193722595Y-104005023D01*
X193865452Y-103957404D01*
X194436880Y-103385976D01*
X194436880Y-104005023D01*
X194436880Y-104957404D02*
X194436880Y-104385976D01*
X194436880Y-104671690D02*
X193436880Y-104671690D01*
X193579738Y-104576452D01*
X193674976Y-104481214D01*
X193722595Y-104385976D01*
%TO.C,D20*%
X163194880Y-80954714D02*
X162194880Y-80954714D01*
X162194880Y-81192809D01*
X162242500Y-81335666D01*
X162337738Y-81430904D01*
X162432976Y-81478523D01*
X162623452Y-81526142D01*
X162766309Y-81526142D01*
X162956785Y-81478523D01*
X163052023Y-81430904D01*
X163147261Y-81335666D01*
X163194880Y-81192809D01*
X163194880Y-80954714D01*
X162290119Y-81907095D02*
X162242500Y-81954714D01*
X162194880Y-82049952D01*
X162194880Y-82288047D01*
X162242500Y-82383285D01*
X162290119Y-82430904D01*
X162385357Y-82478523D01*
X162480595Y-82478523D01*
X162623452Y-82430904D01*
X163194880Y-81859476D01*
X163194880Y-82478523D01*
X162194880Y-83097571D02*
X162194880Y-83192809D01*
X162242500Y-83288047D01*
X162290119Y-83335666D01*
X162385357Y-83383285D01*
X162575833Y-83430904D01*
X162813928Y-83430904D01*
X163004404Y-83383285D01*
X163099642Y-83335666D01*
X163147261Y-83288047D01*
X163194880Y-83192809D01*
X163194880Y-83097571D01*
X163147261Y-83002333D01*
X163099642Y-82954714D01*
X163004404Y-82907095D01*
X162813928Y-82859476D01*
X162575833Y-82859476D01*
X162385357Y-82907095D01*
X162290119Y-82954714D01*
X162242500Y-83002333D01*
X162194880Y-83097571D01*
%TO.C,C1*%
D19*
X88926851Y-75862189D02*
X88963620Y-75825419D01*
X89000390Y-75715111D01*
X89000390Y-75641572D01*
X88963620Y-75531263D01*
X88890081Y-75457724D01*
X88816542Y-75420954D01*
X88669464Y-75384185D01*
X88559156Y-75384185D01*
X88412078Y-75420954D01*
X88338539Y-75457724D01*
X88265000Y-75531263D01*
X88228230Y-75641572D01*
X88228230Y-75715111D01*
X88265000Y-75825419D01*
X88301769Y-75862189D01*
X89000390Y-76597579D02*
X89000390Y-76156345D01*
X89000390Y-76376962D02*
X88228230Y-76376962D01*
X88338539Y-76303423D01*
X88412078Y-76229884D01*
X88448847Y-76156345D01*
%TO.C,C2*%
X91530351Y-75862189D02*
X91567120Y-75825419D01*
X91603890Y-75715111D01*
X91603890Y-75641572D01*
X91567120Y-75531263D01*
X91493581Y-75457724D01*
X91420042Y-75420954D01*
X91272964Y-75384185D01*
X91162656Y-75384185D01*
X91015578Y-75420954D01*
X90942039Y-75457724D01*
X90868500Y-75531263D01*
X90831730Y-75641572D01*
X90831730Y-75715111D01*
X90868500Y-75825419D01*
X90905269Y-75862189D01*
X90905269Y-76156345D02*
X90868500Y-76193114D01*
X90831730Y-76266653D01*
X90831730Y-76450501D01*
X90868500Y-76524040D01*
X90905269Y-76560810D01*
X90978808Y-76597579D01*
X91052347Y-76597579D01*
X91162656Y-76560810D01*
X91603890Y-76119575D01*
X91603890Y-76597579D01*
%TO.C,C3*%
X93933191Y-81894689D02*
X93969960Y-81857919D01*
X94006730Y-81747611D01*
X94006730Y-81674072D01*
X93969960Y-81563763D01*
X93896421Y-81490224D01*
X93822882Y-81453454D01*
X93675804Y-81416685D01*
X93565496Y-81416685D01*
X93418418Y-81453454D01*
X93344879Y-81490224D01*
X93271340Y-81563763D01*
X93234570Y-81674072D01*
X93234570Y-81747611D01*
X93271340Y-81857919D01*
X93308109Y-81894689D01*
X93234570Y-82152075D02*
X93234570Y-82630079D01*
X93528726Y-82372693D01*
X93528726Y-82483001D01*
X93565496Y-82556540D01*
X93602265Y-82593310D01*
X93675804Y-82630079D01*
X93859652Y-82630079D01*
X93933191Y-82593310D01*
X93969960Y-82556540D01*
X94006730Y-82483001D01*
X94006730Y-82262384D01*
X93969960Y-82188845D01*
X93933191Y-82152075D01*
%TO.C,J1*%
D10*
X162877333Y-98699380D02*
X162877333Y-99413666D01*
X162924952Y-99556523D01*
X163020190Y-99651761D01*
X163163047Y-99699380D01*
X163258285Y-99699380D01*
X161877333Y-99699380D02*
X162448761Y-99699380D01*
X162163047Y-99699380D02*
X162163047Y-98699380D01*
X162258285Y-98842238D01*
X162353523Y-98937476D01*
X162448761Y-98985095D01*
%TO.C,R1*%
D19*
X94070230Y-77767189D02*
X93702535Y-77509802D01*
X94070230Y-77325954D02*
X93298070Y-77325954D01*
X93298070Y-77620111D01*
X93334840Y-77693650D01*
X93371609Y-77730419D01*
X93445148Y-77767189D01*
X93555457Y-77767189D01*
X93628996Y-77730419D01*
X93665765Y-77693650D01*
X93702535Y-77620111D01*
X93702535Y-77325954D01*
X94070230Y-78502579D02*
X94070230Y-78061345D01*
X94070230Y-78281962D02*
X93298070Y-78281962D01*
X93408379Y-78208423D01*
X93481918Y-78134884D01*
X93518687Y-78061345D01*
%TO.C,R2*%
X83649810Y-90260230D02*
X83907197Y-89892535D01*
X84091045Y-90260230D02*
X84091045Y-89488070D01*
X83796888Y-89488070D01*
X83723349Y-89524840D01*
X83686580Y-89561609D01*
X83649810Y-89635148D01*
X83649810Y-89745457D01*
X83686580Y-89818996D01*
X83723349Y-89855765D01*
X83796888Y-89892535D01*
X84091045Y-89892535D01*
X83355654Y-89561609D02*
X83318885Y-89524840D01*
X83245346Y-89488070D01*
X83061498Y-89488070D01*
X82987959Y-89524840D01*
X82951189Y-89561609D01*
X82914420Y-89635148D01*
X82914420Y-89708687D01*
X82951189Y-89818996D01*
X83392424Y-90260230D01*
X82914420Y-90260230D01*
%TO.C,SW20*%
X188013460Y-94567595D02*
X188050230Y-94677904D01*
X188050230Y-94861752D01*
X188013460Y-94935291D01*
X187976691Y-94972060D01*
X187903152Y-95008830D01*
X187829613Y-95008830D01*
X187756074Y-94972060D01*
X187719304Y-94935291D01*
X187682535Y-94861752D01*
X187645765Y-94714673D01*
X187608996Y-94641134D01*
X187572226Y-94604365D01*
X187498687Y-94567595D01*
X187425148Y-94567595D01*
X187351609Y-94604365D01*
X187314840Y-94641134D01*
X187278070Y-94714673D01*
X187278070Y-94898521D01*
X187314840Y-95008830D01*
X187278070Y-95266216D02*
X188050230Y-95450064D01*
X187498687Y-95597142D01*
X188050230Y-95744220D01*
X187278070Y-95928068D01*
X187351609Y-96185454D02*
X187314840Y-96222224D01*
X187278070Y-96295763D01*
X187278070Y-96479611D01*
X187314840Y-96553150D01*
X187351609Y-96589919D01*
X187425148Y-96626689D01*
X187498687Y-96626689D01*
X187608996Y-96589919D01*
X188050230Y-96148685D01*
X188050230Y-96626689D01*
X187278070Y-97104693D02*
X187278070Y-97178232D01*
X187314840Y-97251771D01*
X187351609Y-97288540D01*
X187425148Y-97325310D01*
X187572226Y-97362079D01*
X187756074Y-97362079D01*
X187903152Y-97325310D01*
X187976691Y-97288540D01*
X188013460Y-97251771D01*
X188050230Y-97178232D01*
X188050230Y-97104693D01*
X188013460Y-97031153D01*
X187976691Y-96994384D01*
X187903152Y-96957614D01*
X187756074Y-96920845D01*
X187572226Y-96920845D01*
X187425148Y-96957614D01*
X187351609Y-96994384D01*
X187314840Y-97031153D01*
X187278070Y-97104693D01*
%TO.C,J2*%
D10*
X132984833Y-98956880D02*
X132984833Y-99671166D01*
X133032452Y-99814023D01*
X133127690Y-99909261D01*
X133270547Y-99956880D01*
X133365785Y-99956880D01*
X132556261Y-99052119D02*
X132508642Y-99004500D01*
X132413404Y-98956880D01*
X132175309Y-98956880D01*
X132080071Y-99004500D01*
X132032452Y-99052119D01*
X131984833Y-99147357D01*
X131984833Y-99242595D01*
X132032452Y-99385452D01*
X132603880Y-99956880D01*
X131984833Y-99956880D01*
%TO.C,D22*%
X109201904Y-80644880D02*
X109201904Y-79644880D01*
X108963809Y-79644880D01*
X108820952Y-79692500D01*
X108725714Y-79787738D01*
X108678095Y-79882976D01*
X108630476Y-80073452D01*
X108630476Y-80216309D01*
X108678095Y-80406785D01*
X108725714Y-80502023D01*
X108820952Y-80597261D01*
X108963809Y-80644880D01*
X109201904Y-80644880D01*
X108249523Y-79740119D02*
X108201904Y-79692500D01*
X108106666Y-79644880D01*
X107868571Y-79644880D01*
X107773333Y-79692500D01*
X107725714Y-79740119D01*
X107678095Y-79835357D01*
X107678095Y-79930595D01*
X107725714Y-80073452D01*
X108297142Y-80644880D01*
X107678095Y-80644880D01*
X107297142Y-79740119D02*
X107249523Y-79692500D01*
X107154285Y-79644880D01*
X106916190Y-79644880D01*
X106820952Y-79692500D01*
X106773333Y-79740119D01*
X106725714Y-79835357D01*
X106725714Y-79930595D01*
X106773333Y-80073452D01*
X107344761Y-80644880D01*
X106725714Y-80644880D01*
%TD*%
M02*
